<?xml version="1.0" encoding="utf-8" standalone="no"?>
<!DOCTYPE svg PUBLIC "-//W3C//DTD SVG 1.1//EN"
  "http://www.w3.org/Graphics/SVG/1.1/DTD/svg11.dtd">
<svg xmlns:xlink="http://www.w3.org/1999/xlink" width="1008pt" height="576pt" viewBox="0 0 1008 576" xmlns="http://www.w3.org/2000/svg" version="1.1">
 <metadata>
  <rdf:RDF xmlns:dc="http://purl.org/dc/elements/1.1/" xmlns:cc="http://creativecommons.org/ns#" xmlns:rdf="http://www.w3.org/1999/02/22-rdf-syntax-ns#">
   <cc:Work>
    <dc:type rdf:resource="http://purl.org/dc/dcmitype/StillImage"/>
    <dc:date>2025-04-22T23:03:50.126696</dc:date>
    <dc:format>image/svg+xml</dc:format>
    <dc:creator>
     <cc:Agent>
      <dc:title>Matplotlib v3.9.2, https://matplotlib.org/</dc:title>
     </cc:Agent>
    </dc:creator>
   </cc:Work>
  </rdf:RDF>
 </metadata>
 <defs>
  <style type="text/css">*{stroke-linejoin: round; stroke-linecap: butt}</style>
 </defs>
 <g id="figure_1">
  <g id="patch_1">
   <path d="M 0 576 
L 1008 576 
L 1008 0 
L 0 0 
z
" style="fill: #ffffff"/>
  </g>
  <g id="axes_1">
   <g id="patch_2">
    <path d="M 50.87 534.04 
L 795.55 534.04 
L 795.55 26.88 
L 50.87 26.88 
z
" style="fill: #ffffff"/>
   </g>
   <g id="PolyCollection_1"/>
   <g id="PolyCollection_2"/>
   <g id="PolyCollection_3"/>
   <g id="PolyCollection_4"/>
   <g id="PolyCollection_5"/>
   <g id="PolyCollection_6"/>
   <g id="PolyCollection_7"/>
   <g id="PolyCollection_8"/>
   <g id="PolyCollection_9"/>
   <g id="PolyCollection_10"/>
   <g id="matplotlib.axis_1">
    <g id="xtick_1">
     <g id="line2d_1">
      <defs>
       <path id="m0d95574671" d="M 0 0 
L 0 3.5 
" style="stroke: #000000; stroke-width: 0.8"/>
      </defs>
      <g>
       <use xlink:href="#m0d95574671" x="84.719091" y="534.04" style="stroke: #000000; stroke-width: 0.8"/>
      </g>
     </g>
     <g id="text_1">
      <!-- 2000 -->
      <g transform="translate(71.994091 548.638438) scale(0.1 -0.1)">
       <defs>
        <path id="DejaVuSans-32" d="M 1228 531 
L 3431 531 
L 3431 0 
L 469 0 
L 469 531 
Q 828 903 1448 1529 
Q 2069 2156 2228 2338 
Q 2531 2678 2651 2914 
Q 2772 3150 2772 3378 
Q 2772 3750 2511 3984 
Q 2250 4219 1831 4219 
Q 1534 4219 1204 4116 
Q 875 4013 500 3803 
L 500 4441 
Q 881 4594 1212 4672 
Q 1544 4750 1819 4750 
Q 2544 4750 2975 4387 
Q 3406 4025 3406 3419 
Q 3406 3131 3298 2873 
Q 3191 2616 2906 2266 
Q 2828 2175 2409 1742 
Q 1991 1309 1228 531 
z
" transform="scale(0.015625)"/>
        <path id="DejaVuSans-30" d="M 2034 4250 
Q 1547 4250 1301 3770 
Q 1056 3291 1056 2328 
Q 1056 1369 1301 889 
Q 1547 409 2034 409 
Q 2525 409 2770 889 
Q 3016 1369 3016 2328 
Q 3016 3291 2770 3770 
Q 2525 4250 2034 4250 
z
M 2034 4750 
Q 2819 4750 3233 4129 
Q 3647 3509 3647 2328 
Q 3647 1150 3233 529 
Q 2819 -91 2034 -91 
Q 1250 -91 836 529 
Q 422 1150 422 2328 
Q 422 3509 836 4129 
Q 1250 4750 2034 4750 
z
" transform="scale(0.015625)"/>
       </defs>
       <use xlink:href="#DejaVuSans-32"/>
       <use xlink:href="#DejaVuSans-30" x="63.623047"/>
       <use xlink:href="#DejaVuSans-30" x="127.246094"/>
       <use xlink:href="#DejaVuSans-30" x="190.869141"/>
      </g>
     </g>
    </g>
    <g id="xtick_2">
     <g id="line2d_2">
      <g>
       <use xlink:href="#m0d95574671" x="238.578595" y="534.04" style="stroke: #000000; stroke-width: 0.8"/>
      </g>
     </g>
     <g id="text_2">
      <!-- 2005 -->
      <g transform="translate(225.853595 548.638438) scale(0.1 -0.1)">
       <defs>
        <path id="DejaVuSans-35" d="M 691 4666 
L 3169 4666 
L 3169 4134 
L 1269 4134 
L 1269 2991 
Q 1406 3038 1543 3061 
Q 1681 3084 1819 3084 
Q 2600 3084 3056 2656 
Q 3513 2228 3513 1497 
Q 3513 744 3044 326 
Q 2575 -91 1722 -91 
Q 1428 -91 1123 -41 
Q 819 9 494 109 
L 494 744 
Q 775 591 1075 516 
Q 1375 441 1709 441 
Q 2250 441 2565 725 
Q 2881 1009 2881 1497 
Q 2881 1984 2565 2268 
Q 2250 2553 1709 2553 
Q 1456 2553 1204 2497 
Q 953 2441 691 2322 
L 691 4666 
z
" transform="scale(0.015625)"/>
       </defs>
       <use xlink:href="#DejaVuSans-32"/>
       <use xlink:href="#DejaVuSans-30" x="63.623047"/>
       <use xlink:href="#DejaVuSans-30" x="127.246094"/>
       <use xlink:href="#DejaVuSans-35" x="190.869141"/>
      </g>
     </g>
    </g>
    <g id="xtick_3">
     <g id="line2d_3">
      <g>
       <use xlink:href="#m0d95574671" x="392.438099" y="534.04" style="stroke: #000000; stroke-width: 0.8"/>
      </g>
     </g>
     <g id="text_3">
      <!-- 2010 -->
      <g transform="translate(379.713099 548.638438) scale(0.1 -0.1)">
       <defs>
        <path id="DejaVuSans-31" d="M 794 531 
L 1825 531 
L 1825 4091 
L 703 3866 
L 703 4441 
L 1819 4666 
L 2450 4666 
L 2450 531 
L 3481 531 
L 3481 0 
L 794 0 
L 794 531 
z
" transform="scale(0.015625)"/>
       </defs>
       <use xlink:href="#DejaVuSans-32"/>
       <use xlink:href="#DejaVuSans-30" x="63.623047"/>
       <use xlink:href="#DejaVuSans-31" x="127.246094"/>
       <use xlink:href="#DejaVuSans-30" x="190.869141"/>
      </g>
     </g>
    </g>
    <g id="xtick_4">
     <g id="line2d_4">
      <g>
       <use xlink:href="#m0d95574671" x="546.297603" y="534.04" style="stroke: #000000; stroke-width: 0.8"/>
      </g>
     </g>
     <g id="text_4">
      <!-- 2015 -->
      <g transform="translate(533.572603 548.638438) scale(0.1 -0.1)">
       <use xlink:href="#DejaVuSans-32"/>
       <use xlink:href="#DejaVuSans-30" x="63.623047"/>
       <use xlink:href="#DejaVuSans-31" x="127.246094"/>
       <use xlink:href="#DejaVuSans-35" x="190.869141"/>
      </g>
     </g>
    </g>
    <g id="xtick_5">
     <g id="line2d_5">
      <g>
       <use xlink:href="#m0d95574671" x="700.157107" y="534.04" style="stroke: #000000; stroke-width: 0.8"/>
      </g>
     </g>
     <g id="text_5">
      <!-- 2020 -->
      <g transform="translate(687.432107 548.638438) scale(0.1 -0.1)">
       <use xlink:href="#DejaVuSans-32"/>
       <use xlink:href="#DejaVuSans-30" x="63.623047"/>
       <use xlink:href="#DejaVuSans-32" x="127.246094"/>
       <use xlink:href="#DejaVuSans-30" x="190.869141"/>
      </g>
     </g>
    </g>
    <g id="text_6">
     <!-- Year -->
     <g transform="translate(412.6225 562.316562) scale(0.1 -0.1)">
      <defs>
       <path id="DejaVuSans-59" d="M -13 4666 
L 666 4666 
L 1959 2747 
L 3244 4666 
L 3922 4666 
L 2272 2222 
L 2272 0 
L 1638 0 
L 1638 2222 
L -13 4666 
z
" transform="scale(0.015625)"/>
       <path id="DejaVuSans-65" d="M 3597 1894 
L 3597 1613 
L 953 1613 
Q 991 1019 1311 708 
Q 1631 397 2203 397 
Q 2534 397 2845 478 
Q 3156 559 3463 722 
L 3463 178 
Q 3153 47 2828 -22 
Q 2503 -91 2169 -91 
Q 1331 -91 842 396 
Q 353 884 353 1716 
Q 353 2575 817 3079 
Q 1281 3584 2069 3584 
Q 2775 3584 3186 3129 
Q 3597 2675 3597 1894 
z
M 3022 2063 
Q 3016 2534 2758 2815 
Q 2500 3097 2075 3097 
Q 1594 3097 1305 2825 
Q 1016 2553 972 2059 
L 3022 2063 
z
" transform="scale(0.015625)"/>
       <path id="DejaVuSans-61" d="M 2194 1759 
Q 1497 1759 1228 1600 
Q 959 1441 959 1056 
Q 959 750 1161 570 
Q 1363 391 1709 391 
Q 2188 391 2477 730 
Q 2766 1069 2766 1631 
L 2766 1759 
L 2194 1759 
z
M 3341 1997 
L 3341 0 
L 2766 0 
L 2766 531 
Q 2569 213 2275 61 
Q 1981 -91 1556 -91 
Q 1019 -91 701 211 
Q 384 513 384 1019 
Q 384 1609 779 1909 
Q 1175 2209 1959 2209 
L 2766 2209 
L 2766 2266 
Q 2766 2663 2505 2880 
Q 2244 3097 1772 3097 
Q 1472 3097 1187 3025 
Q 903 2953 641 2809 
L 641 3341 
Q 956 3463 1253 3523 
Q 1550 3584 1831 3584 
Q 2591 3584 2966 3190 
Q 3341 2797 3341 1997 
z
" transform="scale(0.015625)"/>
       <path id="DejaVuSans-72" d="M 2631 2963 
Q 2534 3019 2420 3045 
Q 2306 3072 2169 3072 
Q 1681 3072 1420 2755 
Q 1159 2438 1159 1844 
L 1159 0 
L 581 0 
L 581 3500 
L 1159 3500 
L 1159 2956 
Q 1341 3275 1631 3429 
Q 1922 3584 2338 3584 
Q 2397 3584 2469 3576 
Q 2541 3569 2628 3553 
L 2631 2963 
z
" transform="scale(0.015625)"/>
      </defs>
      <use xlink:href="#DejaVuSans-59"/>
      <use xlink:href="#DejaVuSans-65" x="47.833984"/>
      <use xlink:href="#DejaVuSans-61" x="109.357422"/>
      <use xlink:href="#DejaVuSans-72" x="170.636719"/>
     </g>
    </g>
   </g>
   <g id="matplotlib.axis_2">
    <g id="ytick_1">
     <g id="line2d_6">
      <defs>
       <path id="ma6fd9aa55d" d="M 0 0 
L -3.5 0 
" style="stroke: #000000; stroke-width: 0.8"/>
      </defs>
      <g>
       <use xlink:href="#ma6fd9aa55d" x="50.87" y="519.071637" style="stroke: #000000; stroke-width: 0.8"/>
      </g>
     </g>
     <g id="text_7">
      <!-- 0 -->
      <g transform="translate(37.5075 522.870855) scale(0.1 -0.1)">
       <use xlink:href="#DejaVuSans-30"/>
      </g>
     </g>
    </g>
    <g id="ytick_2">
     <g id="line2d_7">
      <g>
       <use xlink:href="#ma6fd9aa55d" x="50.87" y="450.791537" style="stroke: #000000; stroke-width: 0.8"/>
      </g>
     </g>
     <g id="text_8">
      <!-- 25 -->
      <g transform="translate(31.145 454.590756) scale(0.1 -0.1)">
       <use xlink:href="#DejaVuSans-32"/>
       <use xlink:href="#DejaVuSans-35" x="63.623047"/>
      </g>
     </g>
    </g>
    <g id="ytick_3">
     <g id="line2d_8">
      <g>
       <use xlink:href="#ma6fd9aa55d" x="50.87" y="382.511437" style="stroke: #000000; stroke-width: 0.8"/>
      </g>
     </g>
     <g id="text_9">
      <!-- 50 -->
      <g transform="translate(31.145 386.310656) scale(0.1 -0.1)">
       <use xlink:href="#DejaVuSans-35"/>
       <use xlink:href="#DejaVuSans-30" x="63.623047"/>
      </g>
     </g>
    </g>
    <g id="ytick_4">
     <g id="line2d_9">
      <g>
       <use xlink:href="#ma6fd9aa55d" x="50.87" y="314.231337" style="stroke: #000000; stroke-width: 0.8"/>
      </g>
     </g>
     <g id="text_10">
      <!-- 75 -->
      <g transform="translate(31.145 318.030556) scale(0.1 -0.1)">
       <defs>
        <path id="DejaVuSans-37" d="M 525 4666 
L 3525 4666 
L 3525 4397 
L 1831 0 
L 1172 0 
L 2766 4134 
L 525 4134 
L 525 4666 
z
" transform="scale(0.015625)"/>
       </defs>
       <use xlink:href="#DejaVuSans-37"/>
       <use xlink:href="#DejaVuSans-35" x="63.623047"/>
      </g>
     </g>
    </g>
    <g id="ytick_5">
     <g id="line2d_10">
      <g>
       <use xlink:href="#ma6fd9aa55d" x="50.87" y="245.951238" style="stroke: #000000; stroke-width: 0.8"/>
      </g>
     </g>
     <g id="text_11">
      <!-- 100 -->
      <g transform="translate(24.7825 249.750456) scale(0.1 -0.1)">
       <use xlink:href="#DejaVuSans-31"/>
       <use xlink:href="#DejaVuSans-30" x="63.623047"/>
       <use xlink:href="#DejaVuSans-30" x="127.246094"/>
      </g>
     </g>
    </g>
    <g id="ytick_6">
     <g id="line2d_11">
      <g>
       <use xlink:href="#ma6fd9aa55d" x="50.87" y="177.671138" style="stroke: #000000; stroke-width: 0.8"/>
      </g>
     </g>
     <g id="text_12">
      <!-- 125 -->
      <g transform="translate(24.7825 181.470357) scale(0.1 -0.1)">
       <use xlink:href="#DejaVuSans-31"/>
       <use xlink:href="#DejaVuSans-32" x="63.623047"/>
       <use xlink:href="#DejaVuSans-35" x="127.246094"/>
      </g>
     </g>
    </g>
    <g id="ytick_7">
     <g id="line2d_12">
      <g>
       <use xlink:href="#ma6fd9aa55d" x="50.87" y="109.391038" style="stroke: #000000; stroke-width: 0.8"/>
      </g>
     </g>
     <g id="text_13">
      <!-- 150 -->
      <g transform="translate(24.7825 113.190257) scale(0.1 -0.1)">
       <use xlink:href="#DejaVuSans-31"/>
       <use xlink:href="#DejaVuSans-35" x="63.623047"/>
       <use xlink:href="#DejaVuSans-30" x="127.246094"/>
      </g>
     </g>
    </g>
    <g id="ytick_8">
     <g id="line2d_13">
      <g>
       <use xlink:href="#ma6fd9aa55d" x="50.87" y="41.110938" style="stroke: #000000; stroke-width: 0.8"/>
      </g>
     </g>
     <g id="text_14">
      <!-- 175 -->
      <g transform="translate(24.7825 44.910157) scale(0.1 -0.1)">
       <use xlink:href="#DejaVuSans-31"/>
       <use xlink:href="#DejaVuSans-37" x="63.623047"/>
       <use xlink:href="#DejaVuSans-35" x="127.246094"/>
      </g>
     </g>
    </g>
    <g id="text_15">
     <!-- Electricity Generation -->
     <g transform="translate(18.702812 334.77875) rotate(-90) scale(0.1 -0.1)">
      <defs>
       <path id="DejaVuSans-45" d="M 628 4666 
L 3578 4666 
L 3578 4134 
L 1259 4134 
L 1259 2753 
L 3481 2753 
L 3481 2222 
L 1259 2222 
L 1259 531 
L 3634 531 
L 3634 0 
L 628 0 
L 628 4666 
z
" transform="scale(0.015625)"/>
       <path id="DejaVuSans-6c" d="M 603 4863 
L 1178 4863 
L 1178 0 
L 603 0 
L 603 4863 
z
" transform="scale(0.015625)"/>
       <path id="DejaVuSans-63" d="M 3122 3366 
L 3122 2828 
Q 2878 2963 2633 3030 
Q 2388 3097 2138 3097 
Q 1578 3097 1268 2742 
Q 959 2388 959 1747 
Q 959 1106 1268 751 
Q 1578 397 2138 397 
Q 2388 397 2633 464 
Q 2878 531 3122 666 
L 3122 134 
Q 2881 22 2623 -34 
Q 2366 -91 2075 -91 
Q 1284 -91 818 406 
Q 353 903 353 1747 
Q 353 2603 823 3093 
Q 1294 3584 2113 3584 
Q 2378 3584 2631 3529 
Q 2884 3475 3122 3366 
z
" transform="scale(0.015625)"/>
       <path id="DejaVuSans-74" d="M 1172 4494 
L 1172 3500 
L 2356 3500 
L 2356 3053 
L 1172 3053 
L 1172 1153 
Q 1172 725 1289 603 
Q 1406 481 1766 481 
L 2356 481 
L 2356 0 
L 1766 0 
Q 1100 0 847 248 
Q 594 497 594 1153 
L 594 3053 
L 172 3053 
L 172 3500 
L 594 3500 
L 594 4494 
L 1172 4494 
z
" transform="scale(0.015625)"/>
       <path id="DejaVuSans-69" d="M 603 3500 
L 1178 3500 
L 1178 0 
L 603 0 
L 603 3500 
z
M 603 4863 
L 1178 4863 
L 1178 4134 
L 603 4134 
L 603 4863 
z
" transform="scale(0.015625)"/>
       <path id="DejaVuSans-79" d="M 2059 -325 
Q 1816 -950 1584 -1140 
Q 1353 -1331 966 -1331 
L 506 -1331 
L 506 -850 
L 844 -850 
Q 1081 -850 1212 -737 
Q 1344 -625 1503 -206 
L 1606 56 
L 191 3500 
L 800 3500 
L 1894 763 
L 2988 3500 
L 3597 3500 
L 2059 -325 
z
" transform="scale(0.015625)"/>
       <path id="DejaVuSans-20" transform="scale(0.015625)"/>
       <path id="DejaVuSans-47" d="M 3809 666 
L 3809 1919 
L 2778 1919 
L 2778 2438 
L 4434 2438 
L 4434 434 
Q 4069 175 3628 42 
Q 3188 -91 2688 -91 
Q 1594 -91 976 548 
Q 359 1188 359 2328 
Q 359 3472 976 4111 
Q 1594 4750 2688 4750 
Q 3144 4750 3555 4637 
Q 3966 4525 4313 4306 
L 4313 3634 
Q 3963 3931 3569 4081 
Q 3175 4231 2741 4231 
Q 1884 4231 1454 3753 
Q 1025 3275 1025 2328 
Q 1025 1384 1454 906 
Q 1884 428 2741 428 
Q 3075 428 3337 486 
Q 3600 544 3809 666 
z
" transform="scale(0.015625)"/>
       <path id="DejaVuSans-6e" d="M 3513 2113 
L 3513 0 
L 2938 0 
L 2938 2094 
Q 2938 2591 2744 2837 
Q 2550 3084 2163 3084 
Q 1697 3084 1428 2787 
Q 1159 2491 1159 1978 
L 1159 0 
L 581 0 
L 581 3500 
L 1159 3500 
L 1159 2956 
Q 1366 3272 1645 3428 
Q 1925 3584 2291 3584 
Q 2894 3584 3203 3211 
Q 3513 2838 3513 2113 
z
" transform="scale(0.015625)"/>
       <path id="DejaVuSans-6f" d="M 1959 3097 
Q 1497 3097 1228 2736 
Q 959 2375 959 1747 
Q 959 1119 1226 758 
Q 1494 397 1959 397 
Q 2419 397 2687 759 
Q 2956 1122 2956 1747 
Q 2956 2369 2687 2733 
Q 2419 3097 1959 3097 
z
M 1959 3584 
Q 2709 3584 3137 3096 
Q 3566 2609 3566 1747 
Q 3566 888 3137 398 
Q 2709 -91 1959 -91 
Q 1206 -91 779 398 
Q 353 888 353 1747 
Q 353 2609 779 3096 
Q 1206 3584 1959 3584 
z
" transform="scale(0.015625)"/>
      </defs>
      <use xlink:href="#DejaVuSans-45"/>
      <use xlink:href="#DejaVuSans-6c" x="63.183594"/>
      <use xlink:href="#DejaVuSans-65" x="90.966797"/>
      <use xlink:href="#DejaVuSans-63" x="152.490234"/>
      <use xlink:href="#DejaVuSans-74" x="207.470703"/>
      <use xlink:href="#DejaVuSans-72" x="246.679688"/>
      <use xlink:href="#DejaVuSans-69" x="287.792969"/>
      <use xlink:href="#DejaVuSans-63" x="315.576172"/>
      <use xlink:href="#DejaVuSans-69" x="370.556641"/>
      <use xlink:href="#DejaVuSans-74" x="398.339844"/>
      <use xlink:href="#DejaVuSans-79" x="437.548828"/>
      <use xlink:href="#DejaVuSans-20" x="496.728516"/>
      <use xlink:href="#DejaVuSans-47" x="528.515625"/>
      <use xlink:href="#DejaVuSans-65" x="606.005859"/>
      <use xlink:href="#DejaVuSans-6e" x="667.529297"/>
      <use xlink:href="#DejaVuSans-65" x="730.908203"/>
      <use xlink:href="#DejaVuSans-72" x="792.431641"/>
      <use xlink:href="#DejaVuSans-61" x="833.544922"/>
      <use xlink:href="#DejaVuSans-74" x="894.824219"/>
      <use xlink:href="#DejaVuSans-69" x="934.033203"/>
      <use xlink:href="#DejaVuSans-6f" x="961.816406"/>
      <use xlink:href="#DejaVuSans-6e" x="1022.998047"/>
     </g>
    </g>
   </g>
   <g id="line2d_14">
    <path d="M 84.719091 491.623036 
L 115.490992 491.049484 
L 146.262893 490.639803 
L 177.034793 489.520009 
L 207.806694 485.587076 
L 238.578595 485.887508 
L 269.350496 484.112225 
L 300.122397 488.263656 
L 330.894298 480.343164 
L 361.666198 477.994329 
L 392.438099 474.006771 
L 423.21 479.250682 
L 453.981901 482.364255 
L 484.753802 473.296658 
L 515.525702 476.737975 
L 546.297603 478.185513 
L 577.069504 472.668481 
L 607.841405 476.847223 
L 638.613306 469.254476 
L 669.385207 473.542466 
L 700.157107 476.13711 
L 730.929008 471.603311 
L 761.700909 474.716884 
" clip-path="url(#pd8babb04e7)" style="fill: none; stroke: #1f77b4; stroke-width: 1.5; stroke-linecap: square"/>
    <defs>
     <path id="mefa6331f66" d="M 0 3 
C 0.795609 3 1.55874 2.683901 2.12132 2.12132 
C 2.683901 1.55874 3 0.795609 3 0 
C 3 -0.795609 2.683901 -1.55874 2.12132 -2.12132 
C 1.55874 -2.683901 0.795609 -3 0 -3 
C -0.795609 -3 -1.55874 -2.683901 -2.12132 -2.12132 
C -2.683901 -1.55874 -3 -0.795609 -3 0 
C -3 0.795609 -2.683901 1.55874 -2.12132 2.12132 
C -1.55874 2.683901 -0.795609 3 0 3 
z
" style="stroke: #ffffff; stroke-width: 0.75"/>
    </defs>
    <g clip-path="url(#pd8babb04e7)">
     <use xlink:href="#mefa6331f66" x="84.719091" y="491.623036" style="fill: #1f77b4; stroke: #ffffff; stroke-width: 0.75"/>
     <use xlink:href="#mefa6331f66" x="115.490992" y="491.049484" style="fill: #1f77b4; stroke: #ffffff; stroke-width: 0.75"/>
     <use xlink:href="#mefa6331f66" x="146.262893" y="490.639803" style="fill: #1f77b4; stroke: #ffffff; stroke-width: 0.75"/>
     <use xlink:href="#mefa6331f66" x="177.034793" y="489.520009" style="fill: #1f77b4; stroke: #ffffff; stroke-width: 0.75"/>
     <use xlink:href="#mefa6331f66" x="207.806694" y="485.587076" style="fill: #1f77b4; stroke: #ffffff; stroke-width: 0.75"/>
     <use xlink:href="#mefa6331f66" x="238.578595" y="485.887508" style="fill: #1f77b4; stroke: #ffffff; stroke-width: 0.75"/>
     <use xlink:href="#mefa6331f66" x="269.350496" y="484.112225" style="fill: #1f77b4; stroke: #ffffff; stroke-width: 0.75"/>
     <use xlink:href="#mefa6331f66" x="300.122397" y="488.263656" style="fill: #1f77b4; stroke: #ffffff; stroke-width: 0.75"/>
     <use xlink:href="#mefa6331f66" x="330.894298" y="480.343164" style="fill: #1f77b4; stroke: #ffffff; stroke-width: 0.75"/>
     <use xlink:href="#mefa6331f66" x="361.666198" y="477.994329" style="fill: #1f77b4; stroke: #ffffff; stroke-width: 0.75"/>
     <use xlink:href="#mefa6331f66" x="392.438099" y="474.006771" style="fill: #1f77b4; stroke: #ffffff; stroke-width: 0.75"/>
     <use xlink:href="#mefa6331f66" x="423.21" y="479.250682" style="fill: #1f77b4; stroke: #ffffff; stroke-width: 0.75"/>
     <use xlink:href="#mefa6331f66" x="453.981901" y="482.364255" style="fill: #1f77b4; stroke: #ffffff; stroke-width: 0.75"/>
     <use xlink:href="#mefa6331f66" x="484.753802" y="473.296658" style="fill: #1f77b4; stroke: #ffffff; stroke-width: 0.75"/>
     <use xlink:href="#mefa6331f66" x="515.525702" y="476.737975" style="fill: #1f77b4; stroke: #ffffff; stroke-width: 0.75"/>
     <use xlink:href="#mefa6331f66" x="546.297603" y="478.185513" style="fill: #1f77b4; stroke: #ffffff; stroke-width: 0.75"/>
     <use xlink:href="#mefa6331f66" x="577.069504" y="472.668481" style="fill: #1f77b4; stroke: #ffffff; stroke-width: 0.75"/>
     <use xlink:href="#mefa6331f66" x="607.841405" y="476.847223" style="fill: #1f77b4; stroke: #ffffff; stroke-width: 0.75"/>
     <use xlink:href="#mefa6331f66" x="638.613306" y="469.254476" style="fill: #1f77b4; stroke: #ffffff; stroke-width: 0.75"/>
     <use xlink:href="#mefa6331f66" x="669.385207" y="473.542466" style="fill: #1f77b4; stroke: #ffffff; stroke-width: 0.75"/>
     <use xlink:href="#mefa6331f66" x="700.157107" y="476.13711" style="fill: #1f77b4; stroke: #ffffff; stroke-width: 0.75"/>
     <use xlink:href="#mefa6331f66" x="730.929008" y="471.603311" style="fill: #1f77b4; stroke: #ffffff; stroke-width: 0.75"/>
     <use xlink:href="#mefa6331f66" x="761.700909" y="474.716884" style="fill: #1f77b4; stroke: #ffffff; stroke-width: 0.75"/>
    </g>
   </g>
   <g id="line2d_15">
    <path d="M 84.719091 488.31828 
L 115.490992 484.194162 
L 146.262893 484.358034 
L 177.034793 483.047056 
L 207.806694 481.135213 
L 238.578595 483.402112 
L 269.350496 483.784481 
L 300.122397 484.822339 
L 330.894298 484.16685 
L 361.666198 482.610063 
L 392.438099 478.67713 
L 423.21 488.400216 
L 453.981901 490.148186 
L 484.753802 480.971341 
L 515.525702 482.364255 
L 546.297603 488.345592 
L 577.069504 484.603842 
L 607.841405 486.870742 
L 638.613306 482.063822 
L 669.385207 484.494594 
L 700.157107 482.910496 
L 730.929008 477.775832 
L 761.700909 480.507036 
" clip-path="url(#pd8babb04e7)" style="fill: none; stroke: #ff7f0e; stroke-width: 1.5; stroke-linecap: square"/>
    <defs>
     <path id="ma822e9743d" d="M 0 3 
C 0.795609 3 1.55874 2.683901 2.12132 2.12132 
C 2.683901 1.55874 3 0.795609 3 0 
C 3 -0.795609 2.683901 -1.55874 2.12132 -2.12132 
C 1.55874 -2.683901 0.795609 -3 0 -3 
C -0.795609 -3 -1.55874 -2.683901 -2.12132 -2.12132 
C -2.683901 -1.55874 -3 -0.795609 -3 0 
C -3 0.795609 -2.683901 1.55874 -2.12132 2.12132 
C -1.55874 2.683901 -0.795609 3 0 3 
z
" style="stroke: #ffffff; stroke-width: 0.75"/>
    </defs>
    <g clip-path="url(#pd8babb04e7)">
     <use xlink:href="#ma822e9743d" x="84.719091" y="488.31828" style="fill: #ff7f0e; stroke: #ffffff; stroke-width: 0.75"/>
     <use xlink:href="#ma822e9743d" x="115.490992" y="484.194162" style="fill: #ff7f0e; stroke: #ffffff; stroke-width: 0.75"/>
     <use xlink:href="#ma822e9743d" x="146.262893" y="484.358034" style="fill: #ff7f0e; stroke: #ffffff; stroke-width: 0.75"/>
     <use xlink:href="#ma822e9743d" x="177.034793" y="483.047056" style="fill: #ff7f0e; stroke: #ffffff; stroke-width: 0.75"/>
     <use xlink:href="#ma822e9743d" x="207.806694" y="481.135213" style="fill: #ff7f0e; stroke: #ffffff; stroke-width: 0.75"/>
     <use xlink:href="#ma822e9743d" x="238.578595" y="483.402112" style="fill: #ff7f0e; stroke: #ffffff; stroke-width: 0.75"/>
     <use xlink:href="#ma822e9743d" x="269.350496" y="483.784481" style="fill: #ff7f0e; stroke: #ffffff; stroke-width: 0.75"/>
     <use xlink:href="#ma822e9743d" x="300.122397" y="484.822339" style="fill: #ff7f0e; stroke: #ffffff; stroke-width: 0.75"/>
     <use xlink:href="#ma822e9743d" x="330.894298" y="484.16685" style="fill: #ff7f0e; stroke: #ffffff; stroke-width: 0.75"/>
     <use xlink:href="#ma822e9743d" x="361.666198" y="482.610063" style="fill: #ff7f0e; stroke: #ffffff; stroke-width: 0.75"/>
     <use xlink:href="#ma822e9743d" x="392.438099" y="478.67713" style="fill: #ff7f0e; stroke: #ffffff; stroke-width: 0.75"/>
     <use xlink:href="#ma822e9743d" x="423.21" y="488.400216" style="fill: #ff7f0e; stroke: #ffffff; stroke-width: 0.75"/>
     <use xlink:href="#ma822e9743d" x="453.981901" y="490.148186" style="fill: #ff7f0e; stroke: #ffffff; stroke-width: 0.75"/>
     <use xlink:href="#ma822e9743d" x="484.753802" y="480.971341" style="fill: #ff7f0e; stroke: #ffffff; stroke-width: 0.75"/>
     <use xlink:href="#ma822e9743d" x="515.525702" y="482.364255" style="fill: #ff7f0e; stroke: #ffffff; stroke-width: 0.75"/>
     <use xlink:href="#ma822e9743d" x="546.297603" y="488.345592" style="fill: #ff7f0e; stroke: #ffffff; stroke-width: 0.75"/>
     <use xlink:href="#ma822e9743d" x="577.069504" y="484.603842" style="fill: #ff7f0e; stroke: #ffffff; stroke-width: 0.75"/>
     <use xlink:href="#ma822e9743d" x="607.841405" y="486.870742" style="fill: #ff7f0e; stroke: #ffffff; stroke-width: 0.75"/>
     <use xlink:href="#ma822e9743d" x="638.613306" y="482.063822" style="fill: #ff7f0e; stroke: #ffffff; stroke-width: 0.75"/>
     <use xlink:href="#ma822e9743d" x="669.385207" y="484.494594" style="fill: #ff7f0e; stroke: #ffffff; stroke-width: 0.75"/>
     <use xlink:href="#ma822e9743d" x="700.157107" y="482.910496" style="fill: #ff7f0e; stroke: #ffffff; stroke-width: 0.75"/>
     <use xlink:href="#ma822e9743d" x="730.929008" y="477.775832" style="fill: #ff7f0e; stroke: #ffffff; stroke-width: 0.75"/>
     <use xlink:href="#ma822e9743d" x="761.700909" y="480.507036" style="fill: #ff7f0e; stroke: #ffffff; stroke-width: 0.75"/>
    </g>
   </g>
   <g id="line2d_16">
    <path d="M 84.719091 420.748293 
L 115.490992 416.050622 
L 146.262893 411.789944 
L 177.034793 392.99926 
L 207.806694 408.676371 
L 238.578595 420.120116 
L 269.350496 394.501423 
L 300.122397 411.708008 
L 330.894298 419.054946 
L 361.666198 419.710435 
L 392.438099 412.909737 
L 423.21 422.878632 
L 453.981901 435.223674 
L 484.753802 424.18961 
L 515.525702 431.15418 
L 546.297603 440.057905 
L 577.069504 435.633355 
L 607.841405 434.322377 
L 638.613306 436.152283 
L 669.385207 438.473807 
L 700.157107 440.604146 
L 730.929008 428.778033 
L 761.700909 425.063595 
" clip-path="url(#pd8babb04e7)" style="fill: none; stroke: #2ca02c; stroke-width: 1.5; stroke-linecap: square"/>
    <defs>
     <path id="m7fbbdf3315" d="M 0 3 
C 0.795609 3 1.55874 2.683901 2.12132 2.12132 
C 2.683901 1.55874 3 0.795609 3 0 
C 3 -0.795609 2.683901 -1.55874 2.12132 -2.12132 
C 1.55874 -2.683901 0.795609 -3 0 -3 
C -0.795609 -3 -1.55874 -2.683901 -2.12132 -2.12132 
C -2.683901 -1.55874 -3 -0.795609 -3 0 
C -3 0.795609 -2.683901 1.55874 -2.12132 2.12132 
C -1.55874 2.683901 -0.795609 3 0 3 
z
" style="stroke: #ffffff; stroke-width: 0.75"/>
    </defs>
    <g clip-path="url(#pd8babb04e7)">
     <use xlink:href="#m7fbbdf3315" x="84.719091" y="420.748293" style="fill: #2ca02c; stroke: #ffffff; stroke-width: 0.75"/>
     <use xlink:href="#m7fbbdf3315" x="115.490992" y="416.050622" style="fill: #2ca02c; stroke: #ffffff; stroke-width: 0.75"/>
     <use xlink:href="#m7fbbdf3315" x="146.262893" y="411.789944" style="fill: #2ca02c; stroke: #ffffff; stroke-width: 0.75"/>
     <use xlink:href="#m7fbbdf3315" x="177.034793" y="392.99926" style="fill: #2ca02c; stroke: #ffffff; stroke-width: 0.75"/>
     <use xlink:href="#m7fbbdf3315" x="207.806694" y="408.676371" style="fill: #2ca02c; stroke: #ffffff; stroke-width: 0.75"/>
     <use xlink:href="#m7fbbdf3315" x="238.578595" y="420.120116" style="fill: #2ca02c; stroke: #ffffff; stroke-width: 0.75"/>
     <use xlink:href="#m7fbbdf3315" x="269.350496" y="394.501423" style="fill: #2ca02c; stroke: #ffffff; stroke-width: 0.75"/>
     <use xlink:href="#m7fbbdf3315" x="300.122397" y="411.708008" style="fill: #2ca02c; stroke: #ffffff; stroke-width: 0.75"/>
     <use xlink:href="#m7fbbdf3315" x="330.894298" y="419.054946" style="fill: #2ca02c; stroke: #ffffff; stroke-width: 0.75"/>
     <use xlink:href="#m7fbbdf3315" x="361.666198" y="419.710435" style="fill: #2ca02c; stroke: #ffffff; stroke-width: 0.75"/>
     <use xlink:href="#m7fbbdf3315" x="392.438099" y="412.909737" style="fill: #2ca02c; stroke: #ffffff; stroke-width: 0.75"/>
     <use xlink:href="#m7fbbdf3315" x="423.21" y="422.878632" style="fill: #2ca02c; stroke: #ffffff; stroke-width: 0.75"/>
     <use xlink:href="#m7fbbdf3315" x="453.981901" y="435.223674" style="fill: #2ca02c; stroke: #ffffff; stroke-width: 0.75"/>
     <use xlink:href="#m7fbbdf3315" x="484.753802" y="424.18961" style="fill: #2ca02c; stroke: #ffffff; stroke-width: 0.75"/>
     <use xlink:href="#m7fbbdf3315" x="515.525702" y="431.15418" style="fill: #2ca02c; stroke: #ffffff; stroke-width: 0.75"/>
     <use xlink:href="#m7fbbdf3315" x="546.297603" y="440.057905" style="fill: #2ca02c; stroke: #ffffff; stroke-width: 0.75"/>
     <use xlink:href="#m7fbbdf3315" x="577.069504" y="435.633355" style="fill: #2ca02c; stroke: #ffffff; stroke-width: 0.75"/>
     <use xlink:href="#m7fbbdf3315" x="607.841405" y="434.322377" style="fill: #2ca02c; stroke: #ffffff; stroke-width: 0.75"/>
     <use xlink:href="#m7fbbdf3315" x="638.613306" y="436.152283" style="fill: #2ca02c; stroke: #ffffff; stroke-width: 0.75"/>
     <use xlink:href="#m7fbbdf3315" x="669.385207" y="438.473807" style="fill: #2ca02c; stroke: #ffffff; stroke-width: 0.75"/>
     <use xlink:href="#m7fbbdf3315" x="700.157107" y="440.604146" style="fill: #2ca02c; stroke: #ffffff; stroke-width: 0.75"/>
     <use xlink:href="#m7fbbdf3315" x="730.929008" y="428.778033" style="fill: #2ca02c; stroke: #ffffff; stroke-width: 0.75"/>
     <use xlink:href="#m7fbbdf3315" x="761.700909" y="425.063595" style="fill: #2ca02c; stroke: #ffffff; stroke-width: 0.75"/>
    </g>
   </g>
   <g id="line2d_17">
    <path d="M 84.719091 328.46091 
L 115.490992 316.170492 
L 146.262893 314.968762 
L 177.034793 289.432005 
L 207.806694 285.280575 
L 238.578595 326.98606 
L 269.350496 294.976349 
L 300.122397 298.06261 
L 330.894298 308.823553 
L 361.666198 323.025814 
L 392.438099 299.646708 
L 423.21 319.120192 
L 453.981901 327.641549 
L 484.753802 325.210777 
L 515.525702 333.868694 
L 546.297603 332.366532 
L 577.069504 332.038787 
L 607.841405 335.725913 
L 638.613306 327.941981 
L 669.385207 332.311908 
L 700.157107 330.509313 
L 730.929008 322.780006 
L 761.700909 319.721057 
" clip-path="url(#pd8babb04e7)" style="fill: none; stroke: #d62728; stroke-width: 1.5; stroke-linecap: square"/>
    <defs>
     <path id="mfb757947b4" d="M 0 3 
C 0.795609 3 1.55874 2.683901 2.12132 2.12132 
C 2.683901 1.55874 3 0.795609 3 0 
C 3 -0.795609 2.683901 -1.55874 2.12132 -2.12132 
C 1.55874 -2.683901 0.795609 -3 0 -3 
C -0.795609 -3 -1.55874 -2.683901 -2.12132 -2.12132 
C -2.683901 -1.55874 -3 -0.795609 -3 0 
C -3 0.795609 -2.683901 1.55874 -2.12132 2.12132 
C -1.55874 2.683901 -0.795609 3 0 3 
z
" style="stroke: #ffffff; stroke-width: 0.75"/>
    </defs>
    <g clip-path="url(#pd8babb04e7)">
     <use xlink:href="#mfb757947b4" x="84.719091" y="328.46091" style="fill: #d62728; stroke: #ffffff; stroke-width: 0.75"/>
     <use xlink:href="#mfb757947b4" x="115.490992" y="316.170492" style="fill: #d62728; stroke: #ffffff; stroke-width: 0.75"/>
     <use xlink:href="#mfb757947b4" x="146.262893" y="314.968762" style="fill: #d62728; stroke: #ffffff; stroke-width: 0.75"/>
     <use xlink:href="#mfb757947b4" x="177.034793" y="289.432005" style="fill: #d62728; stroke: #ffffff; stroke-width: 0.75"/>
     <use xlink:href="#mfb757947b4" x="207.806694" y="285.280575" style="fill: #d62728; stroke: #ffffff; stroke-width: 0.75"/>
     <use xlink:href="#mfb757947b4" x="238.578595" y="326.98606" style="fill: #d62728; stroke: #ffffff; stroke-width: 0.75"/>
     <use xlink:href="#mfb757947b4" x="269.350496" y="294.976349" style="fill: #d62728; stroke: #ffffff; stroke-width: 0.75"/>
     <use xlink:href="#mfb757947b4" x="300.122397" y="298.06261" style="fill: #d62728; stroke: #ffffff; stroke-width: 0.75"/>
     <use xlink:href="#mfb757947b4" x="330.894298" y="308.823553" style="fill: #d62728; stroke: #ffffff; stroke-width: 0.75"/>
     <use xlink:href="#mfb757947b4" x="361.666198" y="323.025814" style="fill: #d62728; stroke: #ffffff; stroke-width: 0.75"/>
     <use xlink:href="#mfb757947b4" x="392.438099" y="299.646708" style="fill: #d62728; stroke: #ffffff; stroke-width: 0.75"/>
     <use xlink:href="#mfb757947b4" x="423.21" y="319.120192" style="fill: #d62728; stroke: #ffffff; stroke-width: 0.75"/>
     <use xlink:href="#mfb757947b4" x="453.981901" y="327.641549" style="fill: #d62728; stroke: #ffffff; stroke-width: 0.75"/>
     <use xlink:href="#mfb757947b4" x="484.753802" y="325.210777" style="fill: #d62728; stroke: #ffffff; stroke-width: 0.75"/>
     <use xlink:href="#mfb757947b4" x="515.525702" y="333.868694" style="fill: #d62728; stroke: #ffffff; stroke-width: 0.75"/>
     <use xlink:href="#mfb757947b4" x="546.297603" y="332.366532" style="fill: #d62728; stroke: #ffffff; stroke-width: 0.75"/>
     <use xlink:href="#mfb757947b4" x="577.069504" y="332.038787" style="fill: #d62728; stroke: #ffffff; stroke-width: 0.75"/>
     <use xlink:href="#mfb757947b4" x="607.841405" y="335.725913" style="fill: #d62728; stroke: #ffffff; stroke-width: 0.75"/>
     <use xlink:href="#mfb757947b4" x="638.613306" y="327.941981" style="fill: #d62728; stroke: #ffffff; stroke-width: 0.75"/>
     <use xlink:href="#mfb757947b4" x="669.385207" y="332.311908" style="fill: #d62728; stroke: #ffffff; stroke-width: 0.75"/>
     <use xlink:href="#mfb757947b4" x="700.157107" y="330.509313" style="fill: #d62728; stroke: #ffffff; stroke-width: 0.75"/>
     <use xlink:href="#mfb757947b4" x="730.929008" y="322.780006" style="fill: #d62728; stroke: #ffffff; stroke-width: 0.75"/>
     <use xlink:href="#mfb757947b4" x="761.700909" y="319.721057" style="fill: #d62728; stroke: #ffffff; stroke-width: 0.75"/>
    </g>
   </g>
   <g id="line2d_18">
    <path d="M 84.719091 498.287174 
L 115.490992 497.331253 
L 146.262893 496.266083 
L 177.034793 496.020275 
L 207.806694 495.719842 
L 238.578595 495.528658 
L 269.350496 492.141965 
L 300.122397 486.597621 
L 330.894298 474.443763 
L 361.666198 473.433218 
L 392.438099 473.351282 
L 423.21 473.050849 
L 453.981901 471.84912 
L 484.753802 469.937277 
L 515.525702 470.456206 
L 546.297603 468.407803 
L 577.069504 469.44566 
L 607.841405 467.615753 
L 638.613306 466.004343 
L 669.385207 466.851016 
L 700.157107 467.779626 
L 730.929008 466.468648 
L 761.700909 464.152587 
" clip-path="url(#pd8babb04e7)" style="fill: none; stroke: #9467bd; stroke-width: 1.5; stroke-linecap: square"/>
    <defs>
     <path id="m2698ea9954" d="M 0 3 
C 0.795609 3 1.55874 2.683901 2.12132 2.12132 
C 2.683901 1.55874 3 0.795609 3 0 
C 3 -0.795609 2.683901 -1.55874 2.12132 -2.12132 
C 1.55874 -2.683901 0.795609 -3 0 -3 
C -0.795609 -3 -1.55874 -2.683901 -2.12132 -2.12132 
C -2.683901 -1.55874 -3 -0.795609 -3 0 
C -3 0.795609 -2.683901 1.55874 -2.12132 2.12132 
C -1.55874 2.683901 -0.795609 3 0 3 
z
" style="stroke: #ffffff; stroke-width: 0.75"/>
    </defs>
    <g clip-path="url(#pd8babb04e7)">
     <use xlink:href="#m2698ea9954" x="84.719091" y="498.287174" style="fill: #9467bd; stroke: #ffffff; stroke-width: 0.75"/>
     <use xlink:href="#m2698ea9954" x="115.490992" y="497.331253" style="fill: #9467bd; stroke: #ffffff; stroke-width: 0.75"/>
     <use xlink:href="#m2698ea9954" x="146.262893" y="496.266083" style="fill: #9467bd; stroke: #ffffff; stroke-width: 0.75"/>
     <use xlink:href="#m2698ea9954" x="177.034793" y="496.020275" style="fill: #9467bd; stroke: #ffffff; stroke-width: 0.75"/>
     <use xlink:href="#m2698ea9954" x="207.806694" y="495.719842" style="fill: #9467bd; stroke: #ffffff; stroke-width: 0.75"/>
     <use xlink:href="#m2698ea9954" x="238.578595" y="495.528658" style="fill: #9467bd; stroke: #ffffff; stroke-width: 0.75"/>
     <use xlink:href="#m2698ea9954" x="269.350496" y="492.141965" style="fill: #9467bd; stroke: #ffffff; stroke-width: 0.75"/>
     <use xlink:href="#m2698ea9954" x="300.122397" y="486.597621" style="fill: #9467bd; stroke: #ffffff; stroke-width: 0.75"/>
     <use xlink:href="#m2698ea9954" x="330.894298" y="474.443763" style="fill: #9467bd; stroke: #ffffff; stroke-width: 0.75"/>
     <use xlink:href="#m2698ea9954" x="361.666198" y="473.433218" style="fill: #9467bd; stroke: #ffffff; stroke-width: 0.75"/>
     <use xlink:href="#m2698ea9954" x="392.438099" y="473.351282" style="fill: #9467bd; stroke: #ffffff; stroke-width: 0.75"/>
     <use xlink:href="#m2698ea9954" x="423.21" y="473.050849" style="fill: #9467bd; stroke: #ffffff; stroke-width: 0.75"/>
     <use xlink:href="#m2698ea9954" x="453.981901" y="471.84912" style="fill: #9467bd; stroke: #ffffff; stroke-width: 0.75"/>
     <use xlink:href="#m2698ea9954" x="484.753802" y="469.937277" style="fill: #9467bd; stroke: #ffffff; stroke-width: 0.75"/>
     <use xlink:href="#m2698ea9954" x="515.525702" y="470.456206" style="fill: #9467bd; stroke: #ffffff; stroke-width: 0.75"/>
     <use xlink:href="#m2698ea9954" x="546.297603" y="468.407803" style="fill: #9467bd; stroke: #ffffff; stroke-width: 0.75"/>
     <use xlink:href="#m2698ea9954" x="577.069504" y="469.44566" style="fill: #9467bd; stroke: #ffffff; stroke-width: 0.75"/>
     <use xlink:href="#m2698ea9954" x="607.841405" y="467.615753" style="fill: #9467bd; stroke: #ffffff; stroke-width: 0.75"/>
     <use xlink:href="#m2698ea9954" x="638.613306" y="466.004343" style="fill: #9467bd; stroke: #ffffff; stroke-width: 0.75"/>
     <use xlink:href="#m2698ea9954" x="669.385207" y="466.851016" style="fill: #9467bd; stroke: #ffffff; stroke-width: 0.75"/>
     <use xlink:href="#m2698ea9954" x="700.157107" y="467.779626" style="fill: #9467bd; stroke: #ffffff; stroke-width: 0.75"/>
     <use xlink:href="#m2698ea9954" x="730.929008" y="466.468648" style="fill: #9467bd; stroke: #ffffff; stroke-width: 0.75"/>
     <use xlink:href="#m2698ea9954" x="761.700909" y="464.152587" style="fill: #9467bd; stroke: #ffffff; stroke-width: 0.75"/>
    </g>
   </g>
   <g id="line2d_19">
    <path d="M 84.719091 510.987273 
L 115.490992 508.884246 
L 146.262893 508.93887 
L 177.034793 509.157366 
L 207.806694 507.928324 
L 238.578595 506.890467 
L 269.350496 506.972403 
L 300.122397 505.879921 
L 330.894298 504.978624 
L 361.666198 505.497553 
L 392.438099 504.951312 
L 423.21 503.230653 
L 453.981901 502.848285 
L 484.753802 501.264187 
L 515.525702 504.241199 
L 546.297603 502.38398 
L 577.069504 502.739037 
L 607.841405 502.902909 
L 638.613306 502.930221 
L 669.385207 501.728491 
L 700.157107 500.77257 
L 730.929008 500.199017 
L 761.700909 489.547321 
" clip-path="url(#pd8babb04e7)" style="fill: none; stroke: #8c564b; stroke-width: 1.5; stroke-linecap: square"/>
    <defs>
     <path id="m5ec545be13" d="M 0 3 
C 0.795609 3 1.55874 2.683901 2.12132 2.12132 
C 2.683901 1.55874 3 0.795609 3 0 
C 3 -0.795609 2.683901 -1.55874 2.12132 -2.12132 
C 1.55874 -2.683901 0.795609 -3 0 -3 
C -0.795609 -3 -1.55874 -2.683901 -2.12132 -2.12132 
C -2.683901 -1.55874 -3 -0.795609 -3 0 
C -3 0.795609 -2.683901 1.55874 -2.12132 2.12132 
C -1.55874 2.683901 -0.795609 3 0 3 
z
" style="stroke: #ffffff; stroke-width: 0.75"/>
    </defs>
    <g clip-path="url(#pd8babb04e7)">
     <use xlink:href="#m5ec545be13" x="84.719091" y="510.987273" style="fill: #8c564b; stroke: #ffffff; stroke-width: 0.75"/>
     <use xlink:href="#m5ec545be13" x="115.490992" y="508.884246" style="fill: #8c564b; stroke: #ffffff; stroke-width: 0.75"/>
     <use xlink:href="#m5ec545be13" x="146.262893" y="508.93887" style="fill: #8c564b; stroke: #ffffff; stroke-width: 0.75"/>
     <use xlink:href="#m5ec545be13" x="177.034793" y="509.157366" style="fill: #8c564b; stroke: #ffffff; stroke-width: 0.75"/>
     <use xlink:href="#m5ec545be13" x="207.806694" y="507.928324" style="fill: #8c564b; stroke: #ffffff; stroke-width: 0.75"/>
     <use xlink:href="#m5ec545be13" x="238.578595" y="506.890467" style="fill: #8c564b; stroke: #ffffff; stroke-width: 0.75"/>
     <use xlink:href="#m5ec545be13" x="269.350496" y="506.972403" style="fill: #8c564b; stroke: #ffffff; stroke-width: 0.75"/>
     <use xlink:href="#m5ec545be13" x="300.122397" y="505.879921" style="fill: #8c564b; stroke: #ffffff; stroke-width: 0.75"/>
     <use xlink:href="#m5ec545be13" x="330.894298" y="504.978624" style="fill: #8c564b; stroke: #ffffff; stroke-width: 0.75"/>
     <use xlink:href="#m5ec545be13" x="361.666198" y="505.497553" style="fill: #8c564b; stroke: #ffffff; stroke-width: 0.75"/>
     <use xlink:href="#m5ec545be13" x="392.438099" y="504.951312" style="fill: #8c564b; stroke: #ffffff; stroke-width: 0.75"/>
     <use xlink:href="#m5ec545be13" x="423.21" y="503.230653" style="fill: #8c564b; stroke: #ffffff; stroke-width: 0.75"/>
     <use xlink:href="#m5ec545be13" x="453.981901" y="502.848285" style="fill: #8c564b; stroke: #ffffff; stroke-width: 0.75"/>
     <use xlink:href="#m5ec545be13" x="484.753802" y="501.264187" style="fill: #8c564b; stroke: #ffffff; stroke-width: 0.75"/>
     <use xlink:href="#m5ec545be13" x="515.525702" y="504.241199" style="fill: #8c564b; stroke: #ffffff; stroke-width: 0.75"/>
     <use xlink:href="#m5ec545be13" x="546.297603" y="502.38398" style="fill: #8c564b; stroke: #ffffff; stroke-width: 0.75"/>
     <use xlink:href="#m5ec545be13" x="577.069504" y="502.739037" style="fill: #8c564b; stroke: #ffffff; stroke-width: 0.75"/>
     <use xlink:href="#m5ec545be13" x="607.841405" y="502.902909" style="fill: #8c564b; stroke: #ffffff; stroke-width: 0.75"/>
     <use xlink:href="#m5ec545be13" x="638.613306" y="502.930221" style="fill: #8c564b; stroke: #ffffff; stroke-width: 0.75"/>
     <use xlink:href="#m5ec545be13" x="669.385207" y="501.728491" style="fill: #8c564b; stroke: #ffffff; stroke-width: 0.75"/>
     <use xlink:href="#m5ec545be13" x="700.157107" y="500.77257" style="fill: #8c564b; stroke: #ffffff; stroke-width: 0.75"/>
     <use xlink:href="#m5ec545be13" x="730.929008" y="500.199017" style="fill: #8c564b; stroke: #ffffff; stroke-width: 0.75"/>
     <use xlink:href="#m5ec545be13" x="761.700909" y="489.547321" style="fill: #8c564b; stroke: #ffffff; stroke-width: 0.75"/>
    </g>
   </g>
   <g id="line2d_20">
    <path d="M 84.719091 500.472137 
L 115.490992 501.673867 
L 146.262893 502.438604 
L 177.034793 500.690634 
L 207.806694 500.881818 
L 238.578595 500.117081 
L 269.350496 499.925897 
L 300.122397 501.318811 
L 330.894298 501.837739 
L 361.666198 500.444825 
L 392.438099 499.243096 
L 423.21 500.608698 
L 453.981901 501.9743 
L 484.753802 502.438604 
L 515.525702 504.377759 
L 546.297603 503.640334 
L 577.069504 503.694958 
L 607.841405 503.776894 
L 638.613306 503.749582 
L 669.385207 503.039469 
L 700.157107 504.487007 
L 730.929008 504.022703 
L 761.700909 499.980521 
" clip-path="url(#pd8babb04e7)" style="fill: none; stroke: #e377c2; stroke-width: 1.5; stroke-linecap: square"/>
    <defs>
     <path id="m7564c6870f" d="M 0 3 
C 0.795609 3 1.55874 2.683901 2.12132 2.12132 
C 2.683901 1.55874 3 0.795609 3 0 
C 3 -0.795609 2.683901 -1.55874 2.12132 -2.12132 
C 1.55874 -2.683901 0.795609 -3 0 -3 
C -0.795609 -3 -1.55874 -2.683901 -2.12132 -2.12132 
C -2.683901 -1.55874 -3 -0.795609 -3 0 
C -3 0.795609 -2.683901 1.55874 -2.12132 2.12132 
C -1.55874 2.683901 -0.795609 3 0 3 
z
" style="stroke: #ffffff; stroke-width: 0.75"/>
    </defs>
    <g clip-path="url(#pd8babb04e7)">
     <use xlink:href="#m7564c6870f" x="84.719091" y="500.472137" style="fill: #e377c2; stroke: #ffffff; stroke-width: 0.75"/>
     <use xlink:href="#m7564c6870f" x="115.490992" y="501.673867" style="fill: #e377c2; stroke: #ffffff; stroke-width: 0.75"/>
     <use xlink:href="#m7564c6870f" x="146.262893" y="502.438604" style="fill: #e377c2; stroke: #ffffff; stroke-width: 0.75"/>
     <use xlink:href="#m7564c6870f" x="177.034793" y="500.690634" style="fill: #e377c2; stroke: #ffffff; stroke-width: 0.75"/>
     <use xlink:href="#m7564c6870f" x="207.806694" y="500.881818" style="fill: #e377c2; stroke: #ffffff; stroke-width: 0.75"/>
     <use xlink:href="#m7564c6870f" x="238.578595" y="500.117081" style="fill: #e377c2; stroke: #ffffff; stroke-width: 0.75"/>
     <use xlink:href="#m7564c6870f" x="269.350496" y="499.925897" style="fill: #e377c2; stroke: #ffffff; stroke-width: 0.75"/>
     <use xlink:href="#m7564c6870f" x="300.122397" y="501.318811" style="fill: #e377c2; stroke: #ffffff; stroke-width: 0.75"/>
     <use xlink:href="#m7564c6870f" x="330.894298" y="501.837739" style="fill: #e377c2; stroke: #ffffff; stroke-width: 0.75"/>
     <use xlink:href="#m7564c6870f" x="361.666198" y="500.444825" style="fill: #e377c2; stroke: #ffffff; stroke-width: 0.75"/>
     <use xlink:href="#m7564c6870f" x="392.438099" y="499.243096" style="fill: #e377c2; stroke: #ffffff; stroke-width: 0.75"/>
     <use xlink:href="#m7564c6870f" x="423.21" y="500.608698" style="fill: #e377c2; stroke: #ffffff; stroke-width: 0.75"/>
     <use xlink:href="#m7564c6870f" x="453.981901" y="501.9743" style="fill: #e377c2; stroke: #ffffff; stroke-width: 0.75"/>
     <use xlink:href="#m7564c6870f" x="484.753802" y="502.438604" style="fill: #e377c2; stroke: #ffffff; stroke-width: 0.75"/>
     <use xlink:href="#m7564c6870f" x="515.525702" y="504.377759" style="fill: #e377c2; stroke: #ffffff; stroke-width: 0.75"/>
     <use xlink:href="#m7564c6870f" x="546.297603" y="503.640334" style="fill: #e377c2; stroke: #ffffff; stroke-width: 0.75"/>
     <use xlink:href="#m7564c6870f" x="577.069504" y="503.694958" style="fill: #e377c2; stroke: #ffffff; stroke-width: 0.75"/>
     <use xlink:href="#m7564c6870f" x="607.841405" y="503.776894" style="fill: #e377c2; stroke: #ffffff; stroke-width: 0.75"/>
     <use xlink:href="#m7564c6870f" x="638.613306" y="503.749582" style="fill: #e377c2; stroke: #ffffff; stroke-width: 0.75"/>
     <use xlink:href="#m7564c6870f" x="669.385207" y="503.039469" style="fill: #e377c2; stroke: #ffffff; stroke-width: 0.75"/>
     <use xlink:href="#m7564c6870f" x="700.157107" y="504.487007" style="fill: #e377c2; stroke: #ffffff; stroke-width: 0.75"/>
     <use xlink:href="#m7564c6870f" x="730.929008" y="504.022703" style="fill: #e377c2; stroke: #ffffff; stroke-width: 0.75"/>
     <use xlink:href="#m7564c6870f" x="761.700909" y="499.980521" style="fill: #e377c2; stroke: #ffffff; stroke-width: 0.75"/>
    </g>
   </g>
   <g id="line2d_21">
    <path d="M 84.719091 130.066252 
L 115.490992 188.158961 
L 146.262893 163.687373 
L 177.034793 227.952603 
L 207.806694 218.693822 
L 238.578595 144.62357 
L 269.350496 188.350145 
L 300.122397 147.791766 
L 330.894298 133.91725 
L 361.666198 161.557034 
L 392.438099 182.887737 
L 423.21 174.366381 
L 453.981901 118.813692 
L 484.753802 155.084081 
L 515.525702 134.135746 
L 546.297603 128.345594 
L 577.069504 114.49839 
L 607.841405 113.733652 
L 638.613306 120.26123 
L 669.385207 153.554607 
L 700.157107 97.674173 
L 730.929008 89.808306 
L 761.700909 102.071411 
" clip-path="url(#pd8babb04e7)" style="fill: none; stroke: #7f7f7f; stroke-width: 1.5; stroke-linecap: square"/>
    <defs>
     <path id="m9cf3a246af" d="M 0 3 
C 0.795609 3 1.55874 2.683901 2.12132 2.12132 
C 2.683901 1.55874 3 0.795609 3 0 
C 3 -0.795609 2.683901 -1.55874 2.12132 -2.12132 
C 1.55874 -2.683901 0.795609 -3 0 -3 
C -0.795609 -3 -1.55874 -2.683901 -2.12132 -2.12132 
C -2.683901 -1.55874 -3 -0.795609 -3 0 
C -3 0.795609 -2.683901 1.55874 -2.12132 2.12132 
C -1.55874 2.683901 -0.795609 3 0 3 
z
" style="stroke: #ffffff; stroke-width: 0.75"/>
    </defs>
    <g clip-path="url(#pd8babb04e7)">
     <use xlink:href="#m9cf3a246af" x="84.719091" y="130.066252" style="fill: #7f7f7f; stroke: #ffffff; stroke-width: 0.75"/>
     <use xlink:href="#m9cf3a246af" x="115.490992" y="188.158961" style="fill: #7f7f7f; stroke: #ffffff; stroke-width: 0.75"/>
     <use xlink:href="#m9cf3a246af" x="146.262893" y="163.687373" style="fill: #7f7f7f; stroke: #ffffff; stroke-width: 0.75"/>
     <use xlink:href="#m9cf3a246af" x="177.034793" y="227.952603" style="fill: #7f7f7f; stroke: #ffffff; stroke-width: 0.75"/>
     <use xlink:href="#m9cf3a246af" x="207.806694" y="218.693822" style="fill: #7f7f7f; stroke: #ffffff; stroke-width: 0.75"/>
     <use xlink:href="#m9cf3a246af" x="238.578595" y="144.62357" style="fill: #7f7f7f; stroke: #ffffff; stroke-width: 0.75"/>
     <use xlink:href="#m9cf3a246af" x="269.350496" y="188.350145" style="fill: #7f7f7f; stroke: #ffffff; stroke-width: 0.75"/>
     <use xlink:href="#m9cf3a246af" x="300.122397" y="147.791766" style="fill: #7f7f7f; stroke: #ffffff; stroke-width: 0.75"/>
     <use xlink:href="#m9cf3a246af" x="330.894298" y="133.91725" style="fill: #7f7f7f; stroke: #ffffff; stroke-width: 0.75"/>
     <use xlink:href="#m9cf3a246af" x="361.666198" y="161.557034" style="fill: #7f7f7f; stroke: #ffffff; stroke-width: 0.75"/>
     <use xlink:href="#m9cf3a246af" x="392.438099" y="182.887737" style="fill: #7f7f7f; stroke: #ffffff; stroke-width: 0.75"/>
     <use xlink:href="#m9cf3a246af" x="423.21" y="174.366381" style="fill: #7f7f7f; stroke: #ffffff; stroke-width: 0.75"/>
     <use xlink:href="#m9cf3a246af" x="453.981901" y="118.813692" style="fill: #7f7f7f; stroke: #ffffff; stroke-width: 0.75"/>
     <use xlink:href="#m9cf3a246af" x="484.753802" y="155.084081" style="fill: #7f7f7f; stroke: #ffffff; stroke-width: 0.75"/>
     <use xlink:href="#m9cf3a246af" x="515.525702" y="134.135746" style="fill: #7f7f7f; stroke: #ffffff; stroke-width: 0.75"/>
     <use xlink:href="#m9cf3a246af" x="546.297603" y="128.345594" style="fill: #7f7f7f; stroke: #ffffff; stroke-width: 0.75"/>
     <use xlink:href="#m9cf3a246af" x="577.069504" y="114.49839" style="fill: #7f7f7f; stroke: #ffffff; stroke-width: 0.75"/>
     <use xlink:href="#m9cf3a246af" x="607.841405" y="113.733652" style="fill: #7f7f7f; stroke: #ffffff; stroke-width: 0.75"/>
     <use xlink:href="#m9cf3a246af" x="638.613306" y="120.26123" style="fill: #7f7f7f; stroke: #ffffff; stroke-width: 0.75"/>
     <use xlink:href="#m9cf3a246af" x="669.385207" y="153.554607" style="fill: #7f7f7f; stroke: #ffffff; stroke-width: 0.75"/>
     <use xlink:href="#m9cf3a246af" x="700.157107" y="97.674173" style="fill: #7f7f7f; stroke: #ffffff; stroke-width: 0.75"/>
     <use xlink:href="#m9cf3a246af" x="730.929008" y="89.808306" style="fill: #7f7f7f; stroke: #ffffff; stroke-width: 0.75"/>
     <use xlink:href="#m9cf3a246af" x="761.700909" y="102.071411" style="fill: #7f7f7f; stroke: #ffffff; stroke-width: 0.75"/>
    </g>
   </g>
   <g id="line2d_22">
    <path d="M 84.719091 431.809669 
L 115.490992 430.116323 
L 146.262893 428.286416 
L 177.034793 425.500588 
L 207.806694 417.49816 
L 238.578595 421.130661 
L 269.350496 421.103349 
L 300.122397 420.830229 
L 330.894298 418.508706 
L 361.666198 416.077934 
L 392.438099 416.869983 
L 423.21 415.231261 
L 453.981901 420.229364 
L 484.753802 411.926504 
L 515.525702 427.740175 
L 546.297603 416.405679 
L 577.069504 413.619851 
L 607.841405 419.546563 
L 638.613306 418.918386 
L 669.385207 418.399457 
L 700.157107 417.388912 
L 730.929008 416.569551 
L 761.700909 420.256676 
" clip-path="url(#pd8babb04e7)" style="fill: none; stroke: #bcbd22; stroke-width: 1.5; stroke-linecap: square"/>
    <defs>
     <path id="mb374059980" d="M 0 3 
C 0.795609 3 1.55874 2.683901 2.12132 2.12132 
C 2.683901 1.55874 3 0.795609 3 0 
C 3 -0.795609 2.683901 -1.55874 2.12132 -2.12132 
C 1.55874 -2.683901 0.795609 -3 0 -3 
C -0.795609 -3 -1.55874 -2.683901 -2.12132 -2.12132 
C -2.683901 -1.55874 -3 -0.795609 -3 0 
C -3 0.795609 -2.683901 1.55874 -2.12132 2.12132 
C -1.55874 2.683901 -0.795609 3 0 3 
z
" style="stroke: #ffffff; stroke-width: 0.75"/>
    </defs>
    <g clip-path="url(#pd8babb04e7)">
     <use xlink:href="#mb374059980" x="84.719091" y="431.809669" style="fill: #bcbd22; stroke: #ffffff; stroke-width: 0.75"/>
     <use xlink:href="#mb374059980" x="115.490992" y="430.116323" style="fill: #bcbd22; stroke: #ffffff; stroke-width: 0.75"/>
     <use xlink:href="#mb374059980" x="146.262893" y="428.286416" style="fill: #bcbd22; stroke: #ffffff; stroke-width: 0.75"/>
     <use xlink:href="#mb374059980" x="177.034793" y="425.500588" style="fill: #bcbd22; stroke: #ffffff; stroke-width: 0.75"/>
     <use xlink:href="#mb374059980" x="207.806694" y="417.49816" style="fill: #bcbd22; stroke: #ffffff; stroke-width: 0.75"/>
     <use xlink:href="#mb374059980" x="238.578595" y="421.130661" style="fill: #bcbd22; stroke: #ffffff; stroke-width: 0.75"/>
     <use xlink:href="#mb374059980" x="269.350496" y="421.103349" style="fill: #bcbd22; stroke: #ffffff; stroke-width: 0.75"/>
     <use xlink:href="#mb374059980" x="300.122397" y="420.830229" style="fill: #bcbd22; stroke: #ffffff; stroke-width: 0.75"/>
     <use xlink:href="#mb374059980" x="330.894298" y="418.508706" style="fill: #bcbd22; stroke: #ffffff; stroke-width: 0.75"/>
     <use xlink:href="#mb374059980" x="361.666198" y="416.077934" style="fill: #bcbd22; stroke: #ffffff; stroke-width: 0.75"/>
     <use xlink:href="#mb374059980" x="392.438099" y="416.869983" style="fill: #bcbd22; stroke: #ffffff; stroke-width: 0.75"/>
     <use xlink:href="#mb374059980" x="423.21" y="415.231261" style="fill: #bcbd22; stroke: #ffffff; stroke-width: 0.75"/>
     <use xlink:href="#mb374059980" x="453.981901" y="420.229364" style="fill: #bcbd22; stroke: #ffffff; stroke-width: 0.75"/>
     <use xlink:href="#mb374059980" x="484.753802" y="411.926504" style="fill: #bcbd22; stroke: #ffffff; stroke-width: 0.75"/>
     <use xlink:href="#mb374059980" x="515.525702" y="427.740175" style="fill: #bcbd22; stroke: #ffffff; stroke-width: 0.75"/>
     <use xlink:href="#mb374059980" x="546.297603" y="416.405679" style="fill: #bcbd22; stroke: #ffffff; stroke-width: 0.75"/>
     <use xlink:href="#mb374059980" x="577.069504" y="413.619851" style="fill: #bcbd22; stroke: #ffffff; stroke-width: 0.75"/>
     <use xlink:href="#mb374059980" x="607.841405" y="419.546563" style="fill: #bcbd22; stroke: #ffffff; stroke-width: 0.75"/>
     <use xlink:href="#mb374059980" x="638.613306" y="418.918386" style="fill: #bcbd22; stroke: #ffffff; stroke-width: 0.75"/>
     <use xlink:href="#mb374059980" x="669.385207" y="418.399457" style="fill: #bcbd22; stroke: #ffffff; stroke-width: 0.75"/>
     <use xlink:href="#mb374059980" x="700.157107" y="417.388912" style="fill: #bcbd22; stroke: #ffffff; stroke-width: 0.75"/>
     <use xlink:href="#mb374059980" x="730.929008" y="416.569551" style="fill: #bcbd22; stroke: #ffffff; stroke-width: 0.75"/>
     <use xlink:href="#mb374059980" x="761.700909" y="420.256676" style="fill: #bcbd22; stroke: #ffffff; stroke-width: 0.75"/>
    </g>
   </g>
   <g id="line2d_23">
    <path d="M 84.719091 122.418881 
L 115.490992 77.709072 
L 146.262893 118.404011 
L 177.034793 149.293928 
L 207.806694 104.775303 
L 238.578595 86.530861 
L 269.350496 127.744729 
L 300.122397 112.613859 
L 330.894298 109.664159 
L 361.666198 145.989172 
L 392.438099 113.624404 
L 423.21 108.626301 
L 453.981901 64.517357 
L 484.753802 101.11549 
L 515.525702 99.695264 
L 546.297603 76.61659 
L 577.069504 93.304247 
L 607.841405 70.526005 
L 638.613306 72.902153 
L 669.385207 59.082261 
L 700.157107 71.727735 
L 730.929008 49.932727 
L 761.700909 50.178536 
" clip-path="url(#pd8babb04e7)" style="fill: none; stroke: #17becf; stroke-width: 1.5; stroke-linecap: square"/>
    <defs>
     <path id="m535b92e539" d="M 0 3 
C 0.795609 3 1.55874 2.683901 2.12132 2.12132 
C 2.683901 1.55874 3 0.795609 3 0 
C 3 -0.795609 2.683901 -1.55874 2.12132 -2.12132 
C 1.55874 -2.683901 0.795609 -3 0 -3 
C -0.795609 -3 -1.55874 -2.683901 -2.12132 -2.12132 
C -2.683901 -1.55874 -3 -0.795609 -3 0 
C -3 0.795609 -2.683901 1.55874 -2.12132 2.12132 
C -1.55874 2.683901 -0.795609 3 0 3 
z
" style="stroke: #ffffff; stroke-width: 0.75"/>
    </defs>
    <g clip-path="url(#pd8babb04e7)">
     <use xlink:href="#m535b92e539" x="84.719091" y="122.418881" style="fill: #17becf; stroke: #ffffff; stroke-width: 0.75"/>
     <use xlink:href="#m535b92e539" x="115.490992" y="77.709072" style="fill: #17becf; stroke: #ffffff; stroke-width: 0.75"/>
     <use xlink:href="#m535b92e539" x="146.262893" y="118.404011" style="fill: #17becf; stroke: #ffffff; stroke-width: 0.75"/>
     <use xlink:href="#m535b92e539" x="177.034793" y="149.293928" style="fill: #17becf; stroke: #ffffff; stroke-width: 0.75"/>
     <use xlink:href="#m535b92e539" x="207.806694" y="104.775303" style="fill: #17becf; stroke: #ffffff; stroke-width: 0.75"/>
     <use xlink:href="#m535b92e539" x="238.578595" y="86.530861" style="fill: #17becf; stroke: #ffffff; stroke-width: 0.75"/>
     <use xlink:href="#m535b92e539" x="269.350496" y="127.744729" style="fill: #17becf; stroke: #ffffff; stroke-width: 0.75"/>
     <use xlink:href="#m535b92e539" x="300.122397" y="112.613859" style="fill: #17becf; stroke: #ffffff; stroke-width: 0.75"/>
     <use xlink:href="#m535b92e539" x="330.894298" y="109.664159" style="fill: #17becf; stroke: #ffffff; stroke-width: 0.75"/>
     <use xlink:href="#m535b92e539" x="361.666198" y="145.989172" style="fill: #17becf; stroke: #ffffff; stroke-width: 0.75"/>
     <use xlink:href="#m535b92e539" x="392.438099" y="113.624404" style="fill: #17becf; stroke: #ffffff; stroke-width: 0.75"/>
     <use xlink:href="#m535b92e539" x="423.21" y="108.626301" style="fill: #17becf; stroke: #ffffff; stroke-width: 0.75"/>
     <use xlink:href="#m535b92e539" x="453.981901" y="64.517357" style="fill: #17becf; stroke: #ffffff; stroke-width: 0.75"/>
     <use xlink:href="#m535b92e539" x="484.753802" y="101.11549" style="fill: #17becf; stroke: #ffffff; stroke-width: 0.75"/>
     <use xlink:href="#m535b92e539" x="515.525702" y="99.695264" style="fill: #17becf; stroke: #ffffff; stroke-width: 0.75"/>
     <use xlink:href="#m535b92e539" x="546.297603" y="76.61659" style="fill: #17becf; stroke: #ffffff; stroke-width: 0.75"/>
     <use xlink:href="#m535b92e539" x="577.069504" y="93.304247" style="fill: #17becf; stroke: #ffffff; stroke-width: 0.75"/>
     <use xlink:href="#m535b92e539" x="607.841405" y="70.526005" style="fill: #17becf; stroke: #ffffff; stroke-width: 0.75"/>
     <use xlink:href="#m535b92e539" x="638.613306" y="72.902153" style="fill: #17becf; stroke: #ffffff; stroke-width: 0.75"/>
     <use xlink:href="#m535b92e539" x="669.385207" y="59.082261" style="fill: #17becf; stroke: #ffffff; stroke-width: 0.75"/>
     <use xlink:href="#m535b92e539" x="700.157107" y="71.727735" style="fill: #17becf; stroke: #ffffff; stroke-width: 0.75"/>
     <use xlink:href="#m535b92e539" x="730.929008" y="49.932727" style="fill: #17becf; stroke: #ffffff; stroke-width: 0.75"/>
     <use xlink:href="#m535b92e539" x="761.700909" y="50.178536" style="fill: #17becf; stroke: #ffffff; stroke-width: 0.75"/>
    </g>
   </g>
   <g id="line2d_24"/>
   <g id="line2d_25"/>
   <g id="line2d_26"/>
   <g id="line2d_27"/>
   <g id="line2d_28"/>
   <g id="line2d_29"/>
   <g id="line2d_30"/>
   <g id="line2d_31"/>
   <g id="line2d_32"/>
   <g id="line2d_33"/>
   <g id="patch_3">
    <path d="M 50.87 534.04 
L 50.87 26.88 
" style="fill: none; stroke: #000000; stroke-width: 0.8; stroke-linejoin: miter; stroke-linecap: square"/>
   </g>
   <g id="patch_4">
    <path d="M 795.55 534.04 
L 795.55 26.88 
" style="fill: none; stroke: #000000; stroke-width: 0.8; stroke-linejoin: miter; stroke-linecap: square"/>
   </g>
   <g id="patch_5">
    <path d="M 50.87 534.04 
L 795.55 534.04 
" style="fill: none; stroke: #000000; stroke-width: 0.8; stroke-linejoin: miter; stroke-linecap: square"/>
   </g>
   <g id="patch_6">
    <path d="M 50.87 26.88 
L 795.55 26.88 
" style="fill: none; stroke: #000000; stroke-width: 0.8; stroke-linejoin: miter; stroke-linecap: square"/>
   </g>
   <g id="text_16">
    <!-- Electricity Generation Trend (20002023) -->
    <g transform="translate(299.577188 20.88) scale(0.12 -0.12)">
     <defs>
      <path id="DejaVuSans-54" d="M -19 4666 
L 3928 4666 
L 3928 4134 
L 2272 4134 
L 2272 0 
L 1638 0 
L 1638 4134 
L -19 4134 
L -19 4666 
z
" transform="scale(0.015625)"/>
      <path id="DejaVuSans-64" d="M 2906 2969 
L 2906 4863 
L 3481 4863 
L 3481 0 
L 2906 0 
L 2906 525 
Q 2725 213 2448 61 
Q 2172 -91 1784 -91 
Q 1150 -91 751 415 
Q 353 922 353 1747 
Q 353 2572 751 3078 
Q 1150 3584 1784 3584 
Q 2172 3584 2448 3432 
Q 2725 3281 2906 2969 
z
M 947 1747 
Q 947 1113 1208 752 
Q 1469 391 1925 391 
Q 2381 391 2643 752 
Q 2906 1113 2906 1747 
Q 2906 2381 2643 2742 
Q 2381 3103 1925 3103 
Q 1469 3103 1208 2742 
Q 947 2381 947 1747 
z
" transform="scale(0.015625)"/>
      <path id="DejaVuSans-28" d="M 1984 4856 
Q 1566 4138 1362 3434 
Q 1159 2731 1159 2009 
Q 1159 1288 1364 580 
Q 1569 -128 1984 -844 
L 1484 -844 
Q 1016 -109 783 600 
Q 550 1309 550 2009 
Q 550 2706 781 3412 
Q 1013 4119 1484 4856 
L 1984 4856 
z
" transform="scale(0.015625)"/>
      <path id="DejaVuSans-2013" d="M 313 1978 
L 2888 1978 
L 2888 1528 
L 313 1528 
L 313 1978 
z
" transform="scale(0.015625)"/>
      <path id="DejaVuSans-33" d="M 2597 2516 
Q 3050 2419 3304 2112 
Q 3559 1806 3559 1356 
Q 3559 666 3084 287 
Q 2609 -91 1734 -91 
Q 1441 -91 1130 -33 
Q 819 25 488 141 
L 488 750 
Q 750 597 1062 519 
Q 1375 441 1716 441 
Q 2309 441 2620 675 
Q 2931 909 2931 1356 
Q 2931 1769 2642 2001 
Q 2353 2234 1838 2234 
L 1294 2234 
L 1294 2753 
L 1863 2753 
Q 2328 2753 2575 2939 
Q 2822 3125 2822 3475 
Q 2822 3834 2567 4026 
Q 2313 4219 1838 4219 
Q 1578 4219 1281 4162 
Q 984 4106 628 3988 
L 628 4550 
Q 988 4650 1302 4700 
Q 1616 4750 1894 4750 
Q 2613 4750 3031 4423 
Q 3450 4097 3450 3541 
Q 3450 3153 3228 2886 
Q 3006 2619 2597 2516 
z
" transform="scale(0.015625)"/>
      <path id="DejaVuSans-29" d="M 513 4856 
L 1013 4856 
Q 1481 4119 1714 3412 
Q 1947 2706 1947 2009 
Q 1947 1309 1714 600 
Q 1481 -109 1013 -844 
L 513 -844 
Q 928 -128 1133 580 
Q 1338 1288 1338 2009 
Q 1338 2731 1133 3434 
Q 928 4138 513 4856 
z
" transform="scale(0.015625)"/>
     </defs>
     <use xlink:href="#DejaVuSans-45"/>
     <use xlink:href="#DejaVuSans-6c" x="63.183594"/>
     <use xlink:href="#DejaVuSans-65" x="90.966797"/>
     <use xlink:href="#DejaVuSans-63" x="152.490234"/>
     <use xlink:href="#DejaVuSans-74" x="207.470703"/>
     <use xlink:href="#DejaVuSans-72" x="246.679688"/>
     <use xlink:href="#DejaVuSans-69" x="287.792969"/>
     <use xlink:href="#DejaVuSans-63" x="315.576172"/>
     <use xlink:href="#DejaVuSans-69" x="370.556641"/>
     <use xlink:href="#DejaVuSans-74" x="398.339844"/>
     <use xlink:href="#DejaVuSans-79" x="437.548828"/>
     <use xlink:href="#DejaVuSans-20" x="496.728516"/>
     <use xlink:href="#DejaVuSans-47" x="528.515625"/>
     <use xlink:href="#DejaVuSans-65" x="606.005859"/>
     <use xlink:href="#DejaVuSans-6e" x="667.529297"/>
     <use xlink:href="#DejaVuSans-65" x="730.908203"/>
     <use xlink:href="#DejaVuSans-72" x="792.431641"/>
     <use xlink:href="#DejaVuSans-61" x="833.544922"/>
     <use xlink:href="#DejaVuSans-74" x="894.824219"/>
     <use xlink:href="#DejaVuSans-69" x="934.033203"/>
     <use xlink:href="#DejaVuSans-6f" x="961.816406"/>
     <use xlink:href="#DejaVuSans-6e" x="1022.998047"/>
     <use xlink:href="#DejaVuSans-20" x="1086.376953"/>
     <use xlink:href="#DejaVuSans-54" x="1118.164062"/>
     <use xlink:href="#DejaVuSans-72" x="1164.498047"/>
     <use xlink:href="#DejaVuSans-65" x="1203.361328"/>
     <use xlink:href="#DejaVuSans-6e" x="1264.884766"/>
     <use xlink:href="#DejaVuSans-64" x="1328.263672"/>
     <use xlink:href="#DejaVuSans-20" x="1391.740234"/>
     <use xlink:href="#DejaVuSans-28" x="1423.527344"/>
     <use xlink:href="#DejaVuSans-32" x="1462.541016"/>
     <use xlink:href="#DejaVuSans-30" x="1526.164062"/>
     <use xlink:href="#DejaVuSans-30" x="1589.787109"/>
     <use xlink:href="#DejaVuSans-30" x="1653.410156"/>
     <use xlink:href="#DejaVuSans-2013" x="1717.033203"/>
     <use xlink:href="#DejaVuSans-32" x="1767.033203"/>
     <use xlink:href="#DejaVuSans-30" x="1830.65625"/>
     <use xlink:href="#DejaVuSans-32" x="1894.279297"/>
     <use xlink:href="#DejaVuSans-33" x="1957.902344"/>
     <use xlink:href="#DejaVuSans-29" x="2021.525391"/>
    </g>
   </g>
   <g id="legend_1">
    <g id="patch_7">
     <path d="M 839.784 196.339375 
L 993.20275 196.339375 
Q 995.20275 196.339375 995.20275 194.339375 
L 995.20275 33.88 
Q 995.20275 31.88 993.20275 31.88 
L 839.784 31.88 
Q 837.784 31.88 837.784 33.88 
L 837.784 194.339375 
Q 837.784 196.339375 839.784 196.339375 
z
" style="fill: #ffffff; opacity: 0.8; stroke: #cccccc; stroke-linejoin: miter"/>
    </g>
    <g id="text_17">
     <!-- Country -->
     <g transform="translate(896.630094 43.478437) scale(0.1 -0.1)">
      <defs>
       <path id="DejaVuSans-43" d="M 4122 4306 
L 4122 3641 
Q 3803 3938 3442 4084 
Q 3081 4231 2675 4231 
Q 1875 4231 1450 3742 
Q 1025 3253 1025 2328 
Q 1025 1406 1450 917 
Q 1875 428 2675 428 
Q 3081 428 3442 575 
Q 3803 722 4122 1019 
L 4122 359 
Q 3791 134 3420 21 
Q 3050 -91 2638 -91 
Q 1578 -91 968 557 
Q 359 1206 359 2328 
Q 359 3453 968 4101 
Q 1578 4750 2638 4750 
Q 3056 4750 3426 4639 
Q 3797 4528 4122 4306 
z
" transform="scale(0.015625)"/>
       <path id="DejaVuSans-75" d="M 544 1381 
L 544 3500 
L 1119 3500 
L 1119 1403 
Q 1119 906 1312 657 
Q 1506 409 1894 409 
Q 2359 409 2629 706 
Q 2900 1003 2900 1516 
L 2900 3500 
L 3475 3500 
L 3475 0 
L 2900 0 
L 2900 538 
Q 2691 219 2414 64 
Q 2138 -91 1772 -91 
Q 1169 -91 856 284 
Q 544 659 544 1381 
z
M 1991 3584 
L 1991 3584 
z
" transform="scale(0.015625)"/>
      </defs>
      <use xlink:href="#DejaVuSans-43"/>
      <use xlink:href="#DejaVuSans-6f" x="69.824219"/>
      <use xlink:href="#DejaVuSans-75" x="131.005859"/>
      <use xlink:href="#DejaVuSans-6e" x="194.384766"/>
      <use xlink:href="#DejaVuSans-74" x="257.763672"/>
      <use xlink:href="#DejaVuSans-72" x="296.972656"/>
      <use xlink:href="#DejaVuSans-79" x="338.085938"/>
     </g>
    </g>
    <g id="line2d_34">
     <path d="M 841.784 54.656562 
L 851.784 54.656562 
L 861.784 54.656562 
" style="fill: none; stroke: #1f77b4; stroke-width: 1.5; stroke-linecap: square"/>
     <g>
      <use xlink:href="#mefa6331f66" x="851.784" y="54.656562" style="fill: #1f77b4; stroke: #ffffff; stroke-width: 0.75"/>
     </g>
    </g>
    <g id="text_18">
     <!-- Bosnia and Herzegovina -->
     <g transform="translate(869.784 58.156562) scale(0.1 -0.1)">
      <defs>
       <path id="DejaVuSans-42" d="M 1259 2228 
L 1259 519 
L 2272 519 
Q 2781 519 3026 730 
Q 3272 941 3272 1375 
Q 3272 1813 3026 2020 
Q 2781 2228 2272 2228 
L 1259 2228 
z
M 1259 4147 
L 1259 2741 
L 2194 2741 
Q 2656 2741 2882 2914 
Q 3109 3088 3109 3444 
Q 3109 3797 2882 3972 
Q 2656 4147 2194 4147 
L 1259 4147 
z
M 628 4666 
L 2241 4666 
Q 2963 4666 3353 4366 
Q 3744 4066 3744 3513 
Q 3744 3084 3544 2831 
Q 3344 2578 2956 2516 
Q 3422 2416 3680 2098 
Q 3938 1781 3938 1306 
Q 3938 681 3513 340 
Q 3088 0 2303 0 
L 628 0 
L 628 4666 
z
" transform="scale(0.015625)"/>
       <path id="DejaVuSans-73" d="M 2834 3397 
L 2834 2853 
Q 2591 2978 2328 3040 
Q 2066 3103 1784 3103 
Q 1356 3103 1142 2972 
Q 928 2841 928 2578 
Q 928 2378 1081 2264 
Q 1234 2150 1697 2047 
L 1894 2003 
Q 2506 1872 2764 1633 
Q 3022 1394 3022 966 
Q 3022 478 2636 193 
Q 2250 -91 1575 -91 
Q 1294 -91 989 -36 
Q 684 19 347 128 
L 347 722 
Q 666 556 975 473 
Q 1284 391 1588 391 
Q 1994 391 2212 530 
Q 2431 669 2431 922 
Q 2431 1156 2273 1281 
Q 2116 1406 1581 1522 
L 1381 1569 
Q 847 1681 609 1914 
Q 372 2147 372 2553 
Q 372 3047 722 3315 
Q 1072 3584 1716 3584 
Q 2034 3584 2315 3537 
Q 2597 3491 2834 3397 
z
" transform="scale(0.015625)"/>
       <path id="DejaVuSans-48" d="M 628 4666 
L 1259 4666 
L 1259 2753 
L 3553 2753 
L 3553 4666 
L 4184 4666 
L 4184 0 
L 3553 0 
L 3553 2222 
L 1259 2222 
L 1259 0 
L 628 0 
L 628 4666 
z
" transform="scale(0.015625)"/>
       <path id="DejaVuSans-7a" d="M 353 3500 
L 3084 3500 
L 3084 2975 
L 922 459 
L 3084 459 
L 3084 0 
L 275 0 
L 275 525 
L 2438 3041 
L 353 3041 
L 353 3500 
z
" transform="scale(0.015625)"/>
       <path id="DejaVuSans-67" d="M 2906 1791 
Q 2906 2416 2648 2759 
Q 2391 3103 1925 3103 
Q 1463 3103 1205 2759 
Q 947 2416 947 1791 
Q 947 1169 1205 825 
Q 1463 481 1925 481 
Q 2391 481 2648 825 
Q 2906 1169 2906 1791 
z
M 3481 434 
Q 3481 -459 3084 -895 
Q 2688 -1331 1869 -1331 
Q 1566 -1331 1297 -1286 
Q 1028 -1241 775 -1147 
L 775 -588 
Q 1028 -725 1275 -790 
Q 1522 -856 1778 -856 
Q 2344 -856 2625 -561 
Q 2906 -266 2906 331 
L 2906 616 
Q 2728 306 2450 153 
Q 2172 0 1784 0 
Q 1141 0 747 490 
Q 353 981 353 1791 
Q 353 2603 747 3093 
Q 1141 3584 1784 3584 
Q 2172 3584 2450 3431 
Q 2728 3278 2906 2969 
L 2906 3500 
L 3481 3500 
L 3481 434 
z
" transform="scale(0.015625)"/>
       <path id="DejaVuSans-76" d="M 191 3500 
L 800 3500 
L 1894 563 
L 2988 3500 
L 3597 3500 
L 2284 0 
L 1503 0 
L 191 3500 
z
" transform="scale(0.015625)"/>
      </defs>
      <use xlink:href="#DejaVuSans-42"/>
      <use xlink:href="#DejaVuSans-6f" x="68.603516"/>
      <use xlink:href="#DejaVuSans-73" x="129.785156"/>
      <use xlink:href="#DejaVuSans-6e" x="181.884766"/>
      <use xlink:href="#DejaVuSans-69" x="245.263672"/>
      <use xlink:href="#DejaVuSans-61" x="273.046875"/>
      <use xlink:href="#DejaVuSans-20" x="334.326172"/>
      <use xlink:href="#DejaVuSans-61" x="366.113281"/>
      <use xlink:href="#DejaVuSans-6e" x="427.392578"/>
      <use xlink:href="#DejaVuSans-64" x="490.771484"/>
      <use xlink:href="#DejaVuSans-20" x="554.248047"/>
      <use xlink:href="#DejaVuSans-48" x="586.035156"/>
      <use xlink:href="#DejaVuSans-65" x="661.230469"/>
      <use xlink:href="#DejaVuSans-72" x="722.753906"/>
      <use xlink:href="#DejaVuSans-7a" x="763.867188"/>
      <use xlink:href="#DejaVuSans-65" x="816.357422"/>
      <use xlink:href="#DejaVuSans-67" x="877.880859"/>
      <use xlink:href="#DejaVuSans-6f" x="941.357422"/>
      <use xlink:href="#DejaVuSans-76" x="1002.539062"/>
      <use xlink:href="#DejaVuSans-69" x="1061.71875"/>
      <use xlink:href="#DejaVuSans-6e" x="1089.501953"/>
      <use xlink:href="#DejaVuSans-61" x="1152.880859"/>
     </g>
    </g>
    <g id="line2d_35">
     <path d="M 841.784 69.334687 
L 851.784 69.334687 
L 861.784 69.334687 
" style="fill: none; stroke: #ff7f0e; stroke-width: 1.5; stroke-linecap: square"/>
     <g>
      <use xlink:href="#ma822e9743d" x="851.784" y="69.334687" style="fill: #ff7f0e; stroke: #ffffff; stroke-width: 0.75"/>
     </g>
    </g>
    <g id="text_19">
     <!-- Croatia -->
     <g transform="translate(869.784 72.834687) scale(0.1 -0.1)">
      <use xlink:href="#DejaVuSans-43"/>
      <use xlink:href="#DejaVuSans-72" x="69.824219"/>
      <use xlink:href="#DejaVuSans-6f" x="108.6875"/>
      <use xlink:href="#DejaVuSans-61" x="169.869141"/>
      <use xlink:href="#DejaVuSans-74" x="231.148438"/>
      <use xlink:href="#DejaVuSans-69" x="270.357422"/>
      <use xlink:href="#DejaVuSans-61" x="298.140625"/>
     </g>
    </g>
    <g id="line2d_36">
     <path d="M 841.784 84.012812 
L 851.784 84.012812 
L 861.784 84.012812 
" style="fill: none; stroke: #2ca02c; stroke-width: 1.5; stroke-linecap: square"/>
     <g>
      <use xlink:href="#m7fbbdf3315" x="851.784" y="84.012812" style="fill: #2ca02c; stroke: #ffffff; stroke-width: 0.75"/>
     </g>
    </g>
    <g id="text_20">
     <!-- Denmark -->
     <g transform="translate(869.784 87.512812) scale(0.1 -0.1)">
      <defs>
       <path id="DejaVuSans-44" d="M 1259 4147 
L 1259 519 
L 2022 519 
Q 2988 519 3436 956 
Q 3884 1394 3884 2338 
Q 3884 3275 3436 3711 
Q 2988 4147 2022 4147 
L 1259 4147 
z
M 628 4666 
L 1925 4666 
Q 3281 4666 3915 4102 
Q 4550 3538 4550 2338 
Q 4550 1131 3912 565 
Q 3275 0 1925 0 
L 628 0 
L 628 4666 
z
" transform="scale(0.015625)"/>
       <path id="DejaVuSans-6d" d="M 3328 2828 
Q 3544 3216 3844 3400 
Q 4144 3584 4550 3584 
Q 5097 3584 5394 3201 
Q 5691 2819 5691 2113 
L 5691 0 
L 5113 0 
L 5113 2094 
Q 5113 2597 4934 2840 
Q 4756 3084 4391 3084 
Q 3944 3084 3684 2787 
Q 3425 2491 3425 1978 
L 3425 0 
L 2847 0 
L 2847 2094 
Q 2847 2600 2669 2842 
Q 2491 3084 2119 3084 
Q 1678 3084 1418 2786 
Q 1159 2488 1159 1978 
L 1159 0 
L 581 0 
L 581 3500 
L 1159 3500 
L 1159 2956 
Q 1356 3278 1631 3431 
Q 1906 3584 2284 3584 
Q 2666 3584 2933 3390 
Q 3200 3197 3328 2828 
z
" transform="scale(0.015625)"/>
       <path id="DejaVuSans-6b" d="M 581 4863 
L 1159 4863 
L 1159 1991 
L 2875 3500 
L 3609 3500 
L 1753 1863 
L 3688 0 
L 2938 0 
L 1159 1709 
L 1159 0 
L 581 0 
L 581 4863 
z
" transform="scale(0.015625)"/>
      </defs>
      <use xlink:href="#DejaVuSans-44"/>
      <use xlink:href="#DejaVuSans-65" x="77.001953"/>
      <use xlink:href="#DejaVuSans-6e" x="138.525391"/>
      <use xlink:href="#DejaVuSans-6d" x="201.904297"/>
      <use xlink:href="#DejaVuSans-61" x="299.316406"/>
      <use xlink:href="#DejaVuSans-72" x="360.595703"/>
      <use xlink:href="#DejaVuSans-6b" x="401.708984"/>
     </g>
    </g>
    <g id="line2d_37">
     <path d="M 841.784 98.690937 
L 851.784 98.690937 
L 861.784 98.690937 
" style="fill: none; stroke: #d62728; stroke-width: 1.5; stroke-linecap: square"/>
     <g>
      <use xlink:href="#mfb757947b4" x="851.784" y="98.690937" style="fill: #d62728; stroke: #ffffff; stroke-width: 0.75"/>
     </g>
    </g>
    <g id="text_21">
     <!-- Finland -->
     <g transform="translate(869.784 102.190937) scale(0.1 -0.1)">
      <defs>
       <path id="DejaVuSans-46" d="M 628 4666 
L 3309 4666 
L 3309 4134 
L 1259 4134 
L 1259 2759 
L 3109 2759 
L 3109 2228 
L 1259 2228 
L 1259 0 
L 628 0 
L 628 4666 
z
" transform="scale(0.015625)"/>
      </defs>
      <use xlink:href="#DejaVuSans-46"/>
      <use xlink:href="#DejaVuSans-69" x="50.269531"/>
      <use xlink:href="#DejaVuSans-6e" x="78.052734"/>
      <use xlink:href="#DejaVuSans-6c" x="141.431641"/>
      <use xlink:href="#DejaVuSans-61" x="169.214844"/>
      <use xlink:href="#DejaVuSans-6e" x="230.494141"/>
      <use xlink:href="#DejaVuSans-64" x="293.873047"/>
     </g>
    </g>
    <g id="line2d_38">
     <path d="M 841.784 113.369062 
L 851.784 113.369062 
L 861.784 113.369062 
" style="fill: none; stroke: #9467bd; stroke-width: 1.5; stroke-linecap: square"/>
     <g>
      <use xlink:href="#m2698ea9954" x="851.784" y="113.369062" style="fill: #9467bd; stroke: #ffffff; stroke-width: 0.75"/>
     </g>
    </g>
    <g id="text_22">
     <!-- Iceland -->
     <g transform="translate(869.784 116.869062) scale(0.1 -0.1)">
      <defs>
       <path id="DejaVuSans-49" d="M 628 4666 
L 1259 4666 
L 1259 0 
L 628 0 
L 628 4666 
z
" transform="scale(0.015625)"/>
      </defs>
      <use xlink:href="#DejaVuSans-49"/>
      <use xlink:href="#DejaVuSans-63" x="29.492188"/>
      <use xlink:href="#DejaVuSans-65" x="84.472656"/>
      <use xlink:href="#DejaVuSans-6c" x="145.996094"/>
      <use xlink:href="#DejaVuSans-61" x="173.779297"/>
      <use xlink:href="#DejaVuSans-6e" x="235.058594"/>
      <use xlink:href="#DejaVuSans-64" x="298.4375"/>
     </g>
    </g>
    <g id="line2d_39">
     <path d="M 841.784 128.047187 
L 851.784 128.047187 
L 861.784 128.047187 
" style="fill: none; stroke: #8c564b; stroke-width: 1.5; stroke-linecap: square"/>
     <g>
      <use xlink:href="#m5ec545be13" x="851.784" y="128.047187" style="fill: #8c564b; stroke: #ffffff; stroke-width: 0.75"/>
     </g>
    </g>
    <g id="text_23">
     <!-- Kosovo -->
     <g transform="translate(869.784 131.547187) scale(0.1 -0.1)">
      <defs>
       <path id="DejaVuSans-4b" d="M 628 4666 
L 1259 4666 
L 1259 2694 
L 3353 4666 
L 4166 4666 
L 1850 2491 
L 4331 0 
L 3500 0 
L 1259 2247 
L 1259 0 
L 628 0 
L 628 4666 
z
" transform="scale(0.015625)"/>
      </defs>
      <use xlink:href="#DejaVuSans-4b"/>
      <use xlink:href="#DejaVuSans-6f" x="60.576172"/>
      <use xlink:href="#DejaVuSans-73" x="121.757812"/>
      <use xlink:href="#DejaVuSans-6f" x="173.857422"/>
      <use xlink:href="#DejaVuSans-76" x="235.039062"/>
      <use xlink:href="#DejaVuSans-6f" x="294.21875"/>
     </g>
    </g>
    <g id="line2d_40">
     <path d="M 841.784 142.725312 
L 851.784 142.725312 
L 861.784 142.725312 
" style="fill: none; stroke: #e377c2; stroke-width: 1.5; stroke-linecap: square"/>
     <g>
      <use xlink:href="#m7564c6870f" x="851.784" y="142.725312" style="fill: #e377c2; stroke: #ffffff; stroke-width: 0.75"/>
     </g>
    </g>
    <g id="text_24">
     <!-- North Macedonia -->
     <g transform="translate(869.784 146.225312) scale(0.1 -0.1)">
      <defs>
       <path id="DejaVuSans-4e" d="M 628 4666 
L 1478 4666 
L 3547 763 
L 3547 4666 
L 4159 4666 
L 4159 0 
L 3309 0 
L 1241 3903 
L 1241 0 
L 628 0 
L 628 4666 
z
" transform="scale(0.015625)"/>
       <path id="DejaVuSans-68" d="M 3513 2113 
L 3513 0 
L 2938 0 
L 2938 2094 
Q 2938 2591 2744 2837 
Q 2550 3084 2163 3084 
Q 1697 3084 1428 2787 
Q 1159 2491 1159 1978 
L 1159 0 
L 581 0 
L 581 4863 
L 1159 4863 
L 1159 2956 
Q 1366 3272 1645 3428 
Q 1925 3584 2291 3584 
Q 2894 3584 3203 3211 
Q 3513 2838 3513 2113 
z
" transform="scale(0.015625)"/>
       <path id="DejaVuSans-4d" d="M 628 4666 
L 1569 4666 
L 2759 1491 
L 3956 4666 
L 4897 4666 
L 4897 0 
L 4281 0 
L 4281 4097 
L 3078 897 
L 2444 897 
L 1241 4097 
L 1241 0 
L 628 0 
L 628 4666 
z
" transform="scale(0.015625)"/>
      </defs>
      <use xlink:href="#DejaVuSans-4e"/>
      <use xlink:href="#DejaVuSans-6f" x="74.804688"/>
      <use xlink:href="#DejaVuSans-72" x="135.986328"/>
      <use xlink:href="#DejaVuSans-74" x="177.099609"/>
      <use xlink:href="#DejaVuSans-68" x="216.308594"/>
      <use xlink:href="#DejaVuSans-20" x="279.6875"/>
      <use xlink:href="#DejaVuSans-4d" x="311.474609"/>
      <use xlink:href="#DejaVuSans-61" x="397.753906"/>
      <use xlink:href="#DejaVuSans-63" x="459.033203"/>
      <use xlink:href="#DejaVuSans-65" x="514.013672"/>
      <use xlink:href="#DejaVuSans-64" x="575.537109"/>
      <use xlink:href="#DejaVuSans-6f" x="639.013672"/>
      <use xlink:href="#DejaVuSans-6e" x="700.195312"/>
      <use xlink:href="#DejaVuSans-69" x="763.574219"/>
      <use xlink:href="#DejaVuSans-61" x="791.357422"/>
     </g>
    </g>
    <g id="line2d_41">
     <path d="M 841.784 157.403437 
L 851.784 157.403437 
L 861.784 157.403437 
" style="fill: none; stroke: #7f7f7f; stroke-width: 1.5; stroke-linecap: square"/>
     <g>
      <use xlink:href="#m9cf3a246af" x="851.784" y="157.403437" style="fill: #7f7f7f; stroke: #ffffff; stroke-width: 0.75"/>
     </g>
    </g>
    <g id="text_25">
     <!-- Norway -->
     <g transform="translate(869.784 160.903437) scale(0.1 -0.1)">
      <defs>
       <path id="DejaVuSans-77" d="M 269 3500 
L 844 3500 
L 1563 769 
L 2278 3500 
L 2956 3500 
L 3675 769 
L 4391 3500 
L 4966 3500 
L 4050 0 
L 3372 0 
L 2619 2869 
L 1863 0 
L 1184 0 
L 269 3500 
z
" transform="scale(0.015625)"/>
      </defs>
      <use xlink:href="#DejaVuSans-4e"/>
      <use xlink:href="#DejaVuSans-6f" x="74.804688"/>
      <use xlink:href="#DejaVuSans-72" x="135.986328"/>
      <use xlink:href="#DejaVuSans-77" x="177.099609"/>
      <use xlink:href="#DejaVuSans-61" x="258.886719"/>
      <use xlink:href="#DejaVuSans-79" x="320.166016"/>
     </g>
    </g>
    <g id="line2d_42">
     <path d="M 841.784 172.081562 
L 851.784 172.081562 
L 861.784 172.081562 
" style="fill: none; stroke: #bcbd22; stroke-width: 1.5; stroke-linecap: square"/>
     <g>
      <use xlink:href="#mb374059980" x="851.784" y="172.081562" style="fill: #bcbd22; stroke: #ffffff; stroke-width: 0.75"/>
     </g>
    </g>
    <g id="text_26">
     <!-- Serbia -->
     <g transform="translate(869.784 175.581562) scale(0.1 -0.1)">
      <defs>
       <path id="DejaVuSans-53" d="M 3425 4513 
L 3425 3897 
Q 3066 4069 2747 4153 
Q 2428 4238 2131 4238 
Q 1616 4238 1336 4038 
Q 1056 3838 1056 3469 
Q 1056 3159 1242 3001 
Q 1428 2844 1947 2747 
L 2328 2669 
Q 3034 2534 3370 2195 
Q 3706 1856 3706 1288 
Q 3706 609 3251 259 
Q 2797 -91 1919 -91 
Q 1588 -91 1214 -16 
Q 841 59 441 206 
L 441 856 
Q 825 641 1194 531 
Q 1563 422 1919 422 
Q 2459 422 2753 634 
Q 3047 847 3047 1241 
Q 3047 1584 2836 1778 
Q 2625 1972 2144 2069 
L 1759 2144 
Q 1053 2284 737 2584 
Q 422 2884 422 3419 
Q 422 4038 858 4394 
Q 1294 4750 2059 4750 
Q 2388 4750 2728 4690 
Q 3069 4631 3425 4513 
z
" transform="scale(0.015625)"/>
       <path id="DejaVuSans-62" d="M 3116 1747 
Q 3116 2381 2855 2742 
Q 2594 3103 2138 3103 
Q 1681 3103 1420 2742 
Q 1159 2381 1159 1747 
Q 1159 1113 1420 752 
Q 1681 391 2138 391 
Q 2594 391 2855 752 
Q 3116 1113 3116 1747 
z
M 1159 2969 
Q 1341 3281 1617 3432 
Q 1894 3584 2278 3584 
Q 2916 3584 3314 3078 
Q 3713 2572 3713 1747 
Q 3713 922 3314 415 
Q 2916 -91 2278 -91 
Q 1894 -91 1617 61 
Q 1341 213 1159 525 
L 1159 0 
L 581 0 
L 581 4863 
L 1159 4863 
L 1159 2969 
z
" transform="scale(0.015625)"/>
      </defs>
      <use xlink:href="#DejaVuSans-53"/>
      <use xlink:href="#DejaVuSans-65" x="63.476562"/>
      <use xlink:href="#DejaVuSans-72" x="125"/>
      <use xlink:href="#DejaVuSans-62" x="166.113281"/>
      <use xlink:href="#DejaVuSans-69" x="229.589844"/>
      <use xlink:href="#DejaVuSans-61" x="257.373047"/>
     </g>
    </g>
    <g id="line2d_43">
     <path d="M 841.784 186.759687 
L 851.784 186.759687 
L 861.784 186.759687 
" style="fill: none; stroke: #17becf; stroke-width: 1.5; stroke-linecap: square"/>
     <g>
      <use xlink:href="#m535b92e539" x="851.784" y="186.759687" style="fill: #17becf; stroke: #ffffff; stroke-width: 0.75"/>
     </g>
    </g>
    <g id="text_27">
     <!-- Sweden -->
     <g transform="translate(869.784 190.259687) scale(0.1 -0.1)">
      <use xlink:href="#DejaVuSans-53"/>
      <use xlink:href="#DejaVuSans-77" x="63.476562"/>
      <use xlink:href="#DejaVuSans-65" x="145.263672"/>
      <use xlink:href="#DejaVuSans-64" x="206.787109"/>
      <use xlink:href="#DejaVuSans-65" x="270.263672"/>
      <use xlink:href="#DejaVuSans-6e" x="331.787109"/>
     </g>
    </g>
   </g>
  </g>
 </g>
 <defs>
  <clipPath id="pd8babb04e7">
   <rect x="50.87" y="26.88" width="744.68" height="507.16"/>
  </clipPath>
 </defs>
</svg>
