<?xml version="1.0" encoding="utf-8" standalone="no"?>
<!DOCTYPE svg PUBLIC "-//W3C//DTD SVG 1.1//EN"
  "http://www.w3.org/Graphics/SVG/1.1/DTD/svg11.dtd">
<svg xmlns:xlink="http://www.w3.org/1999/xlink" width="864pt" height="432pt" viewBox="0 0 864 432" xmlns="http://www.w3.org/2000/svg" version="1.1">
 <metadata>
  <rdf:RDF xmlns:dc="http://purl.org/dc/elements/1.1/" xmlns:cc="http://creativecommons.org/ns#" xmlns:rdf="http://www.w3.org/1999/02/22-rdf-syntax-ns#">
   <cc:Work>
    <dc:type rdf:resource="http://purl.org/dc/dcmitype/StillImage"/>
    <dc:date>2025-04-22T23:03:53.736289</dc:date>
    <dc:format>image/svg+xml</dc:format>
    <dc:creator>
     <cc:Agent>
      <dc:title>Matplotlib v3.9.2, https://matplotlib.org/</dc:title>
     </cc:Agent>
    </dc:creator>
   </cc:Work>
  </rdf:RDF>
 </metadata>
 <defs>
  <style type="text/css">*{stroke-linejoin: round; stroke-linecap: butt}</style>
 </defs>
 <g id="figure_1">
  <g id="patch_1">
   <path d="M 0 432 
L 864 432 
L 864 0 
L 0 0 
z
" style="fill: #ffffff"/>
  </g>
  <g id="axes_1">
   <g id="patch_2">
    <path d="M 44.67125 307.01525 
L 853.2 307.01525 
L 853.2 26.88 
L 44.67125 26.88 
z
" style="fill: #ffffff"/>
   </g>
   <g id="matplotlib.axis_1">
    <g id="xtick_1">
     <g id="line2d_1">
      <defs>
       <path id="m843ae2a36b" d="M 0 0 
L 0 3.5 
" style="stroke: #000000; stroke-width: 0.8"/>
      </defs>
      <g>
       <use xlink:href="#m843ae2a36b" x="85.097688" y="307.01525" style="stroke: #000000; stroke-width: 0.8"/>
      </g>
     </g>
     <g id="text_1">
      <!-- Bosnia and Herzegovina -->
      <g transform="translate(44.12085 405.244178) rotate(-45) scale(0.1 -0.1)">
       <defs>
        <path id="DejaVuSans-42" d="M 1259 2228 
L 1259 519 
L 2272 519 
Q 2781 519 3026 730 
Q 3272 941 3272 1375 
Q 3272 1813 3026 2020 
Q 2781 2228 2272 2228 
L 1259 2228 
z
M 1259 4147 
L 1259 2741 
L 2194 2741 
Q 2656 2741 2882 2914 
Q 3109 3088 3109 3444 
Q 3109 3797 2882 3972 
Q 2656 4147 2194 4147 
L 1259 4147 
z
M 628 4666 
L 2241 4666 
Q 2963 4666 3353 4366 
Q 3744 4066 3744 3513 
Q 3744 3084 3544 2831 
Q 3344 2578 2956 2516 
Q 3422 2416 3680 2098 
Q 3938 1781 3938 1306 
Q 3938 681 3513 340 
Q 3088 0 2303 0 
L 628 0 
L 628 4666 
z
" transform="scale(0.015625)"/>
        <path id="DejaVuSans-6f" d="M 1959 3097 
Q 1497 3097 1228 2736 
Q 959 2375 959 1747 
Q 959 1119 1226 758 
Q 1494 397 1959 397 
Q 2419 397 2687 759 
Q 2956 1122 2956 1747 
Q 2956 2369 2687 2733 
Q 2419 3097 1959 3097 
z
M 1959 3584 
Q 2709 3584 3137 3096 
Q 3566 2609 3566 1747 
Q 3566 888 3137 398 
Q 2709 -91 1959 -91 
Q 1206 -91 779 398 
Q 353 888 353 1747 
Q 353 2609 779 3096 
Q 1206 3584 1959 3584 
z
" transform="scale(0.015625)"/>
        <path id="DejaVuSans-73" d="M 2834 3397 
L 2834 2853 
Q 2591 2978 2328 3040 
Q 2066 3103 1784 3103 
Q 1356 3103 1142 2972 
Q 928 2841 928 2578 
Q 928 2378 1081 2264 
Q 1234 2150 1697 2047 
L 1894 2003 
Q 2506 1872 2764 1633 
Q 3022 1394 3022 966 
Q 3022 478 2636 193 
Q 2250 -91 1575 -91 
Q 1294 -91 989 -36 
Q 684 19 347 128 
L 347 722 
Q 666 556 975 473 
Q 1284 391 1588 391 
Q 1994 391 2212 530 
Q 2431 669 2431 922 
Q 2431 1156 2273 1281 
Q 2116 1406 1581 1522 
L 1381 1569 
Q 847 1681 609 1914 
Q 372 2147 372 2553 
Q 372 3047 722 3315 
Q 1072 3584 1716 3584 
Q 2034 3584 2315 3537 
Q 2597 3491 2834 3397 
z
" transform="scale(0.015625)"/>
        <path id="DejaVuSans-6e" d="M 3513 2113 
L 3513 0 
L 2938 0 
L 2938 2094 
Q 2938 2591 2744 2837 
Q 2550 3084 2163 3084 
Q 1697 3084 1428 2787 
Q 1159 2491 1159 1978 
L 1159 0 
L 581 0 
L 581 3500 
L 1159 3500 
L 1159 2956 
Q 1366 3272 1645 3428 
Q 1925 3584 2291 3584 
Q 2894 3584 3203 3211 
Q 3513 2838 3513 2113 
z
" transform="scale(0.015625)"/>
        <path id="DejaVuSans-69" d="M 603 3500 
L 1178 3500 
L 1178 0 
L 603 0 
L 603 3500 
z
M 603 4863 
L 1178 4863 
L 1178 4134 
L 603 4134 
L 603 4863 
z
" transform="scale(0.015625)"/>
        <path id="DejaVuSans-61" d="M 2194 1759 
Q 1497 1759 1228 1600 
Q 959 1441 959 1056 
Q 959 750 1161 570 
Q 1363 391 1709 391 
Q 2188 391 2477 730 
Q 2766 1069 2766 1631 
L 2766 1759 
L 2194 1759 
z
M 3341 1997 
L 3341 0 
L 2766 0 
L 2766 531 
Q 2569 213 2275 61 
Q 1981 -91 1556 -91 
Q 1019 -91 701 211 
Q 384 513 384 1019 
Q 384 1609 779 1909 
Q 1175 2209 1959 2209 
L 2766 2209 
L 2766 2266 
Q 2766 2663 2505 2880 
Q 2244 3097 1772 3097 
Q 1472 3097 1187 3025 
Q 903 2953 641 2809 
L 641 3341 
Q 956 3463 1253 3523 
Q 1550 3584 1831 3584 
Q 2591 3584 2966 3190 
Q 3341 2797 3341 1997 
z
" transform="scale(0.015625)"/>
        <path id="DejaVuSans-20" transform="scale(0.015625)"/>
        <path id="DejaVuSans-64" d="M 2906 2969 
L 2906 4863 
L 3481 4863 
L 3481 0 
L 2906 0 
L 2906 525 
Q 2725 213 2448 61 
Q 2172 -91 1784 -91 
Q 1150 -91 751 415 
Q 353 922 353 1747 
Q 353 2572 751 3078 
Q 1150 3584 1784 3584 
Q 2172 3584 2448 3432 
Q 2725 3281 2906 2969 
z
M 947 1747 
Q 947 1113 1208 752 
Q 1469 391 1925 391 
Q 2381 391 2643 752 
Q 2906 1113 2906 1747 
Q 2906 2381 2643 2742 
Q 2381 3103 1925 3103 
Q 1469 3103 1208 2742 
Q 947 2381 947 1747 
z
" transform="scale(0.015625)"/>
        <path id="DejaVuSans-48" d="M 628 4666 
L 1259 4666 
L 1259 2753 
L 3553 2753 
L 3553 4666 
L 4184 4666 
L 4184 0 
L 3553 0 
L 3553 2222 
L 1259 2222 
L 1259 0 
L 628 0 
L 628 4666 
z
" transform="scale(0.015625)"/>
        <path id="DejaVuSans-65" d="M 3597 1894 
L 3597 1613 
L 953 1613 
Q 991 1019 1311 708 
Q 1631 397 2203 397 
Q 2534 397 2845 478 
Q 3156 559 3463 722 
L 3463 178 
Q 3153 47 2828 -22 
Q 2503 -91 2169 -91 
Q 1331 -91 842 396 
Q 353 884 353 1716 
Q 353 2575 817 3079 
Q 1281 3584 2069 3584 
Q 2775 3584 3186 3129 
Q 3597 2675 3597 1894 
z
M 3022 2063 
Q 3016 2534 2758 2815 
Q 2500 3097 2075 3097 
Q 1594 3097 1305 2825 
Q 1016 2553 972 2059 
L 3022 2063 
z
" transform="scale(0.015625)"/>
        <path id="DejaVuSans-72" d="M 2631 2963 
Q 2534 3019 2420 3045 
Q 2306 3072 2169 3072 
Q 1681 3072 1420 2755 
Q 1159 2438 1159 1844 
L 1159 0 
L 581 0 
L 581 3500 
L 1159 3500 
L 1159 2956 
Q 1341 3275 1631 3429 
Q 1922 3584 2338 3584 
Q 2397 3584 2469 3576 
Q 2541 3569 2628 3553 
L 2631 2963 
z
" transform="scale(0.015625)"/>
        <path id="DejaVuSans-7a" d="M 353 3500 
L 3084 3500 
L 3084 2975 
L 922 459 
L 3084 459 
L 3084 0 
L 275 0 
L 275 525 
L 2438 3041 
L 353 3041 
L 353 3500 
z
" transform="scale(0.015625)"/>
        <path id="DejaVuSans-67" d="M 2906 1791 
Q 2906 2416 2648 2759 
Q 2391 3103 1925 3103 
Q 1463 3103 1205 2759 
Q 947 2416 947 1791 
Q 947 1169 1205 825 
Q 1463 481 1925 481 
Q 2391 481 2648 825 
Q 2906 1169 2906 1791 
z
M 3481 434 
Q 3481 -459 3084 -895 
Q 2688 -1331 1869 -1331 
Q 1566 -1331 1297 -1286 
Q 1028 -1241 775 -1147 
L 775 -588 
Q 1028 -725 1275 -790 
Q 1522 -856 1778 -856 
Q 2344 -856 2625 -561 
Q 2906 -266 2906 331 
L 2906 616 
Q 2728 306 2450 153 
Q 2172 0 1784 0 
Q 1141 0 747 490 
Q 353 981 353 1791 
Q 353 2603 747 3093 
Q 1141 3584 1784 3584 
Q 2172 3584 2450 3431 
Q 2728 3278 2906 2969 
L 2906 3500 
L 3481 3500 
L 3481 434 
z
" transform="scale(0.015625)"/>
        <path id="DejaVuSans-76" d="M 191 3500 
L 800 3500 
L 1894 563 
L 2988 3500 
L 3597 3500 
L 2284 0 
L 1503 0 
L 191 3500 
z
" transform="scale(0.015625)"/>
       </defs>
       <use xlink:href="#DejaVuSans-42"/>
       <use xlink:href="#DejaVuSans-6f" x="68.603516"/>
       <use xlink:href="#DejaVuSans-73" x="129.785156"/>
       <use xlink:href="#DejaVuSans-6e" x="181.884766"/>
       <use xlink:href="#DejaVuSans-69" x="245.263672"/>
       <use xlink:href="#DejaVuSans-61" x="273.046875"/>
       <use xlink:href="#DejaVuSans-20" x="334.326172"/>
       <use xlink:href="#DejaVuSans-61" x="366.113281"/>
       <use xlink:href="#DejaVuSans-6e" x="427.392578"/>
       <use xlink:href="#DejaVuSans-64" x="490.771484"/>
       <use xlink:href="#DejaVuSans-20" x="554.248047"/>
       <use xlink:href="#DejaVuSans-48" x="586.035156"/>
       <use xlink:href="#DejaVuSans-65" x="661.230469"/>
       <use xlink:href="#DejaVuSans-72" x="722.753906"/>
       <use xlink:href="#DejaVuSans-7a" x="763.867188"/>
       <use xlink:href="#DejaVuSans-65" x="816.357422"/>
       <use xlink:href="#DejaVuSans-67" x="877.880859"/>
       <use xlink:href="#DejaVuSans-6f" x="941.357422"/>
       <use xlink:href="#DejaVuSans-76" x="1002.539062"/>
       <use xlink:href="#DejaVuSans-69" x="1061.71875"/>
       <use xlink:href="#DejaVuSans-6e" x="1089.501953"/>
       <use xlink:href="#DejaVuSans-61" x="1152.880859"/>
      </g>
     </g>
    </g>
    <g id="xtick_2">
     <g id="line2d_2">
      <g>
       <use xlink:href="#m843ae2a36b" x="165.950563" y="307.01525" style="stroke: #000000; stroke-width: 0.8"/>
      </g>
     </g>
     <g id="text_2">
      <!-- Croatia -->
      <g transform="translate(155.194253 344.803121) rotate(-45) scale(0.1 -0.1)">
       <defs>
        <path id="DejaVuSans-43" d="M 4122 4306 
L 4122 3641 
Q 3803 3938 3442 4084 
Q 3081 4231 2675 4231 
Q 1875 4231 1450 3742 
Q 1025 3253 1025 2328 
Q 1025 1406 1450 917 
Q 1875 428 2675 428 
Q 3081 428 3442 575 
Q 3803 722 4122 1019 
L 4122 359 
Q 3791 134 3420 21 
Q 3050 -91 2638 -91 
Q 1578 -91 968 557 
Q 359 1206 359 2328 
Q 359 3453 968 4101 
Q 1578 4750 2638 4750 
Q 3056 4750 3426 4639 
Q 3797 4528 4122 4306 
z
" transform="scale(0.015625)"/>
        <path id="DejaVuSans-74" d="M 1172 4494 
L 1172 3500 
L 2356 3500 
L 2356 3053 
L 1172 3053 
L 1172 1153 
Q 1172 725 1289 603 
Q 1406 481 1766 481 
L 2356 481 
L 2356 0 
L 1766 0 
Q 1100 0 847 248 
Q 594 497 594 1153 
L 594 3053 
L 172 3053 
L 172 3500 
L 594 3500 
L 594 4494 
L 1172 4494 
z
" transform="scale(0.015625)"/>
       </defs>
       <use xlink:href="#DejaVuSans-43"/>
       <use xlink:href="#DejaVuSans-72" x="69.824219"/>
       <use xlink:href="#DejaVuSans-6f" x="108.6875"/>
       <use xlink:href="#DejaVuSans-61" x="169.869141"/>
       <use xlink:href="#DejaVuSans-74" x="231.148438"/>
       <use xlink:href="#DejaVuSans-69" x="270.357422"/>
       <use xlink:href="#DejaVuSans-61" x="298.140625"/>
      </g>
     </g>
    </g>
    <g id="xtick_3">
     <g id="line2d_3">
      <g>
       <use xlink:href="#m843ae2a36b" x="246.803438" y="307.01525" style="stroke: #000000; stroke-width: 0.8"/>
      </g>
     </g>
     <g id="text_3">
      <!-- Denmark -->
      <g transform="translate(232.504965 351.887447) rotate(-45) scale(0.1 -0.1)">
       <defs>
        <path id="DejaVuSans-44" d="M 1259 4147 
L 1259 519 
L 2022 519 
Q 2988 519 3436 956 
Q 3884 1394 3884 2338 
Q 3884 3275 3436 3711 
Q 2988 4147 2022 4147 
L 1259 4147 
z
M 628 4666 
L 1925 4666 
Q 3281 4666 3915 4102 
Q 4550 3538 4550 2338 
Q 4550 1131 3912 565 
Q 3275 0 1925 0 
L 628 0 
L 628 4666 
z
" transform="scale(0.015625)"/>
        <path id="DejaVuSans-6d" d="M 3328 2828 
Q 3544 3216 3844 3400 
Q 4144 3584 4550 3584 
Q 5097 3584 5394 3201 
Q 5691 2819 5691 2113 
L 5691 0 
L 5113 0 
L 5113 2094 
Q 5113 2597 4934 2840 
Q 4756 3084 4391 3084 
Q 3944 3084 3684 2787 
Q 3425 2491 3425 1978 
L 3425 0 
L 2847 0 
L 2847 2094 
Q 2847 2600 2669 2842 
Q 2491 3084 2119 3084 
Q 1678 3084 1418 2786 
Q 1159 2488 1159 1978 
L 1159 0 
L 581 0 
L 581 3500 
L 1159 3500 
L 1159 2956 
Q 1356 3278 1631 3431 
Q 1906 3584 2284 3584 
Q 2666 3584 2933 3390 
Q 3200 3197 3328 2828 
z
" transform="scale(0.015625)"/>
        <path id="DejaVuSans-6b" d="M 581 4863 
L 1159 4863 
L 1159 1991 
L 2875 3500 
L 3609 3500 
L 1753 1863 
L 3688 0 
L 2938 0 
L 1159 1709 
L 1159 0 
L 581 0 
L 581 4863 
z
" transform="scale(0.015625)"/>
       </defs>
       <use xlink:href="#DejaVuSans-44"/>
       <use xlink:href="#DejaVuSans-65" x="77.001953"/>
       <use xlink:href="#DejaVuSans-6e" x="138.525391"/>
       <use xlink:href="#DejaVuSans-6d" x="201.904297"/>
       <use xlink:href="#DejaVuSans-61" x="299.316406"/>
       <use xlink:href="#DejaVuSans-72" x="360.595703"/>
       <use xlink:href="#DejaVuSans-6b" x="401.708984"/>
      </g>
     </g>
    </g>
    <g id="xtick_4">
     <g id="line2d_4">
      <g>
       <use xlink:href="#m843ae2a36b" x="327.656313" y="307.01525" style="stroke: #000000; stroke-width: 0.8"/>
      </g>
     </g>
     <g id="text_4">
      <!-- Finland -->
      <g transform="translate(316.973476 344.656176) rotate(-45) scale(0.1 -0.1)">
       <defs>
        <path id="DejaVuSans-46" d="M 628 4666 
L 3309 4666 
L 3309 4134 
L 1259 4134 
L 1259 2759 
L 3109 2759 
L 3109 2228 
L 1259 2228 
L 1259 0 
L 628 0 
L 628 4666 
z
" transform="scale(0.015625)"/>
        <path id="DejaVuSans-6c" d="M 603 4863 
L 1178 4863 
L 1178 0 
L 603 0 
L 603 4863 
z
" transform="scale(0.015625)"/>
       </defs>
       <use xlink:href="#DejaVuSans-46"/>
       <use xlink:href="#DejaVuSans-69" x="50.269531"/>
       <use xlink:href="#DejaVuSans-6e" x="78.052734"/>
       <use xlink:href="#DejaVuSans-6c" x="141.431641"/>
       <use xlink:href="#DejaVuSans-61" x="169.214844"/>
       <use xlink:href="#DejaVuSans-6e" x="230.494141"/>
       <use xlink:href="#DejaVuSans-64" x="293.873047"/>
      </g>
     </g>
    </g>
    <g id="xtick_5">
     <g id="line2d_5">
      <g>
       <use xlink:href="#m843ae2a36b" x="408.509188" y="307.01525" style="stroke: #000000; stroke-width: 0.8"/>
      </g>
     </g>
     <g id="text_5">
      <!-- Iceland -->
      <g transform="translate(397.663937 344.981003) rotate(-45) scale(0.1 -0.1)">
       <defs>
        <path id="DejaVuSans-49" d="M 628 4666 
L 1259 4666 
L 1259 0 
L 628 0 
L 628 4666 
z
" transform="scale(0.015625)"/>
        <path id="DejaVuSans-63" d="M 3122 3366 
L 3122 2828 
Q 2878 2963 2633 3030 
Q 2388 3097 2138 3097 
Q 1578 3097 1268 2742 
Q 959 2388 959 1747 
Q 959 1106 1268 751 
Q 1578 397 2138 397 
Q 2388 397 2633 464 
Q 2878 531 3122 666 
L 3122 134 
Q 2881 22 2623 -34 
Q 2366 -91 2075 -91 
Q 1284 -91 818 406 
Q 353 903 353 1747 
Q 353 2603 823 3093 
Q 1294 3584 2113 3584 
Q 2378 3584 2631 3529 
Q 2884 3475 3122 3366 
z
" transform="scale(0.015625)"/>
       </defs>
       <use xlink:href="#DejaVuSans-49"/>
       <use xlink:href="#DejaVuSans-63" x="29.492188"/>
       <use xlink:href="#DejaVuSans-65" x="84.472656"/>
       <use xlink:href="#DejaVuSans-6c" x="145.996094"/>
       <use xlink:href="#DejaVuSans-61" x="173.779297"/>
       <use xlink:href="#DejaVuSans-6e" x="235.058594"/>
       <use xlink:href="#DejaVuSans-64" x="298.4375"/>
      </g>
     </g>
    </g>
    <g id="xtick_6">
     <g id="line2d_6">
      <g>
       <use xlink:href="#m843ae2a36b" x="489.362063" y="307.01525" style="stroke: #000000; stroke-width: 0.8"/>
      </g>
     </g>
     <g id="text_6">
      <!-- Kosovo -->
      <g transform="translate(478.747174 344.520279) rotate(-45) scale(0.1 -0.1)">
       <defs>
        <path id="DejaVuSans-4b" d="M 628 4666 
L 1259 4666 
L 1259 2694 
L 3353 4666 
L 4166 4666 
L 1850 2491 
L 4331 0 
L 3500 0 
L 1259 2247 
L 1259 0 
L 628 0 
L 628 4666 
z
" transform="scale(0.015625)"/>
       </defs>
       <use xlink:href="#DejaVuSans-4b"/>
       <use xlink:href="#DejaVuSans-6f" x="60.576172"/>
       <use xlink:href="#DejaVuSans-73" x="121.757812"/>
       <use xlink:href="#DejaVuSans-6f" x="173.857422"/>
       <use xlink:href="#DejaVuSans-76" x="235.039062"/>
       <use xlink:href="#DejaVuSans-6f" x="294.21875"/>
      </g>
     </g>
    </g>
    <g id="xtick_7">
     <g id="line2d_7">
      <g>
       <use xlink:href="#m843ae2a36b" x="570.214938" y="307.01525" style="stroke: #000000; stroke-width: 0.8"/>
      </g>
     </g>
     <g id="text_7">
      <!-- North Macedonia -->
      <g transform="translate(542.020159 379.680058) rotate(-45) scale(0.1 -0.1)">
       <defs>
        <path id="DejaVuSans-4e" d="M 628 4666 
L 1478 4666 
L 3547 763 
L 3547 4666 
L 4159 4666 
L 4159 0 
L 3309 0 
L 1241 3903 
L 1241 0 
L 628 0 
L 628 4666 
z
" transform="scale(0.015625)"/>
        <path id="DejaVuSans-68" d="M 3513 2113 
L 3513 0 
L 2938 0 
L 2938 2094 
Q 2938 2591 2744 2837 
Q 2550 3084 2163 3084 
Q 1697 3084 1428 2787 
Q 1159 2491 1159 1978 
L 1159 0 
L 581 0 
L 581 4863 
L 1159 4863 
L 1159 2956 
Q 1366 3272 1645 3428 
Q 1925 3584 2291 3584 
Q 2894 3584 3203 3211 
Q 3513 2838 3513 2113 
z
" transform="scale(0.015625)"/>
        <path id="DejaVuSans-4d" d="M 628 4666 
L 1569 4666 
L 2759 1491 
L 3956 4666 
L 4897 4666 
L 4897 0 
L 4281 0 
L 4281 4097 
L 3078 897 
L 2444 897 
L 1241 4097 
L 1241 0 
L 628 0 
L 628 4666 
z
" transform="scale(0.015625)"/>
       </defs>
       <use xlink:href="#DejaVuSans-4e"/>
       <use xlink:href="#DejaVuSans-6f" x="74.804688"/>
       <use xlink:href="#DejaVuSans-72" x="135.986328"/>
       <use xlink:href="#DejaVuSans-74" x="177.099609"/>
       <use xlink:href="#DejaVuSans-68" x="216.308594"/>
       <use xlink:href="#DejaVuSans-20" x="279.6875"/>
       <use xlink:href="#DejaVuSans-4d" x="311.474609"/>
       <use xlink:href="#DejaVuSans-61" x="397.753906"/>
       <use xlink:href="#DejaVuSans-63" x="459.033203"/>
       <use xlink:href="#DejaVuSans-65" x="514.013672"/>
       <use xlink:href="#DejaVuSans-64" x="575.537109"/>
       <use xlink:href="#DejaVuSans-6f" x="639.013672"/>
       <use xlink:href="#DejaVuSans-6e" x="700.195312"/>
       <use xlink:href="#DejaVuSans-69" x="763.574219"/>
       <use xlink:href="#DejaVuSans-61" x="791.357422"/>
      </g>
     </g>
    </g>
    <g id="xtick_8">
     <g id="line2d_8">
      <g>
       <use xlink:href="#m843ae2a36b" x="651.067813" y="307.01525" style="stroke: #000000; stroke-width: 0.8"/>
      </g>
     </g>
     <g id="text_8">
      <!-- Norway -->
      <g transform="translate(639.606606 346.212915) rotate(-45) scale(0.1 -0.1)">
       <defs>
        <path id="DejaVuSans-77" d="M 269 3500 
L 844 3500 
L 1563 769 
L 2278 3500 
L 2956 3500 
L 3675 769 
L 4391 3500 
L 4966 3500 
L 4050 0 
L 3372 0 
L 2619 2869 
L 1863 0 
L 1184 0 
L 269 3500 
z
" transform="scale(0.015625)"/>
        <path id="DejaVuSans-79" d="M 2059 -325 
Q 1816 -950 1584 -1140 
Q 1353 -1331 966 -1331 
L 506 -1331 
L 506 -850 
L 844 -850 
Q 1081 -850 1212 -737 
Q 1344 -625 1503 -206 
L 1606 56 
L 191 3500 
L 800 3500 
L 1894 763 
L 2988 3500 
L 3597 3500 
L 2059 -325 
z
" transform="scale(0.015625)"/>
       </defs>
       <use xlink:href="#DejaVuSans-4e"/>
       <use xlink:href="#DejaVuSans-6f" x="74.804688"/>
       <use xlink:href="#DejaVuSans-72" x="135.986328"/>
       <use xlink:href="#DejaVuSans-77" x="177.099609"/>
       <use xlink:href="#DejaVuSans-61" x="258.886719"/>
       <use xlink:href="#DejaVuSans-79" x="320.166016"/>
      </g>
     </g>
    </g>
    <g id="xtick_9">
     <g id="line2d_9">
      <g>
       <use xlink:href="#m843ae2a36b" x="731.920688" y="307.01525" style="stroke: #000000; stroke-width: 0.8"/>
      </g>
     </g>
     <g id="text_9">
      <!-- Serbia -->
      <g transform="translate(722.605108 341.921661) rotate(-45) scale(0.1 -0.1)">
       <defs>
        <path id="DejaVuSans-53" d="M 3425 4513 
L 3425 3897 
Q 3066 4069 2747 4153 
Q 2428 4238 2131 4238 
Q 1616 4238 1336 4038 
Q 1056 3838 1056 3469 
Q 1056 3159 1242 3001 
Q 1428 2844 1947 2747 
L 2328 2669 
Q 3034 2534 3370 2195 
Q 3706 1856 3706 1288 
Q 3706 609 3251 259 
Q 2797 -91 1919 -91 
Q 1588 -91 1214 -16 
Q 841 59 441 206 
L 441 856 
Q 825 641 1194 531 
Q 1563 422 1919 422 
Q 2459 422 2753 634 
Q 3047 847 3047 1241 
Q 3047 1584 2836 1778 
Q 2625 1972 2144 2069 
L 1759 2144 
Q 1053 2284 737 2584 
Q 422 2884 422 3419 
Q 422 4038 858 4394 
Q 1294 4750 2059 4750 
Q 2388 4750 2728 4690 
Q 3069 4631 3425 4513 
z
" transform="scale(0.015625)"/>
        <path id="DejaVuSans-62" d="M 3116 1747 
Q 3116 2381 2855 2742 
Q 2594 3103 2138 3103 
Q 1681 3103 1420 2742 
Q 1159 2381 1159 1747 
Q 1159 1113 1420 752 
Q 1681 391 2138 391 
Q 2594 391 2855 752 
Q 3116 1113 3116 1747 
z
M 1159 2969 
Q 1341 3281 1617 3432 
Q 1894 3584 2278 3584 
Q 2916 3584 3314 3078 
Q 3713 2572 3713 1747 
Q 3713 922 3314 415 
Q 2916 -91 2278 -91 
Q 1894 -91 1617 61 
Q 1341 213 1159 525 
L 1159 0 
L 581 0 
L 581 4863 
L 1159 4863 
L 1159 2969 
z
" transform="scale(0.015625)"/>
       </defs>
       <use xlink:href="#DejaVuSans-53"/>
       <use xlink:href="#DejaVuSans-65" x="63.476562"/>
       <use xlink:href="#DejaVuSans-72" x="125"/>
       <use xlink:href="#DejaVuSans-62" x="166.113281"/>
       <use xlink:href="#DejaVuSans-69" x="229.589844"/>
       <use xlink:href="#DejaVuSans-61" x="257.373047"/>
      </g>
     </g>
    </g>
    <g id="xtick_10">
     <g id="line2d_10">
      <g>
       <use xlink:href="#m843ae2a36b" x="812.773563" y="307.01525" style="stroke: #000000; stroke-width: 0.8"/>
      </g>
     </g>
     <g id="text_10">
      <!-- Sweden -->
      <g transform="translate(800.752747 347.332133) rotate(-45) scale(0.1 -0.1)">
       <use xlink:href="#DejaVuSans-53"/>
       <use xlink:href="#DejaVuSans-77" x="63.476562"/>
       <use xlink:href="#DejaVuSans-65" x="145.263672"/>
       <use xlink:href="#DejaVuSans-64" x="206.787109"/>
       <use xlink:href="#DejaVuSans-65" x="270.263672"/>
       <use xlink:href="#DejaVuSans-6e" x="331.787109"/>
      </g>
     </g>
    </g>
    <g id="text_11">
     <!-- country -->
     <g transform="translate(429.814531 418.313177) scale(0.1 -0.1)">
      <defs>
       <path id="DejaVuSans-75" d="M 544 1381 
L 544 3500 
L 1119 3500 
L 1119 1403 
Q 1119 906 1312 657 
Q 1506 409 1894 409 
Q 2359 409 2629 706 
Q 2900 1003 2900 1516 
L 2900 3500 
L 3475 3500 
L 3475 0 
L 2900 0 
L 2900 538 
Q 2691 219 2414 64 
Q 2138 -91 1772 -91 
Q 1169 -91 856 284 
Q 544 659 544 1381 
z
M 1991 3584 
L 1991 3584 
z
" transform="scale(0.015625)"/>
      </defs>
      <use xlink:href="#DejaVuSans-63"/>
      <use xlink:href="#DejaVuSans-6f" x="54.980469"/>
      <use xlink:href="#DejaVuSans-75" x="116.162109"/>
      <use xlink:href="#DejaVuSans-6e" x="179.541016"/>
      <use xlink:href="#DejaVuSans-74" x="242.919922"/>
      <use xlink:href="#DejaVuSans-72" x="282.128906"/>
      <use xlink:href="#DejaVuSans-79" x="323.242188"/>
     </g>
    </g>
   </g>
   <g id="matplotlib.axis_2">
    <g id="ytick_1">
     <g id="line2d_11">
      <defs>
       <path id="m3c5972bad2" d="M 0 0 
L -3.5 0 
" style="stroke: #000000; stroke-width: 0.8"/>
      </defs>
      <g>
       <use xlink:href="#m3c5972bad2" x="44.67125" y="294.28183" style="stroke: #000000; stroke-width: 0.8"/>
      </g>
     </g>
     <g id="text_12">
      <!-- 0 -->
      <g transform="translate(31.30875 298.081048) scale(0.1 -0.1)">
       <defs>
        <path id="DejaVuSans-30" d="M 2034 4250 
Q 1547 4250 1301 3770 
Q 1056 3291 1056 2328 
Q 1056 1369 1301 889 
Q 1547 409 2034 409 
Q 2525 409 2770 889 
Q 3016 1369 3016 2328 
Q 3016 3291 2770 3770 
Q 2525 4250 2034 4250 
z
M 2034 4750 
Q 2819 4750 3233 4129 
Q 3647 3509 3647 2328 
Q 3647 1150 3233 529 
Q 2819 -91 2034 -91 
Q 1250 -91 836 529 
Q 422 1150 422 2328 
Q 422 3509 836 4129 
Q 1250 4750 2034 4750 
z
" transform="scale(0.015625)"/>
       </defs>
       <use xlink:href="#DejaVuSans-30"/>
      </g>
     </g>
    </g>
    <g id="ytick_2">
     <g id="line2d_12">
      <g>
       <use xlink:href="#m3c5972bad2" x="44.67125" y="254.07526" style="stroke: #000000; stroke-width: 0.8"/>
      </g>
     </g>
     <g id="text_13">
      <!-- 5 -->
      <g transform="translate(31.30875 257.874479) scale(0.1 -0.1)">
       <defs>
        <path id="DejaVuSans-35" d="M 691 4666 
L 3169 4666 
L 3169 4134 
L 1269 4134 
L 1269 2991 
Q 1406 3038 1543 3061 
Q 1681 3084 1819 3084 
Q 2600 3084 3056 2656 
Q 3513 2228 3513 1497 
Q 3513 744 3044 326 
Q 2575 -91 1722 -91 
Q 1428 -91 1123 -41 
Q 819 9 494 109 
L 494 744 
Q 775 591 1075 516 
Q 1375 441 1709 441 
Q 2250 441 2565 725 
Q 2881 1009 2881 1497 
Q 2881 1984 2565 2268 
Q 2250 2553 1709 2553 
Q 1456 2553 1204 2497 
Q 953 2441 691 2322 
L 691 4666 
z
" transform="scale(0.015625)"/>
       </defs>
       <use xlink:href="#DejaVuSans-35"/>
      </g>
     </g>
    </g>
    <g id="ytick_3">
     <g id="line2d_13">
      <g>
       <use xlink:href="#m3c5972bad2" x="44.67125" y="213.868691" style="stroke: #000000; stroke-width: 0.8"/>
      </g>
     </g>
     <g id="text_14">
      <!-- 10 -->
      <g transform="translate(24.94625 217.66791) scale(0.1 -0.1)">
       <defs>
        <path id="DejaVuSans-31" d="M 794 531 
L 1825 531 
L 1825 4091 
L 703 3866 
L 703 4441 
L 1819 4666 
L 2450 4666 
L 2450 531 
L 3481 531 
L 3481 0 
L 794 0 
L 794 531 
z
" transform="scale(0.015625)"/>
       </defs>
       <use xlink:href="#DejaVuSans-31"/>
       <use xlink:href="#DejaVuSans-30" x="63.623047"/>
      </g>
     </g>
    </g>
    <g id="ytick_4">
     <g id="line2d_14">
      <g>
       <use xlink:href="#m3c5972bad2" x="44.67125" y="173.662122" style="stroke: #000000; stroke-width: 0.8"/>
      </g>
     </g>
     <g id="text_15">
      <!-- 15 -->
      <g transform="translate(24.94625 177.461341) scale(0.1 -0.1)">
       <use xlink:href="#DejaVuSans-31"/>
       <use xlink:href="#DejaVuSans-35" x="63.623047"/>
      </g>
     </g>
    </g>
    <g id="ytick_5">
     <g id="line2d_15">
      <g>
       <use xlink:href="#m3c5972bad2" x="44.67125" y="133.455553" style="stroke: #000000; stroke-width: 0.8"/>
      </g>
     </g>
     <g id="text_16">
      <!-- 20 -->
      <g transform="translate(24.94625 137.254772) scale(0.1 -0.1)">
       <defs>
        <path id="DejaVuSans-32" d="M 1228 531 
L 3431 531 
L 3431 0 
L 469 0 
L 469 531 
Q 828 903 1448 1529 
Q 2069 2156 2228 2338 
Q 2531 2678 2651 2914 
Q 2772 3150 2772 3378 
Q 2772 3750 2511 3984 
Q 2250 4219 1831 4219 
Q 1534 4219 1204 4116 
Q 875 4013 500 3803 
L 500 4441 
Q 881 4594 1212 4672 
Q 1544 4750 1819 4750 
Q 2544 4750 2975 4387 
Q 3406 4025 3406 3419 
Q 3406 3131 3298 2873 
Q 3191 2616 2906 2266 
Q 2828 2175 2409 1742 
Q 1991 1309 1228 531 
z
" transform="scale(0.015625)"/>
       </defs>
       <use xlink:href="#DejaVuSans-32"/>
       <use xlink:href="#DejaVuSans-30" x="63.623047"/>
      </g>
     </g>
    </g>
    <g id="ytick_6">
     <g id="line2d_16">
      <g>
       <use xlink:href="#m3c5972bad2" x="44.67125" y="93.248984" style="stroke: #000000; stroke-width: 0.8"/>
      </g>
     </g>
     <g id="text_17">
      <!-- 25 -->
      <g transform="translate(24.94625 97.048202) scale(0.1 -0.1)">
       <use xlink:href="#DejaVuSans-32"/>
       <use xlink:href="#DejaVuSans-35" x="63.623047"/>
      </g>
     </g>
    </g>
    <g id="ytick_7">
     <g id="line2d_17">
      <g>
       <use xlink:href="#m3c5972bad2" x="44.67125" y="53.042415" style="stroke: #000000; stroke-width: 0.8"/>
      </g>
     </g>
     <g id="text_18">
      <!-- 30 -->
      <g transform="translate(24.94625 56.841633) scale(0.1 -0.1)">
       <defs>
        <path id="DejaVuSans-33" d="M 2597 2516 
Q 3050 2419 3304 2112 
Q 3559 1806 3559 1356 
Q 3559 666 3084 287 
Q 2609 -91 1734 -91 
Q 1441 -91 1130 -33 
Q 819 25 488 141 
L 488 750 
Q 750 597 1062 519 
Q 1375 441 1716 441 
Q 2309 441 2620 675 
Q 2931 909 2931 1356 
Q 2931 1769 2642 2001 
Q 2353 2234 1838 2234 
L 1294 2234 
L 1294 2753 
L 1863 2753 
Q 2328 2753 2575 2939 
Q 2822 3125 2822 3475 
Q 2822 3834 2567 4026 
Q 2313 4219 1838 4219 
Q 1578 4219 1281 4162 
Q 984 4106 628 3988 
L 628 4550 
Q 988 4650 1302 4700 
Q 1616 4750 1894 4750 
Q 2613 4750 3031 4423 
Q 3450 4097 3450 3541 
Q 3450 3153 3228 2886 
Q 3006 2619 2597 2516 
z
" transform="scale(0.015625)"/>
       </defs>
       <use xlink:href="#DejaVuSans-33"/>
       <use xlink:href="#DejaVuSans-30" x="63.623047"/>
      </g>
     </g>
    </g>
    <g id="text_19">
     <!-- greenhouse_gas_emissions -->
     <g transform="translate(18.588438 235.074969) rotate(-90) scale(0.1 -0.1)">
      <defs>
       <path id="DejaVuSans-5f" d="M 3263 -1063 
L 3263 -1509 
L -63 -1509 
L -63 -1063 
L 3263 -1063 
z
" transform="scale(0.015625)"/>
      </defs>
      <use xlink:href="#DejaVuSans-67"/>
      <use xlink:href="#DejaVuSans-72" x="63.476562"/>
      <use xlink:href="#DejaVuSans-65" x="102.339844"/>
      <use xlink:href="#DejaVuSans-65" x="163.863281"/>
      <use xlink:href="#DejaVuSans-6e" x="225.386719"/>
      <use xlink:href="#DejaVuSans-68" x="288.765625"/>
      <use xlink:href="#DejaVuSans-6f" x="352.144531"/>
      <use xlink:href="#DejaVuSans-75" x="413.326172"/>
      <use xlink:href="#DejaVuSans-73" x="476.705078"/>
      <use xlink:href="#DejaVuSans-65" x="528.804688"/>
      <use xlink:href="#DejaVuSans-5f" x="590.328125"/>
      <use xlink:href="#DejaVuSans-67" x="640.328125"/>
      <use xlink:href="#DejaVuSans-61" x="703.804688"/>
      <use xlink:href="#DejaVuSans-73" x="765.083984"/>
      <use xlink:href="#DejaVuSans-5f" x="817.183594"/>
      <use xlink:href="#DejaVuSans-65" x="867.183594"/>
      <use xlink:href="#DejaVuSans-6d" x="928.707031"/>
      <use xlink:href="#DejaVuSans-69" x="1026.119141"/>
      <use xlink:href="#DejaVuSans-73" x="1053.902344"/>
      <use xlink:href="#DejaVuSans-73" x="1106.001953"/>
      <use xlink:href="#DejaVuSans-69" x="1158.101562"/>
      <use xlink:href="#DejaVuSans-6f" x="1185.884766"/>
      <use xlink:href="#DejaVuSans-6e" x="1247.066406"/>
      <use xlink:href="#DejaVuSans-73" x="1310.445312"/>
     </g>
    </g>
   </g>
   <g id="patch_3">
    <path d="M 52.756538 249.170059 
L 117.438838 249.170059 
L 117.438838 225.890455 
L 52.756538 225.890455 
L 52.756538 249.170059 
z
" clip-path="url(#pb38f77f1aa)" style="fill: #3274a1; stroke: #3f3f3f; stroke-linejoin: miter"/>
   </g>
   <g id="line2d_18">
    <path d="M 85.097688 249.170059 
L 85.097688 260.267072 
" clip-path="url(#pb38f77f1aa)" style="fill: none; stroke: #3f3f3f"/>
   </g>
   <g id="line2d_19">
    <path d="M 85.097688 225.890455 
L 85.097688 215.718193 
" clip-path="url(#pb38f77f1aa)" style="fill: none; stroke: #3f3f3f"/>
   </g>
   <g id="line2d_20">
    <path d="M 68.927113 260.267072 
L 101.268263 260.267072 
" clip-path="url(#pb38f77f1aa)" style="fill: none; stroke: #3f3f3f; stroke-linecap: square"/>
   </g>
   <g id="line2d_21">
    <path d="M 68.927113 215.718193 
L 101.268263 215.718193 
" clip-path="url(#pb38f77f1aa)" style="fill: none; stroke: #3f3f3f; stroke-linecap: square"/>
   </g>
   <g id="line2d_22"/>
   <g id="patch_4">
    <path d="M 133.609413 268.991898 
L 198.291713 268.991898 
L 198.291713 259.8248 
L 133.609413 259.8248 
L 133.609413 268.991898 
z
" clip-path="url(#pb38f77f1aa)" style="fill: #3274a1; stroke: #3f3f3f; stroke-linejoin: miter"/>
   </g>
   <g id="line2d_23">
    <path d="M 165.950563 268.991898 
L 165.950563 272.731109 
" clip-path="url(#pb38f77f1aa)" style="fill: none; stroke: #3f3f3f"/>
   </g>
   <g id="line2d_24">
    <path d="M 165.950563 259.8248 
L 165.950563 250.858735 
" clip-path="url(#pb38f77f1aa)" style="fill: none; stroke: #3f3f3f"/>
   </g>
   <g id="line2d_25">
    <path d="M 149.779988 272.731109 
L 182.121138 272.731109 
" clip-path="url(#pb38f77f1aa)" style="fill: none; stroke: #3f3f3f; stroke-linecap: square"/>
   </g>
   <g id="line2d_26">
    <path d="M 149.779988 250.858735 
L 182.121138 250.858735 
" clip-path="url(#pb38f77f1aa)" style="fill: none; stroke: #3f3f3f; stroke-linecap: square"/>
   </g>
   <g id="line2d_27"/>
   <g id="patch_5">
    <path d="M 214.462288 224.925498 
L 279.144588 224.925498 
L 279.144588 118.096644 
L 214.462288 118.096644 
L 214.462288 224.925498 
z
" clip-path="url(#pb38f77f1aa)" style="fill: #3274a1; stroke: #3f3f3f; stroke-linejoin: miter"/>
   </g>
   <g id="line2d_28">
    <path d="M 246.803438 224.925498 
L 246.803438 250.697909 
" clip-path="url(#pb38f77f1aa)" style="fill: none; stroke: #3f3f3f"/>
   </g>
   <g id="line2d_29">
    <path d="M 246.803438 118.096644 
L 246.803438 66.953888 
" clip-path="url(#pb38f77f1aa)" style="fill: none; stroke: #3f3f3f"/>
   </g>
   <g id="line2d_30">
    <path d="M 230.632863 250.697909 
L 262.974013 250.697909 
" clip-path="url(#pb38f77f1aa)" style="fill: none; stroke: #3f3f3f; stroke-linecap: square"/>
   </g>
   <g id="line2d_31">
    <path d="M 230.632863 66.953888 
L 262.974013 66.953888 
" clip-path="url(#pb38f77f1aa)" style="fill: none; stroke: #3f3f3f; stroke-linecap: square"/>
   </g>
   <g id="line2d_32"/>
   <g id="patch_6">
    <path d="M 295.315163 186.246778 
L 359.997463 186.246778 
L 359.997463 106.115086 
L 295.315163 106.115086 
L 295.315163 186.246778 
z
" clip-path="url(#pb38f77f1aa)" style="fill: #3274a1; stroke: #3f3f3f; stroke-linejoin: miter"/>
   </g>
   <g id="line2d_33">
    <path d="M 327.656313 186.246778 
L 327.656313 217.406869 
" clip-path="url(#pb38f77f1aa)" style="fill: none; stroke: #3f3f3f"/>
   </g>
   <g id="line2d_34">
    <path d="M 327.656313 106.115086 
L 327.656313 39.61342 
" clip-path="url(#pb38f77f1aa)" style="fill: none; stroke: #3f3f3f"/>
   </g>
   <g id="line2d_35">
    <path d="M 311.485738 217.406869 
L 343.826888 217.406869 
" clip-path="url(#pb38f77f1aa)" style="fill: none; stroke: #3f3f3f; stroke-linecap: square"/>
   </g>
   <g id="line2d_36">
    <path d="M 311.485738 39.61342 
L 343.826888 39.61342 
" clip-path="url(#pb38f77f1aa)" style="fill: none; stroke: #3f3f3f; stroke-linecap: square"/>
   </g>
   <g id="line2d_37"/>
   <g id="patch_7">
    <path d="M 376.168038 292.351914 
L 440.850338 292.351914 
L 440.850338 290.18076 
L 376.168038 290.18076 
L 376.168038 292.351914 
z
" clip-path="url(#pb38f77f1aa)" style="fill: #3274a1; stroke: #3f3f3f; stroke-linejoin: miter"/>
   </g>
   <g id="line2d_38">
    <path d="M 408.509188 292.351914 
L 408.509188 294.28183 
" clip-path="url(#pb38f77f1aa)" style="fill: none; stroke: #3f3f3f"/>
   </g>
   <g id="line2d_39">
    <path d="M 408.509188 290.18076 
L 408.509188 289.859107 
" clip-path="url(#pb38f77f1aa)" style="fill: none; stroke: #3f3f3f"/>
   </g>
   <g id="line2d_40">
    <path d="M 392.338613 294.28183 
L 424.679763 294.28183 
" clip-path="url(#pb38f77f1aa)" style="fill: none; stroke: #3f3f3f; stroke-linecap: square"/>
   </g>
   <g id="line2d_41">
    <path d="M 392.338613 289.859107 
L 424.679763 289.859107 
" clip-path="url(#pb38f77f1aa)" style="fill: none; stroke: #3f3f3f; stroke-linecap: square"/>
   </g>
   <g id="line2d_42"/>
   <g id="patch_8">
    <path d="M 457.020913 265.694959 
L 521.703213 265.694959 
L 521.703213 255.321664 
L 457.020913 255.321664 
L 457.020913 265.694959 
z
" clip-path="url(#pb38f77f1aa)" style="fill: #3274a1; stroke: #3f3f3f; stroke-linejoin: miter"/>
   </g>
   <g id="line2d_43">
    <path d="M 489.362063 265.694959 
L 489.362063 275.143503 
" clip-path="url(#pb38f77f1aa)" style="fill: none; stroke: #3f3f3f"/>
   </g>
   <g id="line2d_44">
    <path d="M 489.362063 255.321664 
L 489.362063 251.662866 
" clip-path="url(#pb38f77f1aa)" style="fill: none; stroke: #3f3f3f"/>
   </g>
   <g id="line2d_45">
    <path d="M 473.191488 275.143503 
L 505.532638 275.143503 
" clip-path="url(#pb38f77f1aa)" style="fill: none; stroke: #3f3f3f; stroke-linecap: square"/>
   </g>
   <g id="line2d_46">
    <path d="M 473.191488 251.662866 
L 505.532638 251.662866 
" clip-path="url(#pb38f77f1aa)" style="fill: none; stroke: #3f3f3f; stroke-linecap: square"/>
   </g>
   <g id="line2d_47">
    <defs>
     <path id="m72f98f1d10" d="M 0 3 
C 0.795609 3 1.55874 2.683901 2.12132 2.12132 
C 2.683901 1.55874 3 0.795609 3 0 
C 3 -0.795609 2.683901 -1.55874 2.12132 -2.12132 
C 1.55874 -2.683901 0.795609 -3 0 -3 
C -0.795609 -3 -1.55874 -2.683901 -2.12132 -2.12132 
C -2.683901 -1.55874 -3 -0.795609 -3 0 
C -3 0.795609 -2.683901 1.55874 -2.12132 2.12132 
C -1.55874 2.683901 -0.795609 3 0 3 
z
" style="stroke: #3f3f3f"/>
    </defs>
    <g clip-path="url(#pb38f77f1aa)">
     <use xlink:href="#m72f98f1d10" x="489.362063" y="227.458512" style="fill-opacity: 0; stroke: #3f3f3f"/>
    </g>
   </g>
   <g id="patch_9">
    <path d="M 537.873788 267.745494 
L 602.556088 267.745494 
L 602.556088 258.53819 
L 537.873788 258.53819 
L 537.873788 267.745494 
z
" clip-path="url(#pb38f77f1aa)" style="fill: #3274a1; stroke: #3f3f3f; stroke-linejoin: miter"/>
   </g>
   <g id="line2d_48">
    <path d="M 570.214938 267.745494 
L 570.214938 272.570282 
" clip-path="url(#pb38f77f1aa)" style="fill: none; stroke: #3f3f3f"/>
   </g>
   <g id="line2d_49">
    <path d="M 570.214938 258.53819 
L 570.214938 256.407241 
" clip-path="url(#pb38f77f1aa)" style="fill: none; stroke: #3f3f3f"/>
   </g>
   <g id="line2d_50">
    <path d="M 554.044363 272.570282 
L 586.385513 272.570282 
" clip-path="url(#pb38f77f1aa)" style="fill: none; stroke: #3f3f3f; stroke-linecap: square"/>
   </g>
   <g id="line2d_51">
    <path d="M 554.044363 256.407241 
L 586.385513 256.407241 
" clip-path="url(#pb38f77f1aa)" style="fill: none; stroke: #3f3f3f; stroke-linecap: square"/>
   </g>
   <g id="line2d_52"/>
   <g id="patch_10">
    <path d="M 618.726663 264.850621 
L 683.408963 264.850621 
L 683.408963 253.472162 
L 618.726663 253.472162 
L 618.726663 264.850621 
z
" clip-path="url(#pb38f77f1aa)" style="fill: #3274a1; stroke: #3f3f3f; stroke-linejoin: miter"/>
   </g>
   <g id="line2d_53">
    <path d="M 651.067813 264.850621 
L 651.067813 270.640367 
" clip-path="url(#pb38f77f1aa)" style="fill: none; stroke: #3f3f3f"/>
   </g>
   <g id="line2d_54">
    <path d="M 651.067813 253.472162 
L 651.067813 250.295843 
" clip-path="url(#pb38f77f1aa)" style="fill: none; stroke: #3f3f3f"/>
   </g>
   <g id="line2d_55">
    <path d="M 634.897238 270.640367 
L 667.238388 270.640367 
" clip-path="url(#pb38f77f1aa)" style="fill: none; stroke: #3f3f3f; stroke-linecap: square"/>
   </g>
   <g id="line2d_56">
    <path d="M 634.897238 250.295843 
L 667.238388 250.295843 
" clip-path="url(#pb38f77f1aa)" style="fill: none; stroke: #3f3f3f; stroke-linecap: square"/>
   </g>
   <g id="line2d_57"/>
   <g id="patch_11">
    <path d="M 699.579538 129.434896 
L 764.261838 129.434896 
L 764.261838 114.397639 
L 699.579538 114.397639 
L 699.579538 129.434896 
z
" clip-path="url(#pb38f77f1aa)" style="fill: #3274a1; stroke: #3f3f3f; stroke-linejoin: miter"/>
   </g>
   <g id="line2d_58">
    <path d="M 731.920688 129.434896 
L 731.920688 147.769092 
" clip-path="url(#pb38f77f1aa)" style="fill: none; stroke: #3f3f3f"/>
   </g>
   <g id="line2d_59">
    <path d="M 731.920688 114.397639 
L 731.920688 100.486166 
" clip-path="url(#pb38f77f1aa)" style="fill: none; stroke: #3f3f3f"/>
   </g>
   <g id="line2d_60">
    <path d="M 715.750113 147.769092 
L 748.091263 147.769092 
" clip-path="url(#pb38f77f1aa)" style="fill: none; stroke: #3f3f3f; stroke-linecap: square"/>
   </g>
   <g id="line2d_61">
    <path d="M 715.750113 100.486166 
L 748.091263 100.486166 
" clip-path="url(#pb38f77f1aa)" style="fill: none; stroke: #3f3f3f; stroke-linecap: square"/>
   </g>
   <g id="line2d_62"/>
   <g id="patch_12">
    <path d="M 780.432413 232.926605 
L 845.114713 232.926605 
L 845.114713 228.664709 
L 780.432413 228.664709 
L 780.432413 232.926605 
z
" clip-path="url(#pb38f77f1aa)" style="fill: #3274a1; stroke: #3f3f3f; stroke-linejoin: miter"/>
   </g>
   <g id="line2d_63">
    <path d="M 812.773563 232.926605 
L 812.773563 238.796764 
" clip-path="url(#pb38f77f1aa)" style="fill: none; stroke: #3f3f3f"/>
   </g>
   <g id="line2d_64">
    <path d="M 812.773563 228.664709 
L 812.773563 223.598681 
" clip-path="url(#pb38f77f1aa)" style="fill: none; stroke: #3f3f3f"/>
   </g>
   <g id="line2d_65">
    <path d="M 796.602988 238.796764 
L 828.944138 238.796764 
" clip-path="url(#pb38f77f1aa)" style="fill: none; stroke: #3f3f3f; stroke-linecap: square"/>
   </g>
   <g id="line2d_66">
    <path d="M 796.602988 223.598681 
L 828.944138 223.598681 
" clip-path="url(#pb38f77f1aa)" style="fill: none; stroke: #3f3f3f; stroke-linecap: square"/>
   </g>
   <g id="line2d_67">
    <g clip-path="url(#pb38f77f1aa)">
     <use xlink:href="#m72f98f1d10" x="812.773563" y="215.476954" style="fill-opacity: 0; stroke: #3f3f3f"/>
     <use xlink:href="#m72f98f1d10" x="812.773563" y="208.96349" style="fill-opacity: 0; stroke: #3f3f3f"/>
    </g>
   </g>
   <g id="line2d_68">
    <path d="M 52.756538 231.559582 
L 117.438838 231.559582 
" clip-path="url(#pb38f77f1aa)" style="fill: none; stroke: #3f3f3f"/>
   </g>
   <g id="line2d_69">
    <path d="M 133.609413 265.172274 
L 198.291713 265.172274 
" clip-path="url(#pb38f77f1aa)" style="fill: none; stroke: #3f3f3f"/>
   </g>
   <g id="line2d_70">
    <path d="M 214.462288 163.208414 
L 279.144588 163.208414 
" clip-path="url(#pb38f77f1aa)" style="fill: none; stroke: #3f3f3f"/>
   </g>
   <g id="line2d_71">
    <path d="M 295.315163 147.527852 
L 359.997463 147.527852 
" clip-path="url(#pb38f77f1aa)" style="fill: none; stroke: #3f3f3f"/>
   </g>
   <g id="line2d_72">
    <path d="M 376.168038 290.582825 
L 440.850338 290.582825 
" clip-path="url(#pb38f77f1aa)" style="fill: none; stroke: #3f3f3f"/>
   </g>
   <g id="line2d_73">
    <path d="M 457.020913 259.462941 
L 521.703213 259.462941 
" clip-path="url(#pb38f77f1aa)" style="fill: none; stroke: #3f3f3f"/>
   </g>
   <g id="line2d_74">
    <path d="M 537.873788 260.588725 
L 602.556088 260.588725 
" clip-path="url(#pb38f77f1aa)" style="fill: none; stroke: #3f3f3f"/>
   </g>
   <g id="line2d_75">
    <path d="M 618.726663 257.050547 
L 683.408963 257.050547 
" clip-path="url(#pb38f77f1aa)" style="fill: none; stroke: #3f3f3f"/>
   </g>
   <g id="line2d_76">
    <path d="M 699.579538 120.187385 
L 764.261838 120.187385 
" clip-path="url(#pb38f77f1aa)" style="fill: none; stroke: #3f3f3f"/>
   </g>
   <g id="line2d_77">
    <path d="M 780.432413 231.237929 
L 845.114713 231.237929 
" clip-path="url(#pb38f77f1aa)" style="fill: none; stroke: #3f3f3f"/>
   </g>
   <g id="patch_13">
    <path d="M 44.67125 307.01525 
L 44.67125 26.88 
" style="fill: none; stroke: #000000; stroke-width: 0.8; stroke-linejoin: miter; stroke-linecap: square"/>
   </g>
   <g id="patch_14">
    <path d="M 853.2 307.01525 
L 853.2 26.88 
" style="fill: none; stroke: #000000; stroke-width: 0.8; stroke-linejoin: miter; stroke-linecap: square"/>
   </g>
   <g id="patch_15">
    <path d="M 44.67125 307.01525 
L 853.2 307.01525 
" style="fill: none; stroke: #000000; stroke-width: 0.8; stroke-linejoin: miter; stroke-linecap: square"/>
   </g>
   <g id="patch_16">
    <path d="M 44.67125 26.88 
L 853.2 26.88 
" style="fill: none; stroke: #000000; stroke-width: 0.8; stroke-linejoin: miter; stroke-linecap: square"/>
   </g>
   <g id="text_20">
    <!-- Greenhouse Gas Emissions Distribution (2000–2023) -->
    <g transform="translate(290.551563 20.88) scale(0.12 -0.12)">
     <defs>
      <path id="DejaVuSans-47" d="M 3809 666 
L 3809 1919 
L 2778 1919 
L 2778 2438 
L 4434 2438 
L 4434 434 
Q 4069 175 3628 42 
Q 3188 -91 2688 -91 
Q 1594 -91 976 548 
Q 359 1188 359 2328 
Q 359 3472 976 4111 
Q 1594 4750 2688 4750 
Q 3144 4750 3555 4637 
Q 3966 4525 4313 4306 
L 4313 3634 
Q 3963 3931 3569 4081 
Q 3175 4231 2741 4231 
Q 1884 4231 1454 3753 
Q 1025 3275 1025 2328 
Q 1025 1384 1454 906 
Q 1884 428 2741 428 
Q 3075 428 3337 486 
Q 3600 544 3809 666 
z
" transform="scale(0.015625)"/>
      <path id="DejaVuSans-45" d="M 628 4666 
L 3578 4666 
L 3578 4134 
L 1259 4134 
L 1259 2753 
L 3481 2753 
L 3481 2222 
L 1259 2222 
L 1259 531 
L 3634 531 
L 3634 0 
L 628 0 
L 628 4666 
z
" transform="scale(0.015625)"/>
      <path id="DejaVuSans-28" d="M 1984 4856 
Q 1566 4138 1362 3434 
Q 1159 2731 1159 2009 
Q 1159 1288 1364 580 
Q 1569 -128 1984 -844 
L 1484 -844 
Q 1016 -109 783 600 
Q 550 1309 550 2009 
Q 550 2706 781 3412 
Q 1013 4119 1484 4856 
L 1984 4856 
z
" transform="scale(0.015625)"/>
      <path id="DejaVuSans-2013" d="M 313 1978 
L 2888 1978 
L 2888 1528 
L 313 1528 
L 313 1978 
z
" transform="scale(0.015625)"/>
      <path id="DejaVuSans-29" d="M 513 4856 
L 1013 4856 
Q 1481 4119 1714 3412 
Q 1947 2706 1947 2009 
Q 1947 1309 1714 600 
Q 1481 -109 1013 -844 
L 513 -844 
Q 928 -128 1133 580 
Q 1338 1288 1338 2009 
Q 1338 2731 1133 3434 
Q 928 4138 513 4856 
z
" transform="scale(0.015625)"/>
     </defs>
     <use xlink:href="#DejaVuSans-47"/>
     <use xlink:href="#DejaVuSans-72" x="77.490234"/>
     <use xlink:href="#DejaVuSans-65" x="116.353516"/>
     <use xlink:href="#DejaVuSans-65" x="177.876953"/>
     <use xlink:href="#DejaVuSans-6e" x="239.400391"/>
     <use xlink:href="#DejaVuSans-68" x="302.779297"/>
     <use xlink:href="#DejaVuSans-6f" x="366.158203"/>
     <use xlink:href="#DejaVuSans-75" x="427.339844"/>
     <use xlink:href="#DejaVuSans-73" x="490.71875"/>
     <use xlink:href="#DejaVuSans-65" x="542.818359"/>
     <use xlink:href="#DejaVuSans-20" x="604.341797"/>
     <use xlink:href="#DejaVuSans-47" x="636.128906"/>
     <use xlink:href="#DejaVuSans-61" x="713.619141"/>
     <use xlink:href="#DejaVuSans-73" x="774.898438"/>
     <use xlink:href="#DejaVuSans-20" x="826.998047"/>
     <use xlink:href="#DejaVuSans-45" x="858.785156"/>
     <use xlink:href="#DejaVuSans-6d" x="921.96875"/>
     <use xlink:href="#DejaVuSans-69" x="1019.380859"/>
     <use xlink:href="#DejaVuSans-73" x="1047.164062"/>
     <use xlink:href="#DejaVuSans-73" x="1099.263672"/>
     <use xlink:href="#DejaVuSans-69" x="1151.363281"/>
     <use xlink:href="#DejaVuSans-6f" x="1179.146484"/>
     <use xlink:href="#DejaVuSans-6e" x="1240.328125"/>
     <use xlink:href="#DejaVuSans-73" x="1303.707031"/>
     <use xlink:href="#DejaVuSans-20" x="1355.806641"/>
     <use xlink:href="#DejaVuSans-44" x="1387.59375"/>
     <use xlink:href="#DejaVuSans-69" x="1464.595703"/>
     <use xlink:href="#DejaVuSans-73" x="1492.378906"/>
     <use xlink:href="#DejaVuSans-74" x="1544.478516"/>
     <use xlink:href="#DejaVuSans-72" x="1583.6875"/>
     <use xlink:href="#DejaVuSans-69" x="1624.800781"/>
     <use xlink:href="#DejaVuSans-62" x="1652.583984"/>
     <use xlink:href="#DejaVuSans-75" x="1716.060547"/>
     <use xlink:href="#DejaVuSans-74" x="1779.439453"/>
     <use xlink:href="#DejaVuSans-69" x="1818.648438"/>
     <use xlink:href="#DejaVuSans-6f" x="1846.431641"/>
     <use xlink:href="#DejaVuSans-6e" x="1907.613281"/>
     <use xlink:href="#DejaVuSans-20" x="1970.992188"/>
     <use xlink:href="#DejaVuSans-28" x="2002.779297"/>
     <use xlink:href="#DejaVuSans-32" x="2041.792969"/>
     <use xlink:href="#DejaVuSans-30" x="2105.416016"/>
     <use xlink:href="#DejaVuSans-30" x="2169.039062"/>
     <use xlink:href="#DejaVuSans-30" x="2232.662109"/>
     <use xlink:href="#DejaVuSans-2013" x="2296.285156"/>
     <use xlink:href="#DejaVuSans-32" x="2346.285156"/>
     <use xlink:href="#DejaVuSans-30" x="2409.908203"/>
     <use xlink:href="#DejaVuSans-32" x="2473.53125"/>
     <use xlink:href="#DejaVuSans-33" x="2537.154297"/>
     <use xlink:href="#DejaVuSans-29" x="2600.777344"/>
    </g>
   </g>
  </g>
 </g>
 <defs>
  <clipPath id="pb38f77f1aa">
   <rect x="44.67125" y="26.88" width="808.52875" height="280.13525"/>
  </clipPath>
 </defs>
</svg>
