<?xml version="1.0" encoding="utf-8" standalone="no"?>
<!DOCTYPE svg PUBLIC "-//W3C//DTD SVG 1.1//EN"
  "http://www.w3.org/Graphics/SVG/1.1/DTD/svg11.dtd">
<svg xmlns:xlink="http://www.w3.org/1999/xlink" width="1008pt" height="576pt" viewBox="0 0 1008 576" xmlns="http://www.w3.org/2000/svg" version="1.1">
 <metadata>
  <rdf:RDF xmlns:dc="http://purl.org/dc/elements/1.1/" xmlns:cc="http://creativecommons.org/ns#" xmlns:rdf="http://www.w3.org/1999/02/22-rdf-syntax-ns#">
   <cc:Work>
    <dc:type rdf:resource="http://purl.org/dc/dcmitype/StillImage"/>
    <dc:date>2025-04-22T23:03:52.806720</dc:date>
    <dc:format>image/svg+xml</dc:format>
    <dc:creator>
     <cc:Agent>
      <dc:title>Matplotlib v3.9.2, https://matplotlib.org/</dc:title>
     </cc:Agent>
    </dc:creator>
   </cc:Work>
  </rdf:RDF>
 </metadata>
 <defs>
  <style type="text/css">*{stroke-linejoin: round; stroke-linecap: butt}</style>
 </defs>
 <g id="figure_1">
  <g id="patch_1">
   <path d="M 0 576 
L 1008 576 
L 1008 0 
L 0 0 
z
" style="fill: #ffffff"/>
  </g>
  <g id="axes_1">
   <g id="patch_2">
    <path d="M 50.87 534.04 
L 795.55 534.04 
L 795.55 26.88 
L 50.87 26.88 
z
" style="fill: #ffffff"/>
   </g>
   <g id="PolyCollection_1"/>
   <g id="PolyCollection_2"/>
   <g id="PolyCollection_3"/>
   <g id="PolyCollection_4"/>
   <g id="PolyCollection_5"/>
   <g id="PolyCollection_6"/>
   <g id="PolyCollection_7"/>
   <g id="PolyCollection_8"/>
   <g id="PolyCollection_9"/>
   <g id="PolyCollection_10"/>
   <g id="matplotlib.axis_1">
    <g id="xtick_1">
     <g id="line2d_1">
      <defs>
       <path id="m3dd50107ca" d="M 0 0 
L 0 3.5 
" style="stroke: #000000; stroke-width: 0.8"/>
      </defs>
      <g>
       <use xlink:href="#m3dd50107ca" x="84.719091" y="534.04" style="stroke: #000000; stroke-width: 0.8"/>
      </g>
     </g>
     <g id="text_1">
      <!-- 2000 -->
      <g transform="translate(71.994091 548.638438) scale(0.1 -0.1)">
       <defs>
        <path id="DejaVuSans-32" d="M 1228 531 
L 3431 531 
L 3431 0 
L 469 0 
L 469 531 
Q 828 903 1448 1529 
Q 2069 2156 2228 2338 
Q 2531 2678 2651 2914 
Q 2772 3150 2772 3378 
Q 2772 3750 2511 3984 
Q 2250 4219 1831 4219 
Q 1534 4219 1204 4116 
Q 875 4013 500 3803 
L 500 4441 
Q 881 4594 1212 4672 
Q 1544 4750 1819 4750 
Q 2544 4750 2975 4387 
Q 3406 4025 3406 3419 
Q 3406 3131 3298 2873 
Q 3191 2616 2906 2266 
Q 2828 2175 2409 1742 
Q 1991 1309 1228 531 
z
" transform="scale(0.015625)"/>
        <path id="DejaVuSans-30" d="M 2034 4250 
Q 1547 4250 1301 3770 
Q 1056 3291 1056 2328 
Q 1056 1369 1301 889 
Q 1547 409 2034 409 
Q 2525 409 2770 889 
Q 3016 1369 3016 2328 
Q 3016 3291 2770 3770 
Q 2525 4250 2034 4250 
z
M 2034 4750 
Q 2819 4750 3233 4129 
Q 3647 3509 3647 2328 
Q 3647 1150 3233 529 
Q 2819 -91 2034 -91 
Q 1250 -91 836 529 
Q 422 1150 422 2328 
Q 422 3509 836 4129 
Q 1250 4750 2034 4750 
z
" transform="scale(0.015625)"/>
       </defs>
       <use xlink:href="#DejaVuSans-32"/>
       <use xlink:href="#DejaVuSans-30" x="63.623047"/>
       <use xlink:href="#DejaVuSans-30" x="127.246094"/>
       <use xlink:href="#DejaVuSans-30" x="190.869141"/>
      </g>
     </g>
    </g>
    <g id="xtick_2">
     <g id="line2d_2">
      <g>
       <use xlink:href="#m3dd50107ca" x="238.578595" y="534.04" style="stroke: #000000; stroke-width: 0.8"/>
      </g>
     </g>
     <g id="text_2">
      <!-- 2005 -->
      <g transform="translate(225.853595 548.638438) scale(0.1 -0.1)">
       <defs>
        <path id="DejaVuSans-35" d="M 691 4666 
L 3169 4666 
L 3169 4134 
L 1269 4134 
L 1269 2991 
Q 1406 3038 1543 3061 
Q 1681 3084 1819 3084 
Q 2600 3084 3056 2656 
Q 3513 2228 3513 1497 
Q 3513 744 3044 326 
Q 2575 -91 1722 -91 
Q 1428 -91 1123 -41 
Q 819 9 494 109 
L 494 744 
Q 775 591 1075 516 
Q 1375 441 1709 441 
Q 2250 441 2565 725 
Q 2881 1009 2881 1497 
Q 2881 1984 2565 2268 
Q 2250 2553 1709 2553 
Q 1456 2553 1204 2497 
Q 953 2441 691 2322 
L 691 4666 
z
" transform="scale(0.015625)"/>
       </defs>
       <use xlink:href="#DejaVuSans-32"/>
       <use xlink:href="#DejaVuSans-30" x="63.623047"/>
       <use xlink:href="#DejaVuSans-30" x="127.246094"/>
       <use xlink:href="#DejaVuSans-35" x="190.869141"/>
      </g>
     </g>
    </g>
    <g id="xtick_3">
     <g id="line2d_3">
      <g>
       <use xlink:href="#m3dd50107ca" x="392.438099" y="534.04" style="stroke: #000000; stroke-width: 0.8"/>
      </g>
     </g>
     <g id="text_3">
      <!-- 2010 -->
      <g transform="translate(379.713099 548.638438) scale(0.1 -0.1)">
       <defs>
        <path id="DejaVuSans-31" d="M 794 531 
L 1825 531 
L 1825 4091 
L 703 3866 
L 703 4441 
L 1819 4666 
L 2450 4666 
L 2450 531 
L 3481 531 
L 3481 0 
L 794 0 
L 794 531 
z
" transform="scale(0.015625)"/>
       </defs>
       <use xlink:href="#DejaVuSans-32"/>
       <use xlink:href="#DejaVuSans-30" x="63.623047"/>
       <use xlink:href="#DejaVuSans-31" x="127.246094"/>
       <use xlink:href="#DejaVuSans-30" x="190.869141"/>
      </g>
     </g>
    </g>
    <g id="xtick_4">
     <g id="line2d_4">
      <g>
       <use xlink:href="#m3dd50107ca" x="546.297603" y="534.04" style="stroke: #000000; stroke-width: 0.8"/>
      </g>
     </g>
     <g id="text_4">
      <!-- 2015 -->
      <g transform="translate(533.572603 548.638438) scale(0.1 -0.1)">
       <use xlink:href="#DejaVuSans-32"/>
       <use xlink:href="#DejaVuSans-30" x="63.623047"/>
       <use xlink:href="#DejaVuSans-31" x="127.246094"/>
       <use xlink:href="#DejaVuSans-35" x="190.869141"/>
      </g>
     </g>
    </g>
    <g id="xtick_5">
     <g id="line2d_5">
      <g>
       <use xlink:href="#m3dd50107ca" x="700.157107" y="534.04" style="stroke: #000000; stroke-width: 0.8"/>
      </g>
     </g>
     <g id="text_5">
      <!-- 2020 -->
      <g transform="translate(687.432107 548.638438) scale(0.1 -0.1)">
       <use xlink:href="#DejaVuSans-32"/>
       <use xlink:href="#DejaVuSans-30" x="63.623047"/>
       <use xlink:href="#DejaVuSans-32" x="127.246094"/>
       <use xlink:href="#DejaVuSans-30" x="190.869141"/>
      </g>
     </g>
    </g>
    <g id="text_6">
     <!-- Year -->
     <g transform="translate(412.6225 562.316562) scale(0.1 -0.1)">
      <defs>
       <path id="DejaVuSans-59" d="M -13 4666 
L 666 4666 
L 1959 2747 
L 3244 4666 
L 3922 4666 
L 2272 2222 
L 2272 0 
L 1638 0 
L 1638 2222 
L -13 4666 
z
" transform="scale(0.015625)"/>
       <path id="DejaVuSans-65" d="M 3597 1894 
L 3597 1613 
L 953 1613 
Q 991 1019 1311 708 
Q 1631 397 2203 397 
Q 2534 397 2845 478 
Q 3156 559 3463 722 
L 3463 178 
Q 3153 47 2828 -22 
Q 2503 -91 2169 -91 
Q 1331 -91 842 396 
Q 353 884 353 1716 
Q 353 2575 817 3079 
Q 1281 3584 2069 3584 
Q 2775 3584 3186 3129 
Q 3597 2675 3597 1894 
z
M 3022 2063 
Q 3016 2534 2758 2815 
Q 2500 3097 2075 3097 
Q 1594 3097 1305 2825 
Q 1016 2553 972 2059 
L 3022 2063 
z
" transform="scale(0.015625)"/>
       <path id="DejaVuSans-61" d="M 2194 1759 
Q 1497 1759 1228 1600 
Q 959 1441 959 1056 
Q 959 750 1161 570 
Q 1363 391 1709 391 
Q 2188 391 2477 730 
Q 2766 1069 2766 1631 
L 2766 1759 
L 2194 1759 
z
M 3341 1997 
L 3341 0 
L 2766 0 
L 2766 531 
Q 2569 213 2275 61 
Q 1981 -91 1556 -91 
Q 1019 -91 701 211 
Q 384 513 384 1019 
Q 384 1609 779 1909 
Q 1175 2209 1959 2209 
L 2766 2209 
L 2766 2266 
Q 2766 2663 2505 2880 
Q 2244 3097 1772 3097 
Q 1472 3097 1187 3025 
Q 903 2953 641 2809 
L 641 3341 
Q 956 3463 1253 3523 
Q 1550 3584 1831 3584 
Q 2591 3584 2966 3190 
Q 3341 2797 3341 1997 
z
" transform="scale(0.015625)"/>
       <path id="DejaVuSans-72" d="M 2631 2963 
Q 2534 3019 2420 3045 
Q 2306 3072 2169 3072 
Q 1681 3072 1420 2755 
Q 1159 2438 1159 1844 
L 1159 0 
L 581 0 
L 581 3500 
L 1159 3500 
L 1159 2956 
Q 1341 3275 1631 3429 
Q 1922 3584 2338 3584 
Q 2397 3584 2469 3576 
Q 2541 3569 2628 3553 
L 2631 2963 
z
" transform="scale(0.015625)"/>
      </defs>
      <use xlink:href="#DejaVuSans-59"/>
      <use xlink:href="#DejaVuSans-65" x="47.833984"/>
      <use xlink:href="#DejaVuSans-61" x="109.357422"/>
      <use xlink:href="#DejaVuSans-72" x="170.636719"/>
     </g>
    </g>
   </g>
   <g id="matplotlib.axis_2">
    <g id="ytick_1">
     <g id="line2d_6">
      <defs>
       <path id="m20be7b06aa" d="M 0 0 
L -3.5 0 
" style="stroke: #000000; stroke-width: 0.8"/>
      </defs>
      <g>
       <use xlink:href="#m20be7b06aa" x="50.87" y="510.987273" style="stroke: #000000; stroke-width: 0.8"/>
      </g>
     </g>
     <g id="text_7">
      <!-- 0 -->
      <g transform="translate(37.5075 514.786491) scale(0.1 -0.1)">
       <use xlink:href="#DejaVuSans-30"/>
      </g>
     </g>
    </g>
    <g id="ytick_2">
     <g id="line2d_7">
      <g>
       <use xlink:href="#m20be7b06aa" x="50.87" y="402.569156" style="stroke: #000000; stroke-width: 0.8"/>
      </g>
     </g>
     <g id="text_8">
      <!-- 50 -->
      <g transform="translate(31.145 406.368375) scale(0.1 -0.1)">
       <use xlink:href="#DejaVuSans-35"/>
       <use xlink:href="#DejaVuSans-30" x="63.623047"/>
      </g>
     </g>
    </g>
    <g id="ytick_3">
     <g id="line2d_8">
      <g>
       <use xlink:href="#m20be7b06aa" x="50.87" y="294.15104" style="stroke: #000000; stroke-width: 0.8"/>
      </g>
     </g>
     <g id="text_9">
      <!-- 100 -->
      <g transform="translate(24.7825 297.950259) scale(0.1 -0.1)">
       <use xlink:href="#DejaVuSans-31"/>
       <use xlink:href="#DejaVuSans-30" x="63.623047"/>
       <use xlink:href="#DejaVuSans-30" x="127.246094"/>
      </g>
     </g>
    </g>
    <g id="ytick_4">
     <g id="line2d_9">
      <g>
       <use xlink:href="#m20be7b06aa" x="50.87" y="185.732923" style="stroke: #000000; stroke-width: 0.8"/>
      </g>
     </g>
     <g id="text_10">
      <!-- 150 -->
      <g transform="translate(24.7825 189.532142) scale(0.1 -0.1)">
       <use xlink:href="#DejaVuSans-31"/>
       <use xlink:href="#DejaVuSans-35" x="63.623047"/>
       <use xlink:href="#DejaVuSans-30" x="127.246094"/>
      </g>
     </g>
    </g>
    <g id="ytick_5">
     <g id="line2d_10">
      <g>
       <use xlink:href="#m20be7b06aa" x="50.87" y="77.314807" style="stroke: #000000; stroke-width: 0.8"/>
      </g>
     </g>
     <g id="text_11">
      <!-- 200 -->
      <g transform="translate(24.7825 81.114026) scale(0.1 -0.1)">
       <use xlink:href="#DejaVuSans-32"/>
       <use xlink:href="#DejaVuSans-30" x="63.623047"/>
       <use xlink:href="#DejaVuSans-30" x="127.246094"/>
      </g>
     </g>
    </g>
    <g id="text_12">
     <!-- Oil Consumption -->
     <g transform="translate(18.702812 321.877969) rotate(-90) scale(0.1 -0.1)">
      <defs>
       <path id="DejaVuSans-4f" d="M 2522 4238 
Q 1834 4238 1429 3725 
Q 1025 3213 1025 2328 
Q 1025 1447 1429 934 
Q 1834 422 2522 422 
Q 3209 422 3611 934 
Q 4013 1447 4013 2328 
Q 4013 3213 3611 3725 
Q 3209 4238 2522 4238 
z
M 2522 4750 
Q 3503 4750 4090 4092 
Q 4678 3434 4678 2328 
Q 4678 1225 4090 567 
Q 3503 -91 2522 -91 
Q 1538 -91 948 565 
Q 359 1222 359 2328 
Q 359 3434 948 4092 
Q 1538 4750 2522 4750 
z
" transform="scale(0.015625)"/>
       <path id="DejaVuSans-69" d="M 603 3500 
L 1178 3500 
L 1178 0 
L 603 0 
L 603 3500 
z
M 603 4863 
L 1178 4863 
L 1178 4134 
L 603 4134 
L 603 4863 
z
" transform="scale(0.015625)"/>
       <path id="DejaVuSans-6c" d="M 603 4863 
L 1178 4863 
L 1178 0 
L 603 0 
L 603 4863 
z
" transform="scale(0.015625)"/>
       <path id="DejaVuSans-20" transform="scale(0.015625)"/>
       <path id="DejaVuSans-43" d="M 4122 4306 
L 4122 3641 
Q 3803 3938 3442 4084 
Q 3081 4231 2675 4231 
Q 1875 4231 1450 3742 
Q 1025 3253 1025 2328 
Q 1025 1406 1450 917 
Q 1875 428 2675 428 
Q 3081 428 3442 575 
Q 3803 722 4122 1019 
L 4122 359 
Q 3791 134 3420 21 
Q 3050 -91 2638 -91 
Q 1578 -91 968 557 
Q 359 1206 359 2328 
Q 359 3453 968 4101 
Q 1578 4750 2638 4750 
Q 3056 4750 3426 4639 
Q 3797 4528 4122 4306 
z
" transform="scale(0.015625)"/>
       <path id="DejaVuSans-6f" d="M 1959 3097 
Q 1497 3097 1228 2736 
Q 959 2375 959 1747 
Q 959 1119 1226 758 
Q 1494 397 1959 397 
Q 2419 397 2687 759 
Q 2956 1122 2956 1747 
Q 2956 2369 2687 2733 
Q 2419 3097 1959 3097 
z
M 1959 3584 
Q 2709 3584 3137 3096 
Q 3566 2609 3566 1747 
Q 3566 888 3137 398 
Q 2709 -91 1959 -91 
Q 1206 -91 779 398 
Q 353 888 353 1747 
Q 353 2609 779 3096 
Q 1206 3584 1959 3584 
z
" transform="scale(0.015625)"/>
       <path id="DejaVuSans-6e" d="M 3513 2113 
L 3513 0 
L 2938 0 
L 2938 2094 
Q 2938 2591 2744 2837 
Q 2550 3084 2163 3084 
Q 1697 3084 1428 2787 
Q 1159 2491 1159 1978 
L 1159 0 
L 581 0 
L 581 3500 
L 1159 3500 
L 1159 2956 
Q 1366 3272 1645 3428 
Q 1925 3584 2291 3584 
Q 2894 3584 3203 3211 
Q 3513 2838 3513 2113 
z
" transform="scale(0.015625)"/>
       <path id="DejaVuSans-73" d="M 2834 3397 
L 2834 2853 
Q 2591 2978 2328 3040 
Q 2066 3103 1784 3103 
Q 1356 3103 1142 2972 
Q 928 2841 928 2578 
Q 928 2378 1081 2264 
Q 1234 2150 1697 2047 
L 1894 2003 
Q 2506 1872 2764 1633 
Q 3022 1394 3022 966 
Q 3022 478 2636 193 
Q 2250 -91 1575 -91 
Q 1294 -91 989 -36 
Q 684 19 347 128 
L 347 722 
Q 666 556 975 473 
Q 1284 391 1588 391 
Q 1994 391 2212 530 
Q 2431 669 2431 922 
Q 2431 1156 2273 1281 
Q 2116 1406 1581 1522 
L 1381 1569 
Q 847 1681 609 1914 
Q 372 2147 372 2553 
Q 372 3047 722 3315 
Q 1072 3584 1716 3584 
Q 2034 3584 2315 3537 
Q 2597 3491 2834 3397 
z
" transform="scale(0.015625)"/>
       <path id="DejaVuSans-75" d="M 544 1381 
L 544 3500 
L 1119 3500 
L 1119 1403 
Q 1119 906 1312 657 
Q 1506 409 1894 409 
Q 2359 409 2629 706 
Q 2900 1003 2900 1516 
L 2900 3500 
L 3475 3500 
L 3475 0 
L 2900 0 
L 2900 538 
Q 2691 219 2414 64 
Q 2138 -91 1772 -91 
Q 1169 -91 856 284 
Q 544 659 544 1381 
z
M 1991 3584 
L 1991 3584 
z
" transform="scale(0.015625)"/>
       <path id="DejaVuSans-6d" d="M 3328 2828 
Q 3544 3216 3844 3400 
Q 4144 3584 4550 3584 
Q 5097 3584 5394 3201 
Q 5691 2819 5691 2113 
L 5691 0 
L 5113 0 
L 5113 2094 
Q 5113 2597 4934 2840 
Q 4756 3084 4391 3084 
Q 3944 3084 3684 2787 
Q 3425 2491 3425 1978 
L 3425 0 
L 2847 0 
L 2847 2094 
Q 2847 2600 2669 2842 
Q 2491 3084 2119 3084 
Q 1678 3084 1418 2786 
Q 1159 2488 1159 1978 
L 1159 0 
L 581 0 
L 581 3500 
L 1159 3500 
L 1159 2956 
Q 1356 3278 1631 3431 
Q 1906 3584 2284 3584 
Q 2666 3584 2933 3390 
Q 3200 3197 3328 2828 
z
" transform="scale(0.015625)"/>
       <path id="DejaVuSans-70" d="M 1159 525 
L 1159 -1331 
L 581 -1331 
L 581 3500 
L 1159 3500 
L 1159 2969 
Q 1341 3281 1617 3432 
Q 1894 3584 2278 3584 
Q 2916 3584 3314 3078 
Q 3713 2572 3713 1747 
Q 3713 922 3314 415 
Q 2916 -91 2278 -91 
Q 1894 -91 1617 61 
Q 1341 213 1159 525 
z
M 3116 1747 
Q 3116 2381 2855 2742 
Q 2594 3103 2138 3103 
Q 1681 3103 1420 2742 
Q 1159 2381 1159 1747 
Q 1159 1113 1420 752 
Q 1681 391 2138 391 
Q 2594 391 2855 752 
Q 3116 1113 3116 1747 
z
" transform="scale(0.015625)"/>
       <path id="DejaVuSans-74" d="M 1172 4494 
L 1172 3500 
L 2356 3500 
L 2356 3053 
L 1172 3053 
L 1172 1153 
Q 1172 725 1289 603 
Q 1406 481 1766 481 
L 2356 481 
L 2356 0 
L 1766 0 
Q 1100 0 847 248 
Q 594 497 594 1153 
L 594 3053 
L 172 3053 
L 172 3500 
L 594 3500 
L 594 4494 
L 1172 4494 
z
" transform="scale(0.015625)"/>
      </defs>
      <use xlink:href="#DejaVuSans-4f"/>
      <use xlink:href="#DejaVuSans-69" x="78.710938"/>
      <use xlink:href="#DejaVuSans-6c" x="106.494141"/>
      <use xlink:href="#DejaVuSans-20" x="134.277344"/>
      <use xlink:href="#DejaVuSans-43" x="166.064453"/>
      <use xlink:href="#DejaVuSans-6f" x="235.888672"/>
      <use xlink:href="#DejaVuSans-6e" x="297.070312"/>
      <use xlink:href="#DejaVuSans-73" x="360.449219"/>
      <use xlink:href="#DejaVuSans-75" x="412.548828"/>
      <use xlink:href="#DejaVuSans-6d" x="475.927734"/>
      <use xlink:href="#DejaVuSans-70" x="573.339844"/>
      <use xlink:href="#DejaVuSans-74" x="636.816406"/>
      <use xlink:href="#DejaVuSans-69" x="676.025391"/>
      <use xlink:href="#DejaVuSans-6f" x="703.808594"/>
      <use xlink:href="#DejaVuSans-6e" x="764.990234"/>
     </g>
    </g>
   </g>
   <g id="line2d_11">
    <path d="M 84.719091 510.987273 
L 115.490992 510.987273 
L 146.262893 510.987273 
L 177.034793 510.987273 
L 207.806694 510.987273 
L 238.578595 510.987273 
L 269.350496 510.987273 
L 300.122397 510.987273 
L 330.894298 510.987273 
L 361.666198 510.987273 
L 392.438099 510.987273 
L 423.21 510.987273 
L 453.981901 510.987273 
L 484.753802 510.987273 
L 515.525702 510.987273 
L 546.297603 510.987273 
L 577.069504 510.987273 
L 607.841405 510.987273 
L 638.613306 510.987273 
L 669.385207 510.987273 
L 700.157107 510.987273 
L 730.929008 510.987273 
L 761.700909 510.987273 
" clip-path="url(#p66949bec08)" style="fill: none; stroke: #1f77b4; stroke-width: 1.5; stroke-linecap: square"/>
    <defs>
     <path id="me0cd3819e5" d="M 0 3 
C 0.795609 3 1.55874 2.683901 2.12132 2.12132 
C 2.683901 1.55874 3 0.795609 3 0 
C 3 -0.795609 2.683901 -1.55874 2.12132 -2.12132 
C 1.55874 -2.683901 0.795609 -3 0 -3 
C -0.795609 -3 -1.55874 -2.683901 -2.12132 -2.12132 
C -2.683901 -1.55874 -3 -0.795609 -3 0 
C -3 0.795609 -2.683901 1.55874 -2.12132 2.12132 
C -1.55874 2.683901 -0.795609 3 0 3 
z
" style="stroke: #ffffff; stroke-width: 0.75"/>
    </defs>
    <g clip-path="url(#p66949bec08)">
     <use xlink:href="#me0cd3819e5" x="84.719091" y="510.987273" style="fill: #1f77b4; stroke: #ffffff; stroke-width: 0.75"/>
     <use xlink:href="#me0cd3819e5" x="115.490992" y="510.987273" style="fill: #1f77b4; stroke: #ffffff; stroke-width: 0.75"/>
     <use xlink:href="#me0cd3819e5" x="146.262893" y="510.987273" style="fill: #1f77b4; stroke: #ffffff; stroke-width: 0.75"/>
     <use xlink:href="#me0cd3819e5" x="177.034793" y="510.987273" style="fill: #1f77b4; stroke: #ffffff; stroke-width: 0.75"/>
     <use xlink:href="#me0cd3819e5" x="207.806694" y="510.987273" style="fill: #1f77b4; stroke: #ffffff; stroke-width: 0.75"/>
     <use xlink:href="#me0cd3819e5" x="238.578595" y="510.987273" style="fill: #1f77b4; stroke: #ffffff; stroke-width: 0.75"/>
     <use xlink:href="#me0cd3819e5" x="269.350496" y="510.987273" style="fill: #1f77b4; stroke: #ffffff; stroke-width: 0.75"/>
     <use xlink:href="#me0cd3819e5" x="300.122397" y="510.987273" style="fill: #1f77b4; stroke: #ffffff; stroke-width: 0.75"/>
     <use xlink:href="#me0cd3819e5" x="330.894298" y="510.987273" style="fill: #1f77b4; stroke: #ffffff; stroke-width: 0.75"/>
     <use xlink:href="#me0cd3819e5" x="361.666198" y="510.987273" style="fill: #1f77b4; stroke: #ffffff; stroke-width: 0.75"/>
     <use xlink:href="#me0cd3819e5" x="392.438099" y="510.987273" style="fill: #1f77b4; stroke: #ffffff; stroke-width: 0.75"/>
     <use xlink:href="#me0cd3819e5" x="423.21" y="510.987273" style="fill: #1f77b4; stroke: #ffffff; stroke-width: 0.75"/>
     <use xlink:href="#me0cd3819e5" x="453.981901" y="510.987273" style="fill: #1f77b4; stroke: #ffffff; stroke-width: 0.75"/>
     <use xlink:href="#me0cd3819e5" x="484.753802" y="510.987273" style="fill: #1f77b4; stroke: #ffffff; stroke-width: 0.75"/>
     <use xlink:href="#me0cd3819e5" x="515.525702" y="510.987273" style="fill: #1f77b4; stroke: #ffffff; stroke-width: 0.75"/>
     <use xlink:href="#me0cd3819e5" x="546.297603" y="510.987273" style="fill: #1f77b4; stroke: #ffffff; stroke-width: 0.75"/>
     <use xlink:href="#me0cd3819e5" x="577.069504" y="510.987273" style="fill: #1f77b4; stroke: #ffffff; stroke-width: 0.75"/>
     <use xlink:href="#me0cd3819e5" x="607.841405" y="510.987273" style="fill: #1f77b4; stroke: #ffffff; stroke-width: 0.75"/>
     <use xlink:href="#me0cd3819e5" x="638.613306" y="510.987273" style="fill: #1f77b4; stroke: #ffffff; stroke-width: 0.75"/>
     <use xlink:href="#me0cd3819e5" x="669.385207" y="510.987273" style="fill: #1f77b4; stroke: #ffffff; stroke-width: 0.75"/>
     <use xlink:href="#me0cd3819e5" x="700.157107" y="510.987273" style="fill: #1f77b4; stroke: #ffffff; stroke-width: 0.75"/>
     <use xlink:href="#me0cd3819e5" x="730.929008" y="510.987273" style="fill: #1f77b4; stroke: #ffffff; stroke-width: 0.75"/>
     <use xlink:href="#me0cd3819e5" x="761.700909" y="510.987273" style="fill: #1f77b4; stroke: #ffffff; stroke-width: 0.75"/>
    </g>
   </g>
   <g id="line2d_12">
    <path d="M 84.719091 409.618502 
L 115.490992 407.107539 
L 146.262893 402.174514 
L 177.034793 390.569439 
L 207.806694 398.00909 
L 238.578595 394.691496 
L 269.350496 392.87224 
L 300.122397 390.057706 
L 330.894298 396.313431 
L 361.666198 398.991358 
L 392.438099 415.822187 
L 423.21 420.490671 
L 453.981901 429.890522 
L 484.753802 432.973933 
L 515.525702 429.320242 
L 546.297603 426.14576 
L 577.069504 425.785812 
L 607.841405 419.911718 
L 638.613306 422.745768 
L 669.385207 424.851248 
L 700.157107 437.16104 
L 730.929008 432.937071 
L 761.700909 424.324335 
" clip-path="url(#p66949bec08)" style="fill: none; stroke: #ff7f0e; stroke-width: 1.5; stroke-linecap: square"/>
    <defs>
     <path id="m0e940ebd9e" d="M 0 3 
C 0.795609 3 1.55874 2.683901 2.12132 2.12132 
C 2.683901 1.55874 3 0.795609 3 0 
C 3 -0.795609 2.683901 -1.55874 2.12132 -2.12132 
C 1.55874 -2.683901 0.795609 -3 0 -3 
C -0.795609 -3 -1.55874 -2.683901 -2.12132 -2.12132 
C -2.683901 -1.55874 -3 -0.795609 -3 0 
C -3 0.795609 -2.683901 1.55874 -2.12132 2.12132 
C -1.55874 2.683901 -0.795609 3 0 3 
z
" style="stroke: #ffffff; stroke-width: 0.75"/>
    </defs>
    <g clip-path="url(#p66949bec08)">
     <use xlink:href="#m0e940ebd9e" x="84.719091" y="409.618502" style="fill: #ff7f0e; stroke: #ffffff; stroke-width: 0.75"/>
     <use xlink:href="#m0e940ebd9e" x="115.490992" y="407.107539" style="fill: #ff7f0e; stroke: #ffffff; stroke-width: 0.75"/>
     <use xlink:href="#m0e940ebd9e" x="146.262893" y="402.174514" style="fill: #ff7f0e; stroke: #ffffff; stroke-width: 0.75"/>
     <use xlink:href="#m0e940ebd9e" x="177.034793" y="390.569439" style="fill: #ff7f0e; stroke: #ffffff; stroke-width: 0.75"/>
     <use xlink:href="#m0e940ebd9e" x="207.806694" y="398.00909" style="fill: #ff7f0e; stroke: #ffffff; stroke-width: 0.75"/>
     <use xlink:href="#m0e940ebd9e" x="238.578595" y="394.691496" style="fill: #ff7f0e; stroke: #ffffff; stroke-width: 0.75"/>
     <use xlink:href="#m0e940ebd9e" x="269.350496" y="392.87224" style="fill: #ff7f0e; stroke: #ffffff; stroke-width: 0.75"/>
     <use xlink:href="#m0e940ebd9e" x="300.122397" y="390.057706" style="fill: #ff7f0e; stroke: #ffffff; stroke-width: 0.75"/>
     <use xlink:href="#m0e940ebd9e" x="330.894298" y="396.313431" style="fill: #ff7f0e; stroke: #ffffff; stroke-width: 0.75"/>
     <use xlink:href="#m0e940ebd9e" x="361.666198" y="398.991358" style="fill: #ff7f0e; stroke: #ffffff; stroke-width: 0.75"/>
     <use xlink:href="#m0e940ebd9e" x="392.438099" y="415.822187" style="fill: #ff7f0e; stroke: #ffffff; stroke-width: 0.75"/>
     <use xlink:href="#m0e940ebd9e" x="423.21" y="420.490671" style="fill: #ff7f0e; stroke: #ffffff; stroke-width: 0.75"/>
     <use xlink:href="#m0e940ebd9e" x="453.981901" y="429.890522" style="fill: #ff7f0e; stroke: #ffffff; stroke-width: 0.75"/>
     <use xlink:href="#m0e940ebd9e" x="484.753802" y="432.973933" style="fill: #ff7f0e; stroke: #ffffff; stroke-width: 0.75"/>
     <use xlink:href="#m0e940ebd9e" x="515.525702" y="429.320242" style="fill: #ff7f0e; stroke: #ffffff; stroke-width: 0.75"/>
     <use xlink:href="#m0e940ebd9e" x="546.297603" y="426.14576" style="fill: #ff7f0e; stroke: #ffffff; stroke-width: 0.75"/>
     <use xlink:href="#m0e940ebd9e" x="577.069504" y="425.785812" style="fill: #ff7f0e; stroke: #ffffff; stroke-width: 0.75"/>
     <use xlink:href="#m0e940ebd9e" x="607.841405" y="419.911718" style="fill: #ff7f0e; stroke: #ffffff; stroke-width: 0.75"/>
     <use xlink:href="#m0e940ebd9e" x="638.613306" y="422.745768" style="fill: #ff7f0e; stroke: #ffffff; stroke-width: 0.75"/>
     <use xlink:href="#m0e940ebd9e" x="669.385207" y="424.851248" style="fill: #ff7f0e; stroke: #ffffff; stroke-width: 0.75"/>
     <use xlink:href="#m0e940ebd9e" x="700.157107" y="437.16104" style="fill: #ff7f0e; stroke: #ffffff; stroke-width: 0.75"/>
     <use xlink:href="#m0e940ebd9e" x="730.929008" y="432.937071" style="fill: #ff7f0e; stroke: #ffffff; stroke-width: 0.75"/>
     <use xlink:href="#m0e940ebd9e" x="761.700909" y="424.324335" style="fill: #ff7f0e; stroke: #ffffff; stroke-width: 0.75"/>
    </g>
   </g>
   <g id="line2d_13">
    <path d="M 84.719091 245.286995 
L 115.490992 256.148322 
L 146.262893 264.370752 
L 177.034793 272.493437 
L 207.806694 276.708733 
L 238.578595 286.780776 
L 269.350496 279.954772 
L 300.122397 279.915741 
L 330.894298 290.675155 
L 361.666198 310.615415 
L 392.438099 307.399734 
L 423.21 315.125609 
L 453.981901 329.34356 
L 484.753802 329.302361 
L 515.525702 329.193943 
L 546.297603 327.164356 
L 577.069504 326.041145 
L 607.841405 328.079405 
L 638.613306 325.388467 
L 669.385207 325.236682 
L 700.157107 357.6125 
L 730.929008 346.653597 
L 761.700909 339.916495 
" clip-path="url(#p66949bec08)" style="fill: none; stroke: #2ca02c; stroke-width: 1.5; stroke-linecap: square"/>
    <defs>
     <path id="mb60dffff55" d="M 0 3 
C 0.795609 3 1.55874 2.683901 2.12132 2.12132 
C 2.683901 1.55874 3 0.795609 3 0 
C 3 -0.795609 2.683901 -1.55874 2.12132 -2.12132 
C 1.55874 -2.683901 0.795609 -3 0 -3 
C -0.795609 -3 -1.55874 -2.683901 -2.12132 -2.12132 
C -2.683901 -1.55874 -3 -0.795609 -3 0 
C -3 0.795609 -2.683901 1.55874 -2.12132 2.12132 
C -1.55874 2.683901 -0.795609 3 0 3 
z
" style="stroke: #ffffff; stroke-width: 0.75"/>
    </defs>
    <g clip-path="url(#p66949bec08)">
     <use xlink:href="#mb60dffff55" x="84.719091" y="245.286995" style="fill: #2ca02c; stroke: #ffffff; stroke-width: 0.75"/>
     <use xlink:href="#mb60dffff55" x="115.490992" y="256.148322" style="fill: #2ca02c; stroke: #ffffff; stroke-width: 0.75"/>
     <use xlink:href="#mb60dffff55" x="146.262893" y="264.370752" style="fill: #2ca02c; stroke: #ffffff; stroke-width: 0.75"/>
     <use xlink:href="#mb60dffff55" x="177.034793" y="272.493437" style="fill: #2ca02c; stroke: #ffffff; stroke-width: 0.75"/>
     <use xlink:href="#mb60dffff55" x="207.806694" y="276.708733" style="fill: #2ca02c; stroke: #ffffff; stroke-width: 0.75"/>
     <use xlink:href="#mb60dffff55" x="238.578595" y="286.780776" style="fill: #2ca02c; stroke: #ffffff; stroke-width: 0.75"/>
     <use xlink:href="#mb60dffff55" x="269.350496" y="279.954772" style="fill: #2ca02c; stroke: #ffffff; stroke-width: 0.75"/>
     <use xlink:href="#mb60dffff55" x="300.122397" y="279.915741" style="fill: #2ca02c; stroke: #ffffff; stroke-width: 0.75"/>
     <use xlink:href="#mb60dffff55" x="330.894298" y="290.675155" style="fill: #2ca02c; stroke: #ffffff; stroke-width: 0.75"/>
     <use xlink:href="#mb60dffff55" x="361.666198" y="310.615415" style="fill: #2ca02c; stroke: #ffffff; stroke-width: 0.75"/>
     <use xlink:href="#mb60dffff55" x="392.438099" y="307.399734" style="fill: #2ca02c; stroke: #ffffff; stroke-width: 0.75"/>
     <use xlink:href="#mb60dffff55" x="423.21" y="315.125609" style="fill: #2ca02c; stroke: #ffffff; stroke-width: 0.75"/>
     <use xlink:href="#mb60dffff55" x="453.981901" y="329.34356" style="fill: #2ca02c; stroke: #ffffff; stroke-width: 0.75"/>
     <use xlink:href="#mb60dffff55" x="484.753802" y="329.302361" style="fill: #2ca02c; stroke: #ffffff; stroke-width: 0.75"/>
     <use xlink:href="#mb60dffff55" x="515.525702" y="329.193943" style="fill: #2ca02c; stroke: #ffffff; stroke-width: 0.75"/>
     <use xlink:href="#mb60dffff55" x="546.297603" y="327.164356" style="fill: #2ca02c; stroke: #ffffff; stroke-width: 0.75"/>
     <use xlink:href="#mb60dffff55" x="577.069504" y="326.041145" style="fill: #2ca02c; stroke: #ffffff; stroke-width: 0.75"/>
     <use xlink:href="#mb60dffff55" x="607.841405" y="328.079405" style="fill: #2ca02c; stroke: #ffffff; stroke-width: 0.75"/>
     <use xlink:href="#mb60dffff55" x="638.613306" y="325.388467" style="fill: #2ca02c; stroke: #ffffff; stroke-width: 0.75"/>
     <use xlink:href="#mb60dffff55" x="669.385207" y="325.236682" style="fill: #2ca02c; stroke: #ffffff; stroke-width: 0.75"/>
     <use xlink:href="#mb60dffff55" x="700.157107" y="357.6125" style="fill: #2ca02c; stroke: #ffffff; stroke-width: 0.75"/>
     <use xlink:href="#mb60dffff55" x="730.929008" y="346.653597" style="fill: #2ca02c; stroke: #ffffff; stroke-width: 0.75"/>
     <use xlink:href="#mb60dffff55" x="761.700909" y="339.916495" style="fill: #2ca02c; stroke: #ffffff; stroke-width: 0.75"/>
    </g>
   </g>
   <g id="line2d_14">
    <path d="M 84.719091 236.849897 
L 115.490992 242.032283 
L 146.262893 235.770052 
L 177.034793 226.931808 
L 207.806694 246.18036 
L 238.578595 236.30347 
L 269.350496 244.603961 
L 300.122397 242.32718 
L 330.894298 251.295527 
L 361.666198 266.328783 
L 392.438099 256.924595 
L 423.21 262.51897 
L 453.981901 272.34382 
L 484.753802 262.705449 
L 515.525702 276.702228 
L 546.297603 275.524807 
L 577.069504 263.145627 
L 607.841405 270.856323 
L 638.613306 272.146499 
L 669.385207 273.928893 
L 700.157107 298.318632 
L 730.929008 312.204825 
L 761.700909 309.249347 
" clip-path="url(#p66949bec08)" style="fill: none; stroke: #d62728; stroke-width: 1.5; stroke-linecap: square"/>
    <defs>
     <path id="mcc9188e3a0" d="M 0 3 
C 0.795609 3 1.55874 2.683901 2.12132 2.12132 
C 2.683901 1.55874 3 0.795609 3 0 
C 3 -0.795609 2.683901 -1.55874 2.12132 -2.12132 
C 1.55874 -2.683901 0.795609 -3 0 -3 
C -0.795609 -3 -1.55874 -2.683901 -2.12132 -2.12132 
C -2.683901 -1.55874 -3 -0.795609 -3 0 
C -3 0.795609 -2.683901 1.55874 -2.12132 2.12132 
C -1.55874 2.683901 -0.795609 3 0 3 
z
" style="stroke: #ffffff; stroke-width: 0.75"/>
    </defs>
    <g clip-path="url(#p66949bec08)">
     <use xlink:href="#mcc9188e3a0" x="84.719091" y="236.849897" style="fill: #d62728; stroke: #ffffff; stroke-width: 0.75"/>
     <use xlink:href="#mcc9188e3a0" x="115.490992" y="242.032283" style="fill: #d62728; stroke: #ffffff; stroke-width: 0.75"/>
     <use xlink:href="#mcc9188e3a0" x="146.262893" y="235.770052" style="fill: #d62728; stroke: #ffffff; stroke-width: 0.75"/>
     <use xlink:href="#mcc9188e3a0" x="177.034793" y="226.931808" style="fill: #d62728; stroke: #ffffff; stroke-width: 0.75"/>
     <use xlink:href="#mcc9188e3a0" x="207.806694" y="246.18036" style="fill: #d62728; stroke: #ffffff; stroke-width: 0.75"/>
     <use xlink:href="#mcc9188e3a0" x="238.578595" y="236.30347" style="fill: #d62728; stroke: #ffffff; stroke-width: 0.75"/>
     <use xlink:href="#mcc9188e3a0" x="269.350496" y="244.603961" style="fill: #d62728; stroke: #ffffff; stroke-width: 0.75"/>
     <use xlink:href="#mcc9188e3a0" x="300.122397" y="242.32718" style="fill: #d62728; stroke: #ffffff; stroke-width: 0.75"/>
     <use xlink:href="#mcc9188e3a0" x="330.894298" y="251.295527" style="fill: #d62728; stroke: #ffffff; stroke-width: 0.75"/>
     <use xlink:href="#mcc9188e3a0" x="361.666198" y="266.328783" style="fill: #d62728; stroke: #ffffff; stroke-width: 0.75"/>
     <use xlink:href="#mcc9188e3a0" x="392.438099" y="256.924595" style="fill: #d62728; stroke: #ffffff; stroke-width: 0.75"/>
     <use xlink:href="#mcc9188e3a0" x="423.21" y="262.51897" style="fill: #d62728; stroke: #ffffff; stroke-width: 0.75"/>
     <use xlink:href="#mcc9188e3a0" x="453.981901" y="272.34382" style="fill: #d62728; stroke: #ffffff; stroke-width: 0.75"/>
     <use xlink:href="#mcc9188e3a0" x="484.753802" y="262.705449" style="fill: #d62728; stroke: #ffffff; stroke-width: 0.75"/>
     <use xlink:href="#mcc9188e3a0" x="515.525702" y="276.702228" style="fill: #d62728; stroke: #ffffff; stroke-width: 0.75"/>
     <use xlink:href="#mcc9188e3a0" x="546.297603" y="275.524807" style="fill: #d62728; stroke: #ffffff; stroke-width: 0.75"/>
     <use xlink:href="#mcc9188e3a0" x="577.069504" y="263.145627" style="fill: #d62728; stroke: #ffffff; stroke-width: 0.75"/>
     <use xlink:href="#mcc9188e3a0" x="607.841405" y="270.856323" style="fill: #d62728; stroke: #ffffff; stroke-width: 0.75"/>
     <use xlink:href="#mcc9188e3a0" x="638.613306" y="272.146499" style="fill: #d62728; stroke: #ffffff; stroke-width: 0.75"/>
     <use xlink:href="#mcc9188e3a0" x="669.385207" y="273.928893" style="fill: #d62728; stroke: #ffffff; stroke-width: 0.75"/>
     <use xlink:href="#mcc9188e3a0" x="700.157107" y="298.318632" style="fill: #d62728; stroke: #ffffff; stroke-width: 0.75"/>
     <use xlink:href="#mcc9188e3a0" x="730.929008" y="312.204825" style="fill: #d62728; stroke: #ffffff; stroke-width: 0.75"/>
     <use xlink:href="#mcc9188e3a0" x="761.700909" y="309.249347" style="fill: #d62728; stroke: #ffffff; stroke-width: 0.75"/>
    </g>
   </g>
   <g id="line2d_15">
    <path d="M 84.719091 490.173163 
L 115.490992 491.454665 
L 146.262893 490.669718 
L 177.034793 490.450713 
L 207.806694 489.505307 
L 238.578595 489.108497 
L 269.350496 488.742044 
L 300.122397 488.670488 
L 330.894298 490.324948 
L 361.666198 491.834128 
L 392.438099 492.645096 
L 423.21 492.892289 
L 453.981901 493.087442 
L 484.753802 492.278643 
L 515.525702 491.422139 
L 546.297603 489.641914 
L 577.069504 487.47572 
L 607.841405 484.739247 
L 638.613306 482.566548 
L 669.385207 486.922788 
L 700.157107 495.127871 
L 730.929008 495.383737 
L 761.700909 489.680944 
" clip-path="url(#p66949bec08)" style="fill: none; stroke: #9467bd; stroke-width: 1.5; stroke-linecap: square"/>
    <defs>
     <path id="mfc565bbbb6" d="M 0 3 
C 0.795609 3 1.55874 2.683901 2.12132 2.12132 
C 2.683901 1.55874 3 0.795609 3 0 
C 3 -0.795609 2.683901 -1.55874 2.12132 -2.12132 
C 1.55874 -2.683901 0.795609 -3 0 -3 
C -0.795609 -3 -1.55874 -2.683901 -2.12132 -2.12132 
C -2.683901 -1.55874 -3 -0.795609 -3 0 
C -3 0.795609 -2.683901 1.55874 -2.12132 2.12132 
C -1.55874 2.683901 -0.795609 3 0 3 
z
" style="stroke: #ffffff; stroke-width: 0.75"/>
    </defs>
    <g clip-path="url(#p66949bec08)">
     <use xlink:href="#mfc565bbbb6" x="84.719091" y="490.173163" style="fill: #9467bd; stroke: #ffffff; stroke-width: 0.75"/>
     <use xlink:href="#mfc565bbbb6" x="115.490992" y="491.454665" style="fill: #9467bd; stroke: #ffffff; stroke-width: 0.75"/>
     <use xlink:href="#mfc565bbbb6" x="146.262893" y="490.669718" style="fill: #9467bd; stroke: #ffffff; stroke-width: 0.75"/>
     <use xlink:href="#mfc565bbbb6" x="177.034793" y="490.450713" style="fill: #9467bd; stroke: #ffffff; stroke-width: 0.75"/>
     <use xlink:href="#mfc565bbbb6" x="207.806694" y="489.505307" style="fill: #9467bd; stroke: #ffffff; stroke-width: 0.75"/>
     <use xlink:href="#mfc565bbbb6" x="238.578595" y="489.108497" style="fill: #9467bd; stroke: #ffffff; stroke-width: 0.75"/>
     <use xlink:href="#mfc565bbbb6" x="269.350496" y="488.742044" style="fill: #9467bd; stroke: #ffffff; stroke-width: 0.75"/>
     <use xlink:href="#mfc565bbbb6" x="300.122397" y="488.670488" style="fill: #9467bd; stroke: #ffffff; stroke-width: 0.75"/>
     <use xlink:href="#mfc565bbbb6" x="330.894298" y="490.324948" style="fill: #9467bd; stroke: #ffffff; stroke-width: 0.75"/>
     <use xlink:href="#mfc565bbbb6" x="361.666198" y="491.834128" style="fill: #9467bd; stroke: #ffffff; stroke-width: 0.75"/>
     <use xlink:href="#mfc565bbbb6" x="392.438099" y="492.645096" style="fill: #9467bd; stroke: #ffffff; stroke-width: 0.75"/>
     <use xlink:href="#mfc565bbbb6" x="423.21" y="492.892289" style="fill: #9467bd; stroke: #ffffff; stroke-width: 0.75"/>
     <use xlink:href="#mfc565bbbb6" x="453.981901" y="493.087442" style="fill: #9467bd; stroke: #ffffff; stroke-width: 0.75"/>
     <use xlink:href="#mfc565bbbb6" x="484.753802" y="492.278643" style="fill: #9467bd; stroke: #ffffff; stroke-width: 0.75"/>
     <use xlink:href="#mfc565bbbb6" x="515.525702" y="491.422139" style="fill: #9467bd; stroke: #ffffff; stroke-width: 0.75"/>
     <use xlink:href="#mfc565bbbb6" x="546.297603" y="489.641914" style="fill: #9467bd; stroke: #ffffff; stroke-width: 0.75"/>
     <use xlink:href="#mfc565bbbb6" x="577.069504" y="487.47572" style="fill: #9467bd; stroke: #ffffff; stroke-width: 0.75"/>
     <use xlink:href="#mfc565bbbb6" x="607.841405" y="484.739247" style="fill: #9467bd; stroke: #ffffff; stroke-width: 0.75"/>
     <use xlink:href="#mfc565bbbb6" x="638.613306" y="482.566548" style="fill: #9467bd; stroke: #ffffff; stroke-width: 0.75"/>
     <use xlink:href="#mfc565bbbb6" x="669.385207" y="486.922788" style="fill: #9467bd; stroke: #ffffff; stroke-width: 0.75"/>
     <use xlink:href="#mfc565bbbb6" x="700.157107" y="495.127871" style="fill: #9467bd; stroke: #ffffff; stroke-width: 0.75"/>
     <use xlink:href="#mfc565bbbb6" x="730.929008" y="495.383737" style="fill: #9467bd; stroke: #ffffff; stroke-width: 0.75"/>
     <use xlink:href="#mfc565bbbb6" x="761.700909" y="489.680944" style="fill: #9467bd; stroke: #ffffff; stroke-width: 0.75"/>
    </g>
   </g>
   <g id="line2d_16">
    <path d="M 84.719091 510.987273 
L 115.490992 510.987273 
L 146.262893 510.987273 
L 177.034793 510.987273 
L 207.806694 510.987273 
L 238.578595 510.987273 
L 269.350496 510.987273 
L 300.122397 510.987273 
L 330.894298 510.987273 
L 361.666198 510.987273 
L 392.438099 510.987273 
L 423.21 510.987273 
L 453.981901 510.987273 
L 484.753802 510.987273 
L 515.525702 510.987273 
L 546.297603 510.987273 
L 577.069504 510.987273 
L 607.841405 510.987273 
L 638.613306 510.987273 
L 669.385207 510.987273 
L 700.157107 510.987273 
L 730.929008 510.987273 
L 761.700909 510.987273 
" clip-path="url(#p66949bec08)" style="fill: none; stroke: #8c564b; stroke-width: 1.5; stroke-linecap: square"/>
    <defs>
     <path id="mfc35c497a4" d="M 0 3 
C 0.795609 3 1.55874 2.683901 2.12132 2.12132 
C 2.683901 1.55874 3 0.795609 3 0 
C 3 -0.795609 2.683901 -1.55874 2.12132 -2.12132 
C 1.55874 -2.683901 0.795609 -3 0 -3 
C -0.795609 -3 -1.55874 -2.683901 -2.12132 -2.12132 
C -2.683901 -1.55874 -3 -0.795609 -3 0 
C -3 0.795609 -2.683901 1.55874 -2.12132 2.12132 
C -1.55874 2.683901 -0.795609 3 0 3 
z
" style="stroke: #ffffff; stroke-width: 0.75"/>
    </defs>
    <g clip-path="url(#p66949bec08)">
     <use xlink:href="#mfc35c497a4" x="84.719091" y="510.987273" style="fill: #8c564b; stroke: #ffffff; stroke-width: 0.75"/>
     <use xlink:href="#mfc35c497a4" x="115.490992" y="510.987273" style="fill: #8c564b; stroke: #ffffff; stroke-width: 0.75"/>
     <use xlink:href="#mfc35c497a4" x="146.262893" y="510.987273" style="fill: #8c564b; stroke: #ffffff; stroke-width: 0.75"/>
     <use xlink:href="#mfc35c497a4" x="177.034793" y="510.987273" style="fill: #8c564b; stroke: #ffffff; stroke-width: 0.75"/>
     <use xlink:href="#mfc35c497a4" x="207.806694" y="510.987273" style="fill: #8c564b; stroke: #ffffff; stroke-width: 0.75"/>
     <use xlink:href="#mfc35c497a4" x="238.578595" y="510.987273" style="fill: #8c564b; stroke: #ffffff; stroke-width: 0.75"/>
     <use xlink:href="#mfc35c497a4" x="269.350496" y="510.987273" style="fill: #8c564b; stroke: #ffffff; stroke-width: 0.75"/>
     <use xlink:href="#mfc35c497a4" x="300.122397" y="510.987273" style="fill: #8c564b; stroke: #ffffff; stroke-width: 0.75"/>
     <use xlink:href="#mfc35c497a4" x="330.894298" y="510.987273" style="fill: #8c564b; stroke: #ffffff; stroke-width: 0.75"/>
     <use xlink:href="#mfc35c497a4" x="361.666198" y="510.987273" style="fill: #8c564b; stroke: #ffffff; stroke-width: 0.75"/>
     <use xlink:href="#mfc35c497a4" x="392.438099" y="510.987273" style="fill: #8c564b; stroke: #ffffff; stroke-width: 0.75"/>
     <use xlink:href="#mfc35c497a4" x="423.21" y="510.987273" style="fill: #8c564b; stroke: #ffffff; stroke-width: 0.75"/>
     <use xlink:href="#mfc35c497a4" x="453.981901" y="510.987273" style="fill: #8c564b; stroke: #ffffff; stroke-width: 0.75"/>
     <use xlink:href="#mfc35c497a4" x="484.753802" y="510.987273" style="fill: #8c564b; stroke: #ffffff; stroke-width: 0.75"/>
     <use xlink:href="#mfc35c497a4" x="515.525702" y="510.987273" style="fill: #8c564b; stroke: #ffffff; stroke-width: 0.75"/>
     <use xlink:href="#mfc35c497a4" x="546.297603" y="510.987273" style="fill: #8c564b; stroke: #ffffff; stroke-width: 0.75"/>
     <use xlink:href="#mfc35c497a4" x="577.069504" y="510.987273" style="fill: #8c564b; stroke: #ffffff; stroke-width: 0.75"/>
     <use xlink:href="#mfc35c497a4" x="607.841405" y="510.987273" style="fill: #8c564b; stroke: #ffffff; stroke-width: 0.75"/>
     <use xlink:href="#mfc35c497a4" x="638.613306" y="510.987273" style="fill: #8c564b; stroke: #ffffff; stroke-width: 0.75"/>
     <use xlink:href="#mfc35c497a4" x="669.385207" y="510.987273" style="fill: #8c564b; stroke: #ffffff; stroke-width: 0.75"/>
     <use xlink:href="#mfc35c497a4" x="700.157107" y="510.987273" style="fill: #8c564b; stroke: #ffffff; stroke-width: 0.75"/>
     <use xlink:href="#mfc35c497a4" x="730.929008" y="510.987273" style="fill: #8c564b; stroke: #ffffff; stroke-width: 0.75"/>
     <use xlink:href="#mfc35c497a4" x="761.700909" y="510.987273" style="fill: #8c564b; stroke: #ffffff; stroke-width: 0.75"/>
    </g>
   </g>
   <g id="line2d_17">
    <path d="M 84.719091 486.551998 
L 115.490992 490.968952 
L 146.262893 488.384264 
L 177.034793 489.11717 
L 207.806694 488.705181 
L 238.578595 487.800974 
L 269.350496 486.612712 
L 300.122397 484.515905 
L 330.894298 486.942303 
L 361.666198 485.871132 
L 392.438099 486.638732 
L 423.21 485.777892 
L 453.981901 486.604038 
L 484.753802 487.514751 
L 515.525702 487.915898 
L 546.297603 486.252764 
L 577.069504 483.22573 
L 607.841405 484.565778 
L 638.613306 485.632612 
L 669.385207 483.375347 
L 700.157107 485.530699 
L 730.929008 483.295117 
L 761.700909 480.445889 
" clip-path="url(#p66949bec08)" style="fill: none; stroke: #e377c2; stroke-width: 1.5; stroke-linecap: square"/>
    <defs>
     <path id="mf10179134f" d="M 0 3 
C 0.795609 3 1.55874 2.683901 2.12132 2.12132 
C 2.683901 1.55874 3 0.795609 3 0 
C 3 -0.795609 2.683901 -1.55874 2.12132 -2.12132 
C 1.55874 -2.683901 0.795609 -3 0 -3 
C -0.795609 -3 -1.55874 -2.683901 -2.12132 -2.12132 
C -2.683901 -1.55874 -3 -0.795609 -3 0 
C -3 0.795609 -2.683901 1.55874 -2.12132 2.12132 
C -1.55874 2.683901 -0.795609 3 0 3 
z
" style="stroke: #ffffff; stroke-width: 0.75"/>
    </defs>
    <g clip-path="url(#p66949bec08)">
     <use xlink:href="#mf10179134f" x="84.719091" y="486.551998" style="fill: #e377c2; stroke: #ffffff; stroke-width: 0.75"/>
     <use xlink:href="#mf10179134f" x="115.490992" y="490.968952" style="fill: #e377c2; stroke: #ffffff; stroke-width: 0.75"/>
     <use xlink:href="#mf10179134f" x="146.262893" y="488.384264" style="fill: #e377c2; stroke: #ffffff; stroke-width: 0.75"/>
     <use xlink:href="#mf10179134f" x="177.034793" y="489.11717" style="fill: #e377c2; stroke: #ffffff; stroke-width: 0.75"/>
     <use xlink:href="#mf10179134f" x="207.806694" y="488.705181" style="fill: #e377c2; stroke: #ffffff; stroke-width: 0.75"/>
     <use xlink:href="#mf10179134f" x="238.578595" y="487.800974" style="fill: #e377c2; stroke: #ffffff; stroke-width: 0.75"/>
     <use xlink:href="#mf10179134f" x="269.350496" y="486.612712" style="fill: #e377c2; stroke: #ffffff; stroke-width: 0.75"/>
     <use xlink:href="#mf10179134f" x="300.122397" y="484.515905" style="fill: #e377c2; stroke: #ffffff; stroke-width: 0.75"/>
     <use xlink:href="#mf10179134f" x="330.894298" y="486.942303" style="fill: #e377c2; stroke: #ffffff; stroke-width: 0.75"/>
     <use xlink:href="#mf10179134f" x="361.666198" y="485.871132" style="fill: #e377c2; stroke: #ffffff; stroke-width: 0.75"/>
     <use xlink:href="#mf10179134f" x="392.438099" y="486.638732" style="fill: #e377c2; stroke: #ffffff; stroke-width: 0.75"/>
     <use xlink:href="#mf10179134f" x="423.21" y="485.777892" style="fill: #e377c2; stroke: #ffffff; stroke-width: 0.75"/>
     <use xlink:href="#mf10179134f" x="453.981901" y="486.604038" style="fill: #e377c2; stroke: #ffffff; stroke-width: 0.75"/>
     <use xlink:href="#mf10179134f" x="484.753802" y="487.514751" style="fill: #e377c2; stroke: #ffffff; stroke-width: 0.75"/>
     <use xlink:href="#mf10179134f" x="515.525702" y="487.915898" style="fill: #e377c2; stroke: #ffffff; stroke-width: 0.75"/>
     <use xlink:href="#mf10179134f" x="546.297603" y="486.252764" style="fill: #e377c2; stroke: #ffffff; stroke-width: 0.75"/>
     <use xlink:href="#mf10179134f" x="577.069504" y="483.22573" style="fill: #e377c2; stroke: #ffffff; stroke-width: 0.75"/>
     <use xlink:href="#mf10179134f" x="607.841405" y="484.565778" style="fill: #e377c2; stroke: #ffffff; stroke-width: 0.75"/>
     <use xlink:href="#mf10179134f" x="638.613306" y="485.632612" style="fill: #e377c2; stroke: #ffffff; stroke-width: 0.75"/>
     <use xlink:href="#mf10179134f" x="669.385207" y="483.375347" style="fill: #e377c2; stroke: #ffffff; stroke-width: 0.75"/>
     <use xlink:href="#mf10179134f" x="700.157107" y="485.530699" style="fill: #e377c2; stroke: #ffffff; stroke-width: 0.75"/>
     <use xlink:href="#mf10179134f" x="730.929008" y="483.295117" style="fill: #e377c2; stroke: #ffffff; stroke-width: 0.75"/>
     <use xlink:href="#mf10179134f" x="761.700909" y="480.445889" style="fill: #e377c2; stroke: #ffffff; stroke-width: 0.75"/>
    </g>
   </g>
   <g id="line2d_18">
    <path d="M 84.719091 280.44699 
L 115.490992 249.393873 
L 146.262893 257.7399 
L 177.034793 249.571679 
L 207.806694 255.135696 
L 238.578595 255.955337 
L 269.350496 250.154968 
L 300.122397 251.729199 
L 330.894298 255.393731 
L 361.666198 252.90662 
L 392.438099 247.303572 
L 423.21 251.898331 
L 453.981901 257.605461 
L 484.753802 248.821425 
L 515.525702 261.853283 
L 546.297603 261.955196 
L 577.069504 270.253519 
L 607.841405 271.467801 
L 638.613306 264.687332 
L 669.385207 273.37596 
L 700.157107 285.228229 
L 730.929008 281.789206 
L 761.700909 293.645811 
" clip-path="url(#p66949bec08)" style="fill: none; stroke: #7f7f7f; stroke-width: 1.5; stroke-linecap: square"/>
    <defs>
     <path id="md8eae7e837" d="M 0 3 
C 0.795609 3 1.55874 2.683901 2.12132 2.12132 
C 2.683901 1.55874 3 0.795609 3 0 
C 3 -0.795609 2.683901 -1.55874 2.12132 -2.12132 
C 1.55874 -2.683901 0.795609 -3 0 -3 
C -0.795609 -3 -1.55874 -2.683901 -2.12132 -2.12132 
C -2.683901 -1.55874 -3 -0.795609 -3 0 
C -3 0.795609 -2.683901 1.55874 -2.12132 2.12132 
C -1.55874 2.683901 -0.795609 3 0 3 
z
" style="stroke: #ffffff; stroke-width: 0.75"/>
    </defs>
    <g clip-path="url(#p66949bec08)">
     <use xlink:href="#md8eae7e837" x="84.719091" y="280.44699" style="fill: #7f7f7f; stroke: #ffffff; stroke-width: 0.75"/>
     <use xlink:href="#md8eae7e837" x="115.490992" y="249.393873" style="fill: #7f7f7f; stroke: #ffffff; stroke-width: 0.75"/>
     <use xlink:href="#md8eae7e837" x="146.262893" y="257.7399" style="fill: #7f7f7f; stroke: #ffffff; stroke-width: 0.75"/>
     <use xlink:href="#md8eae7e837" x="177.034793" y="249.571679" style="fill: #7f7f7f; stroke: #ffffff; stroke-width: 0.75"/>
     <use xlink:href="#md8eae7e837" x="207.806694" y="255.135696" style="fill: #7f7f7f; stroke: #ffffff; stroke-width: 0.75"/>
     <use xlink:href="#md8eae7e837" x="238.578595" y="255.955337" style="fill: #7f7f7f; stroke: #ffffff; stroke-width: 0.75"/>
     <use xlink:href="#md8eae7e837" x="269.350496" y="250.154968" style="fill: #7f7f7f; stroke: #ffffff; stroke-width: 0.75"/>
     <use xlink:href="#md8eae7e837" x="300.122397" y="251.729199" style="fill: #7f7f7f; stroke: #ffffff; stroke-width: 0.75"/>
     <use xlink:href="#md8eae7e837" x="330.894298" y="255.393731" style="fill: #7f7f7f; stroke: #ffffff; stroke-width: 0.75"/>
     <use xlink:href="#md8eae7e837" x="361.666198" y="252.90662" style="fill: #7f7f7f; stroke: #ffffff; stroke-width: 0.75"/>
     <use xlink:href="#md8eae7e837" x="392.438099" y="247.303572" style="fill: #7f7f7f; stroke: #ffffff; stroke-width: 0.75"/>
     <use xlink:href="#md8eae7e837" x="423.21" y="251.898331" style="fill: #7f7f7f; stroke: #ffffff; stroke-width: 0.75"/>
     <use xlink:href="#md8eae7e837" x="453.981901" y="257.605461" style="fill: #7f7f7f; stroke: #ffffff; stroke-width: 0.75"/>
     <use xlink:href="#md8eae7e837" x="484.753802" y="248.821425" style="fill: #7f7f7f; stroke: #ffffff; stroke-width: 0.75"/>
     <use xlink:href="#md8eae7e837" x="515.525702" y="261.853283" style="fill: #7f7f7f; stroke: #ffffff; stroke-width: 0.75"/>
     <use xlink:href="#md8eae7e837" x="546.297603" y="261.955196" style="fill: #7f7f7f; stroke: #ffffff; stroke-width: 0.75"/>
     <use xlink:href="#md8eae7e837" x="577.069504" y="270.253519" style="fill: #7f7f7f; stroke: #ffffff; stroke-width: 0.75"/>
     <use xlink:href="#md8eae7e837" x="607.841405" y="271.467801" style="fill: #7f7f7f; stroke: #ffffff; stroke-width: 0.75"/>
     <use xlink:href="#md8eae7e837" x="638.613306" y="264.687332" style="fill: #7f7f7f; stroke: #ffffff; stroke-width: 0.75"/>
     <use xlink:href="#md8eae7e837" x="669.385207" y="273.37596" style="fill: #7f7f7f; stroke: #ffffff; stroke-width: 0.75"/>
     <use xlink:href="#md8eae7e837" x="700.157107" y="285.228229" style="fill: #7f7f7f; stroke: #ffffff; stroke-width: 0.75"/>
     <use xlink:href="#md8eae7e837" x="730.929008" y="281.789206" style="fill: #7f7f7f; stroke: #ffffff; stroke-width: 0.75"/>
     <use xlink:href="#md8eae7e837" x="761.700909" y="293.645811" style="fill: #7f7f7f; stroke: #ffffff; stroke-width: 0.75"/>
    </g>
   </g>
   <g id="line2d_19">
    <path d="M 84.719091 510.987273 
L 115.490992 510.987273 
L 146.262893 510.987273 
L 177.034793 510.987273 
L 207.806694 510.987273 
L 238.578595 510.987273 
L 269.350496 510.987273 
L 300.122397 510.987273 
L 330.894298 510.987273 
L 361.666198 510.987273 
L 392.438099 510.987273 
L 423.21 510.987273 
L 453.981901 510.987273 
L 484.753802 510.987273 
L 515.525702 510.987273 
L 546.297603 510.987273 
L 577.069504 510.987273 
L 607.841405 510.987273 
L 638.613306 510.987273 
L 669.385207 510.987273 
L 700.157107 510.987273 
L 730.929008 510.987273 
L 761.700909 510.987273 
" clip-path="url(#p66949bec08)" style="fill: none; stroke: #bcbd22; stroke-width: 1.5; stroke-linecap: square"/>
    <defs>
     <path id="m293be81b2a" d="M 0 3 
C 0.795609 3 1.55874 2.683901 2.12132 2.12132 
C 2.683901 1.55874 3 0.795609 3 0 
C 3 -0.795609 2.683901 -1.55874 2.12132 -2.12132 
C 1.55874 -2.683901 0.795609 -3 0 -3 
C -0.795609 -3 -1.55874 -2.683901 -2.12132 -2.12132 
C -2.683901 -1.55874 -3 -0.795609 -3 0 
C -3 0.795609 -2.683901 1.55874 -2.12132 2.12132 
C -1.55874 2.683901 -0.795609 3 0 3 
z
" style="stroke: #ffffff; stroke-width: 0.75"/>
    </defs>
    <g clip-path="url(#p66949bec08)">
     <use xlink:href="#m293be81b2a" x="84.719091" y="510.987273" style="fill: #bcbd22; stroke: #ffffff; stroke-width: 0.75"/>
     <use xlink:href="#m293be81b2a" x="115.490992" y="510.987273" style="fill: #bcbd22; stroke: #ffffff; stroke-width: 0.75"/>
     <use xlink:href="#m293be81b2a" x="146.262893" y="510.987273" style="fill: #bcbd22; stroke: #ffffff; stroke-width: 0.75"/>
     <use xlink:href="#m293be81b2a" x="177.034793" y="510.987273" style="fill: #bcbd22; stroke: #ffffff; stroke-width: 0.75"/>
     <use xlink:href="#m293be81b2a" x="207.806694" y="510.987273" style="fill: #bcbd22; stroke: #ffffff; stroke-width: 0.75"/>
     <use xlink:href="#m293be81b2a" x="238.578595" y="510.987273" style="fill: #bcbd22; stroke: #ffffff; stroke-width: 0.75"/>
     <use xlink:href="#m293be81b2a" x="269.350496" y="510.987273" style="fill: #bcbd22; stroke: #ffffff; stroke-width: 0.75"/>
     <use xlink:href="#m293be81b2a" x="300.122397" y="510.987273" style="fill: #bcbd22; stroke: #ffffff; stroke-width: 0.75"/>
     <use xlink:href="#m293be81b2a" x="330.894298" y="510.987273" style="fill: #bcbd22; stroke: #ffffff; stroke-width: 0.75"/>
     <use xlink:href="#m293be81b2a" x="361.666198" y="510.987273" style="fill: #bcbd22; stroke: #ffffff; stroke-width: 0.75"/>
     <use xlink:href="#m293be81b2a" x="392.438099" y="510.987273" style="fill: #bcbd22; stroke: #ffffff; stroke-width: 0.75"/>
     <use xlink:href="#m293be81b2a" x="423.21" y="510.987273" style="fill: #bcbd22; stroke: #ffffff; stroke-width: 0.75"/>
     <use xlink:href="#m293be81b2a" x="453.981901" y="510.987273" style="fill: #bcbd22; stroke: #ffffff; stroke-width: 0.75"/>
     <use xlink:href="#m293be81b2a" x="484.753802" y="510.987273" style="fill: #bcbd22; stroke: #ffffff; stroke-width: 0.75"/>
     <use xlink:href="#m293be81b2a" x="515.525702" y="510.987273" style="fill: #bcbd22; stroke: #ffffff; stroke-width: 0.75"/>
     <use xlink:href="#m293be81b2a" x="546.297603" y="510.987273" style="fill: #bcbd22; stroke: #ffffff; stroke-width: 0.75"/>
     <use xlink:href="#m293be81b2a" x="577.069504" y="510.987273" style="fill: #bcbd22; stroke: #ffffff; stroke-width: 0.75"/>
     <use xlink:href="#m293be81b2a" x="607.841405" y="510.987273" style="fill: #bcbd22; stroke: #ffffff; stroke-width: 0.75"/>
     <use xlink:href="#m293be81b2a" x="638.613306" y="510.987273" style="fill: #bcbd22; stroke: #ffffff; stroke-width: 0.75"/>
     <use xlink:href="#m293be81b2a" x="669.385207" y="510.987273" style="fill: #bcbd22; stroke: #ffffff; stroke-width: 0.75"/>
     <use xlink:href="#m293be81b2a" x="700.157107" y="510.987273" style="fill: #bcbd22; stroke: #ffffff; stroke-width: 0.75"/>
     <use xlink:href="#m293be81b2a" x="730.929008" y="510.987273" style="fill: #bcbd22; stroke: #ffffff; stroke-width: 0.75"/>
     <use xlink:href="#m293be81b2a" x="761.700909" y="510.987273" style="fill: #bcbd22; stroke: #ffffff; stroke-width: 0.75"/>
    </g>
   </g>
   <g id="line2d_20">
    <path d="M 84.719091 94.429691 
L 115.490992 87.263253 
L 146.262893 80.693115 
L 177.034793 49.932727 
L 207.806694 69.526049 
L 238.578595 68.979622 
L 269.350496 65.312921 
L 300.122397 75.976927 
L 330.894298 100.169346 
L 361.666198 115.647116 
L 392.438099 116.393033 
L 423.21 145.134675 
L 453.981901 150.544739 
L 484.753802 155.211055 
L 515.525702 162.785145 
L 546.297603 169.528752 
L 577.069504 158.446252 
L 607.841405 162.071754 
L 638.613306 177.770697 
L 669.385207 154.007614 
L 700.157107 192.283546 
L 730.929008 209.203277 
L 761.700909 210.608376 
" clip-path="url(#p66949bec08)" style="fill: none; stroke: #17becf; stroke-width: 1.5; stroke-linecap: square"/>
    <defs>
     <path id="m7b4468ea05" d="M 0 3 
C 0.795609 3 1.55874 2.683901 2.12132 2.12132 
C 2.683901 1.55874 3 0.795609 3 0 
C 3 -0.795609 2.683901 -1.55874 2.12132 -2.12132 
C 1.55874 -2.683901 0.795609 -3 0 -3 
C -0.795609 -3 -1.55874 -2.683901 -2.12132 -2.12132 
C -2.683901 -1.55874 -3 -0.795609 -3 0 
C -3 0.795609 -2.683901 1.55874 -2.12132 2.12132 
C -1.55874 2.683901 -0.795609 3 0 3 
z
" style="stroke: #ffffff; stroke-width: 0.75"/>
    </defs>
    <g clip-path="url(#p66949bec08)">
     <use xlink:href="#m7b4468ea05" x="84.719091" y="94.429691" style="fill: #17becf; stroke: #ffffff; stroke-width: 0.75"/>
     <use xlink:href="#m7b4468ea05" x="115.490992" y="87.263253" style="fill: #17becf; stroke: #ffffff; stroke-width: 0.75"/>
     <use xlink:href="#m7b4468ea05" x="146.262893" y="80.693115" style="fill: #17becf; stroke: #ffffff; stroke-width: 0.75"/>
     <use xlink:href="#m7b4468ea05" x="177.034793" y="49.932727" style="fill: #17becf; stroke: #ffffff; stroke-width: 0.75"/>
     <use xlink:href="#m7b4468ea05" x="207.806694" y="69.526049" style="fill: #17becf; stroke: #ffffff; stroke-width: 0.75"/>
     <use xlink:href="#m7b4468ea05" x="238.578595" y="68.979622" style="fill: #17becf; stroke: #ffffff; stroke-width: 0.75"/>
     <use xlink:href="#m7b4468ea05" x="269.350496" y="65.312921" style="fill: #17becf; stroke: #ffffff; stroke-width: 0.75"/>
     <use xlink:href="#m7b4468ea05" x="300.122397" y="75.976927" style="fill: #17becf; stroke: #ffffff; stroke-width: 0.75"/>
     <use xlink:href="#m7b4468ea05" x="330.894298" y="100.169346" style="fill: #17becf; stroke: #ffffff; stroke-width: 0.75"/>
     <use xlink:href="#m7b4468ea05" x="361.666198" y="115.647116" style="fill: #17becf; stroke: #ffffff; stroke-width: 0.75"/>
     <use xlink:href="#m7b4468ea05" x="392.438099" y="116.393033" style="fill: #17becf; stroke: #ffffff; stroke-width: 0.75"/>
     <use xlink:href="#m7b4468ea05" x="423.21" y="145.134675" style="fill: #17becf; stroke: #ffffff; stroke-width: 0.75"/>
     <use xlink:href="#m7b4468ea05" x="453.981901" y="150.544739" style="fill: #17becf; stroke: #ffffff; stroke-width: 0.75"/>
     <use xlink:href="#m7b4468ea05" x="484.753802" y="155.211055" style="fill: #17becf; stroke: #ffffff; stroke-width: 0.75"/>
     <use xlink:href="#m7b4468ea05" x="515.525702" y="162.785145" style="fill: #17becf; stroke: #ffffff; stroke-width: 0.75"/>
     <use xlink:href="#m7b4468ea05" x="546.297603" y="169.528752" style="fill: #17becf; stroke: #ffffff; stroke-width: 0.75"/>
     <use xlink:href="#m7b4468ea05" x="577.069504" y="158.446252" style="fill: #17becf; stroke: #ffffff; stroke-width: 0.75"/>
     <use xlink:href="#m7b4468ea05" x="607.841405" y="162.071754" style="fill: #17becf; stroke: #ffffff; stroke-width: 0.75"/>
     <use xlink:href="#m7b4468ea05" x="638.613306" y="177.770697" style="fill: #17becf; stroke: #ffffff; stroke-width: 0.75"/>
     <use xlink:href="#m7b4468ea05" x="669.385207" y="154.007614" style="fill: #17becf; stroke: #ffffff; stroke-width: 0.75"/>
     <use xlink:href="#m7b4468ea05" x="700.157107" y="192.283546" style="fill: #17becf; stroke: #ffffff; stroke-width: 0.75"/>
     <use xlink:href="#m7b4468ea05" x="730.929008" y="209.203277" style="fill: #17becf; stroke: #ffffff; stroke-width: 0.75"/>
     <use xlink:href="#m7b4468ea05" x="761.700909" y="210.608376" style="fill: #17becf; stroke: #ffffff; stroke-width: 0.75"/>
    </g>
   </g>
   <g id="line2d_21"/>
   <g id="line2d_22"/>
   <g id="line2d_23"/>
   <g id="line2d_24"/>
   <g id="line2d_25"/>
   <g id="line2d_26"/>
   <g id="line2d_27"/>
   <g id="line2d_28"/>
   <g id="line2d_29"/>
   <g id="line2d_30"/>
   <g id="patch_3">
    <path d="M 50.87 534.04 
L 50.87 26.88 
" style="fill: none; stroke: #000000; stroke-width: 0.8; stroke-linejoin: miter; stroke-linecap: square"/>
   </g>
   <g id="patch_4">
    <path d="M 795.55 534.04 
L 795.55 26.88 
" style="fill: none; stroke: #000000; stroke-width: 0.8; stroke-linejoin: miter; stroke-linecap: square"/>
   </g>
   <g id="patch_5">
    <path d="M 50.87 534.04 
L 795.55 534.04 
" style="fill: none; stroke: #000000; stroke-width: 0.8; stroke-linejoin: miter; stroke-linecap: square"/>
   </g>
   <g id="patch_6">
    <path d="M 50.87 26.88 
L 795.55 26.88 
" style="fill: none; stroke: #000000; stroke-width: 0.8; stroke-linejoin: miter; stroke-linecap: square"/>
   </g>
   <g id="text_13">
    <!-- Oil Consumption Trend (20002023) -->
    <g transform="translate(315.058125 20.88) scale(0.12 -0.12)">
     <defs>
      <path id="DejaVuSans-54" d="M -19 4666 
L 3928 4666 
L 3928 4134 
L 2272 4134 
L 2272 0 
L 1638 0 
L 1638 4134 
L -19 4134 
L -19 4666 
z
" transform="scale(0.015625)"/>
      <path id="DejaVuSans-64" d="M 2906 2969 
L 2906 4863 
L 3481 4863 
L 3481 0 
L 2906 0 
L 2906 525 
Q 2725 213 2448 61 
Q 2172 -91 1784 -91 
Q 1150 -91 751 415 
Q 353 922 353 1747 
Q 353 2572 751 3078 
Q 1150 3584 1784 3584 
Q 2172 3584 2448 3432 
Q 2725 3281 2906 2969 
z
M 947 1747 
Q 947 1113 1208 752 
Q 1469 391 1925 391 
Q 2381 391 2643 752 
Q 2906 1113 2906 1747 
Q 2906 2381 2643 2742 
Q 2381 3103 1925 3103 
Q 1469 3103 1208 2742 
Q 947 2381 947 1747 
z
" transform="scale(0.015625)"/>
      <path id="DejaVuSans-28" d="M 1984 4856 
Q 1566 4138 1362 3434 
Q 1159 2731 1159 2009 
Q 1159 1288 1364 580 
Q 1569 -128 1984 -844 
L 1484 -844 
Q 1016 -109 783 600 
Q 550 1309 550 2009 
Q 550 2706 781 3412 
Q 1013 4119 1484 4856 
L 1984 4856 
z
" transform="scale(0.015625)"/>
      <path id="DejaVuSans-2013" d="M 313 1978 
L 2888 1978 
L 2888 1528 
L 313 1528 
L 313 1978 
z
" transform="scale(0.015625)"/>
      <path id="DejaVuSans-33" d="M 2597 2516 
Q 3050 2419 3304 2112 
Q 3559 1806 3559 1356 
Q 3559 666 3084 287 
Q 2609 -91 1734 -91 
Q 1441 -91 1130 -33 
Q 819 25 488 141 
L 488 750 
Q 750 597 1062 519 
Q 1375 441 1716 441 
Q 2309 441 2620 675 
Q 2931 909 2931 1356 
Q 2931 1769 2642 2001 
Q 2353 2234 1838 2234 
L 1294 2234 
L 1294 2753 
L 1863 2753 
Q 2328 2753 2575 2939 
Q 2822 3125 2822 3475 
Q 2822 3834 2567 4026 
Q 2313 4219 1838 4219 
Q 1578 4219 1281 4162 
Q 984 4106 628 3988 
L 628 4550 
Q 988 4650 1302 4700 
Q 1616 4750 1894 4750 
Q 2613 4750 3031 4423 
Q 3450 4097 3450 3541 
Q 3450 3153 3228 2886 
Q 3006 2619 2597 2516 
z
" transform="scale(0.015625)"/>
      <path id="DejaVuSans-29" d="M 513 4856 
L 1013 4856 
Q 1481 4119 1714 3412 
Q 1947 2706 1947 2009 
Q 1947 1309 1714 600 
Q 1481 -109 1013 -844 
L 513 -844 
Q 928 -128 1133 580 
Q 1338 1288 1338 2009 
Q 1338 2731 1133 3434 
Q 928 4138 513 4856 
z
" transform="scale(0.015625)"/>
     </defs>
     <use xlink:href="#DejaVuSans-4f"/>
     <use xlink:href="#DejaVuSans-69" x="78.710938"/>
     <use xlink:href="#DejaVuSans-6c" x="106.494141"/>
     <use xlink:href="#DejaVuSans-20" x="134.277344"/>
     <use xlink:href="#DejaVuSans-43" x="166.064453"/>
     <use xlink:href="#DejaVuSans-6f" x="235.888672"/>
     <use xlink:href="#DejaVuSans-6e" x="297.070312"/>
     <use xlink:href="#DejaVuSans-73" x="360.449219"/>
     <use xlink:href="#DejaVuSans-75" x="412.548828"/>
     <use xlink:href="#DejaVuSans-6d" x="475.927734"/>
     <use xlink:href="#DejaVuSans-70" x="573.339844"/>
     <use xlink:href="#DejaVuSans-74" x="636.816406"/>
     <use xlink:href="#DejaVuSans-69" x="676.025391"/>
     <use xlink:href="#DejaVuSans-6f" x="703.808594"/>
     <use xlink:href="#DejaVuSans-6e" x="764.990234"/>
     <use xlink:href="#DejaVuSans-20" x="828.369141"/>
     <use xlink:href="#DejaVuSans-54" x="860.15625"/>
     <use xlink:href="#DejaVuSans-72" x="906.490234"/>
     <use xlink:href="#DejaVuSans-65" x="945.353516"/>
     <use xlink:href="#DejaVuSans-6e" x="1006.876953"/>
     <use xlink:href="#DejaVuSans-64" x="1070.255859"/>
     <use xlink:href="#DejaVuSans-20" x="1133.732422"/>
     <use xlink:href="#DejaVuSans-28" x="1165.519531"/>
     <use xlink:href="#DejaVuSans-32" x="1204.533203"/>
     <use xlink:href="#DejaVuSans-30" x="1268.15625"/>
     <use xlink:href="#DejaVuSans-30" x="1331.779297"/>
     <use xlink:href="#DejaVuSans-30" x="1395.402344"/>
     <use xlink:href="#DejaVuSans-2013" x="1459.025391"/>
     <use xlink:href="#DejaVuSans-32" x="1509.025391"/>
     <use xlink:href="#DejaVuSans-30" x="1572.648438"/>
     <use xlink:href="#DejaVuSans-32" x="1636.271484"/>
     <use xlink:href="#DejaVuSans-33" x="1699.894531"/>
     <use xlink:href="#DejaVuSans-29" x="1763.517578"/>
    </g>
   </g>
   <g id="legend_1">
    <g id="patch_7">
     <path d="M 839.784 196.339375 
L 993.20275 196.339375 
Q 995.20275 196.339375 995.20275 194.339375 
L 995.20275 33.88 
Q 995.20275 31.88 993.20275 31.88 
L 839.784 31.88 
Q 837.784 31.88 837.784 33.88 
L 837.784 194.339375 
Q 837.784 196.339375 839.784 196.339375 
z
" style="fill: #ffffff; opacity: 0.8; stroke: #cccccc; stroke-linejoin: miter"/>
    </g>
    <g id="text_14">
     <!-- Country -->
     <g transform="translate(896.630094 43.478437) scale(0.1 -0.1)">
      <defs>
       <path id="DejaVuSans-79" d="M 2059 -325 
Q 1816 -950 1584 -1140 
Q 1353 -1331 966 -1331 
L 506 -1331 
L 506 -850 
L 844 -850 
Q 1081 -850 1212 -737 
Q 1344 -625 1503 -206 
L 1606 56 
L 191 3500 
L 800 3500 
L 1894 763 
L 2988 3500 
L 3597 3500 
L 2059 -325 
z
" transform="scale(0.015625)"/>
      </defs>
      <use xlink:href="#DejaVuSans-43"/>
      <use xlink:href="#DejaVuSans-6f" x="69.824219"/>
      <use xlink:href="#DejaVuSans-75" x="131.005859"/>
      <use xlink:href="#DejaVuSans-6e" x="194.384766"/>
      <use xlink:href="#DejaVuSans-74" x="257.763672"/>
      <use xlink:href="#DejaVuSans-72" x="296.972656"/>
      <use xlink:href="#DejaVuSans-79" x="338.085938"/>
     </g>
    </g>
    <g id="line2d_31">
     <path d="M 841.784 54.656562 
L 851.784 54.656562 
L 861.784 54.656562 
" style="fill: none; stroke: #1f77b4; stroke-width: 1.5; stroke-linecap: square"/>
     <g>
      <use xlink:href="#me0cd3819e5" x="851.784" y="54.656562" style="fill: #1f77b4; stroke: #ffffff; stroke-width: 0.75"/>
     </g>
    </g>
    <g id="text_15">
     <!-- Bosnia and Herzegovina -->
     <g transform="translate(869.784 58.156562) scale(0.1 -0.1)">
      <defs>
       <path id="DejaVuSans-42" d="M 1259 2228 
L 1259 519 
L 2272 519 
Q 2781 519 3026 730 
Q 3272 941 3272 1375 
Q 3272 1813 3026 2020 
Q 2781 2228 2272 2228 
L 1259 2228 
z
M 1259 4147 
L 1259 2741 
L 2194 2741 
Q 2656 2741 2882 2914 
Q 3109 3088 3109 3444 
Q 3109 3797 2882 3972 
Q 2656 4147 2194 4147 
L 1259 4147 
z
M 628 4666 
L 2241 4666 
Q 2963 4666 3353 4366 
Q 3744 4066 3744 3513 
Q 3744 3084 3544 2831 
Q 3344 2578 2956 2516 
Q 3422 2416 3680 2098 
Q 3938 1781 3938 1306 
Q 3938 681 3513 340 
Q 3088 0 2303 0 
L 628 0 
L 628 4666 
z
" transform="scale(0.015625)"/>
       <path id="DejaVuSans-48" d="M 628 4666 
L 1259 4666 
L 1259 2753 
L 3553 2753 
L 3553 4666 
L 4184 4666 
L 4184 0 
L 3553 0 
L 3553 2222 
L 1259 2222 
L 1259 0 
L 628 0 
L 628 4666 
z
" transform="scale(0.015625)"/>
       <path id="DejaVuSans-7a" d="M 353 3500 
L 3084 3500 
L 3084 2975 
L 922 459 
L 3084 459 
L 3084 0 
L 275 0 
L 275 525 
L 2438 3041 
L 353 3041 
L 353 3500 
z
" transform="scale(0.015625)"/>
       <path id="DejaVuSans-67" d="M 2906 1791 
Q 2906 2416 2648 2759 
Q 2391 3103 1925 3103 
Q 1463 3103 1205 2759 
Q 947 2416 947 1791 
Q 947 1169 1205 825 
Q 1463 481 1925 481 
Q 2391 481 2648 825 
Q 2906 1169 2906 1791 
z
M 3481 434 
Q 3481 -459 3084 -895 
Q 2688 -1331 1869 -1331 
Q 1566 -1331 1297 -1286 
Q 1028 -1241 775 -1147 
L 775 -588 
Q 1028 -725 1275 -790 
Q 1522 -856 1778 -856 
Q 2344 -856 2625 -561 
Q 2906 -266 2906 331 
L 2906 616 
Q 2728 306 2450 153 
Q 2172 0 1784 0 
Q 1141 0 747 490 
Q 353 981 353 1791 
Q 353 2603 747 3093 
Q 1141 3584 1784 3584 
Q 2172 3584 2450 3431 
Q 2728 3278 2906 2969 
L 2906 3500 
L 3481 3500 
L 3481 434 
z
" transform="scale(0.015625)"/>
       <path id="DejaVuSans-76" d="M 191 3500 
L 800 3500 
L 1894 563 
L 2988 3500 
L 3597 3500 
L 2284 0 
L 1503 0 
L 191 3500 
z
" transform="scale(0.015625)"/>
      </defs>
      <use xlink:href="#DejaVuSans-42"/>
      <use xlink:href="#DejaVuSans-6f" x="68.603516"/>
      <use xlink:href="#DejaVuSans-73" x="129.785156"/>
      <use xlink:href="#DejaVuSans-6e" x="181.884766"/>
      <use xlink:href="#DejaVuSans-69" x="245.263672"/>
      <use xlink:href="#DejaVuSans-61" x="273.046875"/>
      <use xlink:href="#DejaVuSans-20" x="334.326172"/>
      <use xlink:href="#DejaVuSans-61" x="366.113281"/>
      <use xlink:href="#DejaVuSans-6e" x="427.392578"/>
      <use xlink:href="#DejaVuSans-64" x="490.771484"/>
      <use xlink:href="#DejaVuSans-20" x="554.248047"/>
      <use xlink:href="#DejaVuSans-48" x="586.035156"/>
      <use xlink:href="#DejaVuSans-65" x="661.230469"/>
      <use xlink:href="#DejaVuSans-72" x="722.753906"/>
      <use xlink:href="#DejaVuSans-7a" x="763.867188"/>
      <use xlink:href="#DejaVuSans-65" x="816.357422"/>
      <use xlink:href="#DejaVuSans-67" x="877.880859"/>
      <use xlink:href="#DejaVuSans-6f" x="941.357422"/>
      <use xlink:href="#DejaVuSans-76" x="1002.539062"/>
      <use xlink:href="#DejaVuSans-69" x="1061.71875"/>
      <use xlink:href="#DejaVuSans-6e" x="1089.501953"/>
      <use xlink:href="#DejaVuSans-61" x="1152.880859"/>
     </g>
    </g>
    <g id="line2d_32">
     <path d="M 841.784 69.334687 
L 851.784 69.334687 
L 861.784 69.334687 
" style="fill: none; stroke: #ff7f0e; stroke-width: 1.5; stroke-linecap: square"/>
     <g>
      <use xlink:href="#m0e940ebd9e" x="851.784" y="69.334687" style="fill: #ff7f0e; stroke: #ffffff; stroke-width: 0.75"/>
     </g>
    </g>
    <g id="text_16">
     <!-- Croatia -->
     <g transform="translate(869.784 72.834687) scale(0.1 -0.1)">
      <use xlink:href="#DejaVuSans-43"/>
      <use xlink:href="#DejaVuSans-72" x="69.824219"/>
      <use xlink:href="#DejaVuSans-6f" x="108.6875"/>
      <use xlink:href="#DejaVuSans-61" x="169.869141"/>
      <use xlink:href="#DejaVuSans-74" x="231.148438"/>
      <use xlink:href="#DejaVuSans-69" x="270.357422"/>
      <use xlink:href="#DejaVuSans-61" x="298.140625"/>
     </g>
    </g>
    <g id="line2d_33">
     <path d="M 841.784 84.012812 
L 851.784 84.012812 
L 861.784 84.012812 
" style="fill: none; stroke: #2ca02c; stroke-width: 1.5; stroke-linecap: square"/>
     <g>
      <use xlink:href="#mb60dffff55" x="851.784" y="84.012812" style="fill: #2ca02c; stroke: #ffffff; stroke-width: 0.75"/>
     </g>
    </g>
    <g id="text_17">
     <!-- Denmark -->
     <g transform="translate(869.784 87.512812) scale(0.1 -0.1)">
      <defs>
       <path id="DejaVuSans-44" d="M 1259 4147 
L 1259 519 
L 2022 519 
Q 2988 519 3436 956 
Q 3884 1394 3884 2338 
Q 3884 3275 3436 3711 
Q 2988 4147 2022 4147 
L 1259 4147 
z
M 628 4666 
L 1925 4666 
Q 3281 4666 3915 4102 
Q 4550 3538 4550 2338 
Q 4550 1131 3912 565 
Q 3275 0 1925 0 
L 628 0 
L 628 4666 
z
" transform="scale(0.015625)"/>
       <path id="DejaVuSans-6b" d="M 581 4863 
L 1159 4863 
L 1159 1991 
L 2875 3500 
L 3609 3500 
L 1753 1863 
L 3688 0 
L 2938 0 
L 1159 1709 
L 1159 0 
L 581 0 
L 581 4863 
z
" transform="scale(0.015625)"/>
      </defs>
      <use xlink:href="#DejaVuSans-44"/>
      <use xlink:href="#DejaVuSans-65" x="77.001953"/>
      <use xlink:href="#DejaVuSans-6e" x="138.525391"/>
      <use xlink:href="#DejaVuSans-6d" x="201.904297"/>
      <use xlink:href="#DejaVuSans-61" x="299.316406"/>
      <use xlink:href="#DejaVuSans-72" x="360.595703"/>
      <use xlink:href="#DejaVuSans-6b" x="401.708984"/>
     </g>
    </g>
    <g id="line2d_34">
     <path d="M 841.784 98.690937 
L 851.784 98.690937 
L 861.784 98.690937 
" style="fill: none; stroke: #d62728; stroke-width: 1.5; stroke-linecap: square"/>
     <g>
      <use xlink:href="#mcc9188e3a0" x="851.784" y="98.690937" style="fill: #d62728; stroke: #ffffff; stroke-width: 0.75"/>
     </g>
    </g>
    <g id="text_18">
     <!-- Finland -->
     <g transform="translate(869.784 102.190937) scale(0.1 -0.1)">
      <defs>
       <path id="DejaVuSans-46" d="M 628 4666 
L 3309 4666 
L 3309 4134 
L 1259 4134 
L 1259 2759 
L 3109 2759 
L 3109 2228 
L 1259 2228 
L 1259 0 
L 628 0 
L 628 4666 
z
" transform="scale(0.015625)"/>
      </defs>
      <use xlink:href="#DejaVuSans-46"/>
      <use xlink:href="#DejaVuSans-69" x="50.269531"/>
      <use xlink:href="#DejaVuSans-6e" x="78.052734"/>
      <use xlink:href="#DejaVuSans-6c" x="141.431641"/>
      <use xlink:href="#DejaVuSans-61" x="169.214844"/>
      <use xlink:href="#DejaVuSans-6e" x="230.494141"/>
      <use xlink:href="#DejaVuSans-64" x="293.873047"/>
     </g>
    </g>
    <g id="line2d_35">
     <path d="M 841.784 113.369062 
L 851.784 113.369062 
L 861.784 113.369062 
" style="fill: none; stroke: #9467bd; stroke-width: 1.5; stroke-linecap: square"/>
     <g>
      <use xlink:href="#mfc565bbbb6" x="851.784" y="113.369062" style="fill: #9467bd; stroke: #ffffff; stroke-width: 0.75"/>
     </g>
    </g>
    <g id="text_19">
     <!-- Iceland -->
     <g transform="translate(869.784 116.869062) scale(0.1 -0.1)">
      <defs>
       <path id="DejaVuSans-49" d="M 628 4666 
L 1259 4666 
L 1259 0 
L 628 0 
L 628 4666 
z
" transform="scale(0.015625)"/>
       <path id="DejaVuSans-63" d="M 3122 3366 
L 3122 2828 
Q 2878 2963 2633 3030 
Q 2388 3097 2138 3097 
Q 1578 3097 1268 2742 
Q 959 2388 959 1747 
Q 959 1106 1268 751 
Q 1578 397 2138 397 
Q 2388 397 2633 464 
Q 2878 531 3122 666 
L 3122 134 
Q 2881 22 2623 -34 
Q 2366 -91 2075 -91 
Q 1284 -91 818 406 
Q 353 903 353 1747 
Q 353 2603 823 3093 
Q 1294 3584 2113 3584 
Q 2378 3584 2631 3529 
Q 2884 3475 3122 3366 
z
" transform="scale(0.015625)"/>
      </defs>
      <use xlink:href="#DejaVuSans-49"/>
      <use xlink:href="#DejaVuSans-63" x="29.492188"/>
      <use xlink:href="#DejaVuSans-65" x="84.472656"/>
      <use xlink:href="#DejaVuSans-6c" x="145.996094"/>
      <use xlink:href="#DejaVuSans-61" x="173.779297"/>
      <use xlink:href="#DejaVuSans-6e" x="235.058594"/>
      <use xlink:href="#DejaVuSans-64" x="298.4375"/>
     </g>
    </g>
    <g id="line2d_36">
     <path d="M 841.784 128.047187 
L 851.784 128.047187 
L 861.784 128.047187 
" style="fill: none; stroke: #8c564b; stroke-width: 1.5; stroke-linecap: square"/>
     <g>
      <use xlink:href="#mfc35c497a4" x="851.784" y="128.047187" style="fill: #8c564b; stroke: #ffffff; stroke-width: 0.75"/>
     </g>
    </g>
    <g id="text_20">
     <!-- Kosovo -->
     <g transform="translate(869.784 131.547187) scale(0.1 -0.1)">
      <defs>
       <path id="DejaVuSans-4b" d="M 628 4666 
L 1259 4666 
L 1259 2694 
L 3353 4666 
L 4166 4666 
L 1850 2491 
L 4331 0 
L 3500 0 
L 1259 2247 
L 1259 0 
L 628 0 
L 628 4666 
z
" transform="scale(0.015625)"/>
      </defs>
      <use xlink:href="#DejaVuSans-4b"/>
      <use xlink:href="#DejaVuSans-6f" x="60.576172"/>
      <use xlink:href="#DejaVuSans-73" x="121.757812"/>
      <use xlink:href="#DejaVuSans-6f" x="173.857422"/>
      <use xlink:href="#DejaVuSans-76" x="235.039062"/>
      <use xlink:href="#DejaVuSans-6f" x="294.21875"/>
     </g>
    </g>
    <g id="line2d_37">
     <path d="M 841.784 142.725312 
L 851.784 142.725312 
L 861.784 142.725312 
" style="fill: none; stroke: #e377c2; stroke-width: 1.5; stroke-linecap: square"/>
     <g>
      <use xlink:href="#mf10179134f" x="851.784" y="142.725312" style="fill: #e377c2; stroke: #ffffff; stroke-width: 0.75"/>
     </g>
    </g>
    <g id="text_21">
     <!-- North Macedonia -->
     <g transform="translate(869.784 146.225312) scale(0.1 -0.1)">
      <defs>
       <path id="DejaVuSans-4e" d="M 628 4666 
L 1478 4666 
L 3547 763 
L 3547 4666 
L 4159 4666 
L 4159 0 
L 3309 0 
L 1241 3903 
L 1241 0 
L 628 0 
L 628 4666 
z
" transform="scale(0.015625)"/>
       <path id="DejaVuSans-68" d="M 3513 2113 
L 3513 0 
L 2938 0 
L 2938 2094 
Q 2938 2591 2744 2837 
Q 2550 3084 2163 3084 
Q 1697 3084 1428 2787 
Q 1159 2491 1159 1978 
L 1159 0 
L 581 0 
L 581 4863 
L 1159 4863 
L 1159 2956 
Q 1366 3272 1645 3428 
Q 1925 3584 2291 3584 
Q 2894 3584 3203 3211 
Q 3513 2838 3513 2113 
z
" transform="scale(0.015625)"/>
       <path id="DejaVuSans-4d" d="M 628 4666 
L 1569 4666 
L 2759 1491 
L 3956 4666 
L 4897 4666 
L 4897 0 
L 4281 0 
L 4281 4097 
L 3078 897 
L 2444 897 
L 1241 4097 
L 1241 0 
L 628 0 
L 628 4666 
z
" transform="scale(0.015625)"/>
      </defs>
      <use xlink:href="#DejaVuSans-4e"/>
      <use xlink:href="#DejaVuSans-6f" x="74.804688"/>
      <use xlink:href="#DejaVuSans-72" x="135.986328"/>
      <use xlink:href="#DejaVuSans-74" x="177.099609"/>
      <use xlink:href="#DejaVuSans-68" x="216.308594"/>
      <use xlink:href="#DejaVuSans-20" x="279.6875"/>
      <use xlink:href="#DejaVuSans-4d" x="311.474609"/>
      <use xlink:href="#DejaVuSans-61" x="397.753906"/>
      <use xlink:href="#DejaVuSans-63" x="459.033203"/>
      <use xlink:href="#DejaVuSans-65" x="514.013672"/>
      <use xlink:href="#DejaVuSans-64" x="575.537109"/>
      <use xlink:href="#DejaVuSans-6f" x="639.013672"/>
      <use xlink:href="#DejaVuSans-6e" x="700.195312"/>
      <use xlink:href="#DejaVuSans-69" x="763.574219"/>
      <use xlink:href="#DejaVuSans-61" x="791.357422"/>
     </g>
    </g>
    <g id="line2d_38">
     <path d="M 841.784 157.403437 
L 851.784 157.403437 
L 861.784 157.403437 
" style="fill: none; stroke: #7f7f7f; stroke-width: 1.5; stroke-linecap: square"/>
     <g>
      <use xlink:href="#md8eae7e837" x="851.784" y="157.403437" style="fill: #7f7f7f; stroke: #ffffff; stroke-width: 0.75"/>
     </g>
    </g>
    <g id="text_22">
     <!-- Norway -->
     <g transform="translate(869.784 160.903437) scale(0.1 -0.1)">
      <defs>
       <path id="DejaVuSans-77" d="M 269 3500 
L 844 3500 
L 1563 769 
L 2278 3500 
L 2956 3500 
L 3675 769 
L 4391 3500 
L 4966 3500 
L 4050 0 
L 3372 0 
L 2619 2869 
L 1863 0 
L 1184 0 
L 269 3500 
z
" transform="scale(0.015625)"/>
      </defs>
      <use xlink:href="#DejaVuSans-4e"/>
      <use xlink:href="#DejaVuSans-6f" x="74.804688"/>
      <use xlink:href="#DejaVuSans-72" x="135.986328"/>
      <use xlink:href="#DejaVuSans-77" x="177.099609"/>
      <use xlink:href="#DejaVuSans-61" x="258.886719"/>
      <use xlink:href="#DejaVuSans-79" x="320.166016"/>
     </g>
    </g>
    <g id="line2d_39">
     <path d="M 841.784 172.081562 
L 851.784 172.081562 
L 861.784 172.081562 
" style="fill: none; stroke: #bcbd22; stroke-width: 1.5; stroke-linecap: square"/>
     <g>
      <use xlink:href="#m293be81b2a" x="851.784" y="172.081562" style="fill: #bcbd22; stroke: #ffffff; stroke-width: 0.75"/>
     </g>
    </g>
    <g id="text_23">
     <!-- Serbia -->
     <g transform="translate(869.784 175.581562) scale(0.1 -0.1)">
      <defs>
       <path id="DejaVuSans-53" d="M 3425 4513 
L 3425 3897 
Q 3066 4069 2747 4153 
Q 2428 4238 2131 4238 
Q 1616 4238 1336 4038 
Q 1056 3838 1056 3469 
Q 1056 3159 1242 3001 
Q 1428 2844 1947 2747 
L 2328 2669 
Q 3034 2534 3370 2195 
Q 3706 1856 3706 1288 
Q 3706 609 3251 259 
Q 2797 -91 1919 -91 
Q 1588 -91 1214 -16 
Q 841 59 441 206 
L 441 856 
Q 825 641 1194 531 
Q 1563 422 1919 422 
Q 2459 422 2753 634 
Q 3047 847 3047 1241 
Q 3047 1584 2836 1778 
Q 2625 1972 2144 2069 
L 1759 2144 
Q 1053 2284 737 2584 
Q 422 2884 422 3419 
Q 422 4038 858 4394 
Q 1294 4750 2059 4750 
Q 2388 4750 2728 4690 
Q 3069 4631 3425 4513 
z
" transform="scale(0.015625)"/>
       <path id="DejaVuSans-62" d="M 3116 1747 
Q 3116 2381 2855 2742 
Q 2594 3103 2138 3103 
Q 1681 3103 1420 2742 
Q 1159 2381 1159 1747 
Q 1159 1113 1420 752 
Q 1681 391 2138 391 
Q 2594 391 2855 752 
Q 3116 1113 3116 1747 
z
M 1159 2969 
Q 1341 3281 1617 3432 
Q 1894 3584 2278 3584 
Q 2916 3584 3314 3078 
Q 3713 2572 3713 1747 
Q 3713 922 3314 415 
Q 2916 -91 2278 -91 
Q 1894 -91 1617 61 
Q 1341 213 1159 525 
L 1159 0 
L 581 0 
L 581 4863 
L 1159 4863 
L 1159 2969 
z
" transform="scale(0.015625)"/>
      </defs>
      <use xlink:href="#DejaVuSans-53"/>
      <use xlink:href="#DejaVuSans-65" x="63.476562"/>
      <use xlink:href="#DejaVuSans-72" x="125"/>
      <use xlink:href="#DejaVuSans-62" x="166.113281"/>
      <use xlink:href="#DejaVuSans-69" x="229.589844"/>
      <use xlink:href="#DejaVuSans-61" x="257.373047"/>
     </g>
    </g>
    <g id="line2d_40">
     <path d="M 841.784 186.759687 
L 851.784 186.759687 
L 861.784 186.759687 
" style="fill: none; stroke: #17becf; stroke-width: 1.5; stroke-linecap: square"/>
     <g>
      <use xlink:href="#m7b4468ea05" x="851.784" y="186.759687" style="fill: #17becf; stroke: #ffffff; stroke-width: 0.75"/>
     </g>
    </g>
    <g id="text_24">
     <!-- Sweden -->
     <g transform="translate(869.784 190.259687) scale(0.1 -0.1)">
      <use xlink:href="#DejaVuSans-53"/>
      <use xlink:href="#DejaVuSans-77" x="63.476562"/>
      <use xlink:href="#DejaVuSans-65" x="145.263672"/>
      <use xlink:href="#DejaVuSans-64" x="206.787109"/>
      <use xlink:href="#DejaVuSans-65" x="270.263672"/>
      <use xlink:href="#DejaVuSans-6e" x="331.787109"/>
     </g>
    </g>
   </g>
  </g>
 </g>
 <defs>
  <clipPath id="p66949bec08">
   <rect x="50.87" y="26.88" width="744.68" height="507.16"/>
  </clipPath>
 </defs>
</svg>
