<?xml version="1.0" encoding="utf-8" standalone="no"?>
<!DOCTYPE svg PUBLIC "-//W3C//DTD SVG 1.1//EN"
  "http://www.w3.org/Graphics/SVG/1.1/DTD/svg11.dtd">
<svg xmlns:xlink="http://www.w3.org/1999/xlink" width="1008pt" height="576pt" viewBox="0 0 1008 576" xmlns="http://www.w3.org/2000/svg" version="1.1">
 <metadata>
  <rdf:RDF xmlns:dc="http://purl.org/dc/elements/1.1/" xmlns:cc="http://creativecommons.org/ns#" xmlns:rdf="http://www.w3.org/1999/02/22-rdf-syntax-ns#">
   <cc:Work>
    <dc:type rdf:resource="http://purl.org/dc/dcmitype/StillImage"/>
    <dc:date>2025-04-22T23:03:51.205691</dc:date>
    <dc:format>image/svg+xml</dc:format>
    <dc:creator>
     <cc:Agent>
      <dc:title>Matplotlib v3.9.2, https://matplotlib.org/</dc:title>
     </cc:Agent>
    </dc:creator>
   </cc:Work>
  </rdf:RDF>
 </metadata>
 <defs>
  <style type="text/css">*{stroke-linejoin: round; stroke-linecap: butt}</style>
 </defs>
 <g id="figure_1">
  <g id="patch_1">
   <path d="M 0 576 
L 1008 576 
L 1008 0 
L 0 0 
z
" style="fill: #ffffff"/>
  </g>
  <g id="axes_1">
   <g id="patch_2">
    <path d="M 44.57 534.04 
L 795.55 534.04 
L 795.55 26.88 
L 44.57 26.88 
z
" style="fill: #ffffff"/>
   </g>
   <g id="PolyCollection_1"/>
   <g id="PolyCollection_2"/>
   <g id="PolyCollection_3"/>
   <g id="PolyCollection_4"/>
   <g id="PolyCollection_5"/>
   <g id="PolyCollection_6"/>
   <g id="PolyCollection_7"/>
   <g id="PolyCollection_8"/>
   <g id="PolyCollection_9"/>
   <g id="PolyCollection_10"/>
   <g id="matplotlib.axis_1">
    <g id="xtick_1">
     <g id="line2d_1">
      <defs>
       <path id="mcdc0cb05e9" d="M 0 0 
L 0 3.5 
" style="stroke: #000000; stroke-width: 0.8"/>
      </defs>
      <g>
       <use xlink:href="#mcdc0cb05e9" x="78.705455" y="534.04" style="stroke: #000000; stroke-width: 0.8"/>
      </g>
     </g>
     <g id="text_1">
      <!-- 2000 -->
      <g transform="translate(65.980455 548.638438) scale(0.1 -0.1)">
       <defs>
        <path id="DejaVuSans-32" d="M 1228 531 
L 3431 531 
L 3431 0 
L 469 0 
L 469 531 
Q 828 903 1448 1529 
Q 2069 2156 2228 2338 
Q 2531 2678 2651 2914 
Q 2772 3150 2772 3378 
Q 2772 3750 2511 3984 
Q 2250 4219 1831 4219 
Q 1534 4219 1204 4116 
Q 875 4013 500 3803 
L 500 4441 
Q 881 4594 1212 4672 
Q 1544 4750 1819 4750 
Q 2544 4750 2975 4387 
Q 3406 4025 3406 3419 
Q 3406 3131 3298 2873 
Q 3191 2616 2906 2266 
Q 2828 2175 2409 1742 
Q 1991 1309 1228 531 
z
" transform="scale(0.015625)"/>
        <path id="DejaVuSans-30" d="M 2034 4250 
Q 1547 4250 1301 3770 
Q 1056 3291 1056 2328 
Q 1056 1369 1301 889 
Q 1547 409 2034 409 
Q 2525 409 2770 889 
Q 3016 1369 3016 2328 
Q 3016 3291 2770 3770 
Q 2525 4250 2034 4250 
z
M 2034 4750 
Q 2819 4750 3233 4129 
Q 3647 3509 3647 2328 
Q 3647 1150 3233 529 
Q 2819 -91 2034 -91 
Q 1250 -91 836 529 
Q 422 1150 422 2328 
Q 422 3509 836 4129 
Q 1250 4750 2034 4750 
z
" transform="scale(0.015625)"/>
       </defs>
       <use xlink:href="#DejaVuSans-32"/>
       <use xlink:href="#DejaVuSans-30" x="63.623047"/>
       <use xlink:href="#DejaVuSans-30" x="127.246094"/>
       <use xlink:href="#DejaVuSans-30" x="190.869141"/>
      </g>
     </g>
    </g>
    <g id="xtick_2">
     <g id="line2d_2">
      <g>
       <use xlink:href="#mcdc0cb05e9" x="233.866612" y="534.04" style="stroke: #000000; stroke-width: 0.8"/>
      </g>
     </g>
     <g id="text_2">
      <!-- 2005 -->
      <g transform="translate(221.141612 548.638438) scale(0.1 -0.1)">
       <defs>
        <path id="DejaVuSans-35" d="M 691 4666 
L 3169 4666 
L 3169 4134 
L 1269 4134 
L 1269 2991 
Q 1406 3038 1543 3061 
Q 1681 3084 1819 3084 
Q 2600 3084 3056 2656 
Q 3513 2228 3513 1497 
Q 3513 744 3044 326 
Q 2575 -91 1722 -91 
Q 1428 -91 1123 -41 
Q 819 9 494 109 
L 494 744 
Q 775 591 1075 516 
Q 1375 441 1709 441 
Q 2250 441 2565 725 
Q 2881 1009 2881 1497 
Q 2881 1984 2565 2268 
Q 2250 2553 1709 2553 
Q 1456 2553 1204 2497 
Q 953 2441 691 2322 
L 691 4666 
z
" transform="scale(0.015625)"/>
       </defs>
       <use xlink:href="#DejaVuSans-32"/>
       <use xlink:href="#DejaVuSans-30" x="63.623047"/>
       <use xlink:href="#DejaVuSans-30" x="127.246094"/>
       <use xlink:href="#DejaVuSans-35" x="190.869141"/>
      </g>
     </g>
    </g>
    <g id="xtick_3">
     <g id="line2d_3">
      <g>
       <use xlink:href="#mcdc0cb05e9" x="389.027769" y="534.04" style="stroke: #000000; stroke-width: 0.8"/>
      </g>
     </g>
     <g id="text_3">
      <!-- 2010 -->
      <g transform="translate(376.302769 548.638438) scale(0.1 -0.1)">
       <defs>
        <path id="DejaVuSans-31" d="M 794 531 
L 1825 531 
L 1825 4091 
L 703 3866 
L 703 4441 
L 1819 4666 
L 2450 4666 
L 2450 531 
L 3481 531 
L 3481 0 
L 794 0 
L 794 531 
z
" transform="scale(0.015625)"/>
       </defs>
       <use xlink:href="#DejaVuSans-32"/>
       <use xlink:href="#DejaVuSans-30" x="63.623047"/>
       <use xlink:href="#DejaVuSans-31" x="127.246094"/>
       <use xlink:href="#DejaVuSans-30" x="190.869141"/>
      </g>
     </g>
    </g>
    <g id="xtick_4">
     <g id="line2d_4">
      <g>
       <use xlink:href="#mcdc0cb05e9" x="544.188926" y="534.04" style="stroke: #000000; stroke-width: 0.8"/>
      </g>
     </g>
     <g id="text_4">
      <!-- 2015 -->
      <g transform="translate(531.463926 548.638438) scale(0.1 -0.1)">
       <use xlink:href="#DejaVuSans-32"/>
       <use xlink:href="#DejaVuSans-30" x="63.623047"/>
       <use xlink:href="#DejaVuSans-31" x="127.246094"/>
       <use xlink:href="#DejaVuSans-35" x="190.869141"/>
      </g>
     </g>
    </g>
    <g id="xtick_5">
     <g id="line2d_5">
      <g>
       <use xlink:href="#mcdc0cb05e9" x="699.350083" y="534.04" style="stroke: #000000; stroke-width: 0.8"/>
      </g>
     </g>
     <g id="text_5">
      <!-- 2020 -->
      <g transform="translate(686.625083 548.638438) scale(0.1 -0.1)">
       <use xlink:href="#DejaVuSans-32"/>
       <use xlink:href="#DejaVuSans-30" x="63.623047"/>
       <use xlink:href="#DejaVuSans-32" x="127.246094"/>
       <use xlink:href="#DejaVuSans-30" x="190.869141"/>
      </g>
     </g>
    </g>
    <g id="text_6">
     <!-- Year -->
     <g transform="translate(409.4725 562.316562) scale(0.1 -0.1)">
      <defs>
       <path id="DejaVuSans-59" d="M -13 4666 
L 666 4666 
L 1959 2747 
L 3244 4666 
L 3922 4666 
L 2272 2222 
L 2272 0 
L 1638 0 
L 1638 2222 
L -13 4666 
z
" transform="scale(0.015625)"/>
       <path id="DejaVuSans-65" d="M 3597 1894 
L 3597 1613 
L 953 1613 
Q 991 1019 1311 708 
Q 1631 397 2203 397 
Q 2534 397 2845 478 
Q 3156 559 3463 722 
L 3463 178 
Q 3153 47 2828 -22 
Q 2503 -91 2169 -91 
Q 1331 -91 842 396 
Q 353 884 353 1716 
Q 353 2575 817 3079 
Q 1281 3584 2069 3584 
Q 2775 3584 3186 3129 
Q 3597 2675 3597 1894 
z
M 3022 2063 
Q 3016 2534 2758 2815 
Q 2500 3097 2075 3097 
Q 1594 3097 1305 2825 
Q 1016 2553 972 2059 
L 3022 2063 
z
" transform="scale(0.015625)"/>
       <path id="DejaVuSans-61" d="M 2194 1759 
Q 1497 1759 1228 1600 
Q 959 1441 959 1056 
Q 959 750 1161 570 
Q 1363 391 1709 391 
Q 2188 391 2477 730 
Q 2766 1069 2766 1631 
L 2766 1759 
L 2194 1759 
z
M 3341 1997 
L 3341 0 
L 2766 0 
L 2766 531 
Q 2569 213 2275 61 
Q 1981 -91 1556 -91 
Q 1019 -91 701 211 
Q 384 513 384 1019 
Q 384 1609 779 1909 
Q 1175 2209 1959 2209 
L 2766 2209 
L 2766 2266 
Q 2766 2663 2505 2880 
Q 2244 3097 1772 3097 
Q 1472 3097 1187 3025 
Q 903 2953 641 2809 
L 641 3341 
Q 956 3463 1253 3523 
Q 1550 3584 1831 3584 
Q 2591 3584 2966 3190 
Q 3341 2797 3341 1997 
z
" transform="scale(0.015625)"/>
       <path id="DejaVuSans-72" d="M 2631 2963 
Q 2534 3019 2420 3045 
Q 2306 3072 2169 3072 
Q 1681 3072 1420 2755 
Q 1159 2438 1159 1844 
L 1159 0 
L 581 0 
L 581 3500 
L 1159 3500 
L 1159 2956 
Q 1341 3275 1631 3429 
Q 1922 3584 2338 3584 
Q 2397 3584 2469 3576 
Q 2541 3569 2628 3553 
L 2631 2963 
z
" transform="scale(0.015625)"/>
      </defs>
      <use xlink:href="#DejaVuSans-59"/>
      <use xlink:href="#DejaVuSans-65" x="47.833984"/>
      <use xlink:href="#DejaVuSans-61" x="109.357422"/>
      <use xlink:href="#DejaVuSans-72" x="170.636719"/>
     </g>
    </g>
   </g>
   <g id="matplotlib.axis_2">
    <g id="ytick_1">
     <g id="line2d_6">
      <defs>
       <path id="md4ac3a3c52" d="M 0 0 
L -3.5 0 
" style="stroke: #000000; stroke-width: 0.8"/>
      </defs>
      <g>
       <use xlink:href="#md4ac3a3c52" x="44.57" y="510.987273" style="stroke: #000000; stroke-width: 0.8"/>
      </g>
     </g>
     <g id="text_7">
      <!-- 0 -->
      <g transform="translate(31.2075 514.786491) scale(0.1 -0.1)">
       <use xlink:href="#DejaVuSans-30"/>
      </g>
     </g>
    </g>
    <g id="ytick_2">
     <g id="line2d_7">
      <g>
       <use xlink:href="#md4ac3a3c52" x="44.57" y="448.935841" style="stroke: #000000; stroke-width: 0.8"/>
      </g>
     </g>
     <g id="text_8">
      <!-- 10 -->
      <g transform="translate(24.845 452.73506) scale(0.1 -0.1)">
       <use xlink:href="#DejaVuSans-31"/>
       <use xlink:href="#DejaVuSans-30" x="63.623047"/>
      </g>
     </g>
    </g>
    <g id="ytick_3">
     <g id="line2d_8">
      <g>
       <use xlink:href="#md4ac3a3c52" x="44.57" y="386.88441" style="stroke: #000000; stroke-width: 0.8"/>
      </g>
     </g>
     <g id="text_9">
      <!-- 20 -->
      <g transform="translate(24.845 390.683629) scale(0.1 -0.1)">
       <use xlink:href="#DejaVuSans-32"/>
       <use xlink:href="#DejaVuSans-30" x="63.623047"/>
      </g>
     </g>
    </g>
    <g id="ytick_4">
     <g id="line2d_9">
      <g>
       <use xlink:href="#md4ac3a3c52" x="44.57" y="324.832979" style="stroke: #000000; stroke-width: 0.8"/>
      </g>
     </g>
     <g id="text_10">
      <!-- 30 -->
      <g transform="translate(24.845 328.632197) scale(0.1 -0.1)">
       <defs>
        <path id="DejaVuSans-33" d="M 2597 2516 
Q 3050 2419 3304 2112 
Q 3559 1806 3559 1356 
Q 3559 666 3084 287 
Q 2609 -91 1734 -91 
Q 1441 -91 1130 -33 
Q 819 25 488 141 
L 488 750 
Q 750 597 1062 519 
Q 1375 441 1716 441 
Q 2309 441 2620 675 
Q 2931 909 2931 1356 
Q 2931 1769 2642 2001 
Q 2353 2234 1838 2234 
L 1294 2234 
L 1294 2753 
L 1863 2753 
Q 2328 2753 2575 2939 
Q 2822 3125 2822 3475 
Q 2822 3834 2567 4026 
Q 2313 4219 1838 4219 
Q 1578 4219 1281 4162 
Q 984 4106 628 3988 
L 628 4550 
Q 988 4650 1302 4700 
Q 1616 4750 1894 4750 
Q 2613 4750 3031 4423 
Q 3450 4097 3450 3541 
Q 3450 3153 3228 2886 
Q 3006 2619 2597 2516 
z
" transform="scale(0.015625)"/>
       </defs>
       <use xlink:href="#DejaVuSans-33"/>
       <use xlink:href="#DejaVuSans-30" x="63.623047"/>
      </g>
     </g>
    </g>
    <g id="ytick_5">
     <g id="line2d_10">
      <g>
       <use xlink:href="#md4ac3a3c52" x="44.57" y="262.781547" style="stroke: #000000; stroke-width: 0.8"/>
      </g>
     </g>
     <g id="text_11">
      <!-- 40 -->
      <g transform="translate(24.845 266.580766) scale(0.1 -0.1)">
       <defs>
        <path id="DejaVuSans-34" d="M 2419 4116 
L 825 1625 
L 2419 1625 
L 2419 4116 
z
M 2253 4666 
L 3047 4666 
L 3047 1625 
L 3713 1625 
L 3713 1100 
L 3047 1100 
L 3047 0 
L 2419 0 
L 2419 1100 
L 313 1100 
L 313 1709 
L 2253 4666 
z
" transform="scale(0.015625)"/>
       </defs>
       <use xlink:href="#DejaVuSans-34"/>
       <use xlink:href="#DejaVuSans-30" x="63.623047"/>
      </g>
     </g>
    </g>
    <g id="ytick_6">
     <g id="line2d_11">
      <g>
       <use xlink:href="#md4ac3a3c52" x="44.57" y="200.730116" style="stroke: #000000; stroke-width: 0.8"/>
      </g>
     </g>
     <g id="text_12">
      <!-- 50 -->
      <g transform="translate(24.845 204.529335) scale(0.1 -0.1)">
       <use xlink:href="#DejaVuSans-35"/>
       <use xlink:href="#DejaVuSans-30" x="63.623047"/>
      </g>
     </g>
    </g>
    <g id="ytick_7">
     <g id="line2d_12">
      <g>
       <use xlink:href="#md4ac3a3c52" x="44.57" y="138.678684" style="stroke: #000000; stroke-width: 0.8"/>
      </g>
     </g>
     <g id="text_13">
      <!-- 60 -->
      <g transform="translate(24.845 142.477903) scale(0.1 -0.1)">
       <defs>
        <path id="DejaVuSans-36" d="M 2113 2584 
Q 1688 2584 1439 2293 
Q 1191 2003 1191 1497 
Q 1191 994 1439 701 
Q 1688 409 2113 409 
Q 2538 409 2786 701 
Q 3034 994 3034 1497 
Q 3034 2003 2786 2293 
Q 2538 2584 2113 2584 
z
M 3366 4563 
L 3366 3988 
Q 3128 4100 2886 4159 
Q 2644 4219 2406 4219 
Q 1781 4219 1451 3797 
Q 1122 3375 1075 2522 
Q 1259 2794 1537 2939 
Q 1816 3084 2150 3084 
Q 2853 3084 3261 2657 
Q 3669 2231 3669 1497 
Q 3669 778 3244 343 
Q 2819 -91 2113 -91 
Q 1303 -91 875 529 
Q 447 1150 447 2328 
Q 447 3434 972 4092 
Q 1497 4750 2381 4750 
Q 2619 4750 2861 4703 
Q 3103 4656 3366 4563 
z
" transform="scale(0.015625)"/>
       </defs>
       <use xlink:href="#DejaVuSans-36"/>
       <use xlink:href="#DejaVuSans-30" x="63.623047"/>
      </g>
     </g>
    </g>
    <g id="ytick_8">
     <g id="line2d_13">
      <g>
       <use xlink:href="#md4ac3a3c52" x="44.57" y="76.627253" style="stroke: #000000; stroke-width: 0.8"/>
      </g>
     </g>
     <g id="text_14">
      <!-- 70 -->
      <g transform="translate(24.845 80.426472) scale(0.1 -0.1)">
       <defs>
        <path id="DejaVuSans-37" d="M 525 4666 
L 3525 4666 
L 3525 4397 
L 1831 0 
L 1172 0 
L 2766 4134 
L 525 4134 
L 525 4666 
z
" transform="scale(0.015625)"/>
       </defs>
       <use xlink:href="#DejaVuSans-37"/>
       <use xlink:href="#DejaVuSans-30" x="63.623047"/>
      </g>
     </g>
    </g>
    <g id="text_15">
     <!-- Renewables Share Energy -->
     <g transform="translate(18.765312 345.539688) rotate(-90) scale(0.1 -0.1)">
      <defs>
       <path id="DejaVuSans-52" d="M 2841 2188 
Q 3044 2119 3236 1894 
Q 3428 1669 3622 1275 
L 4263 0 
L 3584 0 
L 2988 1197 
Q 2756 1666 2539 1819 
Q 2322 1972 1947 1972 
L 1259 1972 
L 1259 0 
L 628 0 
L 628 4666 
L 2053 4666 
Q 2853 4666 3247 4331 
Q 3641 3997 3641 3322 
Q 3641 2881 3436 2590 
Q 3231 2300 2841 2188 
z
M 1259 4147 
L 1259 2491 
L 2053 2491 
Q 2509 2491 2742 2702 
Q 2975 2913 2975 3322 
Q 2975 3731 2742 3939 
Q 2509 4147 2053 4147 
L 1259 4147 
z
" transform="scale(0.015625)"/>
       <path id="DejaVuSans-6e" d="M 3513 2113 
L 3513 0 
L 2938 0 
L 2938 2094 
Q 2938 2591 2744 2837 
Q 2550 3084 2163 3084 
Q 1697 3084 1428 2787 
Q 1159 2491 1159 1978 
L 1159 0 
L 581 0 
L 581 3500 
L 1159 3500 
L 1159 2956 
Q 1366 3272 1645 3428 
Q 1925 3584 2291 3584 
Q 2894 3584 3203 3211 
Q 3513 2838 3513 2113 
z
" transform="scale(0.015625)"/>
       <path id="DejaVuSans-77" d="M 269 3500 
L 844 3500 
L 1563 769 
L 2278 3500 
L 2956 3500 
L 3675 769 
L 4391 3500 
L 4966 3500 
L 4050 0 
L 3372 0 
L 2619 2869 
L 1863 0 
L 1184 0 
L 269 3500 
z
" transform="scale(0.015625)"/>
       <path id="DejaVuSans-62" d="M 3116 1747 
Q 3116 2381 2855 2742 
Q 2594 3103 2138 3103 
Q 1681 3103 1420 2742 
Q 1159 2381 1159 1747 
Q 1159 1113 1420 752 
Q 1681 391 2138 391 
Q 2594 391 2855 752 
Q 3116 1113 3116 1747 
z
M 1159 2969 
Q 1341 3281 1617 3432 
Q 1894 3584 2278 3584 
Q 2916 3584 3314 3078 
Q 3713 2572 3713 1747 
Q 3713 922 3314 415 
Q 2916 -91 2278 -91 
Q 1894 -91 1617 61 
Q 1341 213 1159 525 
L 1159 0 
L 581 0 
L 581 4863 
L 1159 4863 
L 1159 2969 
z
" transform="scale(0.015625)"/>
       <path id="DejaVuSans-6c" d="M 603 4863 
L 1178 4863 
L 1178 0 
L 603 0 
L 603 4863 
z
" transform="scale(0.015625)"/>
       <path id="DejaVuSans-73" d="M 2834 3397 
L 2834 2853 
Q 2591 2978 2328 3040 
Q 2066 3103 1784 3103 
Q 1356 3103 1142 2972 
Q 928 2841 928 2578 
Q 928 2378 1081 2264 
Q 1234 2150 1697 2047 
L 1894 2003 
Q 2506 1872 2764 1633 
Q 3022 1394 3022 966 
Q 3022 478 2636 193 
Q 2250 -91 1575 -91 
Q 1294 -91 989 -36 
Q 684 19 347 128 
L 347 722 
Q 666 556 975 473 
Q 1284 391 1588 391 
Q 1994 391 2212 530 
Q 2431 669 2431 922 
Q 2431 1156 2273 1281 
Q 2116 1406 1581 1522 
L 1381 1569 
Q 847 1681 609 1914 
Q 372 2147 372 2553 
Q 372 3047 722 3315 
Q 1072 3584 1716 3584 
Q 2034 3584 2315 3537 
Q 2597 3491 2834 3397 
z
" transform="scale(0.015625)"/>
       <path id="DejaVuSans-20" transform="scale(0.015625)"/>
       <path id="DejaVuSans-53" d="M 3425 4513 
L 3425 3897 
Q 3066 4069 2747 4153 
Q 2428 4238 2131 4238 
Q 1616 4238 1336 4038 
Q 1056 3838 1056 3469 
Q 1056 3159 1242 3001 
Q 1428 2844 1947 2747 
L 2328 2669 
Q 3034 2534 3370 2195 
Q 3706 1856 3706 1288 
Q 3706 609 3251 259 
Q 2797 -91 1919 -91 
Q 1588 -91 1214 -16 
Q 841 59 441 206 
L 441 856 
Q 825 641 1194 531 
Q 1563 422 1919 422 
Q 2459 422 2753 634 
Q 3047 847 3047 1241 
Q 3047 1584 2836 1778 
Q 2625 1972 2144 2069 
L 1759 2144 
Q 1053 2284 737 2584 
Q 422 2884 422 3419 
Q 422 4038 858 4394 
Q 1294 4750 2059 4750 
Q 2388 4750 2728 4690 
Q 3069 4631 3425 4513 
z
" transform="scale(0.015625)"/>
       <path id="DejaVuSans-68" d="M 3513 2113 
L 3513 0 
L 2938 0 
L 2938 2094 
Q 2938 2591 2744 2837 
Q 2550 3084 2163 3084 
Q 1697 3084 1428 2787 
Q 1159 2491 1159 1978 
L 1159 0 
L 581 0 
L 581 4863 
L 1159 4863 
L 1159 2956 
Q 1366 3272 1645 3428 
Q 1925 3584 2291 3584 
Q 2894 3584 3203 3211 
Q 3513 2838 3513 2113 
z
" transform="scale(0.015625)"/>
       <path id="DejaVuSans-45" d="M 628 4666 
L 3578 4666 
L 3578 4134 
L 1259 4134 
L 1259 2753 
L 3481 2753 
L 3481 2222 
L 1259 2222 
L 1259 531 
L 3634 531 
L 3634 0 
L 628 0 
L 628 4666 
z
" transform="scale(0.015625)"/>
       <path id="DejaVuSans-67" d="M 2906 1791 
Q 2906 2416 2648 2759 
Q 2391 3103 1925 3103 
Q 1463 3103 1205 2759 
Q 947 2416 947 1791 
Q 947 1169 1205 825 
Q 1463 481 1925 481 
Q 2391 481 2648 825 
Q 2906 1169 2906 1791 
z
M 3481 434 
Q 3481 -459 3084 -895 
Q 2688 -1331 1869 -1331 
Q 1566 -1331 1297 -1286 
Q 1028 -1241 775 -1147 
L 775 -588 
Q 1028 -725 1275 -790 
Q 1522 -856 1778 -856 
Q 2344 -856 2625 -561 
Q 2906 -266 2906 331 
L 2906 616 
Q 2728 306 2450 153 
Q 2172 0 1784 0 
Q 1141 0 747 490 
Q 353 981 353 1791 
Q 353 2603 747 3093 
Q 1141 3584 1784 3584 
Q 2172 3584 2450 3431 
Q 2728 3278 2906 2969 
L 2906 3500 
L 3481 3500 
L 3481 434 
z
" transform="scale(0.015625)"/>
       <path id="DejaVuSans-79" d="M 2059 -325 
Q 1816 -950 1584 -1140 
Q 1353 -1331 966 -1331 
L 506 -1331 
L 506 -850 
L 844 -850 
Q 1081 -850 1212 -737 
Q 1344 -625 1503 -206 
L 1606 56 
L 191 3500 
L 800 3500 
L 1894 763 
L 2988 3500 
L 3597 3500 
L 2059 -325 
z
" transform="scale(0.015625)"/>
      </defs>
      <use xlink:href="#DejaVuSans-52"/>
      <use xlink:href="#DejaVuSans-65" x="64.982422"/>
      <use xlink:href="#DejaVuSans-6e" x="126.505859"/>
      <use xlink:href="#DejaVuSans-65" x="189.884766"/>
      <use xlink:href="#DejaVuSans-77" x="251.408203"/>
      <use xlink:href="#DejaVuSans-61" x="333.195312"/>
      <use xlink:href="#DejaVuSans-62" x="394.474609"/>
      <use xlink:href="#DejaVuSans-6c" x="457.951172"/>
      <use xlink:href="#DejaVuSans-65" x="485.734375"/>
      <use xlink:href="#DejaVuSans-73" x="547.257812"/>
      <use xlink:href="#DejaVuSans-20" x="599.357422"/>
      <use xlink:href="#DejaVuSans-53" x="631.144531"/>
      <use xlink:href="#DejaVuSans-68" x="694.621094"/>
      <use xlink:href="#DejaVuSans-61" x="758"/>
      <use xlink:href="#DejaVuSans-72" x="819.279297"/>
      <use xlink:href="#DejaVuSans-65" x="858.142578"/>
      <use xlink:href="#DejaVuSans-20" x="919.666016"/>
      <use xlink:href="#DejaVuSans-45" x="951.453125"/>
      <use xlink:href="#DejaVuSans-6e" x="1014.636719"/>
      <use xlink:href="#DejaVuSans-65" x="1078.015625"/>
      <use xlink:href="#DejaVuSans-72" x="1139.539062"/>
      <use xlink:href="#DejaVuSans-67" x="1178.902344"/>
      <use xlink:href="#DejaVuSans-79" x="1242.378906"/>
     </g>
    </g>
   </g>
   <g id="line2d_14">
    <path d="M 78.705455 510.987273 
L 109.737686 510.987273 
L 140.769917 510.987273 
L 171.802149 510.987273 
L 202.83438 510.987273 
L 233.866612 510.987273 
L 264.898843 510.987273 
L 295.931074 510.987273 
L 326.963306 510.987273 
L 357.995537 510.987273 
L 389.027769 510.987273 
L 420.06 510.987273 
L 451.092231 510.987273 
L 482.124463 510.987273 
L 513.156694 510.987273 
L 544.188926 510.987273 
L 575.221157 510.987273 
L 606.253388 510.987273 
L 637.28562 510.987273 
L 668.317851 510.987273 
L 699.350083 510.987273 
L 730.382314 510.987273 
L 761.414545 510.987273 
" clip-path="url(#p1e58fcc0c6)" style="fill: none; stroke: #1f77b4; stroke-width: 1.5; stroke-linecap: square"/>
    <defs>
     <path id="m7c8895ead4" d="M 0 3 
C 0.795609 3 1.55874 2.683901 2.12132 2.12132 
C 2.683901 1.55874 3 0.795609 3 0 
C 3 -0.795609 2.683901 -1.55874 2.12132 -2.12132 
C 1.55874 -2.683901 0.795609 -3 0 -3 
C -0.795609 -3 -1.55874 -2.683901 -2.12132 -2.12132 
C -2.683901 -1.55874 -3 -0.795609 -3 0 
C -3 0.795609 -2.683901 1.55874 -2.12132 2.12132 
C -1.55874 2.683901 -0.795609 3 0 3 
z
" style="stroke: #ffffff; stroke-width: 0.75"/>
    </defs>
    <g clip-path="url(#p1e58fcc0c6)">
     <use xlink:href="#m7c8895ead4" x="78.705455" y="510.987273" style="fill: #1f77b4; stroke: #ffffff; stroke-width: 0.75"/>
     <use xlink:href="#m7c8895ead4" x="109.737686" y="510.987273" style="fill: #1f77b4; stroke: #ffffff; stroke-width: 0.75"/>
     <use xlink:href="#m7c8895ead4" x="140.769917" y="510.987273" style="fill: #1f77b4; stroke: #ffffff; stroke-width: 0.75"/>
     <use xlink:href="#m7c8895ead4" x="171.802149" y="510.987273" style="fill: #1f77b4; stroke: #ffffff; stroke-width: 0.75"/>
     <use xlink:href="#m7c8895ead4" x="202.83438" y="510.987273" style="fill: #1f77b4; stroke: #ffffff; stroke-width: 0.75"/>
     <use xlink:href="#m7c8895ead4" x="233.866612" y="510.987273" style="fill: #1f77b4; stroke: #ffffff; stroke-width: 0.75"/>
     <use xlink:href="#m7c8895ead4" x="264.898843" y="510.987273" style="fill: #1f77b4; stroke: #ffffff; stroke-width: 0.75"/>
     <use xlink:href="#m7c8895ead4" x="295.931074" y="510.987273" style="fill: #1f77b4; stroke: #ffffff; stroke-width: 0.75"/>
     <use xlink:href="#m7c8895ead4" x="326.963306" y="510.987273" style="fill: #1f77b4; stroke: #ffffff; stroke-width: 0.75"/>
     <use xlink:href="#m7c8895ead4" x="357.995537" y="510.987273" style="fill: #1f77b4; stroke: #ffffff; stroke-width: 0.75"/>
     <use xlink:href="#m7c8895ead4" x="389.027769" y="510.987273" style="fill: #1f77b4; stroke: #ffffff; stroke-width: 0.75"/>
     <use xlink:href="#m7c8895ead4" x="420.06" y="510.987273" style="fill: #1f77b4; stroke: #ffffff; stroke-width: 0.75"/>
     <use xlink:href="#m7c8895ead4" x="451.092231" y="510.987273" style="fill: #1f77b4; stroke: #ffffff; stroke-width: 0.75"/>
     <use xlink:href="#m7c8895ead4" x="482.124463" y="510.987273" style="fill: #1f77b4; stroke: #ffffff; stroke-width: 0.75"/>
     <use xlink:href="#m7c8895ead4" x="513.156694" y="510.987273" style="fill: #1f77b4; stroke: #ffffff; stroke-width: 0.75"/>
     <use xlink:href="#m7c8895ead4" x="544.188926" y="510.987273" style="fill: #1f77b4; stroke: #ffffff; stroke-width: 0.75"/>
     <use xlink:href="#m7c8895ead4" x="575.221157" y="510.987273" style="fill: #1f77b4; stroke: #ffffff; stroke-width: 0.75"/>
     <use xlink:href="#m7c8895ead4" x="606.253388" y="510.987273" style="fill: #1f77b4; stroke: #ffffff; stroke-width: 0.75"/>
     <use xlink:href="#m7c8895ead4" x="637.28562" y="510.987273" style="fill: #1f77b4; stroke: #ffffff; stroke-width: 0.75"/>
     <use xlink:href="#m7c8895ead4" x="668.317851" y="510.987273" style="fill: #1f77b4; stroke: #ffffff; stroke-width: 0.75"/>
     <use xlink:href="#m7c8895ead4" x="699.350083" y="510.987273" style="fill: #1f77b4; stroke: #ffffff; stroke-width: 0.75"/>
     <use xlink:href="#m7c8895ead4" x="730.382314" y="510.987273" style="fill: #1f77b4; stroke: #ffffff; stroke-width: 0.75"/>
     <use xlink:href="#m7c8895ead4" x="761.414545" y="510.987273" style="fill: #1f77b4; stroke: #ffffff; stroke-width: 0.75"/>
    </g>
   </g>
   <g id="line2d_15">
    <path d="M 78.705455 388.336413 
L 109.737686 382.050603 
L 140.769917 406.697432 
L 171.802149 418.611307 
L 202.83438 387.517335 
L 233.866612 396.18592 
L 264.898843 402.248344 
L 295.931074 434.086934 
L 326.963306 416.284378 
L 357.995537 388.640465 
L 389.027769 362.988404 
L 420.06 414.745503 
L 451.092231 406.151379 
L 482.124463 344.962463 
L 513.156694 334.289617 
L 544.188926 370.304267 
L 575.221157 362.802249 
L 606.253388 385.14697 
L 637.28562 343.10092 
L 668.317851 360.686296 
L 699.350083 349.622525 
L 730.382314 326.464931 
L 761.414545 343.926204 
" clip-path="url(#p1e58fcc0c6)" style="fill: none; stroke: #ff7f0e; stroke-width: 1.5; stroke-linecap: square"/>
    <defs>
     <path id="mee78004e24" d="M 0 3 
C 0.795609 3 1.55874 2.683901 2.12132 2.12132 
C 2.683901 1.55874 3 0.795609 3 0 
C 3 -0.795609 2.683901 -1.55874 2.12132 -2.12132 
C 1.55874 -2.683901 0.795609 -3 0 -3 
C -0.795609 -3 -1.55874 -2.683901 -2.12132 -2.12132 
C -2.683901 -1.55874 -3 -0.795609 -3 0 
C -3 0.795609 -2.683901 1.55874 -2.12132 2.12132 
C -1.55874 2.683901 -0.795609 3 0 3 
z
" style="stroke: #ffffff; stroke-width: 0.75"/>
    </defs>
    <g clip-path="url(#p1e58fcc0c6)">
     <use xlink:href="#mee78004e24" x="78.705455" y="388.336413" style="fill: #ff7f0e; stroke: #ffffff; stroke-width: 0.75"/>
     <use xlink:href="#mee78004e24" x="109.737686" y="382.050603" style="fill: #ff7f0e; stroke: #ffffff; stroke-width: 0.75"/>
     <use xlink:href="#mee78004e24" x="140.769917" y="406.697432" style="fill: #ff7f0e; stroke: #ffffff; stroke-width: 0.75"/>
     <use xlink:href="#mee78004e24" x="171.802149" y="418.611307" style="fill: #ff7f0e; stroke: #ffffff; stroke-width: 0.75"/>
     <use xlink:href="#mee78004e24" x="202.83438" y="387.517335" style="fill: #ff7f0e; stroke: #ffffff; stroke-width: 0.75"/>
     <use xlink:href="#mee78004e24" x="233.866612" y="396.18592" style="fill: #ff7f0e; stroke: #ffffff; stroke-width: 0.75"/>
     <use xlink:href="#mee78004e24" x="264.898843" y="402.248344" style="fill: #ff7f0e; stroke: #ffffff; stroke-width: 0.75"/>
     <use xlink:href="#mee78004e24" x="295.931074" y="434.086934" style="fill: #ff7f0e; stroke: #ffffff; stroke-width: 0.75"/>
     <use xlink:href="#mee78004e24" x="326.963306" y="416.284378" style="fill: #ff7f0e; stroke: #ffffff; stroke-width: 0.75"/>
     <use xlink:href="#mee78004e24" x="357.995537" y="388.640465" style="fill: #ff7f0e; stroke: #ffffff; stroke-width: 0.75"/>
     <use xlink:href="#mee78004e24" x="389.027769" y="362.988404" style="fill: #ff7f0e; stroke: #ffffff; stroke-width: 0.75"/>
     <use xlink:href="#mee78004e24" x="420.06" y="414.745503" style="fill: #ff7f0e; stroke: #ffffff; stroke-width: 0.75"/>
     <use xlink:href="#mee78004e24" x="451.092231" y="406.151379" style="fill: #ff7f0e; stroke: #ffffff; stroke-width: 0.75"/>
     <use xlink:href="#mee78004e24" x="482.124463" y="344.962463" style="fill: #ff7f0e; stroke: #ffffff; stroke-width: 0.75"/>
     <use xlink:href="#mee78004e24" x="513.156694" y="334.289617" style="fill: #ff7f0e; stroke: #ffffff; stroke-width: 0.75"/>
     <use xlink:href="#mee78004e24" x="544.188926" y="370.304267" style="fill: #ff7f0e; stroke: #ffffff; stroke-width: 0.75"/>
     <use xlink:href="#mee78004e24" x="575.221157" y="362.802249" style="fill: #ff7f0e; stroke: #ffffff; stroke-width: 0.75"/>
     <use xlink:href="#mee78004e24" x="606.253388" y="385.14697" style="fill: #ff7f0e; stroke: #ffffff; stroke-width: 0.75"/>
     <use xlink:href="#mee78004e24" x="637.28562" y="343.10092" style="fill: #ff7f0e; stroke: #ffffff; stroke-width: 0.75"/>
     <use xlink:href="#mee78004e24" x="668.317851" y="360.686296" style="fill: #ff7f0e; stroke: #ffffff; stroke-width: 0.75"/>
     <use xlink:href="#mee78004e24" x="699.350083" y="349.622525" style="fill: #ff7f0e; stroke: #ffffff; stroke-width: 0.75"/>
     <use xlink:href="#mee78004e24" x="730.382314" y="326.464931" style="fill: #ff7f0e; stroke: #ffffff; stroke-width: 0.75"/>
     <use xlink:href="#mee78004e24" x="761.414545" y="343.926204" style="fill: #ff7f0e; stroke: #ffffff; stroke-width: 0.75"/>
    </g>
   </g>
   <g id="line2d_16">
    <path d="M 78.705455 466.955577 
L 109.737686 465.050598 
L 140.769917 457.703709 
L 171.802149 452.268003 
L 202.83438 438.207149 
L 233.866612 431.53662 
L 264.898843 443.655265 
L 295.931074 432.082673 
L 326.963306 429.824 
L 357.995537 425.561067 
L 389.027769 410.978981 
L 420.06 387.790361 
L 451.092231 370.304267 
L 482.124463 367.567799 
L 513.156694 345.278925 
L 544.188926 333.532589 
L 575.221157 340.625068 
L 606.253388 311.417459 
L 637.28562 319.012554 
L 668.317851 295.004856 
L 699.350083 264.86027 
L 730.382314 259.343898 
L 761.414545 243.899297 
" clip-path="url(#p1e58fcc0c6)" style="fill: none; stroke: #2ca02c; stroke-width: 1.5; stroke-linecap: square"/>
    <defs>
     <path id="m1f79323569" d="M 0 3 
C 0.795609 3 1.55874 2.683901 2.12132 2.12132 
C 2.683901 1.55874 3 0.795609 3 0 
C 3 -0.795609 2.683901 -1.55874 2.12132 -2.12132 
C 1.55874 -2.683901 0.795609 -3 0 -3 
C -0.795609 -3 -1.55874 -2.683901 -2.12132 -2.12132 
C -2.683901 -1.55874 -3 -0.795609 -3 0 
C -3 0.795609 -2.683901 1.55874 -2.12132 2.12132 
C -1.55874 2.683901 -0.795609 3 0 3 
z
" style="stroke: #ffffff; stroke-width: 0.75"/>
    </defs>
    <g clip-path="url(#p1e58fcc0c6)">
     <use xlink:href="#m1f79323569" x="78.705455" y="466.955577" style="fill: #2ca02c; stroke: #ffffff; stroke-width: 0.75"/>
     <use xlink:href="#m1f79323569" x="109.737686" y="465.050598" style="fill: #2ca02c; stroke: #ffffff; stroke-width: 0.75"/>
     <use xlink:href="#m1f79323569" x="140.769917" y="457.703709" style="fill: #2ca02c; stroke: #ffffff; stroke-width: 0.75"/>
     <use xlink:href="#m1f79323569" x="171.802149" y="452.268003" style="fill: #2ca02c; stroke: #ffffff; stroke-width: 0.75"/>
     <use xlink:href="#m1f79323569" x="202.83438" y="438.207149" style="fill: #2ca02c; stroke: #ffffff; stroke-width: 0.75"/>
     <use xlink:href="#m1f79323569" x="233.866612" y="431.53662" style="fill: #2ca02c; stroke: #ffffff; stroke-width: 0.75"/>
     <use xlink:href="#m1f79323569" x="264.898843" y="443.655265" style="fill: #2ca02c; stroke: #ffffff; stroke-width: 0.75"/>
     <use xlink:href="#m1f79323569" x="295.931074" y="432.082673" style="fill: #2ca02c; stroke: #ffffff; stroke-width: 0.75"/>
     <use xlink:href="#m1f79323569" x="326.963306" y="429.824" style="fill: #2ca02c; stroke: #ffffff; stroke-width: 0.75"/>
     <use xlink:href="#m1f79323569" x="357.995537" y="425.561067" style="fill: #2ca02c; stroke: #ffffff; stroke-width: 0.75"/>
     <use xlink:href="#m1f79323569" x="389.027769" y="410.978981" style="fill: #2ca02c; stroke: #ffffff; stroke-width: 0.75"/>
     <use xlink:href="#m1f79323569" x="420.06" y="387.790361" style="fill: #2ca02c; stroke: #ffffff; stroke-width: 0.75"/>
     <use xlink:href="#m1f79323569" x="451.092231" y="370.304267" style="fill: #2ca02c; stroke: #ffffff; stroke-width: 0.75"/>
     <use xlink:href="#m1f79323569" x="482.124463" y="367.567799" style="fill: #2ca02c; stroke: #ffffff; stroke-width: 0.75"/>
     <use xlink:href="#m1f79323569" x="513.156694" y="345.278925" style="fill: #2ca02c; stroke: #ffffff; stroke-width: 0.75"/>
     <use xlink:href="#m1f79323569" x="544.188926" y="333.532589" style="fill: #2ca02c; stroke: #ffffff; stroke-width: 0.75"/>
     <use xlink:href="#m1f79323569" x="575.221157" y="340.625068" style="fill: #2ca02c; stroke: #ffffff; stroke-width: 0.75"/>
     <use xlink:href="#m1f79323569" x="606.253388" y="311.417459" style="fill: #2ca02c; stroke: #ffffff; stroke-width: 0.75"/>
     <use xlink:href="#m1f79323569" x="637.28562" y="319.012554" style="fill: #2ca02c; stroke: #ffffff; stroke-width: 0.75"/>
     <use xlink:href="#m1f79323569" x="668.317851" y="295.004856" style="fill: #2ca02c; stroke: #ffffff; stroke-width: 0.75"/>
     <use xlink:href="#m1f79323569" x="699.350083" y="264.86027" style="fill: #2ca02c; stroke: #ffffff; stroke-width: 0.75"/>
     <use xlink:href="#m1f79323569" x="730.382314" y="259.343898" style="fill: #2ca02c; stroke: #ffffff; stroke-width: 0.75"/>
     <use xlink:href="#m1f79323569" x="761.414545" y="243.899297" style="fill: #2ca02c; stroke: #ffffff; stroke-width: 0.75"/>
    </g>
   </g>
   <g id="line2d_17">
    <path d="M 78.705455 388.026156 
L 109.737686 400.361981 
L 140.769917 409.440105 
L 171.802149 419.734438 
L 202.83438 389.242364 
L 233.866612 388.932107 
L 264.898843 401.472701 
L 295.931074 393.39981 
L 326.963306 371.390168 
L 357.995537 391.823704 
L 389.027769 388.702517 
L 420.06 380.263522 
L 451.092231 355.207154 
L 482.124463 369.720984 
L 513.156694 356.913569 
L 544.188926 335.617517 
L 575.221157 345.347182 
L 606.253388 332.539766 
L 637.28562 332.67628 
L 668.317851 329.015245 
L 699.350083 304.535955 
L 730.382314 289.562945 
L 761.414545 272.107877 
" clip-path="url(#p1e58fcc0c6)" style="fill: none; stroke: #d62728; stroke-width: 1.5; stroke-linecap: square"/>
    <defs>
     <path id="m4a253dcb7c" d="M 0 3 
C 0.795609 3 1.55874 2.683901 2.12132 2.12132 
C 2.683901 1.55874 3 0.795609 3 0 
C 3 -0.795609 2.683901 -1.55874 2.12132 -2.12132 
C 1.55874 -2.683901 0.795609 -3 0 -3 
C -0.795609 -3 -1.55874 -2.683901 -2.12132 -2.12132 
C -2.683901 -1.55874 -3 -0.795609 -3 0 
C -3 0.795609 -2.683901 1.55874 -2.12132 2.12132 
C -1.55874 2.683901 -0.795609 3 0 3 
z
" style="stroke: #ffffff; stroke-width: 0.75"/>
    </defs>
    <g clip-path="url(#p1e58fcc0c6)">
     <use xlink:href="#m4a253dcb7c" x="78.705455" y="388.026156" style="fill: #d62728; stroke: #ffffff; stroke-width: 0.75"/>
     <use xlink:href="#m4a253dcb7c" x="109.737686" y="400.361981" style="fill: #d62728; stroke: #ffffff; stroke-width: 0.75"/>
     <use xlink:href="#m4a253dcb7c" x="140.769917" y="409.440105" style="fill: #d62728; stroke: #ffffff; stroke-width: 0.75"/>
     <use xlink:href="#m4a253dcb7c" x="171.802149" y="419.734438" style="fill: #d62728; stroke: #ffffff; stroke-width: 0.75"/>
     <use xlink:href="#m4a253dcb7c" x="202.83438" y="389.242364" style="fill: #d62728; stroke: #ffffff; stroke-width: 0.75"/>
     <use xlink:href="#m4a253dcb7c" x="233.866612" y="388.932107" style="fill: #d62728; stroke: #ffffff; stroke-width: 0.75"/>
     <use xlink:href="#m4a253dcb7c" x="264.898843" y="401.472701" style="fill: #d62728; stroke: #ffffff; stroke-width: 0.75"/>
     <use xlink:href="#m4a253dcb7c" x="295.931074" y="393.39981" style="fill: #d62728; stroke: #ffffff; stroke-width: 0.75"/>
     <use xlink:href="#m4a253dcb7c" x="326.963306" y="371.390168" style="fill: #d62728; stroke: #ffffff; stroke-width: 0.75"/>
     <use xlink:href="#m4a253dcb7c" x="357.995537" y="391.823704" style="fill: #d62728; stroke: #ffffff; stroke-width: 0.75"/>
     <use xlink:href="#m4a253dcb7c" x="389.027769" y="388.702517" style="fill: #d62728; stroke: #ffffff; stroke-width: 0.75"/>
     <use xlink:href="#m4a253dcb7c" x="420.06" y="380.263522" style="fill: #d62728; stroke: #ffffff; stroke-width: 0.75"/>
     <use xlink:href="#m4a253dcb7c" x="451.092231" y="355.207154" style="fill: #d62728; stroke: #ffffff; stroke-width: 0.75"/>
     <use xlink:href="#m4a253dcb7c" x="482.124463" y="369.720984" style="fill: #d62728; stroke: #ffffff; stroke-width: 0.75"/>
     <use xlink:href="#m4a253dcb7c" x="513.156694" y="356.913569" style="fill: #d62728; stroke: #ffffff; stroke-width: 0.75"/>
     <use xlink:href="#m4a253dcb7c" x="544.188926" y="335.617517" style="fill: #d62728; stroke: #ffffff; stroke-width: 0.75"/>
     <use xlink:href="#m4a253dcb7c" x="575.221157" y="345.347182" style="fill: #d62728; stroke: #ffffff; stroke-width: 0.75"/>
     <use xlink:href="#m4a253dcb7c" x="606.253388" y="332.539766" style="fill: #d62728; stroke: #ffffff; stroke-width: 0.75"/>
     <use xlink:href="#m4a253dcb7c" x="637.28562" y="332.67628" style="fill: #d62728; stroke: #ffffff; stroke-width: 0.75"/>
     <use xlink:href="#m4a253dcb7c" x="668.317851" y="329.015245" style="fill: #d62728; stroke: #ffffff; stroke-width: 0.75"/>
     <use xlink:href="#m4a253dcb7c" x="699.350083" y="304.535955" style="fill: #d62728; stroke: #ffffff; stroke-width: 0.75"/>
     <use xlink:href="#m4a253dcb7c" x="730.382314" y="289.562945" style="fill: #d62728; stroke: #ffffff; stroke-width: 0.75"/>
     <use xlink:href="#m4a253dcb7c" x="761.414545" y="272.107877" style="fill: #d62728; stroke: #ffffff; stroke-width: 0.75"/>
    </g>
   </g>
   <g id="line2d_18">
    <path d="M 78.705455 510.987273 
L 109.737686 510.987273 
L 140.769917 510.987273 
L 171.802149 510.987273 
L 202.83438 510.987273 
L 233.866612 510.987273 
L 264.898843 510.987273 
L 295.931074 49.932727 
L 326.963306 510.987273 
L 357.995537 510.987273 
L 389.027769 510.987273 
L 420.06 510.987273 
L 451.092231 510.987273 
L 482.124463 510.987273 
L 513.156694 510.987273 
L 544.188926 510.987273 
L 575.221157 510.987273 
L 606.253388 510.987273 
L 637.28562 510.987273 
L 668.317851 510.987273 
L 699.350083 510.987273 
L 730.382314 510.987273 
L 761.414545 510.987273 
" clip-path="url(#p1e58fcc0c6)" style="fill: none; stroke: #9467bd; stroke-width: 1.5; stroke-linecap: square"/>
    <defs>
     <path id="m420d659f8e" d="M 0 3 
C 0.795609 3 1.55874 2.683901 2.12132 2.12132 
C 2.683901 1.55874 3 0.795609 3 0 
C 3 -0.795609 2.683901 -1.55874 2.12132 -2.12132 
C 1.55874 -2.683901 0.795609 -3 0 -3 
C -0.795609 -3 -1.55874 -2.683901 -2.12132 -2.12132 
C -2.683901 -1.55874 -3 -0.795609 -3 0 
C -3 0.795609 -2.683901 1.55874 -2.12132 2.12132 
C -1.55874 2.683901 -0.795609 3 0 3 
z
" style="stroke: #ffffff; stroke-width: 0.75"/>
    </defs>
    <g clip-path="url(#p1e58fcc0c6)">
     <use xlink:href="#m420d659f8e" x="78.705455" y="510.987273" style="fill: #9467bd; stroke: #ffffff; stroke-width: 0.75"/>
     <use xlink:href="#m420d659f8e" x="109.737686" y="510.987273" style="fill: #9467bd; stroke: #ffffff; stroke-width: 0.75"/>
     <use xlink:href="#m420d659f8e" x="140.769917" y="510.987273" style="fill: #9467bd; stroke: #ffffff; stroke-width: 0.75"/>
     <use xlink:href="#m420d659f8e" x="171.802149" y="510.987273" style="fill: #9467bd; stroke: #ffffff; stroke-width: 0.75"/>
     <use xlink:href="#m420d659f8e" x="202.83438" y="510.987273" style="fill: #9467bd; stroke: #ffffff; stroke-width: 0.75"/>
     <use xlink:href="#m420d659f8e" x="233.866612" y="510.987273" style="fill: #9467bd; stroke: #ffffff; stroke-width: 0.75"/>
     <use xlink:href="#m420d659f8e" x="264.898843" y="510.987273" style="fill: #9467bd; stroke: #ffffff; stroke-width: 0.75"/>
     <use xlink:href="#m420d659f8e" x="295.931074" y="49.932727" style="fill: #9467bd; stroke: #ffffff; stroke-width: 0.75"/>
     <use xlink:href="#m420d659f8e" x="326.963306" y="510.987273" style="fill: #9467bd; stroke: #ffffff; stroke-width: 0.75"/>
     <use xlink:href="#m420d659f8e" x="357.995537" y="510.987273" style="fill: #9467bd; stroke: #ffffff; stroke-width: 0.75"/>
     <use xlink:href="#m420d659f8e" x="389.027769" y="510.987273" style="fill: #9467bd; stroke: #ffffff; stroke-width: 0.75"/>
     <use xlink:href="#m420d659f8e" x="420.06" y="510.987273" style="fill: #9467bd; stroke: #ffffff; stroke-width: 0.75"/>
     <use xlink:href="#m420d659f8e" x="451.092231" y="510.987273" style="fill: #9467bd; stroke: #ffffff; stroke-width: 0.75"/>
     <use xlink:href="#m420d659f8e" x="482.124463" y="510.987273" style="fill: #9467bd; stroke: #ffffff; stroke-width: 0.75"/>
     <use xlink:href="#m420d659f8e" x="513.156694" y="510.987273" style="fill: #9467bd; stroke: #ffffff; stroke-width: 0.75"/>
     <use xlink:href="#m420d659f8e" x="544.188926" y="510.987273" style="fill: #9467bd; stroke: #ffffff; stroke-width: 0.75"/>
     <use xlink:href="#m420d659f8e" x="575.221157" y="510.987273" style="fill: #9467bd; stroke: #ffffff; stroke-width: 0.75"/>
     <use xlink:href="#m420d659f8e" x="606.253388" y="510.987273" style="fill: #9467bd; stroke: #ffffff; stroke-width: 0.75"/>
     <use xlink:href="#m420d659f8e" x="637.28562" y="510.987273" style="fill: #9467bd; stroke: #ffffff; stroke-width: 0.75"/>
     <use xlink:href="#m420d659f8e" x="668.317851" y="510.987273" style="fill: #9467bd; stroke: #ffffff; stroke-width: 0.75"/>
     <use xlink:href="#m420d659f8e" x="699.350083" y="510.987273" style="fill: #9467bd; stroke: #ffffff; stroke-width: 0.75"/>
     <use xlink:href="#m420d659f8e" x="730.382314" y="510.987273" style="fill: #9467bd; stroke: #ffffff; stroke-width: 0.75"/>
     <use xlink:href="#m420d659f8e" x="761.414545" y="510.987273" style="fill: #9467bd; stroke: #ffffff; stroke-width: 0.75"/>
    </g>
   </g>
   <g id="line2d_19">
    <path d="M 78.705455 510.987273 
L 109.737686 510.987273 
L 140.769917 510.987273 
L 171.802149 510.987273 
L 202.83438 510.987273 
L 233.866612 510.987273 
L 264.898843 510.987273 
L 295.931074 510.987273 
L 326.963306 510.987273 
L 357.995537 510.987273 
L 389.027769 510.987273 
L 420.06 510.987273 
L 451.092231 510.987273 
L 482.124463 510.987273 
L 513.156694 510.987273 
L 544.188926 510.987273 
L 575.221157 510.987273 
L 606.253388 510.987273 
L 637.28562 510.987273 
L 668.317851 510.987273 
L 699.350083 510.987273 
L 730.382314 510.987273 
L 761.414545 510.987273 
" clip-path="url(#p1e58fcc0c6)" style="fill: none; stroke: #8c564b; stroke-width: 1.5; stroke-linecap: square"/>
    <defs>
     <path id="m90a4b1ab7c" d="M 0 3 
C 0.795609 3 1.55874 2.683901 2.12132 2.12132 
C 2.683901 1.55874 3 0.795609 3 0 
C 3 -0.795609 2.683901 -1.55874 2.12132 -2.12132 
C 1.55874 -2.683901 0.795609 -3 0 -3 
C -0.795609 -3 -1.55874 -2.683901 -2.12132 -2.12132 
C -2.683901 -1.55874 -3 -0.795609 -3 0 
C -3 0.795609 -2.683901 1.55874 -2.12132 2.12132 
C -1.55874 2.683901 -0.795609 3 0 3 
z
" style="stroke: #ffffff; stroke-width: 0.75"/>
    </defs>
    <g clip-path="url(#p1e58fcc0c6)">
     <use xlink:href="#m90a4b1ab7c" x="78.705455" y="510.987273" style="fill: #8c564b; stroke: #ffffff; stroke-width: 0.75"/>
     <use xlink:href="#m90a4b1ab7c" x="109.737686" y="510.987273" style="fill: #8c564b; stroke: #ffffff; stroke-width: 0.75"/>
     <use xlink:href="#m90a4b1ab7c" x="140.769917" y="510.987273" style="fill: #8c564b; stroke: #ffffff; stroke-width: 0.75"/>
     <use xlink:href="#m90a4b1ab7c" x="171.802149" y="510.987273" style="fill: #8c564b; stroke: #ffffff; stroke-width: 0.75"/>
     <use xlink:href="#m90a4b1ab7c" x="202.83438" y="510.987273" style="fill: #8c564b; stroke: #ffffff; stroke-width: 0.75"/>
     <use xlink:href="#m90a4b1ab7c" x="233.866612" y="510.987273" style="fill: #8c564b; stroke: #ffffff; stroke-width: 0.75"/>
     <use xlink:href="#m90a4b1ab7c" x="264.898843" y="510.987273" style="fill: #8c564b; stroke: #ffffff; stroke-width: 0.75"/>
     <use xlink:href="#m90a4b1ab7c" x="295.931074" y="510.987273" style="fill: #8c564b; stroke: #ffffff; stroke-width: 0.75"/>
     <use xlink:href="#m90a4b1ab7c" x="326.963306" y="510.987273" style="fill: #8c564b; stroke: #ffffff; stroke-width: 0.75"/>
     <use xlink:href="#m90a4b1ab7c" x="357.995537" y="510.987273" style="fill: #8c564b; stroke: #ffffff; stroke-width: 0.75"/>
     <use xlink:href="#m90a4b1ab7c" x="389.027769" y="510.987273" style="fill: #8c564b; stroke: #ffffff; stroke-width: 0.75"/>
     <use xlink:href="#m90a4b1ab7c" x="420.06" y="510.987273" style="fill: #8c564b; stroke: #ffffff; stroke-width: 0.75"/>
     <use xlink:href="#m90a4b1ab7c" x="451.092231" y="510.987273" style="fill: #8c564b; stroke: #ffffff; stroke-width: 0.75"/>
     <use xlink:href="#m90a4b1ab7c" x="482.124463" y="510.987273" style="fill: #8c564b; stroke: #ffffff; stroke-width: 0.75"/>
     <use xlink:href="#m90a4b1ab7c" x="513.156694" y="510.987273" style="fill: #8c564b; stroke: #ffffff; stroke-width: 0.75"/>
     <use xlink:href="#m90a4b1ab7c" x="544.188926" y="510.987273" style="fill: #8c564b; stroke: #ffffff; stroke-width: 0.75"/>
     <use xlink:href="#m90a4b1ab7c" x="575.221157" y="510.987273" style="fill: #8c564b; stroke: #ffffff; stroke-width: 0.75"/>
     <use xlink:href="#m90a4b1ab7c" x="606.253388" y="510.987273" style="fill: #8c564b; stroke: #ffffff; stroke-width: 0.75"/>
     <use xlink:href="#m90a4b1ab7c" x="637.28562" y="510.987273" style="fill: #8c564b; stroke: #ffffff; stroke-width: 0.75"/>
     <use xlink:href="#m90a4b1ab7c" x="668.317851" y="510.987273" style="fill: #8c564b; stroke: #ffffff; stroke-width: 0.75"/>
     <use xlink:href="#m90a4b1ab7c" x="699.350083" y="510.987273" style="fill: #8c564b; stroke: #ffffff; stroke-width: 0.75"/>
     <use xlink:href="#m90a4b1ab7c" x="730.382314" y="510.987273" style="fill: #8c564b; stroke: #ffffff; stroke-width: 0.75"/>
     <use xlink:href="#m90a4b1ab7c" x="761.414545" y="510.987273" style="fill: #8c564b; stroke: #ffffff; stroke-width: 0.75"/>
    </g>
   </g>
   <g id="line2d_20">
    <path d="M 78.705455 441.396592 
L 109.737686 471.671486 
L 140.769917 462.643003 
L 171.802149 433.658779 
L 202.83438 427.068917 
L 233.866612 429.817795 
L 264.898843 423.240344 
L 295.931074 457.244528 
L 326.963306 464.833418 
L 357.995537 440.577514 
L 389.027769 388.280567 
L 420.06 438.858689 
L 451.092231 454.781086 
L 482.124463 421.633212 
L 513.156694 433.26165 
L 544.188926 395.714329 
L 575.221157 398.37013 
L 606.253388 437.661096 
L 637.28562 400.591571 
L 668.317851 439.578485 
L 699.350083 421.440852 
L 730.382314 416.489148 
L 761.414545 425.734811 
" clip-path="url(#p1e58fcc0c6)" style="fill: none; stroke: #e377c2; stroke-width: 1.5; stroke-linecap: square"/>
    <defs>
     <path id="m48121c57e1" d="M 0 3 
C 0.795609 3 1.55874 2.683901 2.12132 2.12132 
C 2.683901 1.55874 3 0.795609 3 0 
C 3 -0.795609 2.683901 -1.55874 2.12132 -2.12132 
C 1.55874 -2.683901 0.795609 -3 0 -3 
C -0.795609 -3 -1.55874 -2.683901 -2.12132 -2.12132 
C -2.683901 -1.55874 -3 -0.795609 -3 0 
C -3 0.795609 -2.683901 1.55874 -2.12132 2.12132 
C -1.55874 2.683901 -0.795609 3 0 3 
z
" style="stroke: #ffffff; stroke-width: 0.75"/>
    </defs>
    <g clip-path="url(#p1e58fcc0c6)">
     <use xlink:href="#m48121c57e1" x="78.705455" y="441.396592" style="fill: #e377c2; stroke: #ffffff; stroke-width: 0.75"/>
     <use xlink:href="#m48121c57e1" x="109.737686" y="471.671486" style="fill: #e377c2; stroke: #ffffff; stroke-width: 0.75"/>
     <use xlink:href="#m48121c57e1" x="140.769917" y="462.643003" style="fill: #e377c2; stroke: #ffffff; stroke-width: 0.75"/>
     <use xlink:href="#m48121c57e1" x="171.802149" y="433.658779" style="fill: #e377c2; stroke: #ffffff; stroke-width: 0.75"/>
     <use xlink:href="#m48121c57e1" x="202.83438" y="427.068917" style="fill: #e377c2; stroke: #ffffff; stroke-width: 0.75"/>
     <use xlink:href="#m48121c57e1" x="233.866612" y="429.817795" style="fill: #e377c2; stroke: #ffffff; stroke-width: 0.75"/>
     <use xlink:href="#m48121c57e1" x="264.898843" y="423.240344" style="fill: #e377c2; stroke: #ffffff; stroke-width: 0.75"/>
     <use xlink:href="#m48121c57e1" x="295.931074" y="457.244528" style="fill: #e377c2; stroke: #ffffff; stroke-width: 0.75"/>
     <use xlink:href="#m48121c57e1" x="326.963306" y="464.833418" style="fill: #e377c2; stroke: #ffffff; stroke-width: 0.75"/>
     <use xlink:href="#m48121c57e1" x="357.995537" y="440.577514" style="fill: #e377c2; stroke: #ffffff; stroke-width: 0.75"/>
     <use xlink:href="#m48121c57e1" x="389.027769" y="388.280567" style="fill: #e377c2; stroke: #ffffff; stroke-width: 0.75"/>
     <use xlink:href="#m48121c57e1" x="420.06" y="438.858689" style="fill: #e377c2; stroke: #ffffff; stroke-width: 0.75"/>
     <use xlink:href="#m48121c57e1" x="451.092231" y="454.781086" style="fill: #e377c2; stroke: #ffffff; stroke-width: 0.75"/>
     <use xlink:href="#m48121c57e1" x="482.124463" y="421.633212" style="fill: #e377c2; stroke: #ffffff; stroke-width: 0.75"/>
     <use xlink:href="#m48121c57e1" x="513.156694" y="433.26165" style="fill: #e377c2; stroke: #ffffff; stroke-width: 0.75"/>
     <use xlink:href="#m48121c57e1" x="544.188926" y="395.714329" style="fill: #e377c2; stroke: #ffffff; stroke-width: 0.75"/>
     <use xlink:href="#m48121c57e1" x="575.221157" y="398.37013" style="fill: #e377c2; stroke: #ffffff; stroke-width: 0.75"/>
     <use xlink:href="#m48121c57e1" x="606.253388" y="437.661096" style="fill: #e377c2; stroke: #ffffff; stroke-width: 0.75"/>
     <use xlink:href="#m48121c57e1" x="637.28562" y="400.591571" style="fill: #e377c2; stroke: #ffffff; stroke-width: 0.75"/>
     <use xlink:href="#m48121c57e1" x="668.317851" y="439.578485" style="fill: #e377c2; stroke: #ffffff; stroke-width: 0.75"/>
     <use xlink:href="#m48121c57e1" x="699.350083" y="421.440852" style="fill: #e377c2; stroke: #ffffff; stroke-width: 0.75"/>
     <use xlink:href="#m48121c57e1" x="730.382314" y="416.489148" style="fill: #e377c2; stroke: #ffffff; stroke-width: 0.75"/>
     <use xlink:href="#m48121c57e1" x="761.414545" y="425.734811" style="fill: #e377c2; stroke: #ffffff; stroke-width: 0.75"/>
    </g>
   </g>
   <g id="line2d_21">
    <path d="M 78.705455 61.74732 
L 109.737686 91.631289 
L 140.769917 80.871571 
L 171.802149 114.999858 
L 202.83438 112.387493 
L 233.866612 78.271616 
L 264.898843 96.862225 
L 295.931074 80.977058 
L 326.963306 76.27356 
L 357.995537 89.04995 
L 389.027769 103.073573 
L 420.06 97.898484 
L 451.092231 74.33135 
L 482.124463 90.384055 
L 513.156694 81.926445 
L 544.188926 81.914035 
L 575.221157 73.363348 
L 606.253388 74.691248 
L 637.28562 79.103105 
L 668.317851 88.354974 
L 699.350083 65.00502 
L 730.382314 62.374039 
L 761.414545 66.52528 
" clip-path="url(#p1e58fcc0c6)" style="fill: none; stroke: #7f7f7f; stroke-width: 1.5; stroke-linecap: square"/>
    <defs>
     <path id="me3cf3bb858" d="M 0 3 
C 0.795609 3 1.55874 2.683901 2.12132 2.12132 
C 2.683901 1.55874 3 0.795609 3 0 
C 3 -0.795609 2.683901 -1.55874 2.12132 -2.12132 
C 1.55874 -2.683901 0.795609 -3 0 -3 
C -0.795609 -3 -1.55874 -2.683901 -2.12132 -2.12132 
C -2.683901 -1.55874 -3 -0.795609 -3 0 
C -3 0.795609 -2.683901 1.55874 -2.12132 2.12132 
C -1.55874 2.683901 -0.795609 3 0 3 
z
" style="stroke: #ffffff; stroke-width: 0.75"/>
    </defs>
    <g clip-path="url(#p1e58fcc0c6)">
     <use xlink:href="#me3cf3bb858" x="78.705455" y="61.74732" style="fill: #7f7f7f; stroke: #ffffff; stroke-width: 0.75"/>
     <use xlink:href="#me3cf3bb858" x="109.737686" y="91.631289" style="fill: #7f7f7f; stroke: #ffffff; stroke-width: 0.75"/>
     <use xlink:href="#me3cf3bb858" x="140.769917" y="80.871571" style="fill: #7f7f7f; stroke: #ffffff; stroke-width: 0.75"/>
     <use xlink:href="#me3cf3bb858" x="171.802149" y="114.999858" style="fill: #7f7f7f; stroke: #ffffff; stroke-width: 0.75"/>
     <use xlink:href="#me3cf3bb858" x="202.83438" y="112.387493" style="fill: #7f7f7f; stroke: #ffffff; stroke-width: 0.75"/>
     <use xlink:href="#me3cf3bb858" x="233.866612" y="78.271616" style="fill: #7f7f7f; stroke: #ffffff; stroke-width: 0.75"/>
     <use xlink:href="#me3cf3bb858" x="264.898843" y="96.862225" style="fill: #7f7f7f; stroke: #ffffff; stroke-width: 0.75"/>
     <use xlink:href="#me3cf3bb858" x="295.931074" y="80.977058" style="fill: #7f7f7f; stroke: #ffffff; stroke-width: 0.75"/>
     <use xlink:href="#me3cf3bb858" x="326.963306" y="76.27356" style="fill: #7f7f7f; stroke: #ffffff; stroke-width: 0.75"/>
     <use xlink:href="#me3cf3bb858" x="357.995537" y="89.04995" style="fill: #7f7f7f; stroke: #ffffff; stroke-width: 0.75"/>
     <use xlink:href="#me3cf3bb858" x="389.027769" y="103.073573" style="fill: #7f7f7f; stroke: #ffffff; stroke-width: 0.75"/>
     <use xlink:href="#me3cf3bb858" x="420.06" y="97.898484" style="fill: #7f7f7f; stroke: #ffffff; stroke-width: 0.75"/>
     <use xlink:href="#me3cf3bb858" x="451.092231" y="74.33135" style="fill: #7f7f7f; stroke: #ffffff; stroke-width: 0.75"/>
     <use xlink:href="#me3cf3bb858" x="482.124463" y="90.384055" style="fill: #7f7f7f; stroke: #ffffff; stroke-width: 0.75"/>
     <use xlink:href="#me3cf3bb858" x="513.156694" y="81.926445" style="fill: #7f7f7f; stroke: #ffffff; stroke-width: 0.75"/>
     <use xlink:href="#me3cf3bb858" x="544.188926" y="81.914035" style="fill: #7f7f7f; stroke: #ffffff; stroke-width: 0.75"/>
     <use xlink:href="#me3cf3bb858" x="575.221157" y="73.363348" style="fill: #7f7f7f; stroke: #ffffff; stroke-width: 0.75"/>
     <use xlink:href="#me3cf3bb858" x="606.253388" y="74.691248" style="fill: #7f7f7f; stroke: #ffffff; stroke-width: 0.75"/>
     <use xlink:href="#me3cf3bb858" x="637.28562" y="79.103105" style="fill: #7f7f7f; stroke: #ffffff; stroke-width: 0.75"/>
     <use xlink:href="#me3cf3bb858" x="668.317851" y="88.354974" style="fill: #7f7f7f; stroke: #ffffff; stroke-width: 0.75"/>
     <use xlink:href="#me3cf3bb858" x="699.350083" y="65.00502" style="fill: #7f7f7f; stroke: #ffffff; stroke-width: 0.75"/>
     <use xlink:href="#me3cf3bb858" x="730.382314" y="62.374039" style="fill: #7f7f7f; stroke: #ffffff; stroke-width: 0.75"/>
     <use xlink:href="#me3cf3bb858" x="761.414545" y="66.52528" style="fill: #7f7f7f; stroke: #ffffff; stroke-width: 0.75"/>
    </g>
   </g>
   <g id="line2d_22">
    <path d="M 78.705455 510.987273 
L 109.737686 510.987273 
L 140.769917 510.987273 
L 171.802149 510.987273 
L 202.83438 510.987273 
L 233.866612 510.987273 
L 264.898843 510.987273 
L 295.931074 510.987273 
L 326.963306 510.987273 
L 357.995537 510.987273 
L 389.027769 510.987273 
L 420.06 510.987273 
L 451.092231 510.987273 
L 482.124463 510.987273 
L 513.156694 510.987273 
L 544.188926 510.987273 
L 575.221157 510.987273 
L 606.253388 510.987273 
L 637.28562 510.987273 
L 668.317851 510.987273 
L 699.350083 510.987273 
L 730.382314 510.987273 
L 761.414545 510.987273 
" clip-path="url(#p1e58fcc0c6)" style="fill: none; stroke: #bcbd22; stroke-width: 1.5; stroke-linecap: square"/>
    <defs>
     <path id="m91ea468d37" d="M 0 3 
C 0.795609 3 1.55874 2.683901 2.12132 2.12132 
C 2.683901 1.55874 3 0.795609 3 0 
C 3 -0.795609 2.683901 -1.55874 2.12132 -2.12132 
C 1.55874 -2.683901 0.795609 -3 0 -3 
C -0.795609 -3 -1.55874 -2.683901 -2.12132 -2.12132 
C -2.683901 -1.55874 -3 -0.795609 -3 0 
C -3 0.795609 -2.683901 1.55874 -2.12132 2.12132 
C -1.55874 2.683901 -0.795609 3 0 3 
z
" style="stroke: #ffffff; stroke-width: 0.75"/>
    </defs>
    <g clip-path="url(#p1e58fcc0c6)">
     <use xlink:href="#m91ea468d37" x="78.705455" y="510.987273" style="fill: #bcbd22; stroke: #ffffff; stroke-width: 0.75"/>
     <use xlink:href="#m91ea468d37" x="109.737686" y="510.987273" style="fill: #bcbd22; stroke: #ffffff; stroke-width: 0.75"/>
     <use xlink:href="#m91ea468d37" x="140.769917" y="510.987273" style="fill: #bcbd22; stroke: #ffffff; stroke-width: 0.75"/>
     <use xlink:href="#m91ea468d37" x="171.802149" y="510.987273" style="fill: #bcbd22; stroke: #ffffff; stroke-width: 0.75"/>
     <use xlink:href="#m91ea468d37" x="202.83438" y="510.987273" style="fill: #bcbd22; stroke: #ffffff; stroke-width: 0.75"/>
     <use xlink:href="#m91ea468d37" x="233.866612" y="510.987273" style="fill: #bcbd22; stroke: #ffffff; stroke-width: 0.75"/>
     <use xlink:href="#m91ea468d37" x="264.898843" y="510.987273" style="fill: #bcbd22; stroke: #ffffff; stroke-width: 0.75"/>
     <use xlink:href="#m91ea468d37" x="295.931074" y="510.987273" style="fill: #bcbd22; stroke: #ffffff; stroke-width: 0.75"/>
     <use xlink:href="#m91ea468d37" x="326.963306" y="510.987273" style="fill: #bcbd22; stroke: #ffffff; stroke-width: 0.75"/>
     <use xlink:href="#m91ea468d37" x="357.995537" y="510.987273" style="fill: #bcbd22; stroke: #ffffff; stroke-width: 0.75"/>
     <use xlink:href="#m91ea468d37" x="389.027769" y="510.987273" style="fill: #bcbd22; stroke: #ffffff; stroke-width: 0.75"/>
     <use xlink:href="#m91ea468d37" x="420.06" y="510.987273" style="fill: #bcbd22; stroke: #ffffff; stroke-width: 0.75"/>
     <use xlink:href="#m91ea468d37" x="451.092231" y="510.987273" style="fill: #bcbd22; stroke: #ffffff; stroke-width: 0.75"/>
     <use xlink:href="#m91ea468d37" x="482.124463" y="510.987273" style="fill: #bcbd22; stroke: #ffffff; stroke-width: 0.75"/>
     <use xlink:href="#m91ea468d37" x="513.156694" y="510.987273" style="fill: #bcbd22; stroke: #ffffff; stroke-width: 0.75"/>
     <use xlink:href="#m91ea468d37" x="544.188926" y="510.987273" style="fill: #bcbd22; stroke: #ffffff; stroke-width: 0.75"/>
     <use xlink:href="#m91ea468d37" x="575.221157" y="510.987273" style="fill: #bcbd22; stroke: #ffffff; stroke-width: 0.75"/>
     <use xlink:href="#m91ea468d37" x="606.253388" y="510.987273" style="fill: #bcbd22; stroke: #ffffff; stroke-width: 0.75"/>
     <use xlink:href="#m91ea468d37" x="637.28562" y="510.987273" style="fill: #bcbd22; stroke: #ffffff; stroke-width: 0.75"/>
     <use xlink:href="#m91ea468d37" x="668.317851" y="510.987273" style="fill: #bcbd22; stroke: #ffffff; stroke-width: 0.75"/>
     <use xlink:href="#m91ea468d37" x="699.350083" y="510.987273" style="fill: #bcbd22; stroke: #ffffff; stroke-width: 0.75"/>
     <use xlink:href="#m91ea468d37" x="730.382314" y="510.987273" style="fill: #bcbd22; stroke: #ffffff; stroke-width: 0.75"/>
     <use xlink:href="#m91ea468d37" x="761.414545" y="510.987273" style="fill: #bcbd22; stroke: #ffffff; stroke-width: 0.75"/>
    </g>
   </g>
   <g id="line2d_23">
    <path d="M 78.705455 271.493568 
L 109.737686 288.669404 
L 140.769917 309.183608 
L 171.802149 337.857574 
L 202.83438 323.666412 
L 233.866612 295.979063 
L 264.898843 310.406021 
L 295.931074 296.283115 
L 326.963306 281.347335 
L 357.995537 267.869765 
L 389.027769 271.716953 
L 420.06 263.588216 
L 451.092231 242.267344 
L 482.124463 269.265922 
L 513.156694 258.754409 
L 544.188926 221.753141 
L 575.221157 249.676285 
L 606.253388 241.913651 
L 637.28562 248.875821 
L 668.317851 238.991028 
L 699.350083 192.551737 
L 730.382314 187.891675 
L 761.414545 180.178682 
" clip-path="url(#p1e58fcc0c6)" style="fill: none; stroke: #17becf; stroke-width: 1.5; stroke-linecap: square"/>
    <defs>
     <path id="ma6f7c0385f" d="M 0 3 
C 0.795609 3 1.55874 2.683901 2.12132 2.12132 
C 2.683901 1.55874 3 0.795609 3 0 
C 3 -0.795609 2.683901 -1.55874 2.12132 -2.12132 
C 1.55874 -2.683901 0.795609 -3 0 -3 
C -0.795609 -3 -1.55874 -2.683901 -2.12132 -2.12132 
C -2.683901 -1.55874 -3 -0.795609 -3 0 
C -3 0.795609 -2.683901 1.55874 -2.12132 2.12132 
C -1.55874 2.683901 -0.795609 3 0 3 
z
" style="stroke: #ffffff; stroke-width: 0.75"/>
    </defs>
    <g clip-path="url(#p1e58fcc0c6)">
     <use xlink:href="#ma6f7c0385f" x="78.705455" y="271.493568" style="fill: #17becf; stroke: #ffffff; stroke-width: 0.75"/>
     <use xlink:href="#ma6f7c0385f" x="109.737686" y="288.669404" style="fill: #17becf; stroke: #ffffff; stroke-width: 0.75"/>
     <use xlink:href="#ma6f7c0385f" x="140.769917" y="309.183608" style="fill: #17becf; stroke: #ffffff; stroke-width: 0.75"/>
     <use xlink:href="#ma6f7c0385f" x="171.802149" y="337.857574" style="fill: #17becf; stroke: #ffffff; stroke-width: 0.75"/>
     <use xlink:href="#ma6f7c0385f" x="202.83438" y="323.666412" style="fill: #17becf; stroke: #ffffff; stroke-width: 0.75"/>
     <use xlink:href="#ma6f7c0385f" x="233.866612" y="295.979063" style="fill: #17becf; stroke: #ffffff; stroke-width: 0.75"/>
     <use xlink:href="#ma6f7c0385f" x="264.898843" y="310.406021" style="fill: #17becf; stroke: #ffffff; stroke-width: 0.75"/>
     <use xlink:href="#ma6f7c0385f" x="295.931074" y="296.283115" style="fill: #17becf; stroke: #ffffff; stroke-width: 0.75"/>
     <use xlink:href="#ma6f7c0385f" x="326.963306" y="281.347335" style="fill: #17becf; stroke: #ffffff; stroke-width: 0.75"/>
     <use xlink:href="#ma6f7c0385f" x="357.995537" y="267.869765" style="fill: #17becf; stroke: #ffffff; stroke-width: 0.75"/>
     <use xlink:href="#ma6f7c0385f" x="389.027769" y="271.716953" style="fill: #17becf; stroke: #ffffff; stroke-width: 0.75"/>
     <use xlink:href="#ma6f7c0385f" x="420.06" y="263.588216" style="fill: #17becf; stroke: #ffffff; stroke-width: 0.75"/>
     <use xlink:href="#ma6f7c0385f" x="451.092231" y="242.267344" style="fill: #17becf; stroke: #ffffff; stroke-width: 0.75"/>
     <use xlink:href="#ma6f7c0385f" x="482.124463" y="269.265922" style="fill: #17becf; stroke: #ffffff; stroke-width: 0.75"/>
     <use xlink:href="#ma6f7c0385f" x="513.156694" y="258.754409" style="fill: #17becf; stroke: #ffffff; stroke-width: 0.75"/>
     <use xlink:href="#ma6f7c0385f" x="544.188926" y="221.753141" style="fill: #17becf; stroke: #ffffff; stroke-width: 0.75"/>
     <use xlink:href="#ma6f7c0385f" x="575.221157" y="249.676285" style="fill: #17becf; stroke: #ffffff; stroke-width: 0.75"/>
     <use xlink:href="#ma6f7c0385f" x="606.253388" y="241.913651" style="fill: #17becf; stroke: #ffffff; stroke-width: 0.75"/>
     <use xlink:href="#ma6f7c0385f" x="637.28562" y="248.875821" style="fill: #17becf; stroke: #ffffff; stroke-width: 0.75"/>
     <use xlink:href="#ma6f7c0385f" x="668.317851" y="238.991028" style="fill: #17becf; stroke: #ffffff; stroke-width: 0.75"/>
     <use xlink:href="#ma6f7c0385f" x="699.350083" y="192.551737" style="fill: #17becf; stroke: #ffffff; stroke-width: 0.75"/>
     <use xlink:href="#ma6f7c0385f" x="730.382314" y="187.891675" style="fill: #17becf; stroke: #ffffff; stroke-width: 0.75"/>
     <use xlink:href="#ma6f7c0385f" x="761.414545" y="180.178682" style="fill: #17becf; stroke: #ffffff; stroke-width: 0.75"/>
    </g>
   </g>
   <g id="line2d_24"/>
   <g id="line2d_25"/>
   <g id="line2d_26"/>
   <g id="line2d_27"/>
   <g id="line2d_28"/>
   <g id="line2d_29"/>
   <g id="line2d_30"/>
   <g id="line2d_31"/>
   <g id="line2d_32"/>
   <g id="line2d_33"/>
   <g id="patch_3">
    <path d="M 44.57 534.04 
L 44.57 26.88 
" style="fill: none; stroke: #000000; stroke-width: 0.8; stroke-linejoin: miter; stroke-linecap: square"/>
   </g>
   <g id="patch_4">
    <path d="M 795.55 534.04 
L 795.55 26.88 
" style="fill: none; stroke: #000000; stroke-width: 0.8; stroke-linejoin: miter; stroke-linecap: square"/>
   </g>
   <g id="patch_5">
    <path d="M 44.57 534.04 
L 795.55 534.04 
" style="fill: none; stroke: #000000; stroke-width: 0.8; stroke-linejoin: miter; stroke-linecap: square"/>
   </g>
   <g id="patch_6">
    <path d="M 44.57 26.88 
L 795.55 26.88 
" style="fill: none; stroke: #000000; stroke-width: 0.8; stroke-linejoin: miter; stroke-linecap: square"/>
   </g>
   <g id="text_16">
    <!-- Renewables Share Energy Trend (20002023) -->
    <g transform="translate(283.514063 20.88) scale(0.12 -0.12)">
     <defs>
      <path id="DejaVuSans-54" d="M -19 4666 
L 3928 4666 
L 3928 4134 
L 2272 4134 
L 2272 0 
L 1638 0 
L 1638 4134 
L -19 4134 
L -19 4666 
z
" transform="scale(0.015625)"/>
      <path id="DejaVuSans-64" d="M 2906 2969 
L 2906 4863 
L 3481 4863 
L 3481 0 
L 2906 0 
L 2906 525 
Q 2725 213 2448 61 
Q 2172 -91 1784 -91 
Q 1150 -91 751 415 
Q 353 922 353 1747 
Q 353 2572 751 3078 
Q 1150 3584 1784 3584 
Q 2172 3584 2448 3432 
Q 2725 3281 2906 2969 
z
M 947 1747 
Q 947 1113 1208 752 
Q 1469 391 1925 391 
Q 2381 391 2643 752 
Q 2906 1113 2906 1747 
Q 2906 2381 2643 2742 
Q 2381 3103 1925 3103 
Q 1469 3103 1208 2742 
Q 947 2381 947 1747 
z
" transform="scale(0.015625)"/>
      <path id="DejaVuSans-28" d="M 1984 4856 
Q 1566 4138 1362 3434 
Q 1159 2731 1159 2009 
Q 1159 1288 1364 580 
Q 1569 -128 1984 -844 
L 1484 -844 
Q 1016 -109 783 600 
Q 550 1309 550 2009 
Q 550 2706 781 3412 
Q 1013 4119 1484 4856 
L 1984 4856 
z
" transform="scale(0.015625)"/>
      <path id="DejaVuSans-2013" d="M 313 1978 
L 2888 1978 
L 2888 1528 
L 313 1528 
L 313 1978 
z
" transform="scale(0.015625)"/>
      <path id="DejaVuSans-29" d="M 513 4856 
L 1013 4856 
Q 1481 4119 1714 3412 
Q 1947 2706 1947 2009 
Q 1947 1309 1714 600 
Q 1481 -109 1013 -844 
L 513 -844 
Q 928 -128 1133 580 
Q 1338 1288 1338 2009 
Q 1338 2731 1133 3434 
Q 928 4138 513 4856 
z
" transform="scale(0.015625)"/>
     </defs>
     <use xlink:href="#DejaVuSans-52"/>
     <use xlink:href="#DejaVuSans-65" x="64.982422"/>
     <use xlink:href="#DejaVuSans-6e" x="126.505859"/>
     <use xlink:href="#DejaVuSans-65" x="189.884766"/>
     <use xlink:href="#DejaVuSans-77" x="251.408203"/>
     <use xlink:href="#DejaVuSans-61" x="333.195312"/>
     <use xlink:href="#DejaVuSans-62" x="394.474609"/>
     <use xlink:href="#DejaVuSans-6c" x="457.951172"/>
     <use xlink:href="#DejaVuSans-65" x="485.734375"/>
     <use xlink:href="#DejaVuSans-73" x="547.257812"/>
     <use xlink:href="#DejaVuSans-20" x="599.357422"/>
     <use xlink:href="#DejaVuSans-53" x="631.144531"/>
     <use xlink:href="#DejaVuSans-68" x="694.621094"/>
     <use xlink:href="#DejaVuSans-61" x="758"/>
     <use xlink:href="#DejaVuSans-72" x="819.279297"/>
     <use xlink:href="#DejaVuSans-65" x="858.142578"/>
     <use xlink:href="#DejaVuSans-20" x="919.666016"/>
     <use xlink:href="#DejaVuSans-45" x="951.453125"/>
     <use xlink:href="#DejaVuSans-6e" x="1014.636719"/>
     <use xlink:href="#DejaVuSans-65" x="1078.015625"/>
     <use xlink:href="#DejaVuSans-72" x="1139.539062"/>
     <use xlink:href="#DejaVuSans-67" x="1178.902344"/>
     <use xlink:href="#DejaVuSans-79" x="1242.378906"/>
     <use xlink:href="#DejaVuSans-20" x="1301.558594"/>
     <use xlink:href="#DejaVuSans-54" x="1333.345703"/>
     <use xlink:href="#DejaVuSans-72" x="1379.679688"/>
     <use xlink:href="#DejaVuSans-65" x="1418.542969"/>
     <use xlink:href="#DejaVuSans-6e" x="1480.066406"/>
     <use xlink:href="#DejaVuSans-64" x="1543.445312"/>
     <use xlink:href="#DejaVuSans-20" x="1606.921875"/>
     <use xlink:href="#DejaVuSans-28" x="1638.708984"/>
     <use xlink:href="#DejaVuSans-32" x="1677.722656"/>
     <use xlink:href="#DejaVuSans-30" x="1741.345703"/>
     <use xlink:href="#DejaVuSans-30" x="1804.96875"/>
     <use xlink:href="#DejaVuSans-30" x="1868.591797"/>
     <use xlink:href="#DejaVuSans-2013" x="1932.214844"/>
     <use xlink:href="#DejaVuSans-32" x="1982.214844"/>
     <use xlink:href="#DejaVuSans-30" x="2045.837891"/>
     <use xlink:href="#DejaVuSans-32" x="2109.460938"/>
     <use xlink:href="#DejaVuSans-33" x="2173.083984"/>
     <use xlink:href="#DejaVuSans-29" x="2236.707031"/>
    </g>
   </g>
   <g id="legend_1">
    <g id="patch_7">
     <path d="M 840.099 196.339375 
L 993.51775 196.339375 
Q 995.51775 196.339375 995.51775 194.339375 
L 995.51775 33.88 
Q 995.51775 31.88 993.51775 31.88 
L 840.099 31.88 
Q 838.099 31.88 838.099 33.88 
L 838.099 194.339375 
Q 838.099 196.339375 840.099 196.339375 
z
" style="fill: #ffffff; opacity: 0.8; stroke: #cccccc; stroke-linejoin: miter"/>
    </g>
    <g id="text_17">
     <!-- Country -->
     <g transform="translate(896.945094 43.478437) scale(0.1 -0.1)">
      <defs>
       <path id="DejaVuSans-43" d="M 4122 4306 
L 4122 3641 
Q 3803 3938 3442 4084 
Q 3081 4231 2675 4231 
Q 1875 4231 1450 3742 
Q 1025 3253 1025 2328 
Q 1025 1406 1450 917 
Q 1875 428 2675 428 
Q 3081 428 3442 575 
Q 3803 722 4122 1019 
L 4122 359 
Q 3791 134 3420 21 
Q 3050 -91 2638 -91 
Q 1578 -91 968 557 
Q 359 1206 359 2328 
Q 359 3453 968 4101 
Q 1578 4750 2638 4750 
Q 3056 4750 3426 4639 
Q 3797 4528 4122 4306 
z
" transform="scale(0.015625)"/>
       <path id="DejaVuSans-6f" d="M 1959 3097 
Q 1497 3097 1228 2736 
Q 959 2375 959 1747 
Q 959 1119 1226 758 
Q 1494 397 1959 397 
Q 2419 397 2687 759 
Q 2956 1122 2956 1747 
Q 2956 2369 2687 2733 
Q 2419 3097 1959 3097 
z
M 1959 3584 
Q 2709 3584 3137 3096 
Q 3566 2609 3566 1747 
Q 3566 888 3137 398 
Q 2709 -91 1959 -91 
Q 1206 -91 779 398 
Q 353 888 353 1747 
Q 353 2609 779 3096 
Q 1206 3584 1959 3584 
z
" transform="scale(0.015625)"/>
       <path id="DejaVuSans-75" d="M 544 1381 
L 544 3500 
L 1119 3500 
L 1119 1403 
Q 1119 906 1312 657 
Q 1506 409 1894 409 
Q 2359 409 2629 706 
Q 2900 1003 2900 1516 
L 2900 3500 
L 3475 3500 
L 3475 0 
L 2900 0 
L 2900 538 
Q 2691 219 2414 64 
Q 2138 -91 1772 -91 
Q 1169 -91 856 284 
Q 544 659 544 1381 
z
M 1991 3584 
L 1991 3584 
z
" transform="scale(0.015625)"/>
       <path id="DejaVuSans-74" d="M 1172 4494 
L 1172 3500 
L 2356 3500 
L 2356 3053 
L 1172 3053 
L 1172 1153 
Q 1172 725 1289 603 
Q 1406 481 1766 481 
L 2356 481 
L 2356 0 
L 1766 0 
Q 1100 0 847 248 
Q 594 497 594 1153 
L 594 3053 
L 172 3053 
L 172 3500 
L 594 3500 
L 594 4494 
L 1172 4494 
z
" transform="scale(0.015625)"/>
      </defs>
      <use xlink:href="#DejaVuSans-43"/>
      <use xlink:href="#DejaVuSans-6f" x="69.824219"/>
      <use xlink:href="#DejaVuSans-75" x="131.005859"/>
      <use xlink:href="#DejaVuSans-6e" x="194.384766"/>
      <use xlink:href="#DejaVuSans-74" x="257.763672"/>
      <use xlink:href="#DejaVuSans-72" x="296.972656"/>
      <use xlink:href="#DejaVuSans-79" x="338.085938"/>
     </g>
    </g>
    <g id="line2d_34">
     <path d="M 842.099 54.656562 
L 852.099 54.656562 
L 862.099 54.656562 
" style="fill: none; stroke: #1f77b4; stroke-width: 1.5; stroke-linecap: square"/>
     <g>
      <use xlink:href="#m7c8895ead4" x="852.099" y="54.656562" style="fill: #1f77b4; stroke: #ffffff; stroke-width: 0.75"/>
     </g>
    </g>
    <g id="text_18">
     <!-- Bosnia and Herzegovina -->
     <g transform="translate(870.099 58.156562) scale(0.1 -0.1)">
      <defs>
       <path id="DejaVuSans-42" d="M 1259 2228 
L 1259 519 
L 2272 519 
Q 2781 519 3026 730 
Q 3272 941 3272 1375 
Q 3272 1813 3026 2020 
Q 2781 2228 2272 2228 
L 1259 2228 
z
M 1259 4147 
L 1259 2741 
L 2194 2741 
Q 2656 2741 2882 2914 
Q 3109 3088 3109 3444 
Q 3109 3797 2882 3972 
Q 2656 4147 2194 4147 
L 1259 4147 
z
M 628 4666 
L 2241 4666 
Q 2963 4666 3353 4366 
Q 3744 4066 3744 3513 
Q 3744 3084 3544 2831 
Q 3344 2578 2956 2516 
Q 3422 2416 3680 2098 
Q 3938 1781 3938 1306 
Q 3938 681 3513 340 
Q 3088 0 2303 0 
L 628 0 
L 628 4666 
z
" transform="scale(0.015625)"/>
       <path id="DejaVuSans-69" d="M 603 3500 
L 1178 3500 
L 1178 0 
L 603 0 
L 603 3500 
z
M 603 4863 
L 1178 4863 
L 1178 4134 
L 603 4134 
L 603 4863 
z
" transform="scale(0.015625)"/>
       <path id="DejaVuSans-48" d="M 628 4666 
L 1259 4666 
L 1259 2753 
L 3553 2753 
L 3553 4666 
L 4184 4666 
L 4184 0 
L 3553 0 
L 3553 2222 
L 1259 2222 
L 1259 0 
L 628 0 
L 628 4666 
z
" transform="scale(0.015625)"/>
       <path id="DejaVuSans-7a" d="M 353 3500 
L 3084 3500 
L 3084 2975 
L 922 459 
L 3084 459 
L 3084 0 
L 275 0 
L 275 525 
L 2438 3041 
L 353 3041 
L 353 3500 
z
" transform="scale(0.015625)"/>
       <path id="DejaVuSans-76" d="M 191 3500 
L 800 3500 
L 1894 563 
L 2988 3500 
L 3597 3500 
L 2284 0 
L 1503 0 
L 191 3500 
z
" transform="scale(0.015625)"/>
      </defs>
      <use xlink:href="#DejaVuSans-42"/>
      <use xlink:href="#DejaVuSans-6f" x="68.603516"/>
      <use xlink:href="#DejaVuSans-73" x="129.785156"/>
      <use xlink:href="#DejaVuSans-6e" x="181.884766"/>
      <use xlink:href="#DejaVuSans-69" x="245.263672"/>
      <use xlink:href="#DejaVuSans-61" x="273.046875"/>
      <use xlink:href="#DejaVuSans-20" x="334.326172"/>
      <use xlink:href="#DejaVuSans-61" x="366.113281"/>
      <use xlink:href="#DejaVuSans-6e" x="427.392578"/>
      <use xlink:href="#DejaVuSans-64" x="490.771484"/>
      <use xlink:href="#DejaVuSans-20" x="554.248047"/>
      <use xlink:href="#DejaVuSans-48" x="586.035156"/>
      <use xlink:href="#DejaVuSans-65" x="661.230469"/>
      <use xlink:href="#DejaVuSans-72" x="722.753906"/>
      <use xlink:href="#DejaVuSans-7a" x="763.867188"/>
      <use xlink:href="#DejaVuSans-65" x="816.357422"/>
      <use xlink:href="#DejaVuSans-67" x="877.880859"/>
      <use xlink:href="#DejaVuSans-6f" x="941.357422"/>
      <use xlink:href="#DejaVuSans-76" x="1002.539062"/>
      <use xlink:href="#DejaVuSans-69" x="1061.71875"/>
      <use xlink:href="#DejaVuSans-6e" x="1089.501953"/>
      <use xlink:href="#DejaVuSans-61" x="1152.880859"/>
     </g>
    </g>
    <g id="line2d_35">
     <path d="M 842.099 69.334687 
L 852.099 69.334687 
L 862.099 69.334687 
" style="fill: none; stroke: #ff7f0e; stroke-width: 1.5; stroke-linecap: square"/>
     <g>
      <use xlink:href="#mee78004e24" x="852.099" y="69.334687" style="fill: #ff7f0e; stroke: #ffffff; stroke-width: 0.75"/>
     </g>
    </g>
    <g id="text_19">
     <!-- Croatia -->
     <g transform="translate(870.099 72.834687) scale(0.1 -0.1)">
      <use xlink:href="#DejaVuSans-43"/>
      <use xlink:href="#DejaVuSans-72" x="69.824219"/>
      <use xlink:href="#DejaVuSans-6f" x="108.6875"/>
      <use xlink:href="#DejaVuSans-61" x="169.869141"/>
      <use xlink:href="#DejaVuSans-74" x="231.148438"/>
      <use xlink:href="#DejaVuSans-69" x="270.357422"/>
      <use xlink:href="#DejaVuSans-61" x="298.140625"/>
     </g>
    </g>
    <g id="line2d_36">
     <path d="M 842.099 84.012812 
L 852.099 84.012812 
L 862.099 84.012812 
" style="fill: none; stroke: #2ca02c; stroke-width: 1.5; stroke-linecap: square"/>
     <g>
      <use xlink:href="#m1f79323569" x="852.099" y="84.012812" style="fill: #2ca02c; stroke: #ffffff; stroke-width: 0.75"/>
     </g>
    </g>
    <g id="text_20">
     <!-- Denmark -->
     <g transform="translate(870.099 87.512812) scale(0.1 -0.1)">
      <defs>
       <path id="DejaVuSans-44" d="M 1259 4147 
L 1259 519 
L 2022 519 
Q 2988 519 3436 956 
Q 3884 1394 3884 2338 
Q 3884 3275 3436 3711 
Q 2988 4147 2022 4147 
L 1259 4147 
z
M 628 4666 
L 1925 4666 
Q 3281 4666 3915 4102 
Q 4550 3538 4550 2338 
Q 4550 1131 3912 565 
Q 3275 0 1925 0 
L 628 0 
L 628 4666 
z
" transform="scale(0.015625)"/>
       <path id="DejaVuSans-6d" d="M 3328 2828 
Q 3544 3216 3844 3400 
Q 4144 3584 4550 3584 
Q 5097 3584 5394 3201 
Q 5691 2819 5691 2113 
L 5691 0 
L 5113 0 
L 5113 2094 
Q 5113 2597 4934 2840 
Q 4756 3084 4391 3084 
Q 3944 3084 3684 2787 
Q 3425 2491 3425 1978 
L 3425 0 
L 2847 0 
L 2847 2094 
Q 2847 2600 2669 2842 
Q 2491 3084 2119 3084 
Q 1678 3084 1418 2786 
Q 1159 2488 1159 1978 
L 1159 0 
L 581 0 
L 581 3500 
L 1159 3500 
L 1159 2956 
Q 1356 3278 1631 3431 
Q 1906 3584 2284 3584 
Q 2666 3584 2933 3390 
Q 3200 3197 3328 2828 
z
" transform="scale(0.015625)"/>
       <path id="DejaVuSans-6b" d="M 581 4863 
L 1159 4863 
L 1159 1991 
L 2875 3500 
L 3609 3500 
L 1753 1863 
L 3688 0 
L 2938 0 
L 1159 1709 
L 1159 0 
L 581 0 
L 581 4863 
z
" transform="scale(0.015625)"/>
      </defs>
      <use xlink:href="#DejaVuSans-44"/>
      <use xlink:href="#DejaVuSans-65" x="77.001953"/>
      <use xlink:href="#DejaVuSans-6e" x="138.525391"/>
      <use xlink:href="#DejaVuSans-6d" x="201.904297"/>
      <use xlink:href="#DejaVuSans-61" x="299.316406"/>
      <use xlink:href="#DejaVuSans-72" x="360.595703"/>
      <use xlink:href="#DejaVuSans-6b" x="401.708984"/>
     </g>
    </g>
    <g id="line2d_37">
     <path d="M 842.099 98.690937 
L 852.099 98.690937 
L 862.099 98.690937 
" style="fill: none; stroke: #d62728; stroke-width: 1.5; stroke-linecap: square"/>
     <g>
      <use xlink:href="#m4a253dcb7c" x="852.099" y="98.690937" style="fill: #d62728; stroke: #ffffff; stroke-width: 0.75"/>
     </g>
    </g>
    <g id="text_21">
     <!-- Finland -->
     <g transform="translate(870.099 102.190937) scale(0.1 -0.1)">
      <defs>
       <path id="DejaVuSans-46" d="M 628 4666 
L 3309 4666 
L 3309 4134 
L 1259 4134 
L 1259 2759 
L 3109 2759 
L 3109 2228 
L 1259 2228 
L 1259 0 
L 628 0 
L 628 4666 
z
" transform="scale(0.015625)"/>
      </defs>
      <use xlink:href="#DejaVuSans-46"/>
      <use xlink:href="#DejaVuSans-69" x="50.269531"/>
      <use xlink:href="#DejaVuSans-6e" x="78.052734"/>
      <use xlink:href="#DejaVuSans-6c" x="141.431641"/>
      <use xlink:href="#DejaVuSans-61" x="169.214844"/>
      <use xlink:href="#DejaVuSans-6e" x="230.494141"/>
      <use xlink:href="#DejaVuSans-64" x="293.873047"/>
     </g>
    </g>
    <g id="line2d_38">
     <path d="M 842.099 113.369062 
L 852.099 113.369062 
L 862.099 113.369062 
" style="fill: none; stroke: #9467bd; stroke-width: 1.5; stroke-linecap: square"/>
     <g>
      <use xlink:href="#m420d659f8e" x="852.099" y="113.369062" style="fill: #9467bd; stroke: #ffffff; stroke-width: 0.75"/>
     </g>
    </g>
    <g id="text_22">
     <!-- Iceland -->
     <g transform="translate(870.099 116.869062) scale(0.1 -0.1)">
      <defs>
       <path id="DejaVuSans-49" d="M 628 4666 
L 1259 4666 
L 1259 0 
L 628 0 
L 628 4666 
z
" transform="scale(0.015625)"/>
       <path id="DejaVuSans-63" d="M 3122 3366 
L 3122 2828 
Q 2878 2963 2633 3030 
Q 2388 3097 2138 3097 
Q 1578 3097 1268 2742 
Q 959 2388 959 1747 
Q 959 1106 1268 751 
Q 1578 397 2138 397 
Q 2388 397 2633 464 
Q 2878 531 3122 666 
L 3122 134 
Q 2881 22 2623 -34 
Q 2366 -91 2075 -91 
Q 1284 -91 818 406 
Q 353 903 353 1747 
Q 353 2603 823 3093 
Q 1294 3584 2113 3584 
Q 2378 3584 2631 3529 
Q 2884 3475 3122 3366 
z
" transform="scale(0.015625)"/>
      </defs>
      <use xlink:href="#DejaVuSans-49"/>
      <use xlink:href="#DejaVuSans-63" x="29.492188"/>
      <use xlink:href="#DejaVuSans-65" x="84.472656"/>
      <use xlink:href="#DejaVuSans-6c" x="145.996094"/>
      <use xlink:href="#DejaVuSans-61" x="173.779297"/>
      <use xlink:href="#DejaVuSans-6e" x="235.058594"/>
      <use xlink:href="#DejaVuSans-64" x="298.4375"/>
     </g>
    </g>
    <g id="line2d_39">
     <path d="M 842.099 128.047187 
L 852.099 128.047187 
L 862.099 128.047187 
" style="fill: none; stroke: #8c564b; stroke-width: 1.5; stroke-linecap: square"/>
     <g>
      <use xlink:href="#m90a4b1ab7c" x="852.099" y="128.047187" style="fill: #8c564b; stroke: #ffffff; stroke-width: 0.75"/>
     </g>
    </g>
    <g id="text_23">
     <!-- Kosovo -->
     <g transform="translate(870.099 131.547187) scale(0.1 -0.1)">
      <defs>
       <path id="DejaVuSans-4b" d="M 628 4666 
L 1259 4666 
L 1259 2694 
L 3353 4666 
L 4166 4666 
L 1850 2491 
L 4331 0 
L 3500 0 
L 1259 2247 
L 1259 0 
L 628 0 
L 628 4666 
z
" transform="scale(0.015625)"/>
      </defs>
      <use xlink:href="#DejaVuSans-4b"/>
      <use xlink:href="#DejaVuSans-6f" x="60.576172"/>
      <use xlink:href="#DejaVuSans-73" x="121.757812"/>
      <use xlink:href="#DejaVuSans-6f" x="173.857422"/>
      <use xlink:href="#DejaVuSans-76" x="235.039062"/>
      <use xlink:href="#DejaVuSans-6f" x="294.21875"/>
     </g>
    </g>
    <g id="line2d_40">
     <path d="M 842.099 142.725312 
L 852.099 142.725312 
L 862.099 142.725312 
" style="fill: none; stroke: #e377c2; stroke-width: 1.5; stroke-linecap: square"/>
     <g>
      <use xlink:href="#m48121c57e1" x="852.099" y="142.725312" style="fill: #e377c2; stroke: #ffffff; stroke-width: 0.75"/>
     </g>
    </g>
    <g id="text_24">
     <!-- North Macedonia -->
     <g transform="translate(870.099 146.225312) scale(0.1 -0.1)">
      <defs>
       <path id="DejaVuSans-4e" d="M 628 4666 
L 1478 4666 
L 3547 763 
L 3547 4666 
L 4159 4666 
L 4159 0 
L 3309 0 
L 1241 3903 
L 1241 0 
L 628 0 
L 628 4666 
z
" transform="scale(0.015625)"/>
       <path id="DejaVuSans-4d" d="M 628 4666 
L 1569 4666 
L 2759 1491 
L 3956 4666 
L 4897 4666 
L 4897 0 
L 4281 0 
L 4281 4097 
L 3078 897 
L 2444 897 
L 1241 4097 
L 1241 0 
L 628 0 
L 628 4666 
z
" transform="scale(0.015625)"/>
      </defs>
      <use xlink:href="#DejaVuSans-4e"/>
      <use xlink:href="#DejaVuSans-6f" x="74.804688"/>
      <use xlink:href="#DejaVuSans-72" x="135.986328"/>
      <use xlink:href="#DejaVuSans-74" x="177.099609"/>
      <use xlink:href="#DejaVuSans-68" x="216.308594"/>
      <use xlink:href="#DejaVuSans-20" x="279.6875"/>
      <use xlink:href="#DejaVuSans-4d" x="311.474609"/>
      <use xlink:href="#DejaVuSans-61" x="397.753906"/>
      <use xlink:href="#DejaVuSans-63" x="459.033203"/>
      <use xlink:href="#DejaVuSans-65" x="514.013672"/>
      <use xlink:href="#DejaVuSans-64" x="575.537109"/>
      <use xlink:href="#DejaVuSans-6f" x="639.013672"/>
      <use xlink:href="#DejaVuSans-6e" x="700.195312"/>
      <use xlink:href="#DejaVuSans-69" x="763.574219"/>
      <use xlink:href="#DejaVuSans-61" x="791.357422"/>
     </g>
    </g>
    <g id="line2d_41">
     <path d="M 842.099 157.403437 
L 852.099 157.403437 
L 862.099 157.403437 
" style="fill: none; stroke: #7f7f7f; stroke-width: 1.5; stroke-linecap: square"/>
     <g>
      <use xlink:href="#me3cf3bb858" x="852.099" y="157.403437" style="fill: #7f7f7f; stroke: #ffffff; stroke-width: 0.75"/>
     </g>
    </g>
    <g id="text_25">
     <!-- Norway -->
     <g transform="translate(870.099 160.903437) scale(0.1 -0.1)">
      <use xlink:href="#DejaVuSans-4e"/>
      <use xlink:href="#DejaVuSans-6f" x="74.804688"/>
      <use xlink:href="#DejaVuSans-72" x="135.986328"/>
      <use xlink:href="#DejaVuSans-77" x="177.099609"/>
      <use xlink:href="#DejaVuSans-61" x="258.886719"/>
      <use xlink:href="#DejaVuSans-79" x="320.166016"/>
     </g>
    </g>
    <g id="line2d_42">
     <path d="M 842.099 172.081562 
L 852.099 172.081562 
L 862.099 172.081562 
" style="fill: none; stroke: #bcbd22; stroke-width: 1.5; stroke-linecap: square"/>
     <g>
      <use xlink:href="#m91ea468d37" x="852.099" y="172.081562" style="fill: #bcbd22; stroke: #ffffff; stroke-width: 0.75"/>
     </g>
    </g>
    <g id="text_26">
     <!-- Serbia -->
     <g transform="translate(870.099 175.581562) scale(0.1 -0.1)">
      <use xlink:href="#DejaVuSans-53"/>
      <use xlink:href="#DejaVuSans-65" x="63.476562"/>
      <use xlink:href="#DejaVuSans-72" x="125"/>
      <use xlink:href="#DejaVuSans-62" x="166.113281"/>
      <use xlink:href="#DejaVuSans-69" x="229.589844"/>
      <use xlink:href="#DejaVuSans-61" x="257.373047"/>
     </g>
    </g>
    <g id="line2d_43">
     <path d="M 842.099 186.759687 
L 852.099 186.759687 
L 862.099 186.759687 
" style="fill: none; stroke: #17becf; stroke-width: 1.5; stroke-linecap: square"/>
     <g>
      <use xlink:href="#ma6f7c0385f" x="852.099" y="186.759687" style="fill: #17becf; stroke: #ffffff; stroke-width: 0.75"/>
     </g>
    </g>
    <g id="text_27">
     <!-- Sweden -->
     <g transform="translate(870.099 190.259687) scale(0.1 -0.1)">
      <use xlink:href="#DejaVuSans-53"/>
      <use xlink:href="#DejaVuSans-77" x="63.476562"/>
      <use xlink:href="#DejaVuSans-65" x="145.263672"/>
      <use xlink:href="#DejaVuSans-64" x="206.787109"/>
      <use xlink:href="#DejaVuSans-65" x="270.263672"/>
      <use xlink:href="#DejaVuSans-6e" x="331.787109"/>
     </g>
    </g>
   </g>
  </g>
 </g>
 <defs>
  <clipPath id="p1e58fcc0c6">
   <rect x="44.57" y="26.88" width="750.98" height="507.16"/>
  </clipPath>
 </defs>
</svg>
