<?xml version="1.0" encoding="utf-8" standalone="no"?>
<!DOCTYPE svg PUBLIC "-//W3C//DTD SVG 1.1//EN"
  "http://www.w3.org/Graphics/SVG/1.1/DTD/svg11.dtd">
<svg xmlns:xlink="http://www.w3.org/1999/xlink" width="1008pt" height="576pt" viewBox="0 0 1008 576" xmlns="http://www.w3.org/2000/svg" version="1.1">
 <metadata>
  <rdf:RDF xmlns:dc="http://purl.org/dc/elements/1.1/" xmlns:cc="http://creativecommons.org/ns#" xmlns:rdf="http://www.w3.org/1999/02/22-rdf-syntax-ns#">
   <cc:Work>
    <dc:type rdf:resource="http://purl.org/dc/dcmitype/StillImage"/>
    <dc:date>2025-04-22T23:03:52.303622</dc:date>
    <dc:format>image/svg+xml</dc:format>
    <dc:creator>
     <cc:Agent>
      <dc:title>Matplotlib v3.9.2, https://matplotlib.org/</dc:title>
     </cc:Agent>
    </dc:creator>
   </cc:Work>
  </rdf:RDF>
 </metadata>
 <defs>
  <style type="text/css">*{stroke-linejoin: round; stroke-linecap: butt}</style>
 </defs>
 <g id="figure_1">
  <g id="patch_1">
   <path d="M 0 576 
L 1008 576 
L 1008 0 
L 0 0 
z
" style="fill: #ffffff"/>
  </g>
  <g id="axes_1">
   <g id="patch_2">
    <path d="M 50.87 534.04 
L 795.55 534.04 
L 795.55 26.88 
L 50.87 26.88 
z
" style="fill: #ffffff"/>
   </g>
   <g id="PolyCollection_1"/>
   <g id="PolyCollection_2"/>
   <g id="PolyCollection_3"/>
   <g id="PolyCollection_4"/>
   <g id="PolyCollection_5"/>
   <g id="PolyCollection_6"/>
   <g id="PolyCollection_7"/>
   <g id="PolyCollection_8"/>
   <g id="PolyCollection_9"/>
   <g id="PolyCollection_10"/>
   <g id="matplotlib.axis_1">
    <g id="xtick_1">
     <g id="line2d_1">
      <defs>
       <path id="m584d34ba6f" d="M 0 0 
L 0 3.5 
" style="stroke: #000000; stroke-width: 0.8"/>
      </defs>
      <g>
       <use xlink:href="#m584d34ba6f" x="84.719091" y="534.04" style="stroke: #000000; stroke-width: 0.8"/>
      </g>
     </g>
     <g id="text_1">
      <!-- 2000 -->
      <g transform="translate(71.994091 548.638438) scale(0.1 -0.1)">
       <defs>
        <path id="DejaVuSans-32" d="M 1228 531 
L 3431 531 
L 3431 0 
L 469 0 
L 469 531 
Q 828 903 1448 1529 
Q 2069 2156 2228 2338 
Q 2531 2678 2651 2914 
Q 2772 3150 2772 3378 
Q 2772 3750 2511 3984 
Q 2250 4219 1831 4219 
Q 1534 4219 1204 4116 
Q 875 4013 500 3803 
L 500 4441 
Q 881 4594 1212 4672 
Q 1544 4750 1819 4750 
Q 2544 4750 2975 4387 
Q 3406 4025 3406 3419 
Q 3406 3131 3298 2873 
Q 3191 2616 2906 2266 
Q 2828 2175 2409 1742 
Q 1991 1309 1228 531 
z
" transform="scale(0.015625)"/>
        <path id="DejaVuSans-30" d="M 2034 4250 
Q 1547 4250 1301 3770 
Q 1056 3291 1056 2328 
Q 1056 1369 1301 889 
Q 1547 409 2034 409 
Q 2525 409 2770 889 
Q 3016 1369 3016 2328 
Q 3016 3291 2770 3770 
Q 2525 4250 2034 4250 
z
M 2034 4750 
Q 2819 4750 3233 4129 
Q 3647 3509 3647 2328 
Q 3647 1150 3233 529 
Q 2819 -91 2034 -91 
Q 1250 -91 836 529 
Q 422 1150 422 2328 
Q 422 3509 836 4129 
Q 1250 4750 2034 4750 
z
" transform="scale(0.015625)"/>
       </defs>
       <use xlink:href="#DejaVuSans-32"/>
       <use xlink:href="#DejaVuSans-30" x="63.623047"/>
       <use xlink:href="#DejaVuSans-30" x="127.246094"/>
       <use xlink:href="#DejaVuSans-30" x="190.869141"/>
      </g>
     </g>
    </g>
    <g id="xtick_2">
     <g id="line2d_2">
      <g>
       <use xlink:href="#m584d34ba6f" x="238.578595" y="534.04" style="stroke: #000000; stroke-width: 0.8"/>
      </g>
     </g>
     <g id="text_2">
      <!-- 2005 -->
      <g transform="translate(225.853595 548.638438) scale(0.1 -0.1)">
       <defs>
        <path id="DejaVuSans-35" d="M 691 4666 
L 3169 4666 
L 3169 4134 
L 1269 4134 
L 1269 2991 
Q 1406 3038 1543 3061 
Q 1681 3084 1819 3084 
Q 2600 3084 3056 2656 
Q 3513 2228 3513 1497 
Q 3513 744 3044 326 
Q 2575 -91 1722 -91 
Q 1428 -91 1123 -41 
Q 819 9 494 109 
L 494 744 
Q 775 591 1075 516 
Q 1375 441 1709 441 
Q 2250 441 2565 725 
Q 2881 1009 2881 1497 
Q 2881 1984 2565 2268 
Q 2250 2553 1709 2553 
Q 1456 2553 1204 2497 
Q 953 2441 691 2322 
L 691 4666 
z
" transform="scale(0.015625)"/>
       </defs>
       <use xlink:href="#DejaVuSans-32"/>
       <use xlink:href="#DejaVuSans-30" x="63.623047"/>
       <use xlink:href="#DejaVuSans-30" x="127.246094"/>
       <use xlink:href="#DejaVuSans-35" x="190.869141"/>
      </g>
     </g>
    </g>
    <g id="xtick_3">
     <g id="line2d_3">
      <g>
       <use xlink:href="#m584d34ba6f" x="392.438099" y="534.04" style="stroke: #000000; stroke-width: 0.8"/>
      </g>
     </g>
     <g id="text_3">
      <!-- 2010 -->
      <g transform="translate(379.713099 548.638438) scale(0.1 -0.1)">
       <defs>
        <path id="DejaVuSans-31" d="M 794 531 
L 1825 531 
L 1825 4091 
L 703 3866 
L 703 4441 
L 1819 4666 
L 2450 4666 
L 2450 531 
L 3481 531 
L 3481 0 
L 794 0 
L 794 531 
z
" transform="scale(0.015625)"/>
       </defs>
       <use xlink:href="#DejaVuSans-32"/>
       <use xlink:href="#DejaVuSans-30" x="63.623047"/>
       <use xlink:href="#DejaVuSans-31" x="127.246094"/>
       <use xlink:href="#DejaVuSans-30" x="190.869141"/>
      </g>
     </g>
    </g>
    <g id="xtick_4">
     <g id="line2d_4">
      <g>
       <use xlink:href="#m584d34ba6f" x="546.297603" y="534.04" style="stroke: #000000; stroke-width: 0.8"/>
      </g>
     </g>
     <g id="text_4">
      <!-- 2015 -->
      <g transform="translate(533.572603 548.638438) scale(0.1 -0.1)">
       <use xlink:href="#DejaVuSans-32"/>
       <use xlink:href="#DejaVuSans-30" x="63.623047"/>
       <use xlink:href="#DejaVuSans-31" x="127.246094"/>
       <use xlink:href="#DejaVuSans-35" x="190.869141"/>
      </g>
     </g>
    </g>
    <g id="xtick_5">
     <g id="line2d_5">
      <g>
       <use xlink:href="#m584d34ba6f" x="700.157107" y="534.04" style="stroke: #000000; stroke-width: 0.8"/>
      </g>
     </g>
     <g id="text_5">
      <!-- 2020 -->
      <g transform="translate(687.432107 548.638438) scale(0.1 -0.1)">
       <use xlink:href="#DejaVuSans-32"/>
       <use xlink:href="#DejaVuSans-30" x="63.623047"/>
       <use xlink:href="#DejaVuSans-32" x="127.246094"/>
       <use xlink:href="#DejaVuSans-30" x="190.869141"/>
      </g>
     </g>
    </g>
    <g id="text_6">
     <!-- Year -->
     <g transform="translate(412.6225 562.316562) scale(0.1 -0.1)">
      <defs>
       <path id="DejaVuSans-59" d="M -13 4666 
L 666 4666 
L 1959 2747 
L 3244 4666 
L 3922 4666 
L 2272 2222 
L 2272 0 
L 1638 0 
L 1638 2222 
L -13 4666 
z
" transform="scale(0.015625)"/>
       <path id="DejaVuSans-65" d="M 3597 1894 
L 3597 1613 
L 953 1613 
Q 991 1019 1311 708 
Q 1631 397 2203 397 
Q 2534 397 2845 478 
Q 3156 559 3463 722 
L 3463 178 
Q 3153 47 2828 -22 
Q 2503 -91 2169 -91 
Q 1331 -91 842 396 
Q 353 884 353 1716 
Q 353 2575 817 3079 
Q 1281 3584 2069 3584 
Q 2775 3584 3186 3129 
Q 3597 2675 3597 1894 
z
M 3022 2063 
Q 3016 2534 2758 2815 
Q 2500 3097 2075 3097 
Q 1594 3097 1305 2825 
Q 1016 2553 972 2059 
L 3022 2063 
z
" transform="scale(0.015625)"/>
       <path id="DejaVuSans-61" d="M 2194 1759 
Q 1497 1759 1228 1600 
Q 959 1441 959 1056 
Q 959 750 1161 570 
Q 1363 391 1709 391 
Q 2188 391 2477 730 
Q 2766 1069 2766 1631 
L 2766 1759 
L 2194 1759 
z
M 3341 1997 
L 3341 0 
L 2766 0 
L 2766 531 
Q 2569 213 2275 61 
Q 1981 -91 1556 -91 
Q 1019 -91 701 211 
Q 384 513 384 1019 
Q 384 1609 779 1909 
Q 1175 2209 1959 2209 
L 2766 2209 
L 2766 2266 
Q 2766 2663 2505 2880 
Q 2244 3097 1772 3097 
Q 1472 3097 1187 3025 
Q 903 2953 641 2809 
L 641 3341 
Q 956 3463 1253 3523 
Q 1550 3584 1831 3584 
Q 2591 3584 2966 3190 
Q 3341 2797 3341 1997 
z
" transform="scale(0.015625)"/>
       <path id="DejaVuSans-72" d="M 2631 2963 
Q 2534 3019 2420 3045 
Q 2306 3072 2169 3072 
Q 1681 3072 1420 2755 
Q 1159 2438 1159 1844 
L 1159 0 
L 581 0 
L 581 3500 
L 1159 3500 
L 1159 2956 
Q 1341 3275 1631 3429 
Q 1922 3584 2338 3584 
Q 2397 3584 2469 3576 
Q 2541 3569 2628 3553 
L 2631 2963 
z
" transform="scale(0.015625)"/>
      </defs>
      <use xlink:href="#DejaVuSans-59"/>
      <use xlink:href="#DejaVuSans-65" x="47.833984"/>
      <use xlink:href="#DejaVuSans-61" x="109.357422"/>
      <use xlink:href="#DejaVuSans-72" x="170.636719"/>
     </g>
    </g>
   </g>
   <g id="matplotlib.axis_2">
    <g id="ytick_1">
     <g id="line2d_6">
      <defs>
       <path id="mbf0c41ad92" d="M 0 0 
L -3.5 0 
" style="stroke: #000000; stroke-width: 0.8"/>
      </defs>
      <g>
       <use xlink:href="#mbf0c41ad92" x="50.87" y="510.987273" style="stroke: #000000; stroke-width: 0.8"/>
      </g>
     </g>
     <g id="text_7">
      <!-- 0 -->
      <g transform="translate(37.5075 514.786491) scale(0.1 -0.1)">
       <use xlink:href="#DejaVuSans-30"/>
      </g>
     </g>
    </g>
    <g id="ytick_2">
     <g id="line2d_7">
      <g>
       <use xlink:href="#mbf0c41ad92" x="50.87" y="403.698792" style="stroke: #000000; stroke-width: 0.8"/>
      </g>
     </g>
     <g id="text_8">
      <!-- 200 -->
      <g transform="translate(24.7825 407.49801) scale(0.1 -0.1)">
       <use xlink:href="#DejaVuSans-32"/>
       <use xlink:href="#DejaVuSans-30" x="63.623047"/>
       <use xlink:href="#DejaVuSans-30" x="127.246094"/>
      </g>
     </g>
    </g>
    <g id="ytick_3">
     <g id="line2d_8">
      <g>
       <use xlink:href="#mbf0c41ad92" x="50.87" y="296.41031" style="stroke: #000000; stroke-width: 0.8"/>
      </g>
     </g>
     <g id="text_9">
      <!-- 400 -->
      <g transform="translate(24.7825 300.209529) scale(0.1 -0.1)">
       <defs>
        <path id="DejaVuSans-34" d="M 2419 4116 
L 825 1625 
L 2419 1625 
L 2419 4116 
z
M 2253 4666 
L 3047 4666 
L 3047 1625 
L 3713 1625 
L 3713 1100 
L 3047 1100 
L 3047 0 
L 2419 0 
L 2419 1100 
L 313 1100 
L 313 1709 
L 2253 4666 
z
" transform="scale(0.015625)"/>
       </defs>
       <use xlink:href="#DejaVuSans-34"/>
       <use xlink:href="#DejaVuSans-30" x="63.623047"/>
       <use xlink:href="#DejaVuSans-30" x="127.246094"/>
      </g>
     </g>
    </g>
    <g id="ytick_4">
     <g id="line2d_9">
      <g>
       <use xlink:href="#mbf0c41ad92" x="50.87" y="189.121829" style="stroke: #000000; stroke-width: 0.8"/>
      </g>
     </g>
     <g id="text_10">
      <!-- 600 -->
      <g transform="translate(24.7825 192.921048) scale(0.1 -0.1)">
       <defs>
        <path id="DejaVuSans-36" d="M 2113 2584 
Q 1688 2584 1439 2293 
Q 1191 2003 1191 1497 
Q 1191 994 1439 701 
Q 1688 409 2113 409 
Q 2538 409 2786 701 
Q 3034 994 3034 1497 
Q 3034 2003 2786 2293 
Q 2538 2584 2113 2584 
z
M 3366 4563 
L 3366 3988 
Q 3128 4100 2886 4159 
Q 2644 4219 2406 4219 
Q 1781 4219 1451 3797 
Q 1122 3375 1075 2522 
Q 1259 2794 1537 2939 
Q 1816 3084 2150 3084 
Q 2853 3084 3261 2657 
Q 3669 2231 3669 1497 
Q 3669 778 3244 343 
Q 2819 -91 2113 -91 
Q 1303 -91 875 529 
Q 447 1150 447 2328 
Q 447 3434 972 4092 
Q 1497 4750 2381 4750 
Q 2619 4750 2861 4703 
Q 3103 4656 3366 4563 
z
" transform="scale(0.015625)"/>
       </defs>
       <use xlink:href="#DejaVuSans-36"/>
       <use xlink:href="#DejaVuSans-30" x="63.623047"/>
       <use xlink:href="#DejaVuSans-30" x="127.246094"/>
      </g>
     </g>
    </g>
    <g id="ytick_5">
     <g id="line2d_10">
      <g>
       <use xlink:href="#mbf0c41ad92" x="50.87" y="81.833348" style="stroke: #000000; stroke-width: 0.8"/>
      </g>
     </g>
     <g id="text_11">
      <!-- 800 -->
      <g transform="translate(24.7825 85.632567) scale(0.1 -0.1)">
       <defs>
        <path id="DejaVuSans-38" d="M 2034 2216 
Q 1584 2216 1326 1975 
Q 1069 1734 1069 1313 
Q 1069 891 1326 650 
Q 1584 409 2034 409 
Q 2484 409 2743 651 
Q 3003 894 3003 1313 
Q 3003 1734 2745 1975 
Q 2488 2216 2034 2216 
z
M 1403 2484 
Q 997 2584 770 2862 
Q 544 3141 544 3541 
Q 544 4100 942 4425 
Q 1341 4750 2034 4750 
Q 2731 4750 3128 4425 
Q 3525 4100 3525 3541 
Q 3525 3141 3298 2862 
Q 3072 2584 2669 2484 
Q 3125 2378 3379 2068 
Q 3634 1759 3634 1313 
Q 3634 634 3220 271 
Q 2806 -91 2034 -91 
Q 1263 -91 848 271 
Q 434 634 434 1313 
Q 434 1759 690 2068 
Q 947 2378 1403 2484 
z
M 1172 3481 
Q 1172 3119 1398 2916 
Q 1625 2713 2034 2713 
Q 2441 2713 2670 2916 
Q 2900 3119 2900 3481 
Q 2900 3844 2670 4047 
Q 2441 4250 2034 4250 
Q 1625 4250 1398 4047 
Q 1172 3844 1172 3481 
z
" transform="scale(0.015625)"/>
       </defs>
       <use xlink:href="#DejaVuSans-38"/>
       <use xlink:href="#DejaVuSans-30" x="63.623047"/>
       <use xlink:href="#DejaVuSans-30" x="127.246094"/>
      </g>
     </g>
    </g>
    <g id="text_12">
     <!-- Solar Energy Per Capita -->
     <g transform="translate(18.702812 339.584219) rotate(-90) scale(0.1 -0.1)">
      <defs>
       <path id="DejaVuSans-53" d="M 3425 4513 
L 3425 3897 
Q 3066 4069 2747 4153 
Q 2428 4238 2131 4238 
Q 1616 4238 1336 4038 
Q 1056 3838 1056 3469 
Q 1056 3159 1242 3001 
Q 1428 2844 1947 2747 
L 2328 2669 
Q 3034 2534 3370 2195 
Q 3706 1856 3706 1288 
Q 3706 609 3251 259 
Q 2797 -91 1919 -91 
Q 1588 -91 1214 -16 
Q 841 59 441 206 
L 441 856 
Q 825 641 1194 531 
Q 1563 422 1919 422 
Q 2459 422 2753 634 
Q 3047 847 3047 1241 
Q 3047 1584 2836 1778 
Q 2625 1972 2144 2069 
L 1759 2144 
Q 1053 2284 737 2584 
Q 422 2884 422 3419 
Q 422 4038 858 4394 
Q 1294 4750 2059 4750 
Q 2388 4750 2728 4690 
Q 3069 4631 3425 4513 
z
" transform="scale(0.015625)"/>
       <path id="DejaVuSans-6f" d="M 1959 3097 
Q 1497 3097 1228 2736 
Q 959 2375 959 1747 
Q 959 1119 1226 758 
Q 1494 397 1959 397 
Q 2419 397 2687 759 
Q 2956 1122 2956 1747 
Q 2956 2369 2687 2733 
Q 2419 3097 1959 3097 
z
M 1959 3584 
Q 2709 3584 3137 3096 
Q 3566 2609 3566 1747 
Q 3566 888 3137 398 
Q 2709 -91 1959 -91 
Q 1206 -91 779 398 
Q 353 888 353 1747 
Q 353 2609 779 3096 
Q 1206 3584 1959 3584 
z
" transform="scale(0.015625)"/>
       <path id="DejaVuSans-6c" d="M 603 4863 
L 1178 4863 
L 1178 0 
L 603 0 
L 603 4863 
z
" transform="scale(0.015625)"/>
       <path id="DejaVuSans-20" transform="scale(0.015625)"/>
       <path id="DejaVuSans-45" d="M 628 4666 
L 3578 4666 
L 3578 4134 
L 1259 4134 
L 1259 2753 
L 3481 2753 
L 3481 2222 
L 1259 2222 
L 1259 531 
L 3634 531 
L 3634 0 
L 628 0 
L 628 4666 
z
" transform="scale(0.015625)"/>
       <path id="DejaVuSans-6e" d="M 3513 2113 
L 3513 0 
L 2938 0 
L 2938 2094 
Q 2938 2591 2744 2837 
Q 2550 3084 2163 3084 
Q 1697 3084 1428 2787 
Q 1159 2491 1159 1978 
L 1159 0 
L 581 0 
L 581 3500 
L 1159 3500 
L 1159 2956 
Q 1366 3272 1645 3428 
Q 1925 3584 2291 3584 
Q 2894 3584 3203 3211 
Q 3513 2838 3513 2113 
z
" transform="scale(0.015625)"/>
       <path id="DejaVuSans-67" d="M 2906 1791 
Q 2906 2416 2648 2759 
Q 2391 3103 1925 3103 
Q 1463 3103 1205 2759 
Q 947 2416 947 1791 
Q 947 1169 1205 825 
Q 1463 481 1925 481 
Q 2391 481 2648 825 
Q 2906 1169 2906 1791 
z
M 3481 434 
Q 3481 -459 3084 -895 
Q 2688 -1331 1869 -1331 
Q 1566 -1331 1297 -1286 
Q 1028 -1241 775 -1147 
L 775 -588 
Q 1028 -725 1275 -790 
Q 1522 -856 1778 -856 
Q 2344 -856 2625 -561 
Q 2906 -266 2906 331 
L 2906 616 
Q 2728 306 2450 153 
Q 2172 0 1784 0 
Q 1141 0 747 490 
Q 353 981 353 1791 
Q 353 2603 747 3093 
Q 1141 3584 1784 3584 
Q 2172 3584 2450 3431 
Q 2728 3278 2906 2969 
L 2906 3500 
L 3481 3500 
L 3481 434 
z
" transform="scale(0.015625)"/>
       <path id="DejaVuSans-79" d="M 2059 -325 
Q 1816 -950 1584 -1140 
Q 1353 -1331 966 -1331 
L 506 -1331 
L 506 -850 
L 844 -850 
Q 1081 -850 1212 -737 
Q 1344 -625 1503 -206 
L 1606 56 
L 191 3500 
L 800 3500 
L 1894 763 
L 2988 3500 
L 3597 3500 
L 2059 -325 
z
" transform="scale(0.015625)"/>
       <path id="DejaVuSans-50" d="M 1259 4147 
L 1259 2394 
L 2053 2394 
Q 2494 2394 2734 2622 
Q 2975 2850 2975 3272 
Q 2975 3691 2734 3919 
Q 2494 4147 2053 4147 
L 1259 4147 
z
M 628 4666 
L 2053 4666 
Q 2838 4666 3239 4311 
Q 3641 3956 3641 3272 
Q 3641 2581 3239 2228 
Q 2838 1875 2053 1875 
L 1259 1875 
L 1259 0 
L 628 0 
L 628 4666 
z
" transform="scale(0.015625)"/>
       <path id="DejaVuSans-43" d="M 4122 4306 
L 4122 3641 
Q 3803 3938 3442 4084 
Q 3081 4231 2675 4231 
Q 1875 4231 1450 3742 
Q 1025 3253 1025 2328 
Q 1025 1406 1450 917 
Q 1875 428 2675 428 
Q 3081 428 3442 575 
Q 3803 722 4122 1019 
L 4122 359 
Q 3791 134 3420 21 
Q 3050 -91 2638 -91 
Q 1578 -91 968 557 
Q 359 1206 359 2328 
Q 359 3453 968 4101 
Q 1578 4750 2638 4750 
Q 3056 4750 3426 4639 
Q 3797 4528 4122 4306 
z
" transform="scale(0.015625)"/>
       <path id="DejaVuSans-70" d="M 1159 525 
L 1159 -1331 
L 581 -1331 
L 581 3500 
L 1159 3500 
L 1159 2969 
Q 1341 3281 1617 3432 
Q 1894 3584 2278 3584 
Q 2916 3584 3314 3078 
Q 3713 2572 3713 1747 
Q 3713 922 3314 415 
Q 2916 -91 2278 -91 
Q 1894 -91 1617 61 
Q 1341 213 1159 525 
z
M 3116 1747 
Q 3116 2381 2855 2742 
Q 2594 3103 2138 3103 
Q 1681 3103 1420 2742 
Q 1159 2381 1159 1747 
Q 1159 1113 1420 752 
Q 1681 391 2138 391 
Q 2594 391 2855 752 
Q 3116 1113 3116 1747 
z
" transform="scale(0.015625)"/>
       <path id="DejaVuSans-69" d="M 603 3500 
L 1178 3500 
L 1178 0 
L 603 0 
L 603 3500 
z
M 603 4863 
L 1178 4863 
L 1178 4134 
L 603 4134 
L 603 4863 
z
" transform="scale(0.015625)"/>
       <path id="DejaVuSans-74" d="M 1172 4494 
L 1172 3500 
L 2356 3500 
L 2356 3053 
L 1172 3053 
L 1172 1153 
Q 1172 725 1289 603 
Q 1406 481 1766 481 
L 2356 481 
L 2356 0 
L 1766 0 
Q 1100 0 847 248 
Q 594 497 594 1153 
L 594 3053 
L 172 3053 
L 172 3500 
L 594 3500 
L 594 4494 
L 1172 4494 
z
" transform="scale(0.015625)"/>
      </defs>
      <use xlink:href="#DejaVuSans-53"/>
      <use xlink:href="#DejaVuSans-6f" x="63.476562"/>
      <use xlink:href="#DejaVuSans-6c" x="124.658203"/>
      <use xlink:href="#DejaVuSans-61" x="152.441406"/>
      <use xlink:href="#DejaVuSans-72" x="213.720703"/>
      <use xlink:href="#DejaVuSans-20" x="254.833984"/>
      <use xlink:href="#DejaVuSans-45" x="286.621094"/>
      <use xlink:href="#DejaVuSans-6e" x="349.804688"/>
      <use xlink:href="#DejaVuSans-65" x="413.183594"/>
      <use xlink:href="#DejaVuSans-72" x="474.707031"/>
      <use xlink:href="#DejaVuSans-67" x="514.070312"/>
      <use xlink:href="#DejaVuSans-79" x="577.546875"/>
      <use xlink:href="#DejaVuSans-20" x="636.726562"/>
      <use xlink:href="#DejaVuSans-50" x="668.513672"/>
      <use xlink:href="#DejaVuSans-65" x="725.191406"/>
      <use xlink:href="#DejaVuSans-72" x="786.714844"/>
      <use xlink:href="#DejaVuSans-20" x="827.828125"/>
      <use xlink:href="#DejaVuSans-43" x="859.615234"/>
      <use xlink:href="#DejaVuSans-61" x="929.439453"/>
      <use xlink:href="#DejaVuSans-70" x="990.71875"/>
      <use xlink:href="#DejaVuSans-69" x="1054.195312"/>
      <use xlink:href="#DejaVuSans-74" x="1081.978516"/>
      <use xlink:href="#DejaVuSans-61" x="1121.1875"/>
     </g>
    </g>
   </g>
   <g id="line2d_11">
    <path d="M 84.719091 510.987273 
L 115.490992 510.987273 
L 146.262893 510.987273 
L 177.034793 510.987273 
L 207.806694 510.987273 
L 238.578595 510.987273 
L 269.350496 510.987273 
L 300.122397 510.987273 
L 330.894298 510.987273 
L 361.666198 510.987273 
L 392.438099 510.987273 
L 423.21 510.987273 
L 453.981901 510.987273 
L 484.753802 510.987273 
L 515.525702 510.987273 
L 546.297603 510.987273 
L 577.069504 510.987273 
L 607.841405 510.987273 
L 638.613306 510.987273 
L 669.385207 510.987273 
L 700.157107 510.987273 
L 730.929008 510.987273 
L 761.700909 510.987273 
" clip-path="url(#p7e0b7be198)" style="fill: none; stroke: #1f77b4; stroke-width: 1.5; stroke-linecap: square"/>
    <defs>
     <path id="m1653c1a78e" d="M 0 3 
C 0.795609 3 1.55874 2.683901 2.12132 2.12132 
C 2.683901 1.55874 3 0.795609 3 0 
C 3 -0.795609 2.683901 -1.55874 2.12132 -2.12132 
C 1.55874 -2.683901 0.795609 -3 0 -3 
C -0.795609 -3 -1.55874 -2.683901 -2.12132 -2.12132 
C -2.683901 -1.55874 -3 -0.795609 -3 0 
C -3 0.795609 -2.683901 1.55874 -2.12132 2.12132 
C -1.55874 2.683901 -0.795609 3 0 3 
z
" style="stroke: #ffffff; stroke-width: 0.75"/>
    </defs>
    <g clip-path="url(#p7e0b7be198)">
     <use xlink:href="#m1653c1a78e" x="84.719091" y="510.987273" style="fill: #1f77b4; stroke: #ffffff; stroke-width: 0.75"/>
     <use xlink:href="#m1653c1a78e" x="115.490992" y="510.987273" style="fill: #1f77b4; stroke: #ffffff; stroke-width: 0.75"/>
     <use xlink:href="#m1653c1a78e" x="146.262893" y="510.987273" style="fill: #1f77b4; stroke: #ffffff; stroke-width: 0.75"/>
     <use xlink:href="#m1653c1a78e" x="177.034793" y="510.987273" style="fill: #1f77b4; stroke: #ffffff; stroke-width: 0.75"/>
     <use xlink:href="#m1653c1a78e" x="207.806694" y="510.987273" style="fill: #1f77b4; stroke: #ffffff; stroke-width: 0.75"/>
     <use xlink:href="#m1653c1a78e" x="238.578595" y="510.987273" style="fill: #1f77b4; stroke: #ffffff; stroke-width: 0.75"/>
     <use xlink:href="#m1653c1a78e" x="269.350496" y="510.987273" style="fill: #1f77b4; stroke: #ffffff; stroke-width: 0.75"/>
     <use xlink:href="#m1653c1a78e" x="300.122397" y="510.987273" style="fill: #1f77b4; stroke: #ffffff; stroke-width: 0.75"/>
     <use xlink:href="#m1653c1a78e" x="330.894298" y="510.987273" style="fill: #1f77b4; stroke: #ffffff; stroke-width: 0.75"/>
     <use xlink:href="#m1653c1a78e" x="361.666198" y="510.987273" style="fill: #1f77b4; stroke: #ffffff; stroke-width: 0.75"/>
     <use xlink:href="#m1653c1a78e" x="392.438099" y="510.987273" style="fill: #1f77b4; stroke: #ffffff; stroke-width: 0.75"/>
     <use xlink:href="#m1653c1a78e" x="423.21" y="510.987273" style="fill: #1f77b4; stroke: #ffffff; stroke-width: 0.75"/>
     <use xlink:href="#m1653c1a78e" x="453.981901" y="510.987273" style="fill: #1f77b4; stroke: #ffffff; stroke-width: 0.75"/>
     <use xlink:href="#m1653c1a78e" x="484.753802" y="510.987273" style="fill: #1f77b4; stroke: #ffffff; stroke-width: 0.75"/>
     <use xlink:href="#m1653c1a78e" x="515.525702" y="510.987273" style="fill: #1f77b4; stroke: #ffffff; stroke-width: 0.75"/>
     <use xlink:href="#m1653c1a78e" x="546.297603" y="510.987273" style="fill: #1f77b4; stroke: #ffffff; stroke-width: 0.75"/>
     <use xlink:href="#m1653c1a78e" x="577.069504" y="510.987273" style="fill: #1f77b4; stroke: #ffffff; stroke-width: 0.75"/>
     <use xlink:href="#m1653c1a78e" x="607.841405" y="510.987273" style="fill: #1f77b4; stroke: #ffffff; stroke-width: 0.75"/>
     <use xlink:href="#m1653c1a78e" x="638.613306" y="510.987273" style="fill: #1f77b4; stroke: #ffffff; stroke-width: 0.75"/>
     <use xlink:href="#m1653c1a78e" x="669.385207" y="510.987273" style="fill: #1f77b4; stroke: #ffffff; stroke-width: 0.75"/>
     <use xlink:href="#m1653c1a78e" x="700.157107" y="510.987273" style="fill: #1f77b4; stroke: #ffffff; stroke-width: 0.75"/>
     <use xlink:href="#m1653c1a78e" x="730.929008" y="510.987273" style="fill: #1f77b4; stroke: #ffffff; stroke-width: 0.75"/>
     <use xlink:href="#m1653c1a78e" x="761.700909" y="510.987273" style="fill: #1f77b4; stroke: #ffffff; stroke-width: 0.75"/>
    </g>
   </g>
   <g id="line2d_12">
    <path d="M 84.719091 510.987273 
L 115.490992 510.987273 
L 146.262893 510.987273 
L 177.034793 510.987273 
L 207.806694 510.987273 
L 238.578595 510.987273 
L 269.350496 510.987273 
L 300.122397 510.987273 
L 330.894298 510.987273 
L 361.666198 510.956159 
L 392.438099 510.946503 
L 423.21 510.940602 
L 453.981901 510.170807 
L 484.753802 507.158683 
L 515.525702 499.055184 
L 546.297603 491.544454 
L 577.069504 488.703455 
L 607.841405 484.188219 
L 638.613306 485.436521 
L 669.385207 482.533295 
L 700.157107 478.146269 
L 730.929008 459.50865 
L 761.700909 454.962837 
" clip-path="url(#p7e0b7be198)" style="fill: none; stroke: #ff7f0e; stroke-width: 1.5; stroke-linecap: square"/>
    <defs>
     <path id="m030e752118" d="M 0 3 
C 0.795609 3 1.55874 2.683901 2.12132 2.12132 
C 2.683901 1.55874 3 0.795609 3 0 
C 3 -0.795609 2.683901 -1.55874 2.12132 -2.12132 
C 1.55874 -2.683901 0.795609 -3 0 -3 
C -0.795609 -3 -1.55874 -2.683901 -2.12132 -2.12132 
C -2.683901 -1.55874 -3 -0.795609 -3 0 
C -3 0.795609 -2.683901 1.55874 -2.12132 2.12132 
C -1.55874 2.683901 -0.795609 3 0 3 
z
" style="stroke: #ffffff; stroke-width: 0.75"/>
    </defs>
    <g clip-path="url(#p7e0b7be198)">
     <use xlink:href="#m030e752118" x="84.719091" y="510.987273" style="fill: #ff7f0e; stroke: #ffffff; stroke-width: 0.75"/>
     <use xlink:href="#m030e752118" x="115.490992" y="510.987273" style="fill: #ff7f0e; stroke: #ffffff; stroke-width: 0.75"/>
     <use xlink:href="#m030e752118" x="146.262893" y="510.987273" style="fill: #ff7f0e; stroke: #ffffff; stroke-width: 0.75"/>
     <use xlink:href="#m030e752118" x="177.034793" y="510.987273" style="fill: #ff7f0e; stroke: #ffffff; stroke-width: 0.75"/>
     <use xlink:href="#m030e752118" x="207.806694" y="510.987273" style="fill: #ff7f0e; stroke: #ffffff; stroke-width: 0.75"/>
     <use xlink:href="#m030e752118" x="238.578595" y="510.987273" style="fill: #ff7f0e; stroke: #ffffff; stroke-width: 0.75"/>
     <use xlink:href="#m030e752118" x="269.350496" y="510.987273" style="fill: #ff7f0e; stroke: #ffffff; stroke-width: 0.75"/>
     <use xlink:href="#m030e752118" x="300.122397" y="510.987273" style="fill: #ff7f0e; stroke: #ffffff; stroke-width: 0.75"/>
     <use xlink:href="#m030e752118" x="330.894298" y="510.987273" style="fill: #ff7f0e; stroke: #ffffff; stroke-width: 0.75"/>
     <use xlink:href="#m030e752118" x="361.666198" y="510.956159" style="fill: #ff7f0e; stroke: #ffffff; stroke-width: 0.75"/>
     <use xlink:href="#m030e752118" x="392.438099" y="510.946503" style="fill: #ff7f0e; stroke: #ffffff; stroke-width: 0.75"/>
     <use xlink:href="#m030e752118" x="423.21" y="510.940602" style="fill: #ff7f0e; stroke: #ffffff; stroke-width: 0.75"/>
     <use xlink:href="#m030e752118" x="453.981901" y="510.170807" style="fill: #ff7f0e; stroke: #ffffff; stroke-width: 0.75"/>
     <use xlink:href="#m030e752118" x="484.753802" y="507.158683" style="fill: #ff7f0e; stroke: #ffffff; stroke-width: 0.75"/>
     <use xlink:href="#m030e752118" x="515.525702" y="499.055184" style="fill: #ff7f0e; stroke: #ffffff; stroke-width: 0.75"/>
     <use xlink:href="#m030e752118" x="546.297603" y="491.544454" style="fill: #ff7f0e; stroke: #ffffff; stroke-width: 0.75"/>
     <use xlink:href="#m030e752118" x="577.069504" y="488.703455" style="fill: #ff7f0e; stroke: #ffffff; stroke-width: 0.75"/>
     <use xlink:href="#m030e752118" x="607.841405" y="484.188219" style="fill: #ff7f0e; stroke: #ffffff; stroke-width: 0.75"/>
     <use xlink:href="#m030e752118" x="638.613306" y="485.436521" style="fill: #ff7f0e; stroke: #ffffff; stroke-width: 0.75"/>
     <use xlink:href="#m030e752118" x="669.385207" y="482.533295" style="fill: #ff7f0e; stroke: #ffffff; stroke-width: 0.75"/>
     <use xlink:href="#m030e752118" x="700.157107" y="478.146269" style="fill: #ff7f0e; stroke: #ffffff; stroke-width: 0.75"/>
     <use xlink:href="#m030e752118" x="730.929008" y="459.50865" style="fill: #ff7f0e; stroke: #ffffff; stroke-width: 0.75"/>
     <use xlink:href="#m030e752118" x="761.700909" y="454.962837" style="fill: #ff7f0e; stroke: #ffffff; stroke-width: 0.75"/>
    </g>
   </g>
   <g id="line2d_13">
    <path d="M 84.719091 510.631075 
L 115.490992 510.634294 
L 146.262893 510.614445 
L 177.034793 510.548999 
L 207.806694 510.462632 
L 238.578595 510.376801 
L 269.350496 510.368218 
L 300.122397 510.296871 
L 330.894298 510.268976 
L 361.666198 509.970714 
L 392.438099 509.334494 
L 423.21 506.971465 
L 453.981901 483.711859 
L 484.753802 376.479167 
L 515.525702 357.828138 
L 546.297603 357.242879 
L 577.069504 323.821981 
L 607.841405 323.992569 
L 638.613306 276.44446 
L 669.385207 275.974 
L 700.157107 225.491551 
L 730.929008 197.140034 
L 761.700909 49.932727 
" clip-path="url(#p7e0b7be198)" style="fill: none; stroke: #2ca02c; stroke-width: 1.5; stroke-linecap: square"/>
    <defs>
     <path id="mc10434a966" d="M 0 3 
C 0.795609 3 1.55874 2.683901 2.12132 2.12132 
C 2.683901 1.55874 3 0.795609 3 0 
C 3 -0.795609 2.683901 -1.55874 2.12132 -2.12132 
C 1.55874 -2.683901 0.795609 -3 0 -3 
C -0.795609 -3 -1.55874 -2.683901 -2.12132 -2.12132 
C -2.683901 -1.55874 -3 -0.795609 -3 0 
C -3 0.795609 -2.683901 1.55874 -2.12132 2.12132 
C -1.55874 2.683901 -0.795609 3 0 3 
z
" style="stroke: #ffffff; stroke-width: 0.75"/>
    </defs>
    <g clip-path="url(#p7e0b7be198)">
     <use xlink:href="#mc10434a966" x="84.719091" y="510.631075" style="fill: #2ca02c; stroke: #ffffff; stroke-width: 0.75"/>
     <use xlink:href="#mc10434a966" x="115.490992" y="510.634294" style="fill: #2ca02c; stroke: #ffffff; stroke-width: 0.75"/>
     <use xlink:href="#mc10434a966" x="146.262893" y="510.614445" style="fill: #2ca02c; stroke: #ffffff; stroke-width: 0.75"/>
     <use xlink:href="#mc10434a966" x="177.034793" y="510.548999" style="fill: #2ca02c; stroke: #ffffff; stroke-width: 0.75"/>
     <use xlink:href="#mc10434a966" x="207.806694" y="510.462632" style="fill: #2ca02c; stroke: #ffffff; stroke-width: 0.75"/>
     <use xlink:href="#mc10434a966" x="238.578595" y="510.376801" style="fill: #2ca02c; stroke: #ffffff; stroke-width: 0.75"/>
     <use xlink:href="#mc10434a966" x="269.350496" y="510.368218" style="fill: #2ca02c; stroke: #ffffff; stroke-width: 0.75"/>
     <use xlink:href="#mc10434a966" x="300.122397" y="510.296871" style="fill: #2ca02c; stroke: #ffffff; stroke-width: 0.75"/>
     <use xlink:href="#mc10434a966" x="330.894298" y="510.268976" style="fill: #2ca02c; stroke: #ffffff; stroke-width: 0.75"/>
     <use xlink:href="#mc10434a966" x="361.666198" y="509.970714" style="fill: #2ca02c; stroke: #ffffff; stroke-width: 0.75"/>
     <use xlink:href="#mc10434a966" x="392.438099" y="509.334494" style="fill: #2ca02c; stroke: #ffffff; stroke-width: 0.75"/>
     <use xlink:href="#mc10434a966" x="423.21" y="506.971465" style="fill: #2ca02c; stroke: #ffffff; stroke-width: 0.75"/>
     <use xlink:href="#mc10434a966" x="453.981901" y="483.711859" style="fill: #2ca02c; stroke: #ffffff; stroke-width: 0.75"/>
     <use xlink:href="#mc10434a966" x="484.753802" y="376.479167" style="fill: #2ca02c; stroke: #ffffff; stroke-width: 0.75"/>
     <use xlink:href="#mc10434a966" x="515.525702" y="357.828138" style="fill: #2ca02c; stroke: #ffffff; stroke-width: 0.75"/>
     <use xlink:href="#mc10434a966" x="546.297603" y="357.242879" style="fill: #2ca02c; stroke: #ffffff; stroke-width: 0.75"/>
     <use xlink:href="#mc10434a966" x="577.069504" y="323.821981" style="fill: #2ca02c; stroke: #ffffff; stroke-width: 0.75"/>
     <use xlink:href="#mc10434a966" x="607.841405" y="323.992569" style="fill: #2ca02c; stroke: #ffffff; stroke-width: 0.75"/>
     <use xlink:href="#mc10434a966" x="638.613306" y="276.44446" style="fill: #2ca02c; stroke: #ffffff; stroke-width: 0.75"/>
     <use xlink:href="#mc10434a966" x="669.385207" y="275.974" style="fill: #2ca02c; stroke: #ffffff; stroke-width: 0.75"/>
     <use xlink:href="#mc10434a966" x="700.157107" y="225.491551" style="fill: #2ca02c; stroke: #ffffff; stroke-width: 0.75"/>
     <use xlink:href="#mc10434a966" x="730.929008" y="197.140034" style="fill: #2ca02c; stroke: #ffffff; stroke-width: 0.75"/>
     <use xlink:href="#mc10434a966" x="761.700909" y="49.932727" style="fill: #2ca02c; stroke: #ffffff; stroke-width: 0.75"/>
    </g>
   </g>
   <g id="line2d_14">
    <path d="M 84.719091 510.504475 
L 115.490992 510.466387 
L 146.262893 510.425618 
L 177.034793 510.361244 
L 207.806694 510.289361 
L 238.578595 510.216941 
L 269.350496 510.007729 
L 300.122397 509.894003 
L 330.894298 509.868254 
L 361.666198 509.775986 
L 392.438099 509.67138 
L 423.21 509.531368 
L 453.981901 509.425152 
L 484.753802 509.252954 
L 515.525702 508.924652 
L 546.297603 508.005189 
L 577.069504 505.220517 
L 607.841405 498.413599 
L 638.613306 487.770045 
L 669.385207 473.294684 
L 700.157107 455.32279 
L 730.929008 435.548986 
L 761.700909 431.527814 
" clip-path="url(#p7e0b7be198)" style="fill: none; stroke: #d62728; stroke-width: 1.5; stroke-linecap: square"/>
    <defs>
     <path id="md4f6cec915" d="M 0 3 
C 0.795609 3 1.55874 2.683901 2.12132 2.12132 
C 2.683901 1.55874 3 0.795609 3 0 
C 3 -0.795609 2.683901 -1.55874 2.12132 -2.12132 
C 1.55874 -2.683901 0.795609 -3 0 -3 
C -0.795609 -3 -1.55874 -2.683901 -2.12132 -2.12132 
C -2.683901 -1.55874 -3 -0.795609 -3 0 
C -3 0.795609 -2.683901 1.55874 -2.12132 2.12132 
C -1.55874 2.683901 -0.795609 3 0 3 
z
" style="stroke: #ffffff; stroke-width: 0.75"/>
    </defs>
    <g clip-path="url(#p7e0b7be198)">
     <use xlink:href="#md4f6cec915" x="84.719091" y="510.504475" style="fill: #d62728; stroke: #ffffff; stroke-width: 0.75"/>
     <use xlink:href="#md4f6cec915" x="115.490992" y="510.466387" style="fill: #d62728; stroke: #ffffff; stroke-width: 0.75"/>
     <use xlink:href="#md4f6cec915" x="146.262893" y="510.425618" style="fill: #d62728; stroke: #ffffff; stroke-width: 0.75"/>
     <use xlink:href="#md4f6cec915" x="177.034793" y="510.361244" style="fill: #d62728; stroke: #ffffff; stroke-width: 0.75"/>
     <use xlink:href="#md4f6cec915" x="207.806694" y="510.289361" style="fill: #d62728; stroke: #ffffff; stroke-width: 0.75"/>
     <use xlink:href="#md4f6cec915" x="238.578595" y="510.216941" style="fill: #d62728; stroke: #ffffff; stroke-width: 0.75"/>
     <use xlink:href="#md4f6cec915" x="269.350496" y="510.007729" style="fill: #d62728; stroke: #ffffff; stroke-width: 0.75"/>
     <use xlink:href="#md4f6cec915" x="300.122397" y="509.894003" style="fill: #d62728; stroke: #ffffff; stroke-width: 0.75"/>
     <use xlink:href="#md4f6cec915" x="330.894298" y="509.868254" style="fill: #d62728; stroke: #ffffff; stroke-width: 0.75"/>
     <use xlink:href="#md4f6cec915" x="361.666198" y="509.775986" style="fill: #d62728; stroke: #ffffff; stroke-width: 0.75"/>
     <use xlink:href="#md4f6cec915" x="392.438099" y="509.67138" style="fill: #d62728; stroke: #ffffff; stroke-width: 0.75"/>
     <use xlink:href="#md4f6cec915" x="423.21" y="509.531368" style="fill: #d62728; stroke: #ffffff; stroke-width: 0.75"/>
     <use xlink:href="#md4f6cec915" x="453.981901" y="509.425152" style="fill: #d62728; stroke: #ffffff; stroke-width: 0.75"/>
     <use xlink:href="#md4f6cec915" x="484.753802" y="509.252954" style="fill: #d62728; stroke: #ffffff; stroke-width: 0.75"/>
     <use xlink:href="#md4f6cec915" x="515.525702" y="508.924652" style="fill: #d62728; stroke: #ffffff; stroke-width: 0.75"/>
     <use xlink:href="#md4f6cec915" x="546.297603" y="508.005189" style="fill: #d62728; stroke: #ffffff; stroke-width: 0.75"/>
     <use xlink:href="#md4f6cec915" x="577.069504" y="505.220517" style="fill: #d62728; stroke: #ffffff; stroke-width: 0.75"/>
     <use xlink:href="#md4f6cec915" x="607.841405" y="498.413599" style="fill: #d62728; stroke: #ffffff; stroke-width: 0.75"/>
     <use xlink:href="#md4f6cec915" x="638.613306" y="487.770045" style="fill: #d62728; stroke: #ffffff; stroke-width: 0.75"/>
     <use xlink:href="#md4f6cec915" x="669.385207" y="473.294684" style="fill: #d62728; stroke: #ffffff; stroke-width: 0.75"/>
     <use xlink:href="#md4f6cec915" x="700.157107" y="455.32279" style="fill: #d62728; stroke: #ffffff; stroke-width: 0.75"/>
     <use xlink:href="#md4f6cec915" x="730.929008" y="435.548986" style="fill: #d62728; stroke: #ffffff; stroke-width: 0.75"/>
     <use xlink:href="#md4f6cec915" x="761.700909" y="431.527814" style="fill: #d62728; stroke: #ffffff; stroke-width: 0.75"/>
    </g>
   </g>
   <g id="line2d_15">
    <path d="M 84.719091 510.987273 
L 115.490992 510.987273 
L 146.262893 510.987273 
L 177.034793 510.987273 
L 207.806694 510.987273 
L 238.578595 510.987273 
L 269.350496 510.987273 
L 300.122397 510.987273 
L 330.894298 510.987273 
L 361.666198 510.987273 
L 392.438099 510.987273 
L 423.21 510.987273 
L 453.981901 510.987273 
L 484.753802 510.987273 
L 515.525702 510.987273 
L 546.297603 510.987273 
L 577.069504 510.987273 
L 607.841405 510.987273 
L 638.613306 510.987273 
L 669.385207 510.987273 
L 700.157107 510.987273 
L 730.929008 510.987273 
L 761.700909 510.987273 
" clip-path="url(#p7e0b7be198)" style="fill: none; stroke: #9467bd; stroke-width: 1.5; stroke-linecap: square"/>
    <defs>
     <path id="m8f6bf3ed8f" d="M 0 3 
C 0.795609 3 1.55874 2.683901 2.12132 2.12132 
C 2.683901 1.55874 3 0.795609 3 0 
C 3 -0.795609 2.683901 -1.55874 2.12132 -2.12132 
C 1.55874 -2.683901 0.795609 -3 0 -3 
C -0.795609 -3 -1.55874 -2.683901 -2.12132 -2.12132 
C -2.683901 -1.55874 -3 -0.795609 -3 0 
C -3 0.795609 -2.683901 1.55874 -2.12132 2.12132 
C -1.55874 2.683901 -0.795609 3 0 3 
z
" style="stroke: #ffffff; stroke-width: 0.75"/>
    </defs>
    <g clip-path="url(#p7e0b7be198)">
     <use xlink:href="#m8f6bf3ed8f" x="84.719091" y="510.987273" style="fill: #9467bd; stroke: #ffffff; stroke-width: 0.75"/>
     <use xlink:href="#m8f6bf3ed8f" x="115.490992" y="510.987273" style="fill: #9467bd; stroke: #ffffff; stroke-width: 0.75"/>
     <use xlink:href="#m8f6bf3ed8f" x="146.262893" y="510.987273" style="fill: #9467bd; stroke: #ffffff; stroke-width: 0.75"/>
     <use xlink:href="#m8f6bf3ed8f" x="177.034793" y="510.987273" style="fill: #9467bd; stroke: #ffffff; stroke-width: 0.75"/>
     <use xlink:href="#m8f6bf3ed8f" x="207.806694" y="510.987273" style="fill: #9467bd; stroke: #ffffff; stroke-width: 0.75"/>
     <use xlink:href="#m8f6bf3ed8f" x="238.578595" y="510.987273" style="fill: #9467bd; stroke: #ffffff; stroke-width: 0.75"/>
     <use xlink:href="#m8f6bf3ed8f" x="269.350496" y="510.987273" style="fill: #9467bd; stroke: #ffffff; stroke-width: 0.75"/>
     <use xlink:href="#m8f6bf3ed8f" x="300.122397" y="510.987273" style="fill: #9467bd; stroke: #ffffff; stroke-width: 0.75"/>
     <use xlink:href="#m8f6bf3ed8f" x="330.894298" y="510.987273" style="fill: #9467bd; stroke: #ffffff; stroke-width: 0.75"/>
     <use xlink:href="#m8f6bf3ed8f" x="361.666198" y="510.987273" style="fill: #9467bd; stroke: #ffffff; stroke-width: 0.75"/>
     <use xlink:href="#m8f6bf3ed8f" x="392.438099" y="510.987273" style="fill: #9467bd; stroke: #ffffff; stroke-width: 0.75"/>
     <use xlink:href="#m8f6bf3ed8f" x="423.21" y="510.987273" style="fill: #9467bd; stroke: #ffffff; stroke-width: 0.75"/>
     <use xlink:href="#m8f6bf3ed8f" x="453.981901" y="510.987273" style="fill: #9467bd; stroke: #ffffff; stroke-width: 0.75"/>
     <use xlink:href="#m8f6bf3ed8f" x="484.753802" y="510.987273" style="fill: #9467bd; stroke: #ffffff; stroke-width: 0.75"/>
     <use xlink:href="#m8f6bf3ed8f" x="515.525702" y="510.987273" style="fill: #9467bd; stroke: #ffffff; stroke-width: 0.75"/>
     <use xlink:href="#m8f6bf3ed8f" x="546.297603" y="510.987273" style="fill: #9467bd; stroke: #ffffff; stroke-width: 0.75"/>
     <use xlink:href="#m8f6bf3ed8f" x="577.069504" y="510.987273" style="fill: #9467bd; stroke: #ffffff; stroke-width: 0.75"/>
     <use xlink:href="#m8f6bf3ed8f" x="607.841405" y="510.987273" style="fill: #9467bd; stroke: #ffffff; stroke-width: 0.75"/>
     <use xlink:href="#m8f6bf3ed8f" x="638.613306" y="510.987273" style="fill: #9467bd; stroke: #ffffff; stroke-width: 0.75"/>
     <use xlink:href="#m8f6bf3ed8f" x="669.385207" y="510.987273" style="fill: #9467bd; stroke: #ffffff; stroke-width: 0.75"/>
     <use xlink:href="#m8f6bf3ed8f" x="700.157107" y="510.987273" style="fill: #9467bd; stroke: #ffffff; stroke-width: 0.75"/>
     <use xlink:href="#m8f6bf3ed8f" x="730.929008" y="510.987273" style="fill: #9467bd; stroke: #ffffff; stroke-width: 0.75"/>
     <use xlink:href="#m8f6bf3ed8f" x="761.700909" y="510.987273" style="fill: #9467bd; stroke: #ffffff; stroke-width: 0.75"/>
    </g>
   </g>
   <g id="line2d_16">
    <path d="M 84.719091 510.987273 
L 115.490992 510.987273 
L 146.262893 510.987273 
L 177.034793 510.987273 
L 207.806694 510.987273 
L 238.578595 510.987273 
L 269.350496 510.987273 
L 300.122397 510.987273 
L 330.894298 510.987273 
L 361.666198 510.987273 
L 392.438099 510.987273 
L 423.21 510.987273 
L 453.981901 510.987273 
L 484.753802 510.987273 
L 515.525702 510.987273 
L 546.297603 510.987273 
L 577.069504 510.987273 
L 607.841405 510.987273 
L 638.613306 510.987273 
L 669.385207 510.987273 
L 700.157107 510.987273 
L 730.929008 510.987273 
L 761.700909 510.987273 
" clip-path="url(#p7e0b7be198)" style="fill: none; stroke: #8c564b; stroke-width: 1.5; stroke-linecap: square"/>
    <defs>
     <path id="ma866f1e004" d="M 0 3 
C 0.795609 3 1.55874 2.683901 2.12132 2.12132 
C 2.683901 1.55874 3 0.795609 3 0 
C 3 -0.795609 2.683901 -1.55874 2.12132 -2.12132 
C 1.55874 -2.683901 0.795609 -3 0 -3 
C -0.795609 -3 -1.55874 -2.683901 -2.12132 -2.12132 
C -2.683901 -1.55874 -3 -0.795609 -3 0 
C -3 0.795609 -2.683901 1.55874 -2.12132 2.12132 
C -1.55874 2.683901 -0.795609 3 0 3 
z
" style="stroke: #ffffff; stroke-width: 0.75"/>
    </defs>
    <g clip-path="url(#p7e0b7be198)">
     <use xlink:href="#ma866f1e004" x="84.719091" y="510.987273" style="fill: #8c564b; stroke: #ffffff; stroke-width: 0.75"/>
     <use xlink:href="#ma866f1e004" x="115.490992" y="510.987273" style="fill: #8c564b; stroke: #ffffff; stroke-width: 0.75"/>
     <use xlink:href="#ma866f1e004" x="146.262893" y="510.987273" style="fill: #8c564b; stroke: #ffffff; stroke-width: 0.75"/>
     <use xlink:href="#ma866f1e004" x="177.034793" y="510.987273" style="fill: #8c564b; stroke: #ffffff; stroke-width: 0.75"/>
     <use xlink:href="#ma866f1e004" x="207.806694" y="510.987273" style="fill: #8c564b; stroke: #ffffff; stroke-width: 0.75"/>
     <use xlink:href="#ma866f1e004" x="238.578595" y="510.987273" style="fill: #8c564b; stroke: #ffffff; stroke-width: 0.75"/>
     <use xlink:href="#ma866f1e004" x="269.350496" y="510.987273" style="fill: #8c564b; stroke: #ffffff; stroke-width: 0.75"/>
     <use xlink:href="#ma866f1e004" x="300.122397" y="510.987273" style="fill: #8c564b; stroke: #ffffff; stroke-width: 0.75"/>
     <use xlink:href="#ma866f1e004" x="330.894298" y="510.987273" style="fill: #8c564b; stroke: #ffffff; stroke-width: 0.75"/>
     <use xlink:href="#ma866f1e004" x="361.666198" y="510.987273" style="fill: #8c564b; stroke: #ffffff; stroke-width: 0.75"/>
     <use xlink:href="#ma866f1e004" x="392.438099" y="510.987273" style="fill: #8c564b; stroke: #ffffff; stroke-width: 0.75"/>
     <use xlink:href="#ma866f1e004" x="423.21" y="510.987273" style="fill: #8c564b; stroke: #ffffff; stroke-width: 0.75"/>
     <use xlink:href="#ma866f1e004" x="453.981901" y="510.987273" style="fill: #8c564b; stroke: #ffffff; stroke-width: 0.75"/>
     <use xlink:href="#ma866f1e004" x="484.753802" y="510.987273" style="fill: #8c564b; stroke: #ffffff; stroke-width: 0.75"/>
     <use xlink:href="#ma866f1e004" x="515.525702" y="510.987273" style="fill: #8c564b; stroke: #ffffff; stroke-width: 0.75"/>
     <use xlink:href="#ma866f1e004" x="546.297603" y="510.987273" style="fill: #8c564b; stroke: #ffffff; stroke-width: 0.75"/>
     <use xlink:href="#ma866f1e004" x="577.069504" y="510.987273" style="fill: #8c564b; stroke: #ffffff; stroke-width: 0.75"/>
     <use xlink:href="#ma866f1e004" x="607.841405" y="510.987273" style="fill: #8c564b; stroke: #ffffff; stroke-width: 0.75"/>
     <use xlink:href="#ma866f1e004" x="638.613306" y="510.987273" style="fill: #8c564b; stroke: #ffffff; stroke-width: 0.75"/>
     <use xlink:href="#ma866f1e004" x="669.385207" y="510.987273" style="fill: #8c564b; stroke: #ffffff; stroke-width: 0.75"/>
     <use xlink:href="#ma866f1e004" x="700.157107" y="510.987273" style="fill: #8c564b; stroke: #ffffff; stroke-width: 0.75"/>
     <use xlink:href="#ma866f1e004" x="730.929008" y="510.987273" style="fill: #8c564b; stroke: #ffffff; stroke-width: 0.75"/>
     <use xlink:href="#ma866f1e004" x="761.700909" y="510.987273" style="fill: #8c564b; stroke: #ffffff; stroke-width: 0.75"/>
    </g>
   </g>
   <g id="line2d_17">
    <path d="M 84.719091 510.987273 
L 115.490992 510.987273 
L 146.262893 510.987273 
L 177.034793 510.987273 
L 207.806694 510.987273 
L 238.578595 510.987273 
L 269.350496 510.987273 
L 300.122397 510.987273 
L 330.894298 510.987273 
L 361.666198 510.987273 
L 392.438099 510.969034 
L 423.21 510.159542 
L 453.981901 509.00029 
L 484.753802 504.692658 
L 515.525702 501.059333 
L 546.297603 495.499108 
L 577.069504 494.858595 
L 607.841405 494.932624 
L 638.613306 495.68418 
L 669.385207 495.451901 
L 700.157107 495.279703 
L 730.929008 494.107576 
L 761.700909 488.85205 
" clip-path="url(#p7e0b7be198)" style="fill: none; stroke: #e377c2; stroke-width: 1.5; stroke-linecap: square"/>
    <defs>
     <path id="ma08d5d10ed" d="M 0 3 
C 0.795609 3 1.55874 2.683901 2.12132 2.12132 
C 2.683901 1.55874 3 0.795609 3 0 
C 3 -0.795609 2.683901 -1.55874 2.12132 -2.12132 
C 1.55874 -2.683901 0.795609 -3 0 -3 
C -0.795609 -3 -1.55874 -2.683901 -2.12132 -2.12132 
C -2.683901 -1.55874 -3 -0.795609 -3 0 
C -3 0.795609 -2.683901 1.55874 -2.12132 2.12132 
C -1.55874 2.683901 -0.795609 3 0 3 
z
" style="stroke: #ffffff; stroke-width: 0.75"/>
    </defs>
    <g clip-path="url(#p7e0b7be198)">
     <use xlink:href="#ma08d5d10ed" x="84.719091" y="510.987273" style="fill: #e377c2; stroke: #ffffff; stroke-width: 0.75"/>
     <use xlink:href="#ma08d5d10ed" x="115.490992" y="510.987273" style="fill: #e377c2; stroke: #ffffff; stroke-width: 0.75"/>
     <use xlink:href="#ma08d5d10ed" x="146.262893" y="510.987273" style="fill: #e377c2; stroke: #ffffff; stroke-width: 0.75"/>
     <use xlink:href="#ma08d5d10ed" x="177.034793" y="510.987273" style="fill: #e377c2; stroke: #ffffff; stroke-width: 0.75"/>
     <use xlink:href="#ma08d5d10ed" x="207.806694" y="510.987273" style="fill: #e377c2; stroke: #ffffff; stroke-width: 0.75"/>
     <use xlink:href="#ma08d5d10ed" x="238.578595" y="510.987273" style="fill: #e377c2; stroke: #ffffff; stroke-width: 0.75"/>
     <use xlink:href="#ma08d5d10ed" x="269.350496" y="510.987273" style="fill: #e377c2; stroke: #ffffff; stroke-width: 0.75"/>
     <use xlink:href="#ma08d5d10ed" x="300.122397" y="510.987273" style="fill: #e377c2; stroke: #ffffff; stroke-width: 0.75"/>
     <use xlink:href="#ma08d5d10ed" x="330.894298" y="510.987273" style="fill: #e377c2; stroke: #ffffff; stroke-width: 0.75"/>
     <use xlink:href="#ma08d5d10ed" x="361.666198" y="510.987273" style="fill: #e377c2; stroke: #ffffff; stroke-width: 0.75"/>
     <use xlink:href="#ma08d5d10ed" x="392.438099" y="510.969034" style="fill: #e377c2; stroke: #ffffff; stroke-width: 0.75"/>
     <use xlink:href="#ma08d5d10ed" x="423.21" y="510.159542" style="fill: #e377c2; stroke: #ffffff; stroke-width: 0.75"/>
     <use xlink:href="#ma08d5d10ed" x="453.981901" y="509.00029" style="fill: #e377c2; stroke: #ffffff; stroke-width: 0.75"/>
     <use xlink:href="#ma08d5d10ed" x="484.753802" y="504.692658" style="fill: #e377c2; stroke: #ffffff; stroke-width: 0.75"/>
     <use xlink:href="#ma08d5d10ed" x="515.525702" y="501.059333" style="fill: #e377c2; stroke: #ffffff; stroke-width: 0.75"/>
     <use xlink:href="#ma08d5d10ed" x="546.297603" y="495.499108" style="fill: #e377c2; stroke: #ffffff; stroke-width: 0.75"/>
     <use xlink:href="#ma08d5d10ed" x="577.069504" y="494.858595" style="fill: #e377c2; stroke: #ffffff; stroke-width: 0.75"/>
     <use xlink:href="#ma08d5d10ed" x="607.841405" y="494.932624" style="fill: #e377c2; stroke: #ffffff; stroke-width: 0.75"/>
     <use xlink:href="#ma08d5d10ed" x="638.613306" y="495.68418" style="fill: #e377c2; stroke: #ffffff; stroke-width: 0.75"/>
     <use xlink:href="#ma08d5d10ed" x="669.385207" y="495.451901" style="fill: #e377c2; stroke: #ffffff; stroke-width: 0.75"/>
     <use xlink:href="#ma08d5d10ed" x="700.157107" y="495.279703" style="fill: #e377c2; stroke: #ffffff; stroke-width: 0.75"/>
     <use xlink:href="#ma08d5d10ed" x="730.929008" y="494.107576" style="fill: #e377c2; stroke: #ffffff; stroke-width: 0.75"/>
     <use xlink:href="#ma08d5d10ed" x="761.700909" y="488.85205" style="fill: #e377c2; stroke: #ffffff; stroke-width: 0.75"/>
    </g>
   </g>
   <g id="line2d_18">
    <path d="M 84.719091 509.115625 
L 115.490992 509.137083 
L 146.262893 509.158541 
L 177.034793 508.874226 
L 207.806694 508.900512 
L 238.578595 508.927334 
L 269.350496 508.662331 
L 300.122397 508.700419 
L 330.894298 508.647847 
L 361.666198 508.598495 
L 392.438099 508.520711 
L 423.21 508.447754 
L 453.981901 508.37909 
L 484.753802 508.167195 
L 515.525702 507.706391 
L 546.297603 507.257925 
L 577.069504 504.460378 
L 607.841405 500.176885 
L 638.613306 494.723412 
L 669.385207 483.221014 
L 700.157107 475.437771 
L 730.929008 465.645551 
L 761.700909 440.695078 
" clip-path="url(#p7e0b7be198)" style="fill: none; stroke: #7f7f7f; stroke-width: 1.5; stroke-linecap: square"/>
    <defs>
     <path id="me9cec5091d" d="M 0 3 
C 0.795609 3 1.55874 2.683901 2.12132 2.12132 
C 2.683901 1.55874 3 0.795609 3 0 
C 3 -0.795609 2.683901 -1.55874 2.12132 -2.12132 
C 1.55874 -2.683901 0.795609 -3 0 -3 
C -0.795609 -3 -1.55874 -2.683901 -2.12132 -2.12132 
C -2.683901 -1.55874 -3 -0.795609 -3 0 
C -3 0.795609 -2.683901 1.55874 -2.12132 2.12132 
C -1.55874 2.683901 -0.795609 3 0 3 
z
" style="stroke: #ffffff; stroke-width: 0.75"/>
    </defs>
    <g clip-path="url(#p7e0b7be198)">
     <use xlink:href="#me9cec5091d" x="84.719091" y="509.115625" style="fill: #7f7f7f; stroke: #ffffff; stroke-width: 0.75"/>
     <use xlink:href="#me9cec5091d" x="115.490992" y="509.137083" style="fill: #7f7f7f; stroke: #ffffff; stroke-width: 0.75"/>
     <use xlink:href="#me9cec5091d" x="146.262893" y="509.158541" style="fill: #7f7f7f; stroke: #ffffff; stroke-width: 0.75"/>
     <use xlink:href="#me9cec5091d" x="177.034793" y="508.874226" style="fill: #7f7f7f; stroke: #ffffff; stroke-width: 0.75"/>
     <use xlink:href="#me9cec5091d" x="207.806694" y="508.900512" style="fill: #7f7f7f; stroke: #ffffff; stroke-width: 0.75"/>
     <use xlink:href="#me9cec5091d" x="238.578595" y="508.927334" style="fill: #7f7f7f; stroke: #ffffff; stroke-width: 0.75"/>
     <use xlink:href="#me9cec5091d" x="269.350496" y="508.662331" style="fill: #7f7f7f; stroke: #ffffff; stroke-width: 0.75"/>
     <use xlink:href="#me9cec5091d" x="300.122397" y="508.700419" style="fill: #7f7f7f; stroke: #ffffff; stroke-width: 0.75"/>
     <use xlink:href="#me9cec5091d" x="330.894298" y="508.647847" style="fill: #7f7f7f; stroke: #ffffff; stroke-width: 0.75"/>
     <use xlink:href="#me9cec5091d" x="361.666198" y="508.598495" style="fill: #7f7f7f; stroke: #ffffff; stroke-width: 0.75"/>
     <use xlink:href="#me9cec5091d" x="392.438099" y="508.520711" style="fill: #7f7f7f; stroke: #ffffff; stroke-width: 0.75"/>
     <use xlink:href="#me9cec5091d" x="423.21" y="508.447754" style="fill: #7f7f7f; stroke: #ffffff; stroke-width: 0.75"/>
     <use xlink:href="#me9cec5091d" x="453.981901" y="508.37909" style="fill: #7f7f7f; stroke: #ffffff; stroke-width: 0.75"/>
     <use xlink:href="#me9cec5091d" x="484.753802" y="508.167195" style="fill: #7f7f7f; stroke: #ffffff; stroke-width: 0.75"/>
     <use xlink:href="#me9cec5091d" x="515.525702" y="507.706391" style="fill: #7f7f7f; stroke: #ffffff; stroke-width: 0.75"/>
     <use xlink:href="#me9cec5091d" x="546.297603" y="507.257925" style="fill: #7f7f7f; stroke: #ffffff; stroke-width: 0.75"/>
     <use xlink:href="#me9cec5091d" x="577.069504" y="504.460378" style="fill: #7f7f7f; stroke: #ffffff; stroke-width: 0.75"/>
     <use xlink:href="#me9cec5091d" x="607.841405" y="500.176885" style="fill: #7f7f7f; stroke: #ffffff; stroke-width: 0.75"/>
     <use xlink:href="#me9cec5091d" x="638.613306" y="494.723412" style="fill: #7f7f7f; stroke: #ffffff; stroke-width: 0.75"/>
     <use xlink:href="#me9cec5091d" x="669.385207" y="483.221014" style="fill: #7f7f7f; stroke: #ffffff; stroke-width: 0.75"/>
     <use xlink:href="#me9cec5091d" x="700.157107" y="475.437771" style="fill: #7f7f7f; stroke: #ffffff; stroke-width: 0.75"/>
     <use xlink:href="#me9cec5091d" x="730.929008" y="465.645551" style="fill: #7f7f7f; stroke: #ffffff; stroke-width: 0.75"/>
     <use xlink:href="#me9cec5091d" x="761.700909" y="440.695078" style="fill: #7f7f7f; stroke: #ffffff; stroke-width: 0.75"/>
    </g>
   </g>
   <g id="line2d_19">
    <path d="M 84.719091 510.987273 
L 115.490992 510.987273 
L 146.262893 510.987273 
L 177.034793 510.987273 
L 207.806694 510.987273 
L 238.578595 510.987273 
L 269.350496 510.987273 
L 300.122397 510.987273 
L 330.894298 510.987273 
L 361.666198 510.987273 
L 392.438099 510.987273 
L 423.21 510.987273 
L 453.981901 510.987273 
L 484.753802 510.987273 
L 515.525702 510.987273 
L 546.297603 510.987273 
L 577.069504 510.987273 
L 607.841405 510.987273 
L 638.613306 510.987273 
L 669.385207 510.987273 
L 700.157107 510.987273 
L 730.929008 510.987273 
L 761.700909 510.987273 
" clip-path="url(#p7e0b7be198)" style="fill: none; stroke: #bcbd22; stroke-width: 1.5; stroke-linecap: square"/>
    <defs>
     <path id="maf0645481b" d="M 0 3 
C 0.795609 3 1.55874 2.683901 2.12132 2.12132 
C 2.683901 1.55874 3 0.795609 3 0 
C 3 -0.795609 2.683901 -1.55874 2.12132 -2.12132 
C 1.55874 -2.683901 0.795609 -3 0 -3 
C -0.795609 -3 -1.55874 -2.683901 -2.12132 -2.12132 
C -2.683901 -1.55874 -3 -0.795609 -3 0 
C -3 0.795609 -2.683901 1.55874 -2.12132 2.12132 
C -1.55874 2.683901 -0.795609 3 0 3 
z
" style="stroke: #ffffff; stroke-width: 0.75"/>
    </defs>
    <g clip-path="url(#p7e0b7be198)">
     <use xlink:href="#maf0645481b" x="84.719091" y="510.987273" style="fill: #bcbd22; stroke: #ffffff; stroke-width: 0.75"/>
     <use xlink:href="#maf0645481b" x="115.490992" y="510.987273" style="fill: #bcbd22; stroke: #ffffff; stroke-width: 0.75"/>
     <use xlink:href="#maf0645481b" x="146.262893" y="510.987273" style="fill: #bcbd22; stroke: #ffffff; stroke-width: 0.75"/>
     <use xlink:href="#maf0645481b" x="177.034793" y="510.987273" style="fill: #bcbd22; stroke: #ffffff; stroke-width: 0.75"/>
     <use xlink:href="#maf0645481b" x="207.806694" y="510.987273" style="fill: #bcbd22; stroke: #ffffff; stroke-width: 0.75"/>
     <use xlink:href="#maf0645481b" x="238.578595" y="510.987273" style="fill: #bcbd22; stroke: #ffffff; stroke-width: 0.75"/>
     <use xlink:href="#maf0645481b" x="269.350496" y="510.987273" style="fill: #bcbd22; stroke: #ffffff; stroke-width: 0.75"/>
     <use xlink:href="#maf0645481b" x="300.122397" y="510.987273" style="fill: #bcbd22; stroke: #ffffff; stroke-width: 0.75"/>
     <use xlink:href="#maf0645481b" x="330.894298" y="510.987273" style="fill: #bcbd22; stroke: #ffffff; stroke-width: 0.75"/>
     <use xlink:href="#maf0645481b" x="361.666198" y="510.987273" style="fill: #bcbd22; stroke: #ffffff; stroke-width: 0.75"/>
     <use xlink:href="#maf0645481b" x="392.438099" y="510.987273" style="fill: #bcbd22; stroke: #ffffff; stroke-width: 0.75"/>
     <use xlink:href="#maf0645481b" x="423.21" y="510.987273" style="fill: #bcbd22; stroke: #ffffff; stroke-width: 0.75"/>
     <use xlink:href="#maf0645481b" x="453.981901" y="510.987273" style="fill: #bcbd22; stroke: #ffffff; stroke-width: 0.75"/>
     <use xlink:href="#maf0645481b" x="484.753802" y="510.987273" style="fill: #bcbd22; stroke: #ffffff; stroke-width: 0.75"/>
     <use xlink:href="#maf0645481b" x="515.525702" y="510.987273" style="fill: #bcbd22; stroke: #ffffff; stroke-width: 0.75"/>
     <use xlink:href="#maf0645481b" x="546.297603" y="510.987273" style="fill: #bcbd22; stroke: #ffffff; stroke-width: 0.75"/>
     <use xlink:href="#maf0645481b" x="577.069504" y="510.987273" style="fill: #bcbd22; stroke: #ffffff; stroke-width: 0.75"/>
     <use xlink:href="#maf0645481b" x="607.841405" y="510.987273" style="fill: #bcbd22; stroke: #ffffff; stroke-width: 0.75"/>
     <use xlink:href="#maf0645481b" x="638.613306" y="510.987273" style="fill: #bcbd22; stroke: #ffffff; stroke-width: 0.75"/>
     <use xlink:href="#maf0645481b" x="669.385207" y="510.987273" style="fill: #bcbd22; stroke: #ffffff; stroke-width: 0.75"/>
     <use xlink:href="#maf0645481b" x="700.157107" y="510.987273" style="fill: #bcbd22; stroke: #ffffff; stroke-width: 0.75"/>
     <use xlink:href="#maf0645481b" x="730.929008" y="510.987273" style="fill: #bcbd22; stroke: #ffffff; stroke-width: 0.75"/>
     <use xlink:href="#maf0645481b" x="761.700909" y="510.987273" style="fill: #bcbd22; stroke: #ffffff; stroke-width: 0.75"/>
    </g>
   </g>
   <g id="line2d_20">
    <path d="M 84.719091 510.808637 
L 115.490992 510.633221 
L 146.262893 510.636439 
L 177.034793 510.640194 
L 207.806694 510.64395 
L 238.578595 510.647705 
L 269.350496 510.651996 
L 300.122397 510.490527 
L 330.894298 510.333886 
L 361.666198 509.859671 
L 392.438099 509.558727 
L 423.21 508.955229 
L 453.981901 508.062589 
L 484.753802 505.684003 
L 515.525702 503.979726 
L 546.297603 496.760284 
L 577.069504 490.355161 
L 607.841405 478.341534 
L 638.613306 456.379582 
L 669.385207 419.682093 
L 700.157107 370.359969 
L 730.929008 308.890106 
L 761.700909 162.107662 
" clip-path="url(#p7e0b7be198)" style="fill: none; stroke: #17becf; stroke-width: 1.5; stroke-linecap: square"/>
    <defs>
     <path id="m05029777fe" d="M 0 3 
C 0.795609 3 1.55874 2.683901 2.12132 2.12132 
C 2.683901 1.55874 3 0.795609 3 0 
C 3 -0.795609 2.683901 -1.55874 2.12132 -2.12132 
C 1.55874 -2.683901 0.795609 -3 0 -3 
C -0.795609 -3 -1.55874 -2.683901 -2.12132 -2.12132 
C -2.683901 -1.55874 -3 -0.795609 -3 0 
C -3 0.795609 -2.683901 1.55874 -2.12132 2.12132 
C -1.55874 2.683901 -0.795609 3 0 3 
z
" style="stroke: #ffffff; stroke-width: 0.75"/>
    </defs>
    <g clip-path="url(#p7e0b7be198)">
     <use xlink:href="#m05029777fe" x="84.719091" y="510.808637" style="fill: #17becf; stroke: #ffffff; stroke-width: 0.75"/>
     <use xlink:href="#m05029777fe" x="115.490992" y="510.633221" style="fill: #17becf; stroke: #ffffff; stroke-width: 0.75"/>
     <use xlink:href="#m05029777fe" x="146.262893" y="510.636439" style="fill: #17becf; stroke: #ffffff; stroke-width: 0.75"/>
     <use xlink:href="#m05029777fe" x="177.034793" y="510.640194" style="fill: #17becf; stroke: #ffffff; stroke-width: 0.75"/>
     <use xlink:href="#m05029777fe" x="207.806694" y="510.64395" style="fill: #17becf; stroke: #ffffff; stroke-width: 0.75"/>
     <use xlink:href="#m05029777fe" x="238.578595" y="510.647705" style="fill: #17becf; stroke: #ffffff; stroke-width: 0.75"/>
     <use xlink:href="#m05029777fe" x="269.350496" y="510.651996" style="fill: #17becf; stroke: #ffffff; stroke-width: 0.75"/>
     <use xlink:href="#m05029777fe" x="300.122397" y="510.490527" style="fill: #17becf; stroke: #ffffff; stroke-width: 0.75"/>
     <use xlink:href="#m05029777fe" x="330.894298" y="510.333886" style="fill: #17becf; stroke: #ffffff; stroke-width: 0.75"/>
     <use xlink:href="#m05029777fe" x="361.666198" y="509.859671" style="fill: #17becf; stroke: #ffffff; stroke-width: 0.75"/>
     <use xlink:href="#m05029777fe" x="392.438099" y="509.558727" style="fill: #17becf; stroke: #ffffff; stroke-width: 0.75"/>
     <use xlink:href="#m05029777fe" x="423.21" y="508.955229" style="fill: #17becf; stroke: #ffffff; stroke-width: 0.75"/>
     <use xlink:href="#m05029777fe" x="453.981901" y="508.062589" style="fill: #17becf; stroke: #ffffff; stroke-width: 0.75"/>
     <use xlink:href="#m05029777fe" x="484.753802" y="505.684003" style="fill: #17becf; stroke: #ffffff; stroke-width: 0.75"/>
     <use xlink:href="#m05029777fe" x="515.525702" y="503.979726" style="fill: #17becf; stroke: #ffffff; stroke-width: 0.75"/>
     <use xlink:href="#m05029777fe" x="546.297603" y="496.760284" style="fill: #17becf; stroke: #ffffff; stroke-width: 0.75"/>
     <use xlink:href="#m05029777fe" x="577.069504" y="490.355161" style="fill: #17becf; stroke: #ffffff; stroke-width: 0.75"/>
     <use xlink:href="#m05029777fe" x="607.841405" y="478.341534" style="fill: #17becf; stroke: #ffffff; stroke-width: 0.75"/>
     <use xlink:href="#m05029777fe" x="638.613306" y="456.379582" style="fill: #17becf; stroke: #ffffff; stroke-width: 0.75"/>
     <use xlink:href="#m05029777fe" x="669.385207" y="419.682093" style="fill: #17becf; stroke: #ffffff; stroke-width: 0.75"/>
     <use xlink:href="#m05029777fe" x="700.157107" y="370.359969" style="fill: #17becf; stroke: #ffffff; stroke-width: 0.75"/>
     <use xlink:href="#m05029777fe" x="730.929008" y="308.890106" style="fill: #17becf; stroke: #ffffff; stroke-width: 0.75"/>
     <use xlink:href="#m05029777fe" x="761.700909" y="162.107662" style="fill: #17becf; stroke: #ffffff; stroke-width: 0.75"/>
    </g>
   </g>
   <g id="line2d_21"/>
   <g id="line2d_22"/>
   <g id="line2d_23"/>
   <g id="line2d_24"/>
   <g id="line2d_25"/>
   <g id="line2d_26"/>
   <g id="line2d_27"/>
   <g id="line2d_28"/>
   <g id="line2d_29"/>
   <g id="line2d_30"/>
   <g id="patch_3">
    <path d="M 50.87 534.04 
L 50.87 26.88 
" style="fill: none; stroke: #000000; stroke-width: 0.8; stroke-linejoin: miter; stroke-linecap: square"/>
   </g>
   <g id="patch_4">
    <path d="M 795.55 534.04 
L 795.55 26.88 
" style="fill: none; stroke: #000000; stroke-width: 0.8; stroke-linejoin: miter; stroke-linecap: square"/>
   </g>
   <g id="patch_5">
    <path d="M 50.87 534.04 
L 795.55 534.04 
" style="fill: none; stroke: #000000; stroke-width: 0.8; stroke-linejoin: miter; stroke-linecap: square"/>
   </g>
   <g id="patch_6">
    <path d="M 50.87 26.88 
L 795.55 26.88 
" style="fill: none; stroke: #000000; stroke-width: 0.8; stroke-linejoin: miter; stroke-linecap: square"/>
   </g>
   <g id="text_13">
    <!-- Solar Energy Per Capita Trend (20002023) -->
    <g transform="translate(293.810625 20.88) scale(0.12 -0.12)">
     <defs>
      <path id="DejaVuSans-54" d="M -19 4666 
L 3928 4666 
L 3928 4134 
L 2272 4134 
L 2272 0 
L 1638 0 
L 1638 4134 
L -19 4134 
L -19 4666 
z
" transform="scale(0.015625)"/>
      <path id="DejaVuSans-64" d="M 2906 2969 
L 2906 4863 
L 3481 4863 
L 3481 0 
L 2906 0 
L 2906 525 
Q 2725 213 2448 61 
Q 2172 -91 1784 -91 
Q 1150 -91 751 415 
Q 353 922 353 1747 
Q 353 2572 751 3078 
Q 1150 3584 1784 3584 
Q 2172 3584 2448 3432 
Q 2725 3281 2906 2969 
z
M 947 1747 
Q 947 1113 1208 752 
Q 1469 391 1925 391 
Q 2381 391 2643 752 
Q 2906 1113 2906 1747 
Q 2906 2381 2643 2742 
Q 2381 3103 1925 3103 
Q 1469 3103 1208 2742 
Q 947 2381 947 1747 
z
" transform="scale(0.015625)"/>
      <path id="DejaVuSans-28" d="M 1984 4856 
Q 1566 4138 1362 3434 
Q 1159 2731 1159 2009 
Q 1159 1288 1364 580 
Q 1569 -128 1984 -844 
L 1484 -844 
Q 1016 -109 783 600 
Q 550 1309 550 2009 
Q 550 2706 781 3412 
Q 1013 4119 1484 4856 
L 1984 4856 
z
" transform="scale(0.015625)"/>
      <path id="DejaVuSans-2013" d="M 313 1978 
L 2888 1978 
L 2888 1528 
L 313 1528 
L 313 1978 
z
" transform="scale(0.015625)"/>
      <path id="DejaVuSans-33" d="M 2597 2516 
Q 3050 2419 3304 2112 
Q 3559 1806 3559 1356 
Q 3559 666 3084 287 
Q 2609 -91 1734 -91 
Q 1441 -91 1130 -33 
Q 819 25 488 141 
L 488 750 
Q 750 597 1062 519 
Q 1375 441 1716 441 
Q 2309 441 2620 675 
Q 2931 909 2931 1356 
Q 2931 1769 2642 2001 
Q 2353 2234 1838 2234 
L 1294 2234 
L 1294 2753 
L 1863 2753 
Q 2328 2753 2575 2939 
Q 2822 3125 2822 3475 
Q 2822 3834 2567 4026 
Q 2313 4219 1838 4219 
Q 1578 4219 1281 4162 
Q 984 4106 628 3988 
L 628 4550 
Q 988 4650 1302 4700 
Q 1616 4750 1894 4750 
Q 2613 4750 3031 4423 
Q 3450 4097 3450 3541 
Q 3450 3153 3228 2886 
Q 3006 2619 2597 2516 
z
" transform="scale(0.015625)"/>
      <path id="DejaVuSans-29" d="M 513 4856 
L 1013 4856 
Q 1481 4119 1714 3412 
Q 1947 2706 1947 2009 
Q 1947 1309 1714 600 
Q 1481 -109 1013 -844 
L 513 -844 
Q 928 -128 1133 580 
Q 1338 1288 1338 2009 
Q 1338 2731 1133 3434 
Q 928 4138 513 4856 
z
" transform="scale(0.015625)"/>
     </defs>
     <use xlink:href="#DejaVuSans-53"/>
     <use xlink:href="#DejaVuSans-6f" x="63.476562"/>
     <use xlink:href="#DejaVuSans-6c" x="124.658203"/>
     <use xlink:href="#DejaVuSans-61" x="152.441406"/>
     <use xlink:href="#DejaVuSans-72" x="213.720703"/>
     <use xlink:href="#DejaVuSans-20" x="254.833984"/>
     <use xlink:href="#DejaVuSans-45" x="286.621094"/>
     <use xlink:href="#DejaVuSans-6e" x="349.804688"/>
     <use xlink:href="#DejaVuSans-65" x="413.183594"/>
     <use xlink:href="#DejaVuSans-72" x="474.707031"/>
     <use xlink:href="#DejaVuSans-67" x="514.070312"/>
     <use xlink:href="#DejaVuSans-79" x="577.546875"/>
     <use xlink:href="#DejaVuSans-20" x="636.726562"/>
     <use xlink:href="#DejaVuSans-50" x="668.513672"/>
     <use xlink:href="#DejaVuSans-65" x="725.191406"/>
     <use xlink:href="#DejaVuSans-72" x="786.714844"/>
     <use xlink:href="#DejaVuSans-20" x="827.828125"/>
     <use xlink:href="#DejaVuSans-43" x="859.615234"/>
     <use xlink:href="#DejaVuSans-61" x="929.439453"/>
     <use xlink:href="#DejaVuSans-70" x="990.71875"/>
     <use xlink:href="#DejaVuSans-69" x="1054.195312"/>
     <use xlink:href="#DejaVuSans-74" x="1081.978516"/>
     <use xlink:href="#DejaVuSans-61" x="1121.1875"/>
     <use xlink:href="#DejaVuSans-20" x="1182.466797"/>
     <use xlink:href="#DejaVuSans-54" x="1214.253906"/>
     <use xlink:href="#DejaVuSans-72" x="1260.587891"/>
     <use xlink:href="#DejaVuSans-65" x="1299.451172"/>
     <use xlink:href="#DejaVuSans-6e" x="1360.974609"/>
     <use xlink:href="#DejaVuSans-64" x="1424.353516"/>
     <use xlink:href="#DejaVuSans-20" x="1487.830078"/>
     <use xlink:href="#DejaVuSans-28" x="1519.617188"/>
     <use xlink:href="#DejaVuSans-32" x="1558.630859"/>
     <use xlink:href="#DejaVuSans-30" x="1622.253906"/>
     <use xlink:href="#DejaVuSans-30" x="1685.876953"/>
     <use xlink:href="#DejaVuSans-30" x="1749.5"/>
     <use xlink:href="#DejaVuSans-2013" x="1813.123047"/>
     <use xlink:href="#DejaVuSans-32" x="1863.123047"/>
     <use xlink:href="#DejaVuSans-30" x="1926.746094"/>
     <use xlink:href="#DejaVuSans-32" x="1990.369141"/>
     <use xlink:href="#DejaVuSans-33" x="2053.992188"/>
     <use xlink:href="#DejaVuSans-29" x="2117.615234"/>
    </g>
   </g>
   <g id="legend_1">
    <g id="patch_7">
     <path d="M 839.784 196.339375 
L 993.20275 196.339375 
Q 995.20275 196.339375 995.20275 194.339375 
L 995.20275 33.88 
Q 995.20275 31.88 993.20275 31.88 
L 839.784 31.88 
Q 837.784 31.88 837.784 33.88 
L 837.784 194.339375 
Q 837.784 196.339375 839.784 196.339375 
z
" style="fill: #ffffff; opacity: 0.8; stroke: #cccccc; stroke-linejoin: miter"/>
    </g>
    <g id="text_14">
     <!-- Country -->
     <g transform="translate(896.630094 43.478437) scale(0.1 -0.1)">
      <defs>
       <path id="DejaVuSans-75" d="M 544 1381 
L 544 3500 
L 1119 3500 
L 1119 1403 
Q 1119 906 1312 657 
Q 1506 409 1894 409 
Q 2359 409 2629 706 
Q 2900 1003 2900 1516 
L 2900 3500 
L 3475 3500 
L 3475 0 
L 2900 0 
L 2900 538 
Q 2691 219 2414 64 
Q 2138 -91 1772 -91 
Q 1169 -91 856 284 
Q 544 659 544 1381 
z
M 1991 3584 
L 1991 3584 
z
" transform="scale(0.015625)"/>
      </defs>
      <use xlink:href="#DejaVuSans-43"/>
      <use xlink:href="#DejaVuSans-6f" x="69.824219"/>
      <use xlink:href="#DejaVuSans-75" x="131.005859"/>
      <use xlink:href="#DejaVuSans-6e" x="194.384766"/>
      <use xlink:href="#DejaVuSans-74" x="257.763672"/>
      <use xlink:href="#DejaVuSans-72" x="296.972656"/>
      <use xlink:href="#DejaVuSans-79" x="338.085938"/>
     </g>
    </g>
    <g id="line2d_31">
     <path d="M 841.784 54.656562 
L 851.784 54.656562 
L 861.784 54.656562 
" style="fill: none; stroke: #1f77b4; stroke-width: 1.5; stroke-linecap: square"/>
     <g>
      <use xlink:href="#m1653c1a78e" x="851.784" y="54.656562" style="fill: #1f77b4; stroke: #ffffff; stroke-width: 0.75"/>
     </g>
    </g>
    <g id="text_15">
     <!-- Bosnia and Herzegovina -->
     <g transform="translate(869.784 58.156562) scale(0.1 -0.1)">
      <defs>
       <path id="DejaVuSans-42" d="M 1259 2228 
L 1259 519 
L 2272 519 
Q 2781 519 3026 730 
Q 3272 941 3272 1375 
Q 3272 1813 3026 2020 
Q 2781 2228 2272 2228 
L 1259 2228 
z
M 1259 4147 
L 1259 2741 
L 2194 2741 
Q 2656 2741 2882 2914 
Q 3109 3088 3109 3444 
Q 3109 3797 2882 3972 
Q 2656 4147 2194 4147 
L 1259 4147 
z
M 628 4666 
L 2241 4666 
Q 2963 4666 3353 4366 
Q 3744 4066 3744 3513 
Q 3744 3084 3544 2831 
Q 3344 2578 2956 2516 
Q 3422 2416 3680 2098 
Q 3938 1781 3938 1306 
Q 3938 681 3513 340 
Q 3088 0 2303 0 
L 628 0 
L 628 4666 
z
" transform="scale(0.015625)"/>
       <path id="DejaVuSans-73" d="M 2834 3397 
L 2834 2853 
Q 2591 2978 2328 3040 
Q 2066 3103 1784 3103 
Q 1356 3103 1142 2972 
Q 928 2841 928 2578 
Q 928 2378 1081 2264 
Q 1234 2150 1697 2047 
L 1894 2003 
Q 2506 1872 2764 1633 
Q 3022 1394 3022 966 
Q 3022 478 2636 193 
Q 2250 -91 1575 -91 
Q 1294 -91 989 -36 
Q 684 19 347 128 
L 347 722 
Q 666 556 975 473 
Q 1284 391 1588 391 
Q 1994 391 2212 530 
Q 2431 669 2431 922 
Q 2431 1156 2273 1281 
Q 2116 1406 1581 1522 
L 1381 1569 
Q 847 1681 609 1914 
Q 372 2147 372 2553 
Q 372 3047 722 3315 
Q 1072 3584 1716 3584 
Q 2034 3584 2315 3537 
Q 2597 3491 2834 3397 
z
" transform="scale(0.015625)"/>
       <path id="DejaVuSans-48" d="M 628 4666 
L 1259 4666 
L 1259 2753 
L 3553 2753 
L 3553 4666 
L 4184 4666 
L 4184 0 
L 3553 0 
L 3553 2222 
L 1259 2222 
L 1259 0 
L 628 0 
L 628 4666 
z
" transform="scale(0.015625)"/>
       <path id="DejaVuSans-7a" d="M 353 3500 
L 3084 3500 
L 3084 2975 
L 922 459 
L 3084 459 
L 3084 0 
L 275 0 
L 275 525 
L 2438 3041 
L 353 3041 
L 353 3500 
z
" transform="scale(0.015625)"/>
       <path id="DejaVuSans-76" d="M 191 3500 
L 800 3500 
L 1894 563 
L 2988 3500 
L 3597 3500 
L 2284 0 
L 1503 0 
L 191 3500 
z
" transform="scale(0.015625)"/>
      </defs>
      <use xlink:href="#DejaVuSans-42"/>
      <use xlink:href="#DejaVuSans-6f" x="68.603516"/>
      <use xlink:href="#DejaVuSans-73" x="129.785156"/>
      <use xlink:href="#DejaVuSans-6e" x="181.884766"/>
      <use xlink:href="#DejaVuSans-69" x="245.263672"/>
      <use xlink:href="#DejaVuSans-61" x="273.046875"/>
      <use xlink:href="#DejaVuSans-20" x="334.326172"/>
      <use xlink:href="#DejaVuSans-61" x="366.113281"/>
      <use xlink:href="#DejaVuSans-6e" x="427.392578"/>
      <use xlink:href="#DejaVuSans-64" x="490.771484"/>
      <use xlink:href="#DejaVuSans-20" x="554.248047"/>
      <use xlink:href="#DejaVuSans-48" x="586.035156"/>
      <use xlink:href="#DejaVuSans-65" x="661.230469"/>
      <use xlink:href="#DejaVuSans-72" x="722.753906"/>
      <use xlink:href="#DejaVuSans-7a" x="763.867188"/>
      <use xlink:href="#DejaVuSans-65" x="816.357422"/>
      <use xlink:href="#DejaVuSans-67" x="877.880859"/>
      <use xlink:href="#DejaVuSans-6f" x="941.357422"/>
      <use xlink:href="#DejaVuSans-76" x="1002.539062"/>
      <use xlink:href="#DejaVuSans-69" x="1061.71875"/>
      <use xlink:href="#DejaVuSans-6e" x="1089.501953"/>
      <use xlink:href="#DejaVuSans-61" x="1152.880859"/>
     </g>
    </g>
    <g id="line2d_32">
     <path d="M 841.784 69.334687 
L 851.784 69.334687 
L 861.784 69.334687 
" style="fill: none; stroke: #ff7f0e; stroke-width: 1.5; stroke-linecap: square"/>
     <g>
      <use xlink:href="#m030e752118" x="851.784" y="69.334687" style="fill: #ff7f0e; stroke: #ffffff; stroke-width: 0.75"/>
     </g>
    </g>
    <g id="text_16">
     <!-- Croatia -->
     <g transform="translate(869.784 72.834687) scale(0.1 -0.1)">
      <use xlink:href="#DejaVuSans-43"/>
      <use xlink:href="#DejaVuSans-72" x="69.824219"/>
      <use xlink:href="#DejaVuSans-6f" x="108.6875"/>
      <use xlink:href="#DejaVuSans-61" x="169.869141"/>
      <use xlink:href="#DejaVuSans-74" x="231.148438"/>
      <use xlink:href="#DejaVuSans-69" x="270.357422"/>
      <use xlink:href="#DejaVuSans-61" x="298.140625"/>
     </g>
    </g>
    <g id="line2d_33">
     <path d="M 841.784 84.012812 
L 851.784 84.012812 
L 861.784 84.012812 
" style="fill: none; stroke: #2ca02c; stroke-width: 1.5; stroke-linecap: square"/>
     <g>
      <use xlink:href="#mc10434a966" x="851.784" y="84.012812" style="fill: #2ca02c; stroke: #ffffff; stroke-width: 0.75"/>
     </g>
    </g>
    <g id="text_17">
     <!-- Denmark -->
     <g transform="translate(869.784 87.512812) scale(0.1 -0.1)">
      <defs>
       <path id="DejaVuSans-44" d="M 1259 4147 
L 1259 519 
L 2022 519 
Q 2988 519 3436 956 
Q 3884 1394 3884 2338 
Q 3884 3275 3436 3711 
Q 2988 4147 2022 4147 
L 1259 4147 
z
M 628 4666 
L 1925 4666 
Q 3281 4666 3915 4102 
Q 4550 3538 4550 2338 
Q 4550 1131 3912 565 
Q 3275 0 1925 0 
L 628 0 
L 628 4666 
z
" transform="scale(0.015625)"/>
       <path id="DejaVuSans-6d" d="M 3328 2828 
Q 3544 3216 3844 3400 
Q 4144 3584 4550 3584 
Q 5097 3584 5394 3201 
Q 5691 2819 5691 2113 
L 5691 0 
L 5113 0 
L 5113 2094 
Q 5113 2597 4934 2840 
Q 4756 3084 4391 3084 
Q 3944 3084 3684 2787 
Q 3425 2491 3425 1978 
L 3425 0 
L 2847 0 
L 2847 2094 
Q 2847 2600 2669 2842 
Q 2491 3084 2119 3084 
Q 1678 3084 1418 2786 
Q 1159 2488 1159 1978 
L 1159 0 
L 581 0 
L 581 3500 
L 1159 3500 
L 1159 2956 
Q 1356 3278 1631 3431 
Q 1906 3584 2284 3584 
Q 2666 3584 2933 3390 
Q 3200 3197 3328 2828 
z
" transform="scale(0.015625)"/>
       <path id="DejaVuSans-6b" d="M 581 4863 
L 1159 4863 
L 1159 1991 
L 2875 3500 
L 3609 3500 
L 1753 1863 
L 3688 0 
L 2938 0 
L 1159 1709 
L 1159 0 
L 581 0 
L 581 4863 
z
" transform="scale(0.015625)"/>
      </defs>
      <use xlink:href="#DejaVuSans-44"/>
      <use xlink:href="#DejaVuSans-65" x="77.001953"/>
      <use xlink:href="#DejaVuSans-6e" x="138.525391"/>
      <use xlink:href="#DejaVuSans-6d" x="201.904297"/>
      <use xlink:href="#DejaVuSans-61" x="299.316406"/>
      <use xlink:href="#DejaVuSans-72" x="360.595703"/>
      <use xlink:href="#DejaVuSans-6b" x="401.708984"/>
     </g>
    </g>
    <g id="line2d_34">
     <path d="M 841.784 98.690937 
L 851.784 98.690937 
L 861.784 98.690937 
" style="fill: none; stroke: #d62728; stroke-width: 1.5; stroke-linecap: square"/>
     <g>
      <use xlink:href="#md4f6cec915" x="851.784" y="98.690937" style="fill: #d62728; stroke: #ffffff; stroke-width: 0.75"/>
     </g>
    </g>
    <g id="text_18">
     <!-- Finland -->
     <g transform="translate(869.784 102.190937) scale(0.1 -0.1)">
      <defs>
       <path id="DejaVuSans-46" d="M 628 4666 
L 3309 4666 
L 3309 4134 
L 1259 4134 
L 1259 2759 
L 3109 2759 
L 3109 2228 
L 1259 2228 
L 1259 0 
L 628 0 
L 628 4666 
z
" transform="scale(0.015625)"/>
      </defs>
      <use xlink:href="#DejaVuSans-46"/>
      <use xlink:href="#DejaVuSans-69" x="50.269531"/>
      <use xlink:href="#DejaVuSans-6e" x="78.052734"/>
      <use xlink:href="#DejaVuSans-6c" x="141.431641"/>
      <use xlink:href="#DejaVuSans-61" x="169.214844"/>
      <use xlink:href="#DejaVuSans-6e" x="230.494141"/>
      <use xlink:href="#DejaVuSans-64" x="293.873047"/>
     </g>
    </g>
    <g id="line2d_35">
     <path d="M 841.784 113.369062 
L 851.784 113.369062 
L 861.784 113.369062 
" style="fill: none; stroke: #9467bd; stroke-width: 1.5; stroke-linecap: square"/>
     <g>
      <use xlink:href="#m8f6bf3ed8f" x="851.784" y="113.369062" style="fill: #9467bd; stroke: #ffffff; stroke-width: 0.75"/>
     </g>
    </g>
    <g id="text_19">
     <!-- Iceland -->
     <g transform="translate(869.784 116.869062) scale(0.1 -0.1)">
      <defs>
       <path id="DejaVuSans-49" d="M 628 4666 
L 1259 4666 
L 1259 0 
L 628 0 
L 628 4666 
z
" transform="scale(0.015625)"/>
       <path id="DejaVuSans-63" d="M 3122 3366 
L 3122 2828 
Q 2878 2963 2633 3030 
Q 2388 3097 2138 3097 
Q 1578 3097 1268 2742 
Q 959 2388 959 1747 
Q 959 1106 1268 751 
Q 1578 397 2138 397 
Q 2388 397 2633 464 
Q 2878 531 3122 666 
L 3122 134 
Q 2881 22 2623 -34 
Q 2366 -91 2075 -91 
Q 1284 -91 818 406 
Q 353 903 353 1747 
Q 353 2603 823 3093 
Q 1294 3584 2113 3584 
Q 2378 3584 2631 3529 
Q 2884 3475 3122 3366 
z
" transform="scale(0.015625)"/>
      </defs>
      <use xlink:href="#DejaVuSans-49"/>
      <use xlink:href="#DejaVuSans-63" x="29.492188"/>
      <use xlink:href="#DejaVuSans-65" x="84.472656"/>
      <use xlink:href="#DejaVuSans-6c" x="145.996094"/>
      <use xlink:href="#DejaVuSans-61" x="173.779297"/>
      <use xlink:href="#DejaVuSans-6e" x="235.058594"/>
      <use xlink:href="#DejaVuSans-64" x="298.4375"/>
     </g>
    </g>
    <g id="line2d_36">
     <path d="M 841.784 128.047187 
L 851.784 128.047187 
L 861.784 128.047187 
" style="fill: none; stroke: #8c564b; stroke-width: 1.5; stroke-linecap: square"/>
     <g>
      <use xlink:href="#ma866f1e004" x="851.784" y="128.047187" style="fill: #8c564b; stroke: #ffffff; stroke-width: 0.75"/>
     </g>
    </g>
    <g id="text_20">
     <!-- Kosovo -->
     <g transform="translate(869.784 131.547187) scale(0.1 -0.1)">
      <defs>
       <path id="DejaVuSans-4b" d="M 628 4666 
L 1259 4666 
L 1259 2694 
L 3353 4666 
L 4166 4666 
L 1850 2491 
L 4331 0 
L 3500 0 
L 1259 2247 
L 1259 0 
L 628 0 
L 628 4666 
z
" transform="scale(0.015625)"/>
      </defs>
      <use xlink:href="#DejaVuSans-4b"/>
      <use xlink:href="#DejaVuSans-6f" x="60.576172"/>
      <use xlink:href="#DejaVuSans-73" x="121.757812"/>
      <use xlink:href="#DejaVuSans-6f" x="173.857422"/>
      <use xlink:href="#DejaVuSans-76" x="235.039062"/>
      <use xlink:href="#DejaVuSans-6f" x="294.21875"/>
     </g>
    </g>
    <g id="line2d_37">
     <path d="M 841.784 142.725312 
L 851.784 142.725312 
L 861.784 142.725312 
" style="fill: none; stroke: #e377c2; stroke-width: 1.5; stroke-linecap: square"/>
     <g>
      <use xlink:href="#ma08d5d10ed" x="851.784" y="142.725312" style="fill: #e377c2; stroke: #ffffff; stroke-width: 0.75"/>
     </g>
    </g>
    <g id="text_21">
     <!-- North Macedonia -->
     <g transform="translate(869.784 146.225312) scale(0.1 -0.1)">
      <defs>
       <path id="DejaVuSans-4e" d="M 628 4666 
L 1478 4666 
L 3547 763 
L 3547 4666 
L 4159 4666 
L 4159 0 
L 3309 0 
L 1241 3903 
L 1241 0 
L 628 0 
L 628 4666 
z
" transform="scale(0.015625)"/>
       <path id="DejaVuSans-68" d="M 3513 2113 
L 3513 0 
L 2938 0 
L 2938 2094 
Q 2938 2591 2744 2837 
Q 2550 3084 2163 3084 
Q 1697 3084 1428 2787 
Q 1159 2491 1159 1978 
L 1159 0 
L 581 0 
L 581 4863 
L 1159 4863 
L 1159 2956 
Q 1366 3272 1645 3428 
Q 1925 3584 2291 3584 
Q 2894 3584 3203 3211 
Q 3513 2838 3513 2113 
z
" transform="scale(0.015625)"/>
       <path id="DejaVuSans-4d" d="M 628 4666 
L 1569 4666 
L 2759 1491 
L 3956 4666 
L 4897 4666 
L 4897 0 
L 4281 0 
L 4281 4097 
L 3078 897 
L 2444 897 
L 1241 4097 
L 1241 0 
L 628 0 
L 628 4666 
z
" transform="scale(0.015625)"/>
      </defs>
      <use xlink:href="#DejaVuSans-4e"/>
      <use xlink:href="#DejaVuSans-6f" x="74.804688"/>
      <use xlink:href="#DejaVuSans-72" x="135.986328"/>
      <use xlink:href="#DejaVuSans-74" x="177.099609"/>
      <use xlink:href="#DejaVuSans-68" x="216.308594"/>
      <use xlink:href="#DejaVuSans-20" x="279.6875"/>
      <use xlink:href="#DejaVuSans-4d" x="311.474609"/>
      <use xlink:href="#DejaVuSans-61" x="397.753906"/>
      <use xlink:href="#DejaVuSans-63" x="459.033203"/>
      <use xlink:href="#DejaVuSans-65" x="514.013672"/>
      <use xlink:href="#DejaVuSans-64" x="575.537109"/>
      <use xlink:href="#DejaVuSans-6f" x="639.013672"/>
      <use xlink:href="#DejaVuSans-6e" x="700.195312"/>
      <use xlink:href="#DejaVuSans-69" x="763.574219"/>
      <use xlink:href="#DejaVuSans-61" x="791.357422"/>
     </g>
    </g>
    <g id="line2d_38">
     <path d="M 841.784 157.403437 
L 851.784 157.403437 
L 861.784 157.403437 
" style="fill: none; stroke: #7f7f7f; stroke-width: 1.5; stroke-linecap: square"/>
     <g>
      <use xlink:href="#me9cec5091d" x="851.784" y="157.403437" style="fill: #7f7f7f; stroke: #ffffff; stroke-width: 0.75"/>
     </g>
    </g>
    <g id="text_22">
     <!-- Norway -->
     <g transform="translate(869.784 160.903437) scale(0.1 -0.1)">
      <defs>
       <path id="DejaVuSans-77" d="M 269 3500 
L 844 3500 
L 1563 769 
L 2278 3500 
L 2956 3500 
L 3675 769 
L 4391 3500 
L 4966 3500 
L 4050 0 
L 3372 0 
L 2619 2869 
L 1863 0 
L 1184 0 
L 269 3500 
z
" transform="scale(0.015625)"/>
      </defs>
      <use xlink:href="#DejaVuSans-4e"/>
      <use xlink:href="#DejaVuSans-6f" x="74.804688"/>
      <use xlink:href="#DejaVuSans-72" x="135.986328"/>
      <use xlink:href="#DejaVuSans-77" x="177.099609"/>
      <use xlink:href="#DejaVuSans-61" x="258.886719"/>
      <use xlink:href="#DejaVuSans-79" x="320.166016"/>
     </g>
    </g>
    <g id="line2d_39">
     <path d="M 841.784 172.081562 
L 851.784 172.081562 
L 861.784 172.081562 
" style="fill: none; stroke: #bcbd22; stroke-width: 1.5; stroke-linecap: square"/>
     <g>
      <use xlink:href="#maf0645481b" x="851.784" y="172.081562" style="fill: #bcbd22; stroke: #ffffff; stroke-width: 0.75"/>
     </g>
    </g>
    <g id="text_23">
     <!-- Serbia -->
     <g transform="translate(869.784 175.581562) scale(0.1 -0.1)">
      <defs>
       <path id="DejaVuSans-62" d="M 3116 1747 
Q 3116 2381 2855 2742 
Q 2594 3103 2138 3103 
Q 1681 3103 1420 2742 
Q 1159 2381 1159 1747 
Q 1159 1113 1420 752 
Q 1681 391 2138 391 
Q 2594 391 2855 752 
Q 3116 1113 3116 1747 
z
M 1159 2969 
Q 1341 3281 1617 3432 
Q 1894 3584 2278 3584 
Q 2916 3584 3314 3078 
Q 3713 2572 3713 1747 
Q 3713 922 3314 415 
Q 2916 -91 2278 -91 
Q 1894 -91 1617 61 
Q 1341 213 1159 525 
L 1159 0 
L 581 0 
L 581 4863 
L 1159 4863 
L 1159 2969 
z
" transform="scale(0.015625)"/>
      </defs>
      <use xlink:href="#DejaVuSans-53"/>
      <use xlink:href="#DejaVuSans-65" x="63.476562"/>
      <use xlink:href="#DejaVuSans-72" x="125"/>
      <use xlink:href="#DejaVuSans-62" x="166.113281"/>
      <use xlink:href="#DejaVuSans-69" x="229.589844"/>
      <use xlink:href="#DejaVuSans-61" x="257.373047"/>
     </g>
    </g>
    <g id="line2d_40">
     <path d="M 841.784 186.759687 
L 851.784 186.759687 
L 861.784 186.759687 
" style="fill: none; stroke: #17becf; stroke-width: 1.5; stroke-linecap: square"/>
     <g>
      <use xlink:href="#m05029777fe" x="851.784" y="186.759687" style="fill: #17becf; stroke: #ffffff; stroke-width: 0.75"/>
     </g>
    </g>
    <g id="text_24">
     <!-- Sweden -->
     <g transform="translate(869.784 190.259687) scale(0.1 -0.1)">
      <use xlink:href="#DejaVuSans-53"/>
      <use xlink:href="#DejaVuSans-77" x="63.476562"/>
      <use xlink:href="#DejaVuSans-65" x="145.263672"/>
      <use xlink:href="#DejaVuSans-64" x="206.787109"/>
      <use xlink:href="#DejaVuSans-65" x="270.263672"/>
      <use xlink:href="#DejaVuSans-6e" x="331.787109"/>
     </g>
    </g>
   </g>
  </g>
 </g>
 <defs>
  <clipPath id="p7e0b7be198">
   <rect x="50.87" y="26.88" width="744.68" height="507.16"/>
  </clipPath>
 </defs>
</svg>
