<?xml version="1.0" encoding="utf-8" standalone="no"?>
<!DOCTYPE svg PUBLIC "-//W3C//DTD SVG 1.1//EN"
  "http://www.w3.org/Graphics/SVG/1.1/DTD/svg11.dtd">
<svg xmlns:xlink="http://www.w3.org/1999/xlink" width="576pt" height="576pt" viewBox="0 0 576 576" xmlns="http://www.w3.org/2000/svg" version="1.1">
 <metadata>
  <rdf:RDF xmlns:dc="http://purl.org/dc/elements/1.1/" xmlns:cc="http://creativecommons.org/ns#" xmlns:rdf="http://www.w3.org/1999/02/22-rdf-syntax-ns#">
   <cc:Work>
    <dc:type rdf:resource="http://purl.org/dc/dcmitype/StillImage"/>
    <dc:date>2025-04-22T22:29:46.689378</dc:date>
    <dc:format>image/svg+xml</dc:format>
    <dc:creator>
     <cc:Agent>
      <dc:title>Matplotlib v3.9.2, https://matplotlib.org/</dc:title>
     </cc:Agent>
    </dc:creator>
   </cc:Work>
  </rdf:RDF>
 </metadata>
 <defs>
  <style type="text/css">*{stroke-linejoin: round; stroke-linecap: butt}</style>
 </defs>
 <g id="figure_1">
  <g id="patch_1">
   <path d="M 0 576 
L 576 576 
L 576 0 
L 0 0 
z
" style="fill: #ffffff"/>
  </g>
  <g id="axes_1">
   <g id="patch_2">
    <path d="M 503.455 296.04 
C 503.455 267.424649 497.8184 239.087547 486.867779 212.65041 
C 475.917159 186.213273 459.865479 162.190238 439.631371 141.956129 
C 419.397262 121.722021 395.374227 105.670341 368.93709 94.719721 
C 342.499953 83.7691 314.162851 78.1325 285.5475 78.1325 
C 256.932149 78.1325 228.595047 83.7691 202.15791 94.719721 
C 175.720773 105.670341 151.697738 121.722021 131.463629 141.956129 
C 111.229521 162.190238 95.177841 186.213273 84.227221 212.65041 
C 73.2766 239.087547 67.64 267.424649 67.64 296.04 
C 67.64 324.655351 73.2766 352.992453 84.227221 379.42959 
C 95.177841 405.866727 111.229521 429.889762 131.463629 450.123871 
C 151.697738 470.357979 175.720773 486.409659 202.15791 497.360279 
C 228.595047 508.3109 256.932149 513.9475 285.5475 513.9475 
C 314.162851 513.9475 342.499953 508.3109 368.93709 497.360279 
C 395.374227 486.409659 419.397262 470.357979 439.631371 450.123871 
C 459.865479 429.889762 475.917159 405.866727 486.867779 379.42959 
C 497.8184 352.992453 503.455 324.655351 503.455 296.04 
M 285.5475 296.04 
C 285.5475 296.04 285.5475 296.04 285.5475 296.04 
C 285.5475 296.04 285.5475 296.04 285.5475 296.04 
C 285.5475 296.04 285.5475 296.04 285.5475 296.04 
C 285.5475 296.04 285.5475 296.04 285.5475 296.04 
C 285.5475 296.04 285.5475 296.04 285.5475 296.04 
C 285.5475 296.04 285.5475 296.04 285.5475 296.04 
C 285.5475 296.04 285.5475 296.04 285.5475 296.04 
C 285.5475 296.04 285.5475 296.04 285.5475 296.04 
C 285.5475 296.04 285.5475 296.04 285.5475 296.04 
C 285.5475 296.04 285.5475 296.04 285.5475 296.04 
C 285.5475 296.04 285.5475 296.04 285.5475 296.04 
C 285.5475 296.04 285.5475 296.04 285.5475 296.04 
C 285.5475 296.04 285.5475 296.04 285.5475 296.04 
C 285.5475 296.04 285.5475 296.04 285.5475 296.04 
C 285.5475 296.04 285.5475 296.04 285.5475 296.04 
C 285.5475 296.04 285.5475 296.04 285.5475 296.04 
z
" style="fill: #ffffff"/>
   </g>
   <g id="patch_3">
    <path d="M 306.096877 296.04 
L 359.540741 167.879948 
L 266.098254 262.352917 
L 158.977222 296.04 
L 280.569442 304.662249 
L 298.915643 319.194302 
z
" clip-path="url(#p5887a8b44c)" style="fill: #1f77b4; opacity: 0.25"/>
   </g>
   <g id="patch_4">
    <path d="M 459.016028 296.04 
L 331.982458 215.612293 
L 186.78501 124.97835 
L 163.381104 296.04 
L 215.269039 417.765865 
L 389.550027 476.17766 
z
" clip-path="url(#p5887a8b44c)" style="fill: #ff7f0e; opacity: 0.25"/>
   </g>
   <g id="matplotlib.axis_1">
    <g id="xtick_1">
     <g id="line2d_1">
      <path d="M 285.5475 296.04 
L 503.455 296.04 
" clip-path="url(#p5887a8b44c)" style="fill: none; stroke: #b0b0b0; stroke-width: 0.8; stroke-linecap: square"/>
     </g>
     <g id="text_1">
      <!-- electricity_generation -->
      <g transform="translate(468.452813 298.398281) scale(0.09 -0.09)">
       <defs>
        <path id="DejaVuSans-65" d="M 3597 1894 
L 3597 1613 
L 953 1613 
Q 991 1019 1311 708 
Q 1631 397 2203 397 
Q 2534 397 2845 478 
Q 3156 559 3463 722 
L 3463 178 
Q 3153 47 2828 -22 
Q 2503 -91 2169 -91 
Q 1331 -91 842 396 
Q 353 884 353 1716 
Q 353 2575 817 3079 
Q 1281 3584 2069 3584 
Q 2775 3584 3186 3129 
Q 3597 2675 3597 1894 
z
M 3022 2063 
Q 3016 2534 2758 2815 
Q 2500 3097 2075 3097 
Q 1594 3097 1305 2825 
Q 1016 2553 972 2059 
L 3022 2063 
z
" transform="scale(0.015625)"/>
        <path id="DejaVuSans-6c" d="M 603 4863 
L 1178 4863 
L 1178 0 
L 603 0 
L 603 4863 
z
" transform="scale(0.015625)"/>
        <path id="DejaVuSans-63" d="M 3122 3366 
L 3122 2828 
Q 2878 2963 2633 3030 
Q 2388 3097 2138 3097 
Q 1578 3097 1268 2742 
Q 959 2388 959 1747 
Q 959 1106 1268 751 
Q 1578 397 2138 397 
Q 2388 397 2633 464 
Q 2878 531 3122 666 
L 3122 134 
Q 2881 22 2623 -34 
Q 2366 -91 2075 -91 
Q 1284 -91 818 406 
Q 353 903 353 1747 
Q 353 2603 823 3093 
Q 1294 3584 2113 3584 
Q 2378 3584 2631 3529 
Q 2884 3475 3122 3366 
z
" transform="scale(0.015625)"/>
        <path id="DejaVuSans-74" d="M 1172 4494 
L 1172 3500 
L 2356 3500 
L 2356 3053 
L 1172 3053 
L 1172 1153 
Q 1172 725 1289 603 
Q 1406 481 1766 481 
L 2356 481 
L 2356 0 
L 1766 0 
Q 1100 0 847 248 
Q 594 497 594 1153 
L 594 3053 
L 172 3053 
L 172 3500 
L 594 3500 
L 594 4494 
L 1172 4494 
z
" transform="scale(0.015625)"/>
        <path id="DejaVuSans-72" d="M 2631 2963 
Q 2534 3019 2420 3045 
Q 2306 3072 2169 3072 
Q 1681 3072 1420 2755 
Q 1159 2438 1159 1844 
L 1159 0 
L 581 0 
L 581 3500 
L 1159 3500 
L 1159 2956 
Q 1341 3275 1631 3429 
Q 1922 3584 2338 3584 
Q 2397 3584 2469 3576 
Q 2541 3569 2628 3553 
L 2631 2963 
z
" transform="scale(0.015625)"/>
        <path id="DejaVuSans-69" d="M 603 3500 
L 1178 3500 
L 1178 0 
L 603 0 
L 603 3500 
z
M 603 4863 
L 1178 4863 
L 1178 4134 
L 603 4134 
L 603 4863 
z
" transform="scale(0.015625)"/>
        <path id="DejaVuSans-79" d="M 2059 -325 
Q 1816 -950 1584 -1140 
Q 1353 -1331 966 -1331 
L 506 -1331 
L 506 -850 
L 844 -850 
Q 1081 -850 1212 -737 
Q 1344 -625 1503 -206 
L 1606 56 
L 191 3500 
L 800 3500 
L 1894 763 
L 2988 3500 
L 3597 3500 
L 2059 -325 
z
" transform="scale(0.015625)"/>
        <path id="DejaVuSans-5f" d="M 3263 -1063 
L 3263 -1509 
L -63 -1509 
L -63 -1063 
L 3263 -1063 
z
" transform="scale(0.015625)"/>
        <path id="DejaVuSans-67" d="M 2906 1791 
Q 2906 2416 2648 2759 
Q 2391 3103 1925 3103 
Q 1463 3103 1205 2759 
Q 947 2416 947 1791 
Q 947 1169 1205 825 
Q 1463 481 1925 481 
Q 2391 481 2648 825 
Q 2906 1169 2906 1791 
z
M 3481 434 
Q 3481 -459 3084 -895 
Q 2688 -1331 1869 -1331 
Q 1566 -1331 1297 -1286 
Q 1028 -1241 775 -1147 
L 775 -588 
Q 1028 -725 1275 -790 
Q 1522 -856 1778 -856 
Q 2344 -856 2625 -561 
Q 2906 -266 2906 331 
L 2906 616 
Q 2728 306 2450 153 
Q 2172 0 1784 0 
Q 1141 0 747 490 
Q 353 981 353 1791 
Q 353 2603 747 3093 
Q 1141 3584 1784 3584 
Q 2172 3584 2450 3431 
Q 2728 3278 2906 2969 
L 2906 3500 
L 3481 3500 
L 3481 434 
z
" transform="scale(0.015625)"/>
        <path id="DejaVuSans-6e" d="M 3513 2113 
L 3513 0 
L 2938 0 
L 2938 2094 
Q 2938 2591 2744 2837 
Q 2550 3084 2163 3084 
Q 1697 3084 1428 2787 
Q 1159 2491 1159 1978 
L 1159 0 
L 581 0 
L 581 3500 
L 1159 3500 
L 1159 2956 
Q 1366 3272 1645 3428 
Q 1925 3584 2291 3584 
Q 2894 3584 3203 3211 
Q 3513 2838 3513 2113 
z
" transform="scale(0.015625)"/>
        <path id="DejaVuSans-61" d="M 2194 1759 
Q 1497 1759 1228 1600 
Q 959 1441 959 1056 
Q 959 750 1161 570 
Q 1363 391 1709 391 
Q 2188 391 2477 730 
Q 2766 1069 2766 1631 
L 2766 1759 
L 2194 1759 
z
M 3341 1997 
L 3341 0 
L 2766 0 
L 2766 531 
Q 2569 213 2275 61 
Q 1981 -91 1556 -91 
Q 1019 -91 701 211 
Q 384 513 384 1019 
Q 384 1609 779 1909 
Q 1175 2209 1959 2209 
L 2766 2209 
L 2766 2266 
Q 2766 2663 2505 2880 
Q 2244 3097 1772 3097 
Q 1472 3097 1187 3025 
Q 903 2953 641 2809 
L 641 3341 
Q 956 3463 1253 3523 
Q 1550 3584 1831 3584 
Q 2591 3584 2966 3190 
Q 3341 2797 3341 1997 
z
" transform="scale(0.015625)"/>
        <path id="DejaVuSans-6f" d="M 1959 3097 
Q 1497 3097 1228 2736 
Q 959 2375 959 1747 
Q 959 1119 1226 758 
Q 1494 397 1959 397 
Q 2419 397 2687 759 
Q 2956 1122 2956 1747 
Q 2956 2369 2687 2733 
Q 2419 3097 1959 3097 
z
M 1959 3584 
Q 2709 3584 3137 3096 
Q 3566 2609 3566 1747 
Q 3566 888 3137 398 
Q 2709 -91 1959 -91 
Q 1206 -91 779 398 
Q 353 888 353 1747 
Q 353 2609 779 3096 
Q 1206 3584 1959 3584 
z
" transform="scale(0.015625)"/>
       </defs>
       <use xlink:href="#DejaVuSans-65"/>
       <use xlink:href="#DejaVuSans-6c" x="61.523438"/>
       <use xlink:href="#DejaVuSans-65" x="89.306641"/>
       <use xlink:href="#DejaVuSans-63" x="150.830078"/>
       <use xlink:href="#DejaVuSans-74" x="205.810547"/>
       <use xlink:href="#DejaVuSans-72" x="245.019531"/>
       <use xlink:href="#DejaVuSans-69" x="286.132812"/>
       <use xlink:href="#DejaVuSans-63" x="313.916016"/>
       <use xlink:href="#DejaVuSans-69" x="368.896484"/>
       <use xlink:href="#DejaVuSans-74" x="396.679688"/>
       <use xlink:href="#DejaVuSans-79" x="435.888672"/>
       <use xlink:href="#DejaVuSans-5f" x="495.068359"/>
       <use xlink:href="#DejaVuSans-67" x="545.068359"/>
       <use xlink:href="#DejaVuSans-65" x="608.544922"/>
       <use xlink:href="#DejaVuSans-6e" x="670.068359"/>
       <use xlink:href="#DejaVuSans-65" x="733.447266"/>
       <use xlink:href="#DejaVuSans-72" x="794.970703"/>
       <use xlink:href="#DejaVuSans-61" x="836.083984"/>
       <use xlink:href="#DejaVuSans-74" x="897.363281"/>
       <use xlink:href="#DejaVuSans-69" x="936.572266"/>
       <use xlink:href="#DejaVuSans-6f" x="964.355469"/>
       <use xlink:href="#DejaVuSans-6e" x="1025.537109"/>
      </g>
     </g>
    </g>
    <g id="xtick_2">
     <g id="line2d_2">
      <path d="M 285.5475 296.04 
L 394.50125 107.326569 
" clip-path="url(#p5887a8b44c)" style="fill: none; stroke: #b0b0b0; stroke-width: 0.8; stroke-linecap: square"/>
     </g>
     <g id="text_2">
      <!-- greenhouse_gas_emissions -->
      <g transform="translate(340.186641 97.560495) scale(0.09 -0.09)">
       <defs>
        <path id="DejaVuSans-68" d="M 3513 2113 
L 3513 0 
L 2938 0 
L 2938 2094 
Q 2938 2591 2744 2837 
Q 2550 3084 2163 3084 
Q 1697 3084 1428 2787 
Q 1159 2491 1159 1978 
L 1159 0 
L 581 0 
L 581 4863 
L 1159 4863 
L 1159 2956 
Q 1366 3272 1645 3428 
Q 1925 3584 2291 3584 
Q 2894 3584 3203 3211 
Q 3513 2838 3513 2113 
z
" transform="scale(0.015625)"/>
        <path id="DejaVuSans-75" d="M 544 1381 
L 544 3500 
L 1119 3500 
L 1119 1403 
Q 1119 906 1312 657 
Q 1506 409 1894 409 
Q 2359 409 2629 706 
Q 2900 1003 2900 1516 
L 2900 3500 
L 3475 3500 
L 3475 0 
L 2900 0 
L 2900 538 
Q 2691 219 2414 64 
Q 2138 -91 1772 -91 
Q 1169 -91 856 284 
Q 544 659 544 1381 
z
M 1991 3584 
L 1991 3584 
z
" transform="scale(0.015625)"/>
        <path id="DejaVuSans-73" d="M 2834 3397 
L 2834 2853 
Q 2591 2978 2328 3040 
Q 2066 3103 1784 3103 
Q 1356 3103 1142 2972 
Q 928 2841 928 2578 
Q 928 2378 1081 2264 
Q 1234 2150 1697 2047 
L 1894 2003 
Q 2506 1872 2764 1633 
Q 3022 1394 3022 966 
Q 3022 478 2636 193 
Q 2250 -91 1575 -91 
Q 1294 -91 989 -36 
Q 684 19 347 128 
L 347 722 
Q 666 556 975 473 
Q 1284 391 1588 391 
Q 1994 391 2212 530 
Q 2431 669 2431 922 
Q 2431 1156 2273 1281 
Q 2116 1406 1581 1522 
L 1381 1569 
Q 847 1681 609 1914 
Q 372 2147 372 2553 
Q 372 3047 722 3315 
Q 1072 3584 1716 3584 
Q 2034 3584 2315 3537 
Q 2597 3491 2834 3397 
z
" transform="scale(0.015625)"/>
        <path id="DejaVuSans-6d" d="M 3328 2828 
Q 3544 3216 3844 3400 
Q 4144 3584 4550 3584 
Q 5097 3584 5394 3201 
Q 5691 2819 5691 2113 
L 5691 0 
L 5113 0 
L 5113 2094 
Q 5113 2597 4934 2840 
Q 4756 3084 4391 3084 
Q 3944 3084 3684 2787 
Q 3425 2491 3425 1978 
L 3425 0 
L 2847 0 
L 2847 2094 
Q 2847 2600 2669 2842 
Q 2491 3084 2119 3084 
Q 1678 3084 1418 2786 
Q 1159 2488 1159 1978 
L 1159 0 
L 581 0 
L 581 3500 
L 1159 3500 
L 1159 2956 
Q 1356 3278 1631 3431 
Q 1906 3584 2284 3584 
Q 2666 3584 2933 3390 
Q 3200 3197 3328 2828 
z
" transform="scale(0.015625)"/>
       </defs>
       <use xlink:href="#DejaVuSans-67"/>
       <use xlink:href="#DejaVuSans-72" x="63.476562"/>
       <use xlink:href="#DejaVuSans-65" x="102.339844"/>
       <use xlink:href="#DejaVuSans-65" x="163.863281"/>
       <use xlink:href="#DejaVuSans-6e" x="225.386719"/>
       <use xlink:href="#DejaVuSans-68" x="288.765625"/>
       <use xlink:href="#DejaVuSans-6f" x="352.144531"/>
       <use xlink:href="#DejaVuSans-75" x="413.326172"/>
       <use xlink:href="#DejaVuSans-73" x="476.705078"/>
       <use xlink:href="#DejaVuSans-65" x="528.804688"/>
       <use xlink:href="#DejaVuSans-5f" x="590.328125"/>
       <use xlink:href="#DejaVuSans-67" x="640.328125"/>
       <use xlink:href="#DejaVuSans-61" x="703.804688"/>
       <use xlink:href="#DejaVuSans-73" x="765.083984"/>
       <use xlink:href="#DejaVuSans-5f" x="817.183594"/>
       <use xlink:href="#DejaVuSans-65" x="867.183594"/>
       <use xlink:href="#DejaVuSans-6d" x="928.707031"/>
       <use xlink:href="#DejaVuSans-69" x="1026.119141"/>
       <use xlink:href="#DejaVuSans-73" x="1053.902344"/>
       <use xlink:href="#DejaVuSans-73" x="1106.001953"/>
       <use xlink:href="#DejaVuSans-69" x="1158.101562"/>
       <use xlink:href="#DejaVuSans-6f" x="1185.884766"/>
       <use xlink:href="#DejaVuSans-6e" x="1247.066406"/>
       <use xlink:href="#DejaVuSans-73" x="1310.445312"/>
      </g>
     </g>
    </g>
    <g id="xtick_3">
     <g id="line2d_3">
      <path d="M 285.5475 296.04 
L 176.59375 107.326569 
" clip-path="url(#p5887a8b44c)" style="fill: none; stroke: #b0b0b0; stroke-width: 0.8; stroke-linecap: square"/>
     </g>
     <g id="text_3">
      <!-- renewables_share_energy -->
      <g transform="translate(111.145078 97.560495) scale(0.09 -0.09)">
       <defs>
        <path id="DejaVuSans-77" d="M 269 3500 
L 844 3500 
L 1563 769 
L 2278 3500 
L 2956 3500 
L 3675 769 
L 4391 3500 
L 4966 3500 
L 4050 0 
L 3372 0 
L 2619 2869 
L 1863 0 
L 1184 0 
L 269 3500 
z
" transform="scale(0.015625)"/>
        <path id="DejaVuSans-62" d="M 3116 1747 
Q 3116 2381 2855 2742 
Q 2594 3103 2138 3103 
Q 1681 3103 1420 2742 
Q 1159 2381 1159 1747 
Q 1159 1113 1420 752 
Q 1681 391 2138 391 
Q 2594 391 2855 752 
Q 3116 1113 3116 1747 
z
M 1159 2969 
Q 1341 3281 1617 3432 
Q 1894 3584 2278 3584 
Q 2916 3584 3314 3078 
Q 3713 2572 3713 1747 
Q 3713 922 3314 415 
Q 2916 -91 2278 -91 
Q 1894 -91 1617 61 
Q 1341 213 1159 525 
L 1159 0 
L 581 0 
L 581 4863 
L 1159 4863 
L 1159 2969 
z
" transform="scale(0.015625)"/>
       </defs>
       <use xlink:href="#DejaVuSans-72"/>
       <use xlink:href="#DejaVuSans-65" x="38.863281"/>
       <use xlink:href="#DejaVuSans-6e" x="100.386719"/>
       <use xlink:href="#DejaVuSans-65" x="163.765625"/>
       <use xlink:href="#DejaVuSans-77" x="225.289062"/>
       <use xlink:href="#DejaVuSans-61" x="307.076172"/>
       <use xlink:href="#DejaVuSans-62" x="368.355469"/>
       <use xlink:href="#DejaVuSans-6c" x="431.832031"/>
       <use xlink:href="#DejaVuSans-65" x="459.615234"/>
       <use xlink:href="#DejaVuSans-73" x="521.138672"/>
       <use xlink:href="#DejaVuSans-5f" x="573.238281"/>
       <use xlink:href="#DejaVuSans-73" x="623.238281"/>
       <use xlink:href="#DejaVuSans-68" x="675.337891"/>
       <use xlink:href="#DejaVuSans-61" x="738.716797"/>
       <use xlink:href="#DejaVuSans-72" x="799.996094"/>
       <use xlink:href="#DejaVuSans-65" x="838.859375"/>
       <use xlink:href="#DejaVuSans-5f" x="900.382812"/>
       <use xlink:href="#DejaVuSans-65" x="950.382812"/>
       <use xlink:href="#DejaVuSans-6e" x="1011.90625"/>
       <use xlink:href="#DejaVuSans-65" x="1075.285156"/>
       <use xlink:href="#DejaVuSans-72" x="1136.808594"/>
       <use xlink:href="#DejaVuSans-67" x="1176.171875"/>
       <use xlink:href="#DejaVuSans-79" x="1239.648438"/>
      </g>
     </g>
    </g>
    <g id="xtick_4">
     <g id="line2d_4">
      <path d="M 285.5475 296.04 
L 67.64 296.04 
" clip-path="url(#p5887a8b44c)" style="fill: none; stroke: #b0b0b0; stroke-width: 0.8; stroke-linecap: square"/>
     </g>
     <g id="text_4">
      <!-- fossil_share_energy -->
      <g transform="translate(9.46125 298.398281) scale(0.09 -0.09)">
       <defs>
        <path id="DejaVuSans-66" d="M 2375 4863 
L 2375 4384 
L 1825 4384 
Q 1516 4384 1395 4259 
Q 1275 4134 1275 3809 
L 1275 3500 
L 2222 3500 
L 2222 3053 
L 1275 3053 
L 1275 0 
L 697 0 
L 697 3053 
L 147 3053 
L 147 3500 
L 697 3500 
L 697 3744 
Q 697 4328 969 4595 
Q 1241 4863 1831 4863 
L 2375 4863 
z
" transform="scale(0.015625)"/>
       </defs>
       <use xlink:href="#DejaVuSans-66"/>
       <use xlink:href="#DejaVuSans-6f" x="35.205078"/>
       <use xlink:href="#DejaVuSans-73" x="96.386719"/>
       <use xlink:href="#DejaVuSans-73" x="148.486328"/>
       <use xlink:href="#DejaVuSans-69" x="200.585938"/>
       <use xlink:href="#DejaVuSans-6c" x="228.369141"/>
       <use xlink:href="#DejaVuSans-5f" x="256.152344"/>
       <use xlink:href="#DejaVuSans-73" x="306.152344"/>
       <use xlink:href="#DejaVuSans-68" x="358.251953"/>
       <use xlink:href="#DejaVuSans-61" x="421.630859"/>
       <use xlink:href="#DejaVuSans-72" x="482.910156"/>
       <use xlink:href="#DejaVuSans-65" x="521.773438"/>
       <use xlink:href="#DejaVuSans-5f" x="583.296875"/>
       <use xlink:href="#DejaVuSans-65" x="633.296875"/>
       <use xlink:href="#DejaVuSans-6e" x="694.820312"/>
       <use xlink:href="#DejaVuSans-65" x="758.199219"/>
       <use xlink:href="#DejaVuSans-72" x="819.722656"/>
       <use xlink:href="#DejaVuSans-67" x="859.085938"/>
       <use xlink:href="#DejaVuSans-79" x="922.5625"/>
      </g>
     </g>
    </g>
    <g id="xtick_5">
     <g id="line2d_5">
      <path d="M 285.5475 296.04 
L 176.59375 484.753431 
" clip-path="url(#p5887a8b44c)" style="fill: none; stroke: #b0b0b0; stroke-width: 0.8; stroke-linecap: square"/>
     </g>
     <g id="text_5">
      <!-- solar_electricity -->
      <g transform="translate(134.109844 499.236068) scale(0.09 -0.09)">
       <use xlink:href="#DejaVuSans-73"/>
       <use xlink:href="#DejaVuSans-6f" x="52.099609"/>
       <use xlink:href="#DejaVuSans-6c" x="113.28125"/>
       <use xlink:href="#DejaVuSans-61" x="141.064453"/>
       <use xlink:href="#DejaVuSans-72" x="202.34375"/>
       <use xlink:href="#DejaVuSans-5f" x="243.457031"/>
       <use xlink:href="#DejaVuSans-65" x="293.457031"/>
       <use xlink:href="#DejaVuSans-6c" x="354.980469"/>
       <use xlink:href="#DejaVuSans-65" x="382.763672"/>
       <use xlink:href="#DejaVuSans-63" x="444.287109"/>
       <use xlink:href="#DejaVuSans-74" x="499.267578"/>
       <use xlink:href="#DejaVuSans-72" x="538.476562"/>
       <use xlink:href="#DejaVuSans-69" x="579.589844"/>
       <use xlink:href="#DejaVuSans-63" x="607.373047"/>
       <use xlink:href="#DejaVuSans-69" x="662.353516"/>
       <use xlink:href="#DejaVuSans-74" x="690.136719"/>
       <use xlink:href="#DejaVuSans-79" x="729.345703"/>
      </g>
     </g>
    </g>
    <g id="xtick_6">
     <g id="line2d_6">
      <path d="M 285.5475 296.04 
L 394.50125 484.753431 
" clip-path="url(#p5887a8b44c)" style="fill: none; stroke: #b0b0b0; stroke-width: 0.8; stroke-linecap: square"/>
     </g>
     <g id="text_6">
      <!-- oil_consumption -->
      <g transform="translate(364.862109 499.236068) scale(0.09 -0.09)">
       <defs>
        <path id="DejaVuSans-70" d="M 1159 525 
L 1159 -1331 
L 581 -1331 
L 581 3500 
L 1159 3500 
L 1159 2969 
Q 1341 3281 1617 3432 
Q 1894 3584 2278 3584 
Q 2916 3584 3314 3078 
Q 3713 2572 3713 1747 
Q 3713 922 3314 415 
Q 2916 -91 2278 -91 
Q 1894 -91 1617 61 
Q 1341 213 1159 525 
z
M 3116 1747 
Q 3116 2381 2855 2742 
Q 2594 3103 2138 3103 
Q 1681 3103 1420 2742 
Q 1159 2381 1159 1747 
Q 1159 1113 1420 752 
Q 1681 391 2138 391 
Q 2594 391 2855 752 
Q 3116 1113 3116 1747 
z
" transform="scale(0.015625)"/>
       </defs>
       <use xlink:href="#DejaVuSans-6f"/>
       <use xlink:href="#DejaVuSans-69" x="61.181641"/>
       <use xlink:href="#DejaVuSans-6c" x="88.964844"/>
       <use xlink:href="#DejaVuSans-5f" x="116.748047"/>
       <use xlink:href="#DejaVuSans-63" x="166.748047"/>
       <use xlink:href="#DejaVuSans-6f" x="221.728516"/>
       <use xlink:href="#DejaVuSans-6e" x="282.910156"/>
       <use xlink:href="#DejaVuSans-73" x="346.289062"/>
       <use xlink:href="#DejaVuSans-75" x="398.388672"/>
       <use xlink:href="#DejaVuSans-6d" x="461.767578"/>
       <use xlink:href="#DejaVuSans-70" x="559.179688"/>
       <use xlink:href="#DejaVuSans-74" x="622.65625"/>
       <use xlink:href="#DejaVuSans-69" x="661.865234"/>
       <use xlink:href="#DejaVuSans-6f" x="689.648438"/>
       <use xlink:href="#DejaVuSans-6e" x="750.830078"/>
      </g>
     </g>
    </g>
   </g>
   <g id="matplotlib.axis_2">
    <g id="ytick_1">
     <g id="line2d_7">
      <path d="M 319.80825 296.04 
C 319.80825 291.54092 318.922029 287.085587 317.200306 282.928979 
C 315.478582 278.77237 312.954839 274.995322 309.773509 271.813991 
C 306.592178 268.632661 302.81513 266.108918 298.658521 264.387194 
C 294.501913 262.665471 290.04658 261.77925 285.5475 261.77925 
C 281.04842 261.77925 276.593087 262.665471 272.436479 264.387194 
C 268.27987 266.108918 264.502822 268.632661 261.321491 271.813991 
C 258.140161 274.995322 255.616418 278.77237 253.894694 282.928979 
C 252.172971 287.085587 251.28675 291.54092 251.28675 296.04 
C 251.28675 300.53908 252.172971 304.994413 253.894694 309.151021 
C 255.616418 313.30763 258.140161 317.084678 261.321491 320.266009 
C 264.502822 323.447339 268.27987 325.971082 272.436479 327.692806 
C 276.593087 329.414529 281.04842 330.30075 285.5475 330.30075 
C 290.04658 330.30075 294.501913 329.414529 298.658521 327.692806 
C 302.81513 325.971082 306.592178 323.447339 309.773509 320.266009 
C 312.954839 317.084678 315.478582 313.30763 317.200306 309.151021 
C 318.922029 304.994413 319.80825 300.53908 319.80825 296.04 
" clip-path="url(#p5887a8b44c)" style="fill: none; stroke: #b0b0b0; stroke-width: 0.8; stroke-linecap: square"/>
     </g>
     <g id="text_7">
      <!-- 0.1 -->
      <g transform="translate(317.200306 280.849291) scale(0.1 -0.1)">
       <defs>
        <path id="DejaVuSans-30" d="M 2034 4250 
Q 1547 4250 1301 3770 
Q 1056 3291 1056 2328 
Q 1056 1369 1301 889 
Q 1547 409 2034 409 
Q 2525 409 2770 889 
Q 3016 1369 3016 2328 
Q 3016 3291 2770 3770 
Q 2525 4250 2034 4250 
z
M 2034 4750 
Q 2819 4750 3233 4129 
Q 3647 3509 3647 2328 
Q 3647 1150 3233 529 
Q 2819 -91 2034 -91 
Q 1250 -91 836 529 
Q 422 1150 422 2328 
Q 422 3509 836 4129 
Q 1250 4750 2034 4750 
z
" transform="scale(0.015625)"/>
        <path id="DejaVuSans-2e" d="M 684 794 
L 1344 794 
L 1344 0 
L 684 0 
L 684 794 
z
" transform="scale(0.015625)"/>
        <path id="DejaVuSans-31" d="M 794 531 
L 1825 531 
L 1825 4091 
L 703 3866 
L 703 4441 
L 1819 4666 
L 2450 4666 
L 2450 531 
L 3481 531 
L 3481 0 
L 794 0 
L 794 531 
z
" transform="scale(0.015625)"/>
       </defs>
       <use xlink:href="#DejaVuSans-30"/>
       <use xlink:href="#DejaVuSans-2e" x="63.623047"/>
       <use xlink:href="#DejaVuSans-31" x="95.410156"/>
      </g>
     </g>
    </g>
    <g id="ytick_2">
     <g id="line2d_8">
      <path d="M 354.069 296.04 
C 354.069 287.041839 352.296558 278.131174 348.853111 269.817957 
C 345.409664 261.504741 340.362178 253.950644 333.999517 247.587983 
C 327.636856 241.225322 320.082759 236.177836 311.769543 232.734389 
C 303.456326 229.290942 294.545661 227.5185 285.5475 227.5185 
C 276.549339 227.5185 267.638674 229.290942 259.325457 232.734389 
C 251.012241 236.177836 243.458144 241.225322 237.095483 247.587983 
C 230.732822 253.950644 225.685336 261.504741 222.241889 269.817957 
C 218.798442 278.131174 217.026 287.041839 217.026 296.04 
C 217.026 305.038161 218.798442 313.948826 222.241889 322.262043 
C 225.685336 330.575259 230.732822 338.129356 237.095483 344.492017 
C 243.458144 350.854678 251.012241 355.902164 259.325457 359.345611 
C 267.638674 362.789058 276.549339 364.5615 285.5475 364.5615 
C 294.545661 364.5615 303.456326 362.789058 311.769543 359.345611 
C 320.082759 355.902164 327.636856 350.854678 333.999517 344.492017 
C 340.362178 338.129356 345.409664 330.575259 348.853111 322.262043 
C 352.296558 313.948826 354.069 305.038161 354.069 296.04 
" clip-path="url(#p5887a8b44c)" style="fill: none; stroke: #b0b0b0; stroke-width: 0.8; stroke-linecap: square"/>
     </g>
     <g id="text_8">
      <!-- 0.2 -->
      <g transform="translate(348.853111 267.73827) scale(0.1 -0.1)">
       <defs>
        <path id="DejaVuSans-32" d="M 1228 531 
L 3431 531 
L 3431 0 
L 469 0 
L 469 531 
Q 828 903 1448 1529 
Q 2069 2156 2228 2338 
Q 2531 2678 2651 2914 
Q 2772 3150 2772 3378 
Q 2772 3750 2511 3984 
Q 2250 4219 1831 4219 
Q 1534 4219 1204 4116 
Q 875 4013 500 3803 
L 500 4441 
Q 881 4594 1212 4672 
Q 1544 4750 1819 4750 
Q 2544 4750 2975 4387 
Q 3406 4025 3406 3419 
Q 3406 3131 3298 2873 
Q 3191 2616 2906 2266 
Q 2828 2175 2409 1742 
Q 1991 1309 1228 531 
z
" transform="scale(0.015625)"/>
       </defs>
       <use xlink:href="#DejaVuSans-30"/>
       <use xlink:href="#DejaVuSans-2e" x="63.623047"/>
       <use xlink:href="#DejaVuSans-32" x="95.410156"/>
      </g>
     </g>
    </g>
    <g id="ytick_3">
     <g id="line2d_9">
      <path d="M 388.32975 296.04 
C 388.32975 282.542759 385.671087 269.176761 380.505917 256.706936 
C 375.340746 244.237111 367.769516 232.905965 358.225526 223.361974 
C 348.681535 213.817984 337.350389 206.246754 324.880564 201.081583 
C 312.410739 195.916413 299.044741 193.25775 285.5475 193.25775 
C 272.050259 193.25775 258.684261 195.916413 246.214436 201.081583 
C 233.744611 206.246754 222.413465 213.817984 212.869474 223.361974 
C 203.325484 232.905965 195.754254 244.237111 190.589083 256.706936 
C 185.423913 269.176761 182.76525 282.542759 182.76525 296.04 
C 182.76525 309.537241 185.423913 322.903239 190.589083 335.373064 
C 195.754254 347.842889 203.325484 359.174035 212.869474 368.718026 
C 222.413465 378.262016 233.744611 385.833246 246.214436 390.998417 
C 258.684261 396.163587 272.050259 398.82225 285.5475 398.82225 
C 299.044741 398.82225 312.410739 396.163587 324.880564 390.998417 
C 337.350389 385.833246 348.681535 378.262016 358.225526 368.718026 
C 367.769516 359.174035 375.340746 347.842889 380.505917 335.373064 
C 385.671087 322.903239 388.32975 309.537241 388.32975 296.04 
" clip-path="url(#p5887a8b44c)" style="fill: none; stroke: #b0b0b0; stroke-width: 0.8; stroke-linecap: square"/>
     </g>
     <g id="text_9">
      <!-- 0.3 -->
      <g transform="translate(380.505917 254.627248) scale(0.1 -0.1)">
       <defs>
        <path id="DejaVuSans-33" d="M 2597 2516 
Q 3050 2419 3304 2112 
Q 3559 1806 3559 1356 
Q 3559 666 3084 287 
Q 2609 -91 1734 -91 
Q 1441 -91 1130 -33 
Q 819 25 488 141 
L 488 750 
Q 750 597 1062 519 
Q 1375 441 1716 441 
Q 2309 441 2620 675 
Q 2931 909 2931 1356 
Q 2931 1769 2642 2001 
Q 2353 2234 1838 2234 
L 1294 2234 
L 1294 2753 
L 1863 2753 
Q 2328 2753 2575 2939 
Q 2822 3125 2822 3475 
Q 2822 3834 2567 4026 
Q 2313 4219 1838 4219 
Q 1578 4219 1281 4162 
Q 984 4106 628 3988 
L 628 4550 
Q 988 4650 1302 4700 
Q 1616 4750 1894 4750 
Q 2613 4750 3031 4423 
Q 3450 4097 3450 3541 
Q 3450 3153 3228 2886 
Q 3006 2619 2597 2516 
z
" transform="scale(0.015625)"/>
       </defs>
       <use xlink:href="#DejaVuSans-30"/>
       <use xlink:href="#DejaVuSans-2e" x="63.623047"/>
       <use xlink:href="#DejaVuSans-33" x="95.410156"/>
      </g>
     </g>
    </g>
    <g id="ytick_4">
     <g id="line2d_10">
      <path d="M 422.590499 296.04 
C 422.590499 278.043678 419.045616 260.222348 412.158722 243.595915 
C 405.271828 226.969481 395.176855 211.861287 382.451534 199.135966 
C 369.726213 186.410645 354.618019 176.315672 337.991585 169.428778 
C 321.365152 162.541884 303.543822 158.997001 285.5475 158.997001 
C 267.551178 158.997001 249.729848 162.541884 233.103415 169.428778 
C 216.476981 176.315672 201.368787 186.410645 188.643466 199.135966 
C 175.918145 211.861287 165.823172 226.969481 158.936278 243.595915 
C 152.049384 260.222348 148.504501 278.043678 148.504501 296.04 
C 148.504501 314.036322 152.049384 331.857652 158.936278 348.484085 
C 165.823172 365.110519 175.918145 380.218713 188.643466 392.944034 
C 201.368787 405.669355 216.476981 415.764328 233.103415 422.651222 
C 249.729848 429.538116 267.551178 433.082999 285.5475 433.082999 
C 303.543822 433.082999 321.365152 429.538116 337.991585 422.651222 
C 354.618019 415.764328 369.726213 405.669355 382.451534 392.944034 
C 395.176855 380.218713 405.271828 365.110519 412.158722 348.484085 
C 419.045616 331.857652 422.590499 314.036322 422.590499 296.04 
" clip-path="url(#p5887a8b44c)" style="fill: none; stroke: #b0b0b0; stroke-width: 0.8; stroke-linecap: square"/>
     </g>
     <g id="text_10">
      <!-- 0.4 -->
      <g transform="translate(412.158722 241.516227) scale(0.1 -0.1)">
       <defs>
        <path id="DejaVuSans-34" d="M 2419 4116 
L 825 1625 
L 2419 1625 
L 2419 4116 
z
M 2253 4666 
L 3047 4666 
L 3047 1625 
L 3713 1625 
L 3713 1100 
L 3047 1100 
L 3047 0 
L 2419 0 
L 2419 1100 
L 313 1100 
L 313 1709 
L 2253 4666 
z
" transform="scale(0.015625)"/>
       </defs>
       <use xlink:href="#DejaVuSans-30"/>
       <use xlink:href="#DejaVuSans-2e" x="63.623047"/>
       <use xlink:href="#DejaVuSans-34" x="95.410156"/>
      </g>
     </g>
    </g>
    <g id="ytick_5">
     <g id="line2d_11">
      <path d="M 456.851249 296.04 
C 456.851249 273.544598 452.420145 251.267935 443.811528 230.484893 
C 435.20291 209.701852 422.584194 190.816609 406.677543 174.909957 
C 390.770891 159.003306 371.885648 146.38459 351.102607 137.775972 
C 330.319565 129.167355 308.042902 124.736251 285.5475 124.736251 
C 263.052098 124.736251 240.775435 129.167355 219.992393 137.775972 
C 199.209352 146.38459 180.324109 159.003306 164.417457 174.909957 
C 148.510806 190.816609 135.89209 209.701852 127.283472 230.484893 
C 118.674855 251.267935 114.243751 273.544598 114.243751 296.04 
C 114.243751 318.535402 118.674855 340.812065 127.283472 361.595107 
C 135.89209 382.378148 148.510806 401.263391 164.417457 417.170043 
C 180.324109 433.076694 199.209352 445.69541 219.992393 454.304028 
C 240.775435 462.912645 263.052098 467.343749 285.5475 467.343749 
C 308.042902 467.343749 330.319565 462.912645 351.102607 454.304028 
C 371.885648 445.69541 390.770891 433.076694 406.677543 417.170043 
C 422.584194 401.263391 435.20291 382.378148 443.811528 361.595107 
C 452.420145 340.812065 456.851249 318.535402 456.851249 296.04 
" clip-path="url(#p5887a8b44c)" style="fill: none; stroke: #b0b0b0; stroke-width: 0.8; stroke-linecap: square"/>
     </g>
     <g id="text_11">
      <!-- 0.5 -->
      <g transform="translate(443.811528 228.405206) scale(0.1 -0.1)">
       <defs>
        <path id="DejaVuSans-35" d="M 691 4666 
L 3169 4666 
L 3169 4134 
L 1269 4134 
L 1269 2991 
Q 1406 3038 1543 3061 
Q 1681 3084 1819 3084 
Q 2600 3084 3056 2656 
Q 3513 2228 3513 1497 
Q 3513 744 3044 326 
Q 2575 -91 1722 -91 
Q 1428 -91 1123 -41 
Q 819 9 494 109 
L 494 744 
Q 775 591 1075 516 
Q 1375 441 1709 441 
Q 2250 441 2565 725 
Q 2881 1009 2881 1497 
Q 2881 1984 2565 2268 
Q 2250 2553 1709 2553 
Q 1456 2553 1204 2497 
Q 953 2441 691 2322 
L 691 4666 
z
" transform="scale(0.015625)"/>
       </defs>
       <use xlink:href="#DejaVuSans-30"/>
       <use xlink:href="#DejaVuSans-2e" x="63.623047"/>
       <use xlink:href="#DejaVuSans-35" x="95.410156"/>
      </g>
     </g>
    </g>
    <g id="ytick_6">
     <g id="line2d_12">
      <path d="M 491.111999 296.04 
C 491.111999 269.045517 485.794675 242.313522 475.464333 217.373872 
C 465.133992 192.434222 449.991533 169.771931 430.903551 150.683949 
C 411.815569 131.595967 389.153278 116.453508 364.213628 106.123167 
C 339.273978 95.792825 312.541983 90.475501 285.5475 90.475501 
C 258.553017 90.475501 231.821022 95.792825 206.881372 106.123167 
C 181.941722 116.453508 159.279431 131.595967 140.191449 150.683949 
C 121.103467 169.771931 105.961008 192.434222 95.630667 217.373872 
C 85.300325 242.313522 79.983001 269.045517 79.983001 296.04 
C 79.983001 323.034483 85.300325 349.766478 95.630667 374.706128 
C 105.961008 399.645778 121.103467 422.308069 140.191449 441.396051 
C 159.279431 460.484033 181.941722 475.626492 206.881372 485.956833 
C 231.821022 496.287175 258.553017 501.604499 285.5475 501.604499 
C 312.541983 501.604499 339.273978 496.287175 364.213628 485.956833 
C 389.153278 475.626492 411.815569 460.484033 430.903551 441.396051 
C 449.991533 422.308069 465.133992 399.645778 475.464333 374.706128 
C 485.794675 349.766478 491.111999 323.034483 491.111999 296.04 
" clip-path="url(#p5887a8b44c)" style="fill: none; stroke: #b0b0b0; stroke-width: 0.8; stroke-linecap: square"/>
     </g>
     <g id="text_12">
      <!-- 0.6 -->
      <g transform="translate(475.464333 215.294184) scale(0.1 -0.1)">
       <defs>
        <path id="DejaVuSans-36" d="M 2113 2584 
Q 1688 2584 1439 2293 
Q 1191 2003 1191 1497 
Q 1191 994 1439 701 
Q 1688 409 2113 409 
Q 2538 409 2786 701 
Q 3034 994 3034 1497 
Q 3034 2003 2786 2293 
Q 2538 2584 2113 2584 
z
M 3366 4563 
L 3366 3988 
Q 3128 4100 2886 4159 
Q 2644 4219 2406 4219 
Q 1781 4219 1451 3797 
Q 1122 3375 1075 2522 
Q 1259 2794 1537 2939 
Q 1816 3084 2150 3084 
Q 2853 3084 3261 2657 
Q 3669 2231 3669 1497 
Q 3669 778 3244 343 
Q 2819 -91 2113 -91 
Q 1303 -91 875 529 
Q 447 1150 447 2328 
Q 447 3434 972 4092 
Q 1497 4750 2381 4750 
Q 2619 4750 2861 4703 
Q 3103 4656 3366 4563 
z
" transform="scale(0.015625)"/>
       </defs>
       <use xlink:href="#DejaVuSans-30"/>
       <use xlink:href="#DejaVuSans-2e" x="63.623047"/>
       <use xlink:href="#DejaVuSans-36" x="95.410156"/>
      </g>
     </g>
    </g>
   </g>
   <g id="line2d_13">
    <path d="M 306.096877 296.04 
L 359.540741 167.879948 
L 266.098254 262.352917 
L 158.977222 296.04 
L 280.569442 304.662249 
L 298.915643 319.194302 
L 306.096877 296.04 
" clip-path="url(#p5887a8b44c)" style="fill: none; stroke: #1f77b4; stroke-width: 1.5; stroke-linecap: square"/>
   </g>
   <g id="line2d_14">
    <path d="M 459.016028 296.04 
L 331.982458 215.612293 
L 186.78501 124.97835 
L 163.381104 296.04 
L 215.269039 417.765865 
L 389.550027 476.17766 
L 459.016028 296.04 
" clip-path="url(#p5887a8b44c)" style="fill: none; stroke: #ff7f0e; stroke-width: 1.5; stroke-linecap: square"/>
   </g>
   <g id="patch_5">
    <path d="M 503.455 296.04 
C 503.455 267.424649 497.8184 239.087547 486.867779 212.65041 
C 475.917159 186.213273 459.865479 162.190238 439.631371 141.956129 
C 419.397262 121.722021 395.374227 105.670341 368.93709 94.719721 
C 342.499953 83.7691 314.162851 78.1325 285.5475 78.1325 
C 256.932149 78.1325 228.595047 83.7691 202.15791 94.719721 
C 175.720773 105.670341 151.697738 121.722021 131.463629 141.956129 
C 111.229521 162.190238 95.177841 186.213273 84.227221 212.65041 
C 73.2766 239.087547 67.64 267.424649 67.64 296.04 
C 67.64 324.655351 73.2766 352.992453 84.227221 379.42959 
C 95.177841 405.866727 111.229521 429.889762 131.463629 450.123871 
C 151.697738 470.357979 175.720773 486.409659 202.15791 497.360279 
C 228.595047 508.3109 256.932149 513.9475 285.5475 513.9475 
C 314.162851 513.9475 342.499953 508.3109 368.93709 497.360279 
C 395.374227 486.409659 419.397262 470.357979 439.631371 450.123871 
C 459.865479 429.889762 475.917159 405.866727 486.867779 379.42959 
C 497.8184 352.992453 503.455 324.655351 503.455 296.04 
" style="fill: none; stroke: #000000; stroke-width: 0.8; stroke-linejoin: miter; stroke-linecap: square"/>
   </g>
   <g id="text_13">
    <!-- Balkan vs Nordic Energy Profile Radar (Latest Year) -->
    <g transform="translate(132.66375 72.1325) scale(0.12 -0.12)">
     <defs>
      <path id="DejaVuSans-42" d="M 1259 2228 
L 1259 519 
L 2272 519 
Q 2781 519 3026 730 
Q 3272 941 3272 1375 
Q 3272 1813 3026 2020 
Q 2781 2228 2272 2228 
L 1259 2228 
z
M 1259 4147 
L 1259 2741 
L 2194 2741 
Q 2656 2741 2882 2914 
Q 3109 3088 3109 3444 
Q 3109 3797 2882 3972 
Q 2656 4147 2194 4147 
L 1259 4147 
z
M 628 4666 
L 2241 4666 
Q 2963 4666 3353 4366 
Q 3744 4066 3744 3513 
Q 3744 3084 3544 2831 
Q 3344 2578 2956 2516 
Q 3422 2416 3680 2098 
Q 3938 1781 3938 1306 
Q 3938 681 3513 340 
Q 3088 0 2303 0 
L 628 0 
L 628 4666 
z
" transform="scale(0.015625)"/>
      <path id="DejaVuSans-6b" d="M 581 4863 
L 1159 4863 
L 1159 1991 
L 2875 3500 
L 3609 3500 
L 1753 1863 
L 3688 0 
L 2938 0 
L 1159 1709 
L 1159 0 
L 581 0 
L 581 4863 
z
" transform="scale(0.015625)"/>
      <path id="DejaVuSans-20" transform="scale(0.015625)"/>
      <path id="DejaVuSans-76" d="M 191 3500 
L 800 3500 
L 1894 563 
L 2988 3500 
L 3597 3500 
L 2284 0 
L 1503 0 
L 191 3500 
z
" transform="scale(0.015625)"/>
      <path id="DejaVuSans-4e" d="M 628 4666 
L 1478 4666 
L 3547 763 
L 3547 4666 
L 4159 4666 
L 4159 0 
L 3309 0 
L 1241 3903 
L 1241 0 
L 628 0 
L 628 4666 
z
" transform="scale(0.015625)"/>
      <path id="DejaVuSans-64" d="M 2906 2969 
L 2906 4863 
L 3481 4863 
L 3481 0 
L 2906 0 
L 2906 525 
Q 2725 213 2448 61 
Q 2172 -91 1784 -91 
Q 1150 -91 751 415 
Q 353 922 353 1747 
Q 353 2572 751 3078 
Q 1150 3584 1784 3584 
Q 2172 3584 2448 3432 
Q 2725 3281 2906 2969 
z
M 947 1747 
Q 947 1113 1208 752 
Q 1469 391 1925 391 
Q 2381 391 2643 752 
Q 2906 1113 2906 1747 
Q 2906 2381 2643 2742 
Q 2381 3103 1925 3103 
Q 1469 3103 1208 2742 
Q 947 2381 947 1747 
z
" transform="scale(0.015625)"/>
      <path id="DejaVuSans-45" d="M 628 4666 
L 3578 4666 
L 3578 4134 
L 1259 4134 
L 1259 2753 
L 3481 2753 
L 3481 2222 
L 1259 2222 
L 1259 531 
L 3634 531 
L 3634 0 
L 628 0 
L 628 4666 
z
" transform="scale(0.015625)"/>
      <path id="DejaVuSans-50" d="M 1259 4147 
L 1259 2394 
L 2053 2394 
Q 2494 2394 2734 2622 
Q 2975 2850 2975 3272 
Q 2975 3691 2734 3919 
Q 2494 4147 2053 4147 
L 1259 4147 
z
M 628 4666 
L 2053 4666 
Q 2838 4666 3239 4311 
Q 3641 3956 3641 3272 
Q 3641 2581 3239 2228 
Q 2838 1875 2053 1875 
L 1259 1875 
L 1259 0 
L 628 0 
L 628 4666 
z
" transform="scale(0.015625)"/>
      <path id="DejaVuSans-52" d="M 2841 2188 
Q 3044 2119 3236 1894 
Q 3428 1669 3622 1275 
L 4263 0 
L 3584 0 
L 2988 1197 
Q 2756 1666 2539 1819 
Q 2322 1972 1947 1972 
L 1259 1972 
L 1259 0 
L 628 0 
L 628 4666 
L 2053 4666 
Q 2853 4666 3247 4331 
Q 3641 3997 3641 3322 
Q 3641 2881 3436 2590 
Q 3231 2300 2841 2188 
z
M 1259 4147 
L 1259 2491 
L 2053 2491 
Q 2509 2491 2742 2702 
Q 2975 2913 2975 3322 
Q 2975 3731 2742 3939 
Q 2509 4147 2053 4147 
L 1259 4147 
z
" transform="scale(0.015625)"/>
      <path id="DejaVuSans-28" d="M 1984 4856 
Q 1566 4138 1362 3434 
Q 1159 2731 1159 2009 
Q 1159 1288 1364 580 
Q 1569 -128 1984 -844 
L 1484 -844 
Q 1016 -109 783 600 
Q 550 1309 550 2009 
Q 550 2706 781 3412 
Q 1013 4119 1484 4856 
L 1984 4856 
z
" transform="scale(0.015625)"/>
      <path id="DejaVuSans-4c" d="M 628 4666 
L 1259 4666 
L 1259 531 
L 3531 531 
L 3531 0 
L 628 0 
L 628 4666 
z
" transform="scale(0.015625)"/>
      <path id="DejaVuSans-59" d="M -13 4666 
L 666 4666 
L 1959 2747 
L 3244 4666 
L 3922 4666 
L 2272 2222 
L 2272 0 
L 1638 0 
L 1638 2222 
L -13 4666 
z
" transform="scale(0.015625)"/>
      <path id="DejaVuSans-29" d="M 513 4856 
L 1013 4856 
Q 1481 4119 1714 3412 
Q 1947 2706 1947 2009 
Q 1947 1309 1714 600 
Q 1481 -109 1013 -844 
L 513 -844 
Q 928 -128 1133 580 
Q 1338 1288 1338 2009 
Q 1338 2731 1133 3434 
Q 928 4138 513 4856 
z
" transform="scale(0.015625)"/>
     </defs>
     <use xlink:href="#DejaVuSans-42"/>
     <use xlink:href="#DejaVuSans-61" x="68.603516"/>
     <use xlink:href="#DejaVuSans-6c" x="129.882812"/>
     <use xlink:href="#DejaVuSans-6b" x="157.666016"/>
     <use xlink:href="#DejaVuSans-61" x="213.826172"/>
     <use xlink:href="#DejaVuSans-6e" x="275.105469"/>
     <use xlink:href="#DejaVuSans-20" x="338.484375"/>
     <use xlink:href="#DejaVuSans-76" x="370.271484"/>
     <use xlink:href="#DejaVuSans-73" x="429.451172"/>
     <use xlink:href="#DejaVuSans-20" x="481.550781"/>
     <use xlink:href="#DejaVuSans-4e" x="513.337891"/>
     <use xlink:href="#DejaVuSans-6f" x="588.142578"/>
     <use xlink:href="#DejaVuSans-72" x="649.324219"/>
     <use xlink:href="#DejaVuSans-64" x="688.6875"/>
     <use xlink:href="#DejaVuSans-69" x="752.164062"/>
     <use xlink:href="#DejaVuSans-63" x="779.947266"/>
     <use xlink:href="#DejaVuSans-20" x="834.927734"/>
     <use xlink:href="#DejaVuSans-45" x="866.714844"/>
     <use xlink:href="#DejaVuSans-6e" x="929.898438"/>
     <use xlink:href="#DejaVuSans-65" x="993.277344"/>
     <use xlink:href="#DejaVuSans-72" x="1054.800781"/>
     <use xlink:href="#DejaVuSans-67" x="1094.164062"/>
     <use xlink:href="#DejaVuSans-79" x="1157.640625"/>
     <use xlink:href="#DejaVuSans-20" x="1216.820312"/>
     <use xlink:href="#DejaVuSans-50" x="1248.607422"/>
     <use xlink:href="#DejaVuSans-72" x="1307.160156"/>
     <use xlink:href="#DejaVuSans-6f" x="1346.023438"/>
     <use xlink:href="#DejaVuSans-66" x="1407.205078"/>
     <use xlink:href="#DejaVuSans-69" x="1442.410156"/>
     <use xlink:href="#DejaVuSans-6c" x="1470.193359"/>
     <use xlink:href="#DejaVuSans-65" x="1497.976562"/>
     <use xlink:href="#DejaVuSans-20" x="1559.5"/>
     <use xlink:href="#DejaVuSans-52" x="1591.287109"/>
     <use xlink:href="#DejaVuSans-61" x="1658.519531"/>
     <use xlink:href="#DejaVuSans-64" x="1719.798828"/>
     <use xlink:href="#DejaVuSans-61" x="1783.275391"/>
     <use xlink:href="#DejaVuSans-72" x="1844.554688"/>
     <use xlink:href="#DejaVuSans-20" x="1885.667969"/>
     <use xlink:href="#DejaVuSans-28" x="1917.455078"/>
     <use xlink:href="#DejaVuSans-4c" x="1956.46875"/>
     <use xlink:href="#DejaVuSans-61" x="2012.181641"/>
     <use xlink:href="#DejaVuSans-74" x="2073.460938"/>
     <use xlink:href="#DejaVuSans-65" x="2112.669922"/>
     <use xlink:href="#DejaVuSans-73" x="2174.193359"/>
     <use xlink:href="#DejaVuSans-74" x="2226.292969"/>
     <use xlink:href="#DejaVuSans-20" x="2265.501953"/>
     <use xlink:href="#DejaVuSans-59" x="2297.289062"/>
     <use xlink:href="#DejaVuSans-65" x="2345.123047"/>
     <use xlink:href="#DejaVuSans-61" x="2406.646484"/>
     <use xlink:href="#DejaVuSans-72" x="2467.925781"/>
     <use xlink:href="#DejaVuSans-29" x="2509.039062"/>
    </g>
   </g>
   <g id="legend_1">
    <g id="patch_6">
     <path d="M 430.606563 115.48875 
L 496.455 115.48875 
Q 498.455 115.48875 498.455 113.48875 
L 498.455 85.1325 
Q 498.455 83.1325 496.455 83.1325 
L 430.606563 83.1325 
Q 428.606563 83.1325 428.606563 85.1325 
L 428.606563 113.48875 
Q 428.606563 115.48875 430.606563 115.48875 
z
" style="fill: #ffffff; opacity: 0.8; stroke: #cccccc; stroke-linejoin: miter"/>
    </g>
    <g id="line2d_15">
     <path d="M 432.606563 91.230937 
L 442.606563 91.230937 
L 452.606563 91.230937 
" style="fill: none; stroke: #1f77b4; stroke-width: 1.5; stroke-linecap: square"/>
    </g>
    <g id="text_14">
     <!-- Balkan -->
     <g transform="translate(460.606563 94.730937) scale(0.1 -0.1)">
      <use xlink:href="#DejaVuSans-42"/>
      <use xlink:href="#DejaVuSans-61" x="68.603516"/>
      <use xlink:href="#DejaVuSans-6c" x="129.882812"/>
      <use xlink:href="#DejaVuSans-6b" x="157.666016"/>
      <use xlink:href="#DejaVuSans-61" x="213.826172"/>
      <use xlink:href="#DejaVuSans-6e" x="275.105469"/>
     </g>
    </g>
    <g id="line2d_16">
     <path d="M 432.606563 105.909063 
L 442.606563 105.909063 
L 452.606563 105.909063 
" style="fill: none; stroke: #ff7f0e; stroke-width: 1.5; stroke-linecap: square"/>
    </g>
    <g id="text_15">
     <!-- Nordic -->
     <g transform="translate(460.606563 109.409063) scale(0.1 -0.1)">
      <use xlink:href="#DejaVuSans-4e"/>
      <use xlink:href="#DejaVuSans-6f" x="74.804688"/>
      <use xlink:href="#DejaVuSans-72" x="135.986328"/>
      <use xlink:href="#DejaVuSans-64" x="175.349609"/>
      <use xlink:href="#DejaVuSans-69" x="238.826172"/>
      <use xlink:href="#DejaVuSans-63" x="266.609375"/>
     </g>
    </g>
   </g>
  </g>
 </g>
 <defs>
  <clipPath id="p5887a8b44c">
   <path d="M 503.455 296.04 
C 503.455 267.424649 497.8184 239.087547 486.867779 212.65041 
C 475.917159 186.213273 459.865479 162.190238 439.631371 141.956129 
C 419.397262 121.722021 395.374227 105.670341 368.93709 94.719721 
C 342.499953 83.7691 314.162851 78.1325 285.5475 78.1325 
C 256.932149 78.1325 228.595047 83.7691 202.15791 94.719721 
C 175.720773 105.670341 151.697738 121.722021 131.463629 141.956129 
C 111.229521 162.190238 95.177841 186.213273 84.227221 212.65041 
C 73.2766 239.087547 67.64 267.424649 67.64 296.04 
C 67.64 324.655351 73.2766 352.992453 84.227221 379.42959 
C 95.177841 405.866727 111.229521 429.889762 131.463629 450.123871 
C 151.697738 470.357979 175.720773 486.409659 202.15791 497.360279 
C 228.595047 508.3109 256.932149 513.9475 285.5475 513.9475 
C 314.162851 513.9475 342.499953 508.3109 368.93709 497.360279 
C 395.374227 486.409659 419.397262 470.357979 439.631371 450.123871 
C 459.865479 429.889762 475.917159 405.866727 486.867779 379.42959 
C 497.8184 352.992453 503.455 324.655351 503.455 296.04 
M 285.5475 296.04 
C 285.5475 296.04 285.5475 296.04 285.5475 296.04 
C 285.5475 296.04 285.5475 296.04 285.5475 296.04 
C 285.5475 296.04 285.5475 296.04 285.5475 296.04 
C 285.5475 296.04 285.5475 296.04 285.5475 296.04 
C 285.5475 296.04 285.5475 296.04 285.5475 296.04 
C 285.5475 296.04 285.5475 296.04 285.5475 296.04 
C 285.5475 296.04 285.5475 296.04 285.5475 296.04 
C 285.5475 296.04 285.5475 296.04 285.5475 296.04 
C 285.5475 296.04 285.5475 296.04 285.5475 296.04 
C 285.5475 296.04 285.5475 296.04 285.5475 296.04 
C 285.5475 296.04 285.5475 296.04 285.5475 296.04 
C 285.5475 296.04 285.5475 296.04 285.5475 296.04 
C 285.5475 296.04 285.5475 296.04 285.5475 296.04 
C 285.5475 296.04 285.5475 296.04 285.5475 296.04 
C 285.5475 296.04 285.5475 296.04 285.5475 296.04 
C 285.5475 296.04 285.5475 296.04 285.5475 296.04 
z
"/>
  </clipPath>
 </defs>
</svg>
